<svg width="78" height="77" viewBox="0 0 78 77" fill="none" xmlns="http://www.w3.org/2000/svg">
<g opacity="0.8">
<g filter="url(#filter0_iii_2073_834)">
<circle cx="39.1054" cy="38.2221" r="38.2226" fill="#73ACEA"/>
</g>
<circle cx="39.1054" cy="38.2221" r="37.2425" stroke="url(#paint0_linear_2073_834)" stroke-width="1.96013"/>
</g>
<g filter="url(#filter1_di_2073_834)">
<path d="M53.5109 41.3541C53.5066 41.6644 53.4052 41.9658 53.2206 42.2164C53.036 42.4671 52.7773 42.6547 52.4805 42.7533L49.8268 43.6208C48.9901 43.9051 48.2348 44.385 47.6249 45.02C46.9891 45.634 46.5059 46.3861 46.2133 47.2168L45.2959 49.8333C45.1913 50.1219 45.0051 50.3745 44.7595 50.5609C44.499 50.7424 44.1886 50.8401 43.8702 50.8408C43.5552 50.8469 43.2471 50.7484 42.9951 50.5609C42.7376 50.3772 42.545 50.1177 42.4446 49.8193L41.5553 47.1888C41.28 46.3619 40.8139 45.61 40.1939 44.993C39.574 44.376 38.8173 43.911 37.9842 43.6348L35.3306 42.7673C35.0321 42.663 34.7717 42.473 34.5825 42.2216C34.4413 42.0311 34.348 41.8099 34.3106 41.5765C34.2731 41.343 34.2925 41.1041 34.367 40.8795C34.4416 40.655 34.5693 40.4514 34.7393 40.2857C34.9094 40.12 35.1169 39.9969 35.3447 39.9269L37.9842 39.0594C38.8267 38.7874 39.5928 38.3227 40.2205 37.7029C40.8483 37.083 41.3201 36.3254 41.5977 35.4914L42.4728 32.8888C42.5583 32.5982 42.7367 32.3429 42.981 32.1612C43.2237 31.9616 43.5268 31.8483 43.842 31.8394C44.1633 31.8188 44.482 31.9076 44.7454 32.0913C45.016 32.2616 45.2201 32.5182 45.3241 32.8189L46.2133 35.4774C46.4877 36.3125 46.9565 37.0719 47.5818 37.6942C48.2071 38.3165 48.9713 38.7841 49.8127 39.0594L52.4522 39.9689C52.7494 40.061 53.0074 40.2479 53.1862 40.5006C53.379 40.746 53.4922 41.0436 53.5109 41.3541ZM39.5792 31.6281C39.5752 31.915 39.4823 32.1936 39.3131 32.4264C39.1439 32.6592 38.9067 32.8348 38.6335 32.9294L36.7421 33.545C36.2082 33.7316 35.7251 34.0381 35.3306 34.4405C34.9284 34.8347 34.6199 35.3127 34.4272 35.8398L33.7638 37.7147C33.6729 37.9761 33.5059 38.205 33.2839 38.3723C33.0436 38.5394 32.7586 38.6319 32.4652 38.6382C32.1741 38.6332 31.8917 38.539 31.6567 38.3687C31.4217 38.1984 31.2456 37.9602 31.1525 37.6867L30.5314 35.8118C30.3432 35.2825 30.034 34.8037 29.628 34.4126C29.2304 34.0139 28.7482 33.708 28.2165 33.5171L26.311 32.8874C26.0347 32.7993 25.7962 32.6219 25.6335 32.3837C25.4575 32.1546 25.3632 31.8741 25.3653 31.5861C25.3672 31.2945 25.4609 31.0108 25.6335 30.7746C25.8098 30.55 26.0511 30.384 26.3251 30.2989L28.2165 29.6692C28.7482 29.4782 29.2304 29.1723 29.628 28.7737C30.0374 28.3861 30.3465 27.9062 30.5314 27.3745L31.1666 25.5275C31.2512 25.2628 31.4133 25.029 31.6324 24.8559C31.8579 24.6794 32.1356 24.5811 32.4228 24.5761C32.7139 24.5518 33.0042 24.6312 33.2415 24.7999C33.4845 24.9591 33.6718 25.1888 33.7779 25.4576L34.4131 27.3745C34.6036 27.9034 34.9128 28.3819 35.3165 28.7737C35.7141 29.1723 36.1963 29.4782 36.728 29.6692L38.6335 30.3268C38.8992 30.4252 39.1288 30.6006 39.2925 30.8302C39.4562 31.0599 39.5462 31.333 39.551 31.6141L39.5792 31.6281Z" fill="#F6F6F6"/>
</g>
<defs>
<filter id="filter0_iii_2073_834" x="0.882812" y="-5.00049" width="76.4453" height="85.8136" filterUnits="userSpaceOnUse" color-interpolation-filters="sRGB">
<feFlood flood-opacity="0" result="BackgroundImageFix"/>
<feBlend mode="normal" in="SourceGraphic" in2="BackgroundImageFix" result="shape"/>
<feColorMatrix in="SourceAlpha" type="matrix" values="0 0 0 0 0 0 0 0 0 0 0 0 0 0 0 0 0 0 127 0" result="hardAlpha"/>
<feMorphology radius="5.46037" operator="erode" in="SourceAlpha" result="effect1_innerShadow_2073_834"/>
<feOffset/>
<feGaussianBlur stdDeviation="7.53532"/>
<feComposite in2="hardAlpha" operator="arithmetic" k2="-1" k3="1"/>
<feColorMatrix type="matrix" values="0 0 0 0 1 0 0 0 0 1 0 0 0 0 1 0 0 0 0.25 0"/>
<feBlend mode="normal" in2="shape" result="effect1_innerShadow_2073_834"/>
<feColorMatrix in="SourceAlpha" type="matrix" values="0 0 0 0 0 0 0 0 0 0 0 0 0 0 0 0 0 0 127 0" result="hardAlpha"/>
<feOffset dy="4.3683"/>
<feGaussianBlur stdDeviation="6.11562"/>
<feComposite in2="hardAlpha" operator="arithmetic" k2="-1" k3="1"/>
<feColorMatrix type="matrix" values="0 0 0 0 1 0 0 0 0 1 0 0 0 0 1 0 0 0 0.64 0"/>
<feBlend mode="normal" in2="effect1_innerShadow_2073_834" result="effect2_innerShadow_2073_834"/>
<feColorMatrix in="SourceAlpha" type="matrix" values="0 0 0 0 0 0 0 0 0 0 0 0 0 0 0 0 0 0 127 0" result="hardAlpha"/>
<feOffset dy="-5"/>
<feGaussianBlur stdDeviation="6.41944"/>
<feComposite in2="hardAlpha" operator="arithmetic" k2="-1" k3="1"/>
<feColorMatrix type="matrix" values="0 0 0 0 1 0 0 0 0 1 0 0 0 0 1 0 0 0 1 0"/>
<feBlend mode="normal" in2="effect2_innerShadow_2073_834" result="effect3_innerShadow_2073_834"/>
</filter>
<filter id="filter1_di_2073_834" x="8.30354" y="11.9417" width="62.2689" height="60.3927" filterUnits="userSpaceOnUse" color-interpolation-filters="sRGB">
<feFlood flood-opacity="0" result="BackgroundImageFix"/>
<feColorMatrix in="SourceAlpha" type="matrix" values="0 0 0 0 0 0 0 0 0 0 0 0 0 0 0 0 0 0 127 0" result="hardAlpha"/>
<feOffset dy="4.43161"/>
<feGaussianBlur stdDeviation="8.53085"/>
<feComposite in2="hardAlpha" operator="out"/>
<feColorMatrix type="matrix" values="0 0 0 0 0.475148 0 0 0 0 0.50019 0 0 0 0 0.615385 0 0 0 0.81 0"/>
<feBlend mode="normal" in2="BackgroundImageFix" result="effect1_dropShadow_2073_834"/>
<feBlend mode="normal" in="SourceGraphic" in2="effect1_dropShadow_2073_834" result="shape"/>
<feColorMatrix in="SourceAlpha" type="matrix" values="0 0 0 0 0 0 0 0 0 0 0 0 0 0 0 0 0 0 127 0" result="hardAlpha"/>
<feOffset dy="4.43161"/>
<feGaussianBlur stdDeviation="2.76975"/>
<feComposite in2="hardAlpha" operator="arithmetic" k2="-1" k3="1"/>
<feColorMatrix type="matrix" values="0 0 0 0 1 0 0 0 0 1 0 0 0 0 1 0 0 0 1 0"/>
<feBlend mode="normal" in2="shape" result="effect2_innerShadow_2073_834"/>
</filter>
<linearGradient id="paint0_linear_2073_834" x1="39.1054" y1="37.9158" x2="39.1054" y2="76.4448" gradientUnits="userSpaceOnUse">
<stop stop-color="#F7F7FB" stop-opacity="0"/>
<stop offset="1" stop-color="#F7F7FB"/>
</linearGradient>
</defs>
</svg>
