<svg width="30" height="27" viewBox="0 0 30 27" fill="none" xmlns="http://www.w3.org/2000/svg">
<path d="M11.4438 1.71802C13.631 1.71768 15.7436 2.51342 17.3872 3.9563C19.0309 5.39922 20.0935 7.39104 20.3765 9.55981C20.4043 9.77323 20.4788 9.97778 20.5942 10.1594L23.0239 13.9827L21.3442 14.7024C20.8022 14.9345 20.4507 15.4672 20.4507 16.0569L20.4507 19.8958C20.4506 20.1997 20.3297 20.4914 20.1147 20.7063C19.8998 20.9212 19.6081 21.0422 19.3042 21.0422L16.6851 21.0422C15.8715 21.0424 15.2118 21.7013 15.2114 22.5149L15.2104 24.9719L6.3667 24.9719L6.3667 21.6067C6.3667 19.675 5.6477 17.8943 4.41357 16.3547L4.4126 16.3547C3.35226 15.0304 2.68821 13.4329 2.49561 11.7473C2.30299 10.0614 2.59006 8.35509 3.32471 6.82544C4.05934 5.29585 5.21169 4.00541 6.64795 3.10181C7.99468 2.25458 9.54014 1.77982 11.1265 1.72388L11.4438 1.71802Z" stroke="#F89F56" stroke-width="2.94766" stroke-linejoin="round"/>
</svg>
