<svg width="27" height="28" viewBox="0 0 27 28" fill="none" xmlns="http://www.w3.org/2000/svg">
<g clip-path="url(#clip0_3_2435)">
<path d="M9.09747 3.32693C9.36545 3.35509 9.63071 3.41496 9.88483 3.50591C10.204 3.62019 10.3937 3.87773 10.4527 4.16654C10.5107 4.45086 10.4431 4.76573 10.2606 5.02225L10.1361 5.1977C9.83157 5.62546 9.26641 5.65519 8.85728 5.61219C8.19645 5.54299 7.61661 6.01843 7.54429 6.70653C7.47891 7.3297 7.86912 7.86992 8.43657 8.02675L11.6703 7.48289C12.3004 7.37696 12.8956 7.80636 12.9928 8.43788C13.0882 9.0583 12.6658 9.64027 12.0465 9.7426L8.02439 10.4069C7.36267 10.515 6.75214 10.8441 6.28901 11.3439C5.82578 11.8439 5.53591 12.4871 5.46546 13.1721L5.4523 13.3347C5.35913 15.0019 6.54549 16.4276 8.169 16.5985C9.09108 16.6954 10.077 16.2586 11.0539 15.7862C11.634 15.5058 12.3215 15.7669 12.5769 16.3558C12.8238 16.925 12.5751 17.5916 12.01 17.8535C10.7498 18.4371 9.31536 19.0295 7.9288 18.8837C5.01977 18.5777 2.91208 15.9033 3.2239 12.9365C3.40931 11.1732 4.42937 9.65236 5.89159 8.80012C5.44128 8.13684 5.2134 7.32149 5.30273 6.47093C5.50436 4.55253 7.21244 3.12907 9.09747 3.32693Z" fill="#F89F56" stroke="#F89F56" stroke-width="0.39888"/>
<path d="M16.436 12.9704C17.0176 12.2824 18.076 12.3469 18.5804 13.0554L18.6735 13.2066L18.6802 13.2181L18.6801 13.219L18.7542 13.383L18.7573 13.3902L18.7596 13.3963L22.4488 23.5141L22.4526 23.5243L22.4517 23.5242L22.4803 23.6166L22.4823 23.6256L22.5037 23.73C22.5881 24.2576 22.3004 24.7946 21.7867 24.993L21.7857 24.9929C21.2361 25.2044 20.6314 24.9505 20.3798 24.4298L20.3758 24.4215L20.5598 24.3437L20.3759 24.4206L20.3382 24.3312L20.3342 24.3219L19.6117 22.34L13.6202 21.7103L12.5004 23.4985L12.4956 23.5069L12.4392 23.5864L12.4334 23.5946C12.079 24.0517 11.4348 24.1745 10.9412 23.8531C10.4169 23.5113 10.2678 22.8015 10.601 22.2689L16.3131 13.1392L16.3167 13.1336L16.3213 13.1273L16.4269 12.9822L16.436 12.9704ZM14.9773 19.5424L18.735 19.9374L17.2603 15.89L14.9773 19.5424Z" fill="#F89F56" stroke="#F89F56" stroke-width="0.39888" stroke-linecap="round"/>
</g>
<defs>
<clipPath id="clip0_3_2435">
<rect width="23.9328" height="23.9328" fill="white" transform="translate(2.68945 0.848145) rotate(6)"/>
</clipPath>
</defs>
</svg>
