<svg width="34" height="34" viewBox="0 0 34 34" fill="none" xmlns="http://www.w3.org/2000/svg">
<path d="M14.2151 4.53768C16.398 4.67353 18.4569 5.59927 20.0075 7.1417C21.5581 8.68416 22.4947 10.7383 22.642 12.9205C22.6566 13.1352 22.7181 13.344 22.8221 13.5325L25.009 17.4996L23.2877 18.1133C22.7322 18.3113 22.3483 18.821 22.3116 19.4096L22.0725 23.241C22.0535 23.5443 21.9146 23.8279 21.6868 24.029C21.4588 24.2301 21.1602 24.3328 20.8569 24.3138L18.2428 24.1508C17.4308 24.1002 16.7314 24.7168 16.6803 25.5288L16.5264 27.981L7.69978 27.4303L7.90933 24.0716C8.02961 22.1437 7.42289 20.3217 6.28702 18.7082L6.28605 18.7082C5.31023 17.3204 4.74695 15.6846 4.65967 13.9903C4.5724 12.2957 4.96517 10.6106 5.79364 9.12963C6.62209 7.64875 7.85256 6.43257 9.34229 5.62015C10.7392 4.85843 12.3112 4.48082 13.8979 4.52376L14.2151 4.53768Z" stroke="#F89F56" stroke-width="2.94766" stroke-linejoin="round"/>
</svg>
