<svg width="48" height="48" viewBox="0 0 48 48" fill="none" xmlns="http://www.w3.org/2000/svg">
<path d="M24 0C37.2548 0 48 10.7452 48 24C48 37.2548 37.2548 48 24 48C10.7452 48 0 37.2548 0 24C0 10.7452 10.7452 0 24 0ZM23.998 11.2002C20.5241 11.2002 20.0876 11.2152 18.7227 11.2773C17.3602 11.3397 16.43 11.5556 15.6162 11.8721C14.7743 12.199 14.0601 12.6369 13.3486 13.3486C12.6367 14.06 12.1991 14.7737 11.8711 15.6152C11.5538 16.4293 11.3377 17.3598 11.2764 18.7217C11.2153 20.087 11.1992 20.524 11.1992 24C11.1992 27.4763 11.2145 27.912 11.2764 29.2773C11.3391 30.6398 11.5549 31.57 11.8711 32.3838C12.1983 33.2256 12.6359 33.9399 13.3477 34.6514C14.0588 35.3633 14.773 35.802 15.6143 36.1289C16.4286 36.4454 17.3594 36.6603 18.7217 36.7227C20.0868 36.7848 20.5232 36.8008 23.999 36.8008C27.4752 36.8008 27.9103 36.7848 29.2754 36.7227C30.6379 36.6603 31.5695 36.4454 32.3838 36.1289C33.2253 35.802 33.9383 35.3632 34.6494 34.6514C35.3614 33.9399 35.799 33.2254 36.127 32.3838C36.4416 31.5697 36.6577 30.6394 36.7217 29.2773C36.783 27.912 36.7988 27.4763 36.7988 24C36.7988 20.5242 36.783 20.0878 36.7217 18.7227C36.6577 17.36 36.4416 16.4291 36.127 15.6152C35.799 14.7736 35.3613 14.06 34.6494 13.3486C33.9374 12.6366 33.2255 12.1987 32.3828 11.8721C31.5669 11.5556 30.6359 11.3397 29.2734 11.2773C27.9086 11.2152 27.4736 11.2002 23.998 11.2002Z" fill="#434449"/>
<path d="M22.8525 13.5064C23.1933 13.5059 23.5739 13.5064 24.001 13.5064C27.4186 13.5064 27.8242 13.5193 29.1738 13.5806C30.4214 13.6377 31.0986 13.8459 31.5498 14.0211C32.1471 14.2531 32.5737 14.5301 33.0215 14.9781C33.4695 15.4261 33.746 15.8534 33.9785 16.4507C34.1537 16.9014 34.3631 17.5788 34.4199 18.8267C34.4812 20.1759 34.4941 20.5818 34.4941 23.9976C34.4941 27.4129 34.4812 27.8186 34.4199 29.1675C34.3629 30.4154 34.1537 31.0928 33.9785 31.5435C33.7466 32.1407 33.4693 32.5666 33.0215 33.0142C32.5735 33.4622 32.1474 33.7393 31.5498 33.9713C31.0992 34.1472 30.4216 34.3556 29.1738 34.4127C27.8245 34.474 27.4186 34.4879 24.001 34.4879C20.5835 34.4879 20.1783 34.474 18.8291 34.4127C17.5811 34.3551 16.9036 34.1465 16.4521 33.9713C15.8549 33.7393 15.4284 33.4621 14.9805 33.0142C14.5325 32.5662 14.255 32.1401 14.0225 31.5425C13.8473 31.0919 13.6378 30.4144 13.5811 29.1666C13.5197 27.8175 13.5078 27.4116 13.5078 23.9937C13.5078 20.5758 13.5197 20.1721 13.5811 18.8228C13.6381 17.5751 13.8473 16.898 14.0225 16.4468C14.2545 15.8495 14.5325 15.4231 14.9805 14.9752C15.4285 14.5272 15.8549 14.2497 16.4521 14.0172C16.9034 13.8411 17.5811 13.6331 18.8291 13.5757C20.0097 13.5224 20.4674 13.5061 22.8525 13.5035V13.5064ZM23.665 17.4351C20.1919 17.6111 17.4297 20.4838 17.4297 24.0005C17.4299 27.6305 20.3729 30.5718 24.0029 30.5718C27.633 30.5718 30.575 27.6306 30.5752 24.0005C30.5752 20.3704 27.6331 17.4274 24.0029 17.4273L23.665 17.4351ZM30.833 15.6314C29.985 15.6314 29.2969 16.3193 29.2969 17.1675C29.2969 18.0155 29.985 18.7037 30.833 18.7037C31.6809 18.7036 32.3691 18.0155 32.3691 17.1675C32.3691 16.3196 31.681 15.6315 30.833 15.6314Z" fill="#434449"/>
<path d="M24.0012 19.7334C26.3575 19.7334 28.2679 21.6436 28.2679 24.0001C28.2679 26.3564 26.3575 28.2668 24.0012 28.2668C21.6447 28.2668 19.7345 26.3564 19.7345 24.0001C19.7345 21.6436 21.6447 19.7334 24.0012 19.7334Z" fill="#434449"/>
</svg>
