<svg width="48" height="48" viewBox="0 0 48 48" fill="none" xmlns="http://www.w3.org/2000/svg">
<path d="M24 0C37.2548 0 48 10.7452 48 24C48 37.2548 37.2548 48 24 48C10.7452 48 0 37.2548 0 24C0 10.7452 10.7452 0 24 0ZM35.9482 15.707C35.7733 14.2352 33.9884 14.5587 32.9951 14.8896C27.8899 16.8322 22.835 18.9186 17.8008 21.042C15.0577 22.2573 12.1341 23.4671 9.46777 24.8867L8.9375 25.1738C7.5705 26.1747 9.89411 26.8358 11.4795 27.4922C13.2476 28.0355 15.3092 28.8682 17.0781 27.8945C20.5413 25.9051 23.7455 23.5029 27.0303 21.2393C27.6281 20.8567 29.4405 19.6087 28.8271 21.0898C26.5532 23.5766 24.0087 25.5856 21.6094 27.9502C20.7681 28.6337 19.8943 30.0086 20.8359 30.9658C23.7119 32.9792 26.6483 34.9278 29.5615 36.8955C30.7737 37.8632 32.6681 37.0807 32.9346 35.5684C33.7081 31.0282 34.5012 26.4887 35.1875 21.9336C35.4579 19.8622 35.8524 17.7906 35.9482 15.707Z" fill="#434449"/>
</svg>
