<svg width="28" height="28" viewBox="0 0 28 28" fill="none" xmlns="http://www.w3.org/2000/svg">
<path d="M27.5948 18.4946C27.5713 18.8025 27.4519 19.0955 27.2531 19.333C27.0542 19.5705 26.7857 19.7408 26.4848 19.8203L23.7956 20.5175C22.947 20.748 22.1671 21.1778 21.522 21.7707C20.8526 22.3411 20.3261 23.058 19.9841 23.8649L18.9108 26.4066C18.7891 26.6868 18.5885 26.9261 18.333 27.096C18.0631 27.2601 17.7487 27.3379 17.4325 27.3188C17.1192 27.3054 16.8194 27.1885 16.5807 26.9867C16.3363 26.7883 16.1611 26.5186 16.0799 26.2161L15.3598 23.5485C15.1376 22.7102 14.7212 21.9346 14.1438 21.2834C13.5663 20.6322 12.8437 20.1235 12.0334 19.7976L9.45167 18.7716C9.16173 18.6495 8.91487 18.4448 8.74252 18.1833C8.61409 17.9854 8.53521 17.7599 8.51246 17.5258C8.48971 17.2916 8.52374 17.0555 8.61172 16.8371C8.6997 16.6187 8.83909 16.4244 9.01825 16.2704C9.19741 16.1164 9.41116 16.007 9.64169 15.9516L12.3169 15.2536C13.1704 15.0357 13.96 14.6216 14.6219 14.0449C15.2837 13.4682 15.7992 12.7451 16.1266 11.9339L17.157 9.40347C17.2599 9.12012 17.4528 8.87761 17.7068 8.71235C17.9601 8.52915 18.2682 8.43542 18.5818 8.44609C18.9022 8.4455 19.2132 8.55351 19.4634 8.75219C19.7216 8.93814 19.9084 9.20563 19.993 9.51065L20.7115 12.206C20.9322 13.0524 21.3507 13.8357 21.9331 14.4924C22.5156 15.1492 23.2456 15.661 24.0642 15.9865L26.6293 17.0533C26.9186 17.1632 27.1633 17.3648 27.3253 17.6268C27.5015 17.8825 27.5954 18.1851 27.5948 18.4946ZM14.3614 7.97213C14.3396 8.25676 14.23 8.52776 14.0476 8.74845C13.8652 8.96913 13.6187 9.12882 13.3415 9.20588L11.4249 9.70011C10.8831 9.85234 10.3844 10.1268 9.9676 10.502C9.54382 10.8686 9.20774 11.3241 8.98374 11.8357L8.2087 13.6566C8.10222 13.9106 7.92219 14.1275 7.69133 14.28C7.44232 14.431 7.1536 14.5052 6.8618 14.4933C6.57303 14.4703 6.29842 14.3593 6.07558 14.1756C5.85274 13.9918 5.69259 13.7444 5.61705 13.467L5.11642 11.5665C4.96227 11.0292 4.68488 10.5345 4.30595 10.1209C3.93572 9.70036 3.47582 9.36669 2.9596 9.14407L1.10614 8.40067C0.837219 8.29602 0.61131 8.10512 0.464477 7.85843C0.303928 7.61999 0.227634 7.33557 0.247546 7.04973C0.267501 6.76024 0.378203 6.48426 0.564178 6.26037C0.753252 6.04822 1.00316 5.89834 1.28055 5.83076L3.19802 5.32262C3.73791 5.16589 4.23571 4.89197 4.65533 4.52073C5.08588 4.16117 5.42262 3.70368 5.6392 3.18709L6.38446 1.39215C6.48488 1.13447 6.6604 0.912327 6.88868 0.753994C7.12356 0.592657 7.40543 0.512229 7.69105 0.525047C7.98162 0.518982 8.26497 0.615797 8.49024 0.798112C8.72165 0.971194 8.89348 1.21093 8.98219 1.48447L9.49423 3.4276C9.65071 3.96468 9.92806 4.45908 10.3047 4.87319C10.6749 5.29371 11.1348 5.62738 11.6511 5.85L13.5028 6.62119C13.7606 6.73534 13.9777 6.92378 14.126 7.16196C14.2744 7.40015 14.3469 7.67701 14.3342 7.95649L14.3614 7.97213Z" fill="#8AB7EA"/>
</svg>
