<svg width="388" height="212" viewBox="0 0 388 212" fill="none" xmlns="http://www.w3.org/2000/svg">
<g opacity="0.3" filter="url(#filter0_f_165_1649)">
<ellipse cx="192.848" cy="169.299" rx="116.882" ry="63.8314" fill="#8ECCA9"/>
</g>
<g filter="url(#filter1_d_165_1649)">
<rect x="54.207" y="161.394" width="63.2269" height="63.2269" rx="17.7367" transform="rotate(-4.4666 54.207 161.394)" fill="#FCFCFC" shape-rendering="crispEdges"/>
<g clip-path="url(#clip0_165_1649)">
<path d="M74.3833 189.544C74.1363 189.564 73.9072 189.68 73.7463 189.869C73.5854 190.057 73.5059 190.301 73.5253 190.548L73.8176 194.272C73.837 194.519 73.9537 194.749 74.142 194.909C74.3303 195.07 74.5748 195.15 74.8218 195.13C75.0687 195.111 75.2978 194.994 75.4587 194.806C75.6196 194.618 75.6991 194.373 75.6797 194.126L75.5793 192.846C76.002 193.172 76.4998 193.515 77.077 193.851C79.3583 195.178 82.8372 196.375 87.6923 195.994C92.5475 195.613 95.797 193.887 97.8432 192.22C98.3597 191.799 98.7993 191.383 99.166 190.995L99.2664 192.275C99.2858 192.522 99.4025 192.751 99.5908 192.912C99.7791 193.073 100.024 193.152 100.271 193.133C100.518 193.113 100.747 192.997 100.908 192.808C101.068 192.62 101.148 192.376 101.129 192.129L100.836 188.404C100.817 188.158 100.7 187.928 100.512 187.768C100.324 187.607 100.079 187.527 99.8321 187.546L96.1078 187.839C95.8609 187.858 95.6318 187.975 95.4709 188.163C95.31 188.352 95.2305 188.596 95.2499 188.843C95.2693 189.09 95.3859 189.319 95.5743 189.48C95.7626 189.641 96.0071 189.72 96.254 189.701L97.9423 189.568C97.6018 189.94 97.1795 190.353 96.6628 190.772C94.8962 192.214 92.0028 193.782 87.5462 194.132C83.0895 194.481 79.9882 193.385 78.0169 192.235C77.5104 191.94 77.0253 191.61 76.5653 191.246L78.2536 191.114C78.5006 191.095 78.7297 190.978 78.8906 190.79C79.0515 190.601 79.131 190.357 79.1116 190.11C79.0922 189.863 78.9756 189.634 78.7872 189.473C78.5989 189.312 78.3544 189.232 78.1075 189.252L74.3833 189.544Z" fill="#44474E" fill-opacity="0.4"/>
<path d="M81.7279 183.659C81.7085 183.412 81.788 183.168 81.9489 182.979C82.1098 182.791 82.3389 182.674 82.5859 182.655L90.655 182.022C90.9019 182.002 91.1464 182.082 91.3348 182.243C91.5231 182.404 91.6398 182.633 91.6591 182.88C91.6785 183.126 91.599 183.371 91.4381 183.559C91.2772 183.748 91.0481 183.864 90.8012 183.884L82.732 184.517C82.4851 184.536 82.2406 184.457 82.0523 184.296C81.864 184.135 81.7473 183.906 81.7279 183.659Z" fill="#64676C"/>
<path fill-rule="evenodd" clip-rule="evenodd" d="M77.3778 179.074C76.7878 179.764 76.4963 180.661 76.5674 181.566L77.079 188.083L78.01 188.01C78.332 187.984 78.6557 188.031 78.9575 188.146L78.4295 181.42C78.3623 180.563 79.0029 179.814 79.8594 179.746L92.8942 178.723C93.7508 178.656 94.5005 179.297 94.5678 180.153L95.0957 186.879C95.367 186.723 95.6777 186.624 96.0104 186.597L96.9415 186.524L96.4299 180.007C96.3947 179.559 96.2715 179.122 96.0674 178.721C95.8634 178.32 95.5824 177.964 95.2405 177.671C94.8986 177.379 94.5025 177.157 94.0749 177.018C93.6472 176.879 93.1963 176.826 92.748 176.861L79.7133 177.884C78.8079 177.955 77.9678 178.383 77.3778 179.074ZM97.5289 194.008C96.9895 194.376 96.3932 194.736 95.7391 195.075L95.9807 198.154C96.048 199.01 95.4073 199.76 94.5508 199.827L81.516 200.85C80.6595 200.917 79.9097 200.277 79.8425 199.42L79.6007 196.34C78.9018 196.109 78.2566 195.845 77.6664 195.567L77.9804 199.566C78.0514 200.472 78.4793 201.312 79.1697 201.902C79.8602 202.492 80.7568 202.783 81.6622 202.712L94.6969 201.689C95.1453 201.654 95.5823 201.531 95.983 201.327C96.3837 201.123 96.7403 200.842 97.0324 200.5C97.3245 200.158 97.5465 199.762 97.6855 199.334C97.8246 198.907 97.878 198.456 97.8428 198.007L97.5289 194.008Z" fill="#64676C"/>
<path d="M82.9757 187.621C82.7287 187.64 82.4996 187.757 82.3387 187.945C82.1778 188.133 82.0983 188.378 82.1177 188.625C82.1371 188.872 82.2537 189.101 82.4421 189.262C82.6304 189.423 82.8749 189.502 83.1218 189.483L88.7081 189.044C88.9551 189.025 89.1842 188.908 89.3451 188.72C89.506 188.532 89.5855 188.287 89.5661 188.04C89.5467 187.793 89.43 187.564 89.2417 187.403C89.0534 187.242 88.8089 187.163 88.562 187.182L82.9757 187.621Z" fill="#64676C"/>
</g>
</g>
<g filter="url(#filter2_d_165_1649)">
<rect x="107.977" y="161.202" width="63.2269" height="63.2269" rx="17.7367" fill="#FCFCFC" shape-rendering="crispEdges"/>
<rect x="140.773" y="183.348" width="8.28374" height="8.28374" rx="0.591693" stroke="#64676C" stroke-width="1.18339"/>
<mask id="path-6-inside-1_165_1649" fill="white">
<rect x="140.181" y="193.407" width="9.46713" height="9.46713" rx="1.18339"/>
</mask>
<rect x="140.181" y="193.407" width="9.46713" height="9.46713" rx="1.18339" stroke="#64676C" stroke-width="3.35293" mask="url(#path-6-inside-1_165_1649)"/>
<mask id="path-7-inside-2_165_1649" fill="white">
<rect x="129.531" y="182.756" width="9.46713" height="9.46713" rx="1.18339"/>
</mask>
<rect x="129.531" y="182.756" width="9.46713" height="9.46713" rx="1.18339" stroke="#44474E" stroke-opacity="0.4" stroke-width="3.35293" mask="url(#path-7-inside-2_165_1649)"/>
<mask id="path-8-inside-3_165_1649" fill="white">
<rect x="140.181" y="182.756" width="9.46713" height="9.46713" rx="1.18339"/>
</mask>
<rect x="140.181" y="182.756" width="9.46713" height="9.46713" rx="1.18339" stroke="#64676C" stroke-width="3.35293" mask="url(#path-8-inside-3_165_1649)"/>
<mask id="path-9-inside-4_165_1649" fill="white">
<rect x="129.531" y="193.407" width="9.46713" height="9.46713" rx="1.18339"/>
</mask>
<rect x="129.531" y="193.407" width="9.46713" height="9.46713" rx="1.18339" stroke="#64676C" stroke-width="3.35293" mask="url(#path-9-inside-4_165_1649)"/>
</g>
<g filter="url(#filter3_d_165_1649)">
<rect x="161.439" y="149.156" width="70.9857" height="70.9857" rx="16.3436" transform="rotate(3.57372 161.439 149.156)" fill="#FCFCFC" shape-rendering="crispEdges"/>
<g clip-path="url(#clip1_165_1649)">
<path d="M193.62 178.496L183.664 180.509C183.433 180.556 183.231 180.692 183.101 180.887C182.971 181.083 182.924 181.322 182.97 181.553L186.267 197.878C186.314 198.109 186.451 198.311 186.647 198.441C186.843 198.57 187.082 198.617 187.313 198.57L193.015 197.419" stroke="#44474E" stroke-opacity="0.4" stroke-width="2.80025" stroke-linecap="round" stroke-linejoin="round"/>
<path d="M194.633 175.421C194.708 175.199 194.869 175.015 195.079 174.911C195.289 174.807 195.532 174.79 195.755 174.864L206.783 178.568C207.006 178.643 207.191 178.803 207.296 179.013C207.401 179.223 207.418 179.467 207.344 179.69L202.037 195.478C201.962 195.701 201.801 195.885 201.59 195.989C201.38 196.093 201.136 196.11 200.914 196.035L189.885 192.331C189.662 192.256 189.478 192.096 189.373 191.885C189.269 191.675 189.252 191.432 189.326 191.209L194.633 175.421Z" stroke="#64676C" stroke-width="2.80025" stroke-linecap="round" stroke-linejoin="round"/>
</g>
</g>
<g filter="url(#filter4_d_165_1649)">
<rect x="218.097" y="161.202" width="63.2269" height="63.2269" rx="17.7367" fill="#FCFCFC" shape-rendering="crispEdges"/>
<path d="M252.944 186.748C252.944 184.903 250.776 183.911 249.379 185.117L245.791 188.217C245.4 188.555 244.899 188.741 244.382 188.741L242.705 188.741C241.217 188.741 240.011 189.948 240.011 191.436V194.985C240.011 196.473 241.217 197.679 242.705 197.679H244.382C244.899 197.679 245.4 197.865 245.791 198.203L249.379 201.303C250.776 202.509 252.944 201.517 252.944 199.672V193.21V186.748Z" stroke="#64676C" stroke-width="2.15546"/>
<path d="M256.177 196.444C256.854 195.543 257.255 194.424 257.255 193.211C257.255 191.998 256.854 190.878 256.177 189.978" stroke="#44474E" stroke-opacity="0.4" stroke-width="2.15546" stroke-linecap="round"/>
<path d="M258.333 199.677C259.686 197.876 260.488 195.637 260.488 193.211C260.488 190.784 259.686 188.545 258.333 186.744" stroke="#44474E" stroke-opacity="0.4" stroke-width="2.15546" stroke-linecap="round"/>
</g>
<g filter="url(#filter5_d_165_1649)">
<rect x="270.346" y="158.072" width="63.2269" height="63.2269" rx="17.7367" transform="rotate(2.91153 270.346 158.072)" fill="#FCFCFC" shape-rendering="crispEdges"/>
<path d="M307.041 193.901L311.364 198.713L306.552 203.035M307.775 180.199L312.098 185.011L307.286 189.334" stroke="#64676C" stroke-width="2.28688" stroke-linecap="round" stroke-linejoin="round"/>
<path d="M288.528 197.49L290.781 197.61C291.518 197.655 292.256 197.52 292.931 197.217C293.605 196.914 294.196 196.452 294.653 195.871L301.406 186.385C301.863 185.804 302.454 185.342 303.128 185.039C303.802 184.736 304.54 184.601 305.278 184.646L312.098 185.011M289.262 183.788L291.514 183.909C292.365 183.948 293.189 184.225 293.891 184.708C294.594 185.191 295.147 185.86 295.489 186.641M311.364 198.713L304.466 198.344C303.718 198.296 302.993 198.065 302.356 197.671C301.718 197.278 301.187 196.734 300.808 196.086L300.426 195.551" stroke="#44474E" stroke-opacity="0.4" stroke-width="2.28688" stroke-linecap="round" stroke-linejoin="round"/>
</g>
<defs>
<filter id="filter0_f_165_1649" x="-28.6264" y="0.876038" width="442.948" height="336.846" filterUnits="userSpaceOnUse" color-interpolation-filters="sRGB">
<feFlood flood-opacity="0" result="BackgroundImageFix"/>
<feBlend mode="normal" in="SourceGraphic" in2="BackgroundImageFix" result="shape"/>
<feGaussianBlur stdDeviation="52.2957" result="effect1_foregroundBlur_165_1649"/>
</filter>
<filter id="filter1_d_165_1649" x="5.52879" y="118.721" width="137.992" height="137.992" filterUnits="userSpaceOnUse" color-interpolation-filters="sRGB">
<feFlood flood-opacity="0" result="BackgroundImageFix"/>
<feColorMatrix in="SourceAlpha" type="matrix" values="0 0 0 0 0 0 0 0 0 0 0 0 0 0 0 0 0 0 127 0" result="hardAlpha"/>
<feOffset dx="-13.6618" dy="-2.73236"/>
<feGaussianBlur stdDeviation="17.5082"/>
<feComposite in2="hardAlpha" operator="out"/>
<feColorMatrix type="matrix" values="0 0 0 0 0.200932 0 0 0 0 0.220124 0 0 0 0 0.261538 0 0 0 0.08 0"/>
<feBlend mode="normal" in2="BackgroundImageFix" result="effect1_dropShadow_165_1649"/>
<feBlend mode="normal" in="SourceGraphic" in2="effect1_dropShadow_165_1649" result="shape"/>
</filter>
<filter id="filter2_d_165_1649" x="59.2983" y="123.453" width="133.26" height="133.26" filterUnits="userSpaceOnUse" color-interpolation-filters="sRGB">
<feFlood flood-opacity="0" result="BackgroundImageFix"/>
<feColorMatrix in="SourceAlpha" type="matrix" values="0 0 0 0 0 0 0 0 0 0 0 0 0 0 0 0 0 0 127 0" result="hardAlpha"/>
<feOffset dx="-13.6618" dy="-2.73236"/>
<feGaussianBlur stdDeviation="17.5082"/>
<feComposite in2="hardAlpha" operator="out"/>
<feColorMatrix type="matrix" values="0 0 0 0 0.200932 0 0 0 0 0.220124 0 0 0 0 0.261538 0 0 0 0.08 0"/>
<feBlend mode="normal" in2="BackgroundImageFix" result="effect1_dropShadow_165_1649"/>
<feBlend mode="normal" in="SourceGraphic" in2="effect1_dropShadow_165_1649" result="shape"/>
</filter>
<filter id="filter3_d_165_1649" x="112.159" y="114.373" width="139.805" height="139.805" filterUnits="userSpaceOnUse" color-interpolation-filters="sRGB">
<feFlood flood-opacity="0" result="BackgroundImageFix"/>
<feColorMatrix in="SourceAlpha" type="matrix" values="0 0 0 0 0 0 0 0 0 0 0 0 0 0 0 0 0 0 127 0" result="hardAlpha"/>
<feOffset dx="-12.5888" dy="-2.51776"/>
<feGaussianBlur stdDeviation="16.1331"/>
<feComposite in2="hardAlpha" operator="out"/>
<feColorMatrix type="matrix" values="0 0 0 0 0.200932 0 0 0 0 0.220124 0 0 0 0 0.261538 0 0 0 0.08 0"/>
<feBlend mode="normal" in2="BackgroundImageFix" result="effect1_dropShadow_165_1649"/>
<feBlend mode="normal" in="SourceGraphic" in2="effect1_dropShadow_165_1649" result="shape"/>
</filter>
<filter id="filter4_d_165_1649" x="169.419" y="123.453" width="133.26" height="133.26" filterUnits="userSpaceOnUse" color-interpolation-filters="sRGB">
<feFlood flood-opacity="0" result="BackgroundImageFix"/>
<feColorMatrix in="SourceAlpha" type="matrix" values="0 0 0 0 0 0 0 0 0 0 0 0 0 0 0 0 0 0 127 0" result="hardAlpha"/>
<feOffset dx="-13.6618" dy="-2.73236"/>
<feGaussianBlur stdDeviation="17.5082"/>
<feComposite in2="hardAlpha" operator="out"/>
<feColorMatrix type="matrix" values="0 0 0 0 0.200932 0 0 0 0 0.220124 0 0 0 0 0.261538 0 0 0 0.08 0"/>
<feBlend mode="normal" in2="BackgroundImageFix" result="effect1_dropShadow_165_1649"/>
<feBlend mode="normal" in="SourceGraphic" in2="effect1_dropShadow_165_1649" result="shape"/>
</filter>
<filter id="filter5_d_165_1649" x="218.457" y="120.323" width="136.39" height="136.39" filterUnits="userSpaceOnUse" color-interpolation-filters="sRGB">
<feFlood flood-opacity="0" result="BackgroundImageFix"/>
<feColorMatrix in="SourceAlpha" type="matrix" values="0 0 0 0 0 0 0 0 0 0 0 0 0 0 0 0 0 0 127 0" result="hardAlpha"/>
<feOffset dx="-13.6618" dy="-2.73236"/>
<feGaussianBlur stdDeviation="17.5082"/>
<feComposite in2="hardAlpha" operator="out"/>
<feColorMatrix type="matrix" values="0 0 0 0 0.200932 0 0 0 0 0.220124 0 0 0 0 0.261538 0 0 0 0.08 0"/>
<feBlend mode="normal" in2="BackgroundImageFix" result="effect1_dropShadow_165_1649"/>
<feBlend mode="normal" in="SourceGraphic" in2="effect1_dropShadow_165_1649" result="shape"/>
</filter>
<clipPath id="clip0_165_1649">
<rect width="28.586" height="28.586" fill="white" transform="translate(72.8188 177.319) rotate(-4.48832)"/>
</clipPath>
<clipPath id="clip1_165_1649">
<rect width="29.0396" height="29.0396" fill="white" transform="translate(181.064 171.396) rotate(3.57372)"/>
</clipPath>
</defs>
</svg>
