<svg width="100" height="47" viewBox="0 0 100 47" fill="none" xmlns="http://www.w3.org/2000/svg">
<path d="M31.3006 8.67532C31.3006 10.3144 29.9037 11.6432 28.1805 11.6432C26.4573 11.6432 25.0604 10.3144 25.0604 8.67532C25.0604 7.0362 26.4573 5.70744 28.1805 5.70744C29.9037 5.70744 31.3006 7.0362 31.3006 8.67532Z" fill="#434449"/>
<path d="M1.13924 34.7326V12.5315C0.845625 12.5316 0.60759 12.2936 0.60759 11.9999V10.7088C0.272028 10.7088 0 10.4368 0 10.1012V8.81011C0 8.30676 0.408041 7.89872 0.911384 7.89872H1.13923L1.1794 6.69361C1.20239 6.0039 1.48667 5.34872 1.97467 4.86077L1.9097 4.74825C1.76013 4.48919 1.74721 4.17322 1.87514 3.90281L3.60334 0.249766C3.67548 0.0972687 3.82906 1.62924e-05 3.99776 4.0653e-06L4.05276 1.15307e-09C4.22149 -1.22276e-05 4.3751 0.0972444 4.44726 0.249762L6.17542 3.90274C6.30335 4.17316 6.29043 4.48915 6.14084 4.74822L6.0759 4.8607C6.60799 5.34441 6.91134 6.03015 6.91134 6.74925V7.89868H7.13919C7.64253 7.89868 8.05057 8.30672 8.05057 8.81006V10.1012C8.05057 10.4368 7.77855 10.7088 7.44298 10.7088V11.9999C7.44298 12.2935 7.20496 12.5315 6.91134 12.5315V19.1017C6.91134 19.1977 7.02831 19.2446 7.09462 19.1753C8.04479 18.1819 9.35968 17.6201 10.7343 17.6201H13.9746C18.3369 17.6201 21.8732 21.1565 21.8732 25.5188V37.8086C21.8732 38.1099 21.629 38.3541 21.3278 38.3541H20.2024C17.9373 38.3541 16.1011 36.5179 16.1011 34.2529V26.5061C16.1011 24.4088 14.401 22.7087 12.3037 22.7087H10.7088C8.61151 22.7087 6.91134 24.4088 6.91134 26.5061V37.8086C6.91134 38.1099 6.66713 38.3541 6.36587 38.3541H5.23402C3.46161 38.3541 1.88054 37.2399 1.28441 35.5707C1.18835 35.3017 1.13924 35.0183 1.13924 34.7326Z" fill="#434449"/>
<path d="M26.9328 15.1333C26.6674 15.0618 26.4065 15.2617 26.4065 15.5366V35.234C26.4065 36.8731 27.7353 38.2019 29.3744 38.2019C31.0135 38.2019 32.3423 36.8731 32.3423 35.234V22.1917C32.3423 18.8865 30.1244 15.9925 26.9328 15.1333Z" fill="#434449"/>
<path d="M41.8166 38.2019C40.1145 38.2019 38.7346 36.822 38.7346 35.1199V19.4053H36.9636C34.8316 19.4053 33.1033 17.677 33.1033 15.545C33.1033 15.4075 33.2148 15.296 33.3523 15.296H38.7346V12.0998C38.7346 8.56939 41.5966 5.70744 45.127 5.70744H48.3302C49.4433 5.70744 50.5077 6.16409 51.2747 6.97073L51.3596 7.06C51.8761 7.60315 52.0366 8.3938 51.7727 9.09532C51.4475 9.95958 50.5619 10.4784 49.649 10.3395L47.7144 10.0451H47.3339C45.9889 10.0451 44.8987 11.1354 44.8987 12.4803V15.296H47.3546C49.4866 15.296 51.2149 17.0243 51.2149 19.1563C51.2149 19.2938 51.1034 19.4053 50.9659 19.4053H44.8987V35.1199C44.8987 36.822 43.5188 38.2019 41.8166 38.2019Z" fill="#434449"/>
<path d="M54.5051 19.4053C54.3271 19.4053 54.1828 19.261 54.1828 19.083C54.1828 16.9915 55.8783 15.296 57.9699 15.296H72.5C72.8141 15.296 73.1228 15.3779 73.3956 15.5338C73.8112 15.7713 74.1155 16.1642 74.2415 16.6261L74.2929 16.8145C74.5654 17.8136 74.3148 18.8828 73.6268 19.6568L61.3362 33.4837H70.8334C72.9852 33.4837 74.7297 35.2282 74.7297 37.38C74.7297 37.5818 74.5661 37.7453 74.3644 37.7453H55.9453C54.8977 37.7453 53.9726 37.062 53.6645 36.0607C53.6045 35.8658 53.574 35.663 53.574 35.4591V35.2712C53.574 34.6094 53.8136 33.9699 54.2486 33.471L66.5109 19.4053H54.5051Z" fill="#434449"/>
<path d="M83.4727 41.1236L84.3307 38.943C84.5415 38.4072 84.6007 38.2686 84.3307 37.3209L77.7824 20.3843C77.1607 17.3892 79.8002 15.8179 81.5102 15.296C81.7347 15.2275 81.9659 15.3575 82.0422 15.5795L87.791 32.3031L94.056 17.0226C95.3786 14.9525 98.2925 15.5151 99.8205 16.1404C99.9733 16.2029 100.04 16.3792 99.9753 16.5311L88.2163 44.0374C87.4949 45.7249 85.8365 46.8196 84.0012 46.8196H78.4136C77.8162 46.8196 77.2458 46.5708 76.8393 46.133C76.6055 45.8813 76.4212 45.5815 76.3327 45.2496C76.1903 44.7154 76.1032 43.97 76.7127 43.3051C77.2016 42.7717 78.1256 42.6371 78.8846 42.6738C79.375 42.6975 79.8638 42.7702 80.3548 42.7702H81.0554C82.123 42.7702 83.0818 42.1171 83.4727 41.1236Z" fill="#434449"/>
</svg>
