<svg width="126" height="126" viewBox="0 0 126 126" fill="none" xmlns="http://www.w3.org/2000/svg">
<rect width="126" height="126" rx="18" fill="white"/>
<path d="M37.9167 103.652V46.3466C37.165 46.3466 36.5556 45.7323 36.5556 44.9744V41.6417C35.6964 41.6417 35 40.9396 35 40.0734V36.7407C35 35.4415 36.0447 34.3883 37.3333 34.3883H37.9167L38.0195 31.2776C38.0784 29.4973 38.8062 27.8062 40.0556 26.5467L39.8892 26.2562C39.5063 25.5875 39.4732 24.772 39.8007 24.074L44.2253 14.6447C44.41 14.2511 44.8032 14 45.2351 14L45.3759 14C45.8079 14 46.2012 14.251 46.3859 14.6447L50.8104 24.0738C51.1379 24.7718 51.1048 25.5874 50.7218 26.2562L50.5555 26.5465C51.9178 27.7951 52.6945 29.5651 52.6945 31.4212V34.3882H53.2778C54.5665 34.3882 55.6111 35.4414 55.6111 36.7406V40.0733C55.6111 40.9395 54.9147 41.6416 54.0556 41.6416V44.9743C54.0556 45.7322 53.4462 46.3466 52.6945 46.3466V63.3056C52.6945 63.5532 52.9939 63.6744 53.1637 63.4955C55.5963 60.9314 58.9627 59.4812 62.482 59.4812H70.7778C81.9462 59.4812 91 68.6093 91 79.8693V111.592C91 112.37 90.3748 113 89.6035 113H86.7222C80.9232 113 76.2222 108.26 76.2222 102.414V82.4178C76.2222 77.0044 71.8694 72.6159 66.5 72.6159H62.4167C57.0472 72.6159 52.6945 77.0044 52.6945 82.4179V111.592C52.6945 112.37 52.0692 113 51.2979 113H48.4002C43.8624 113 39.8146 110.124 38.2884 105.816C38.0424 105.121 37.9167 104.389 37.9167 103.652Z" fill="#434449"/>
</svg>
