<svg width="64" height="64" viewBox="0 0 64 64" fill="none" xmlns="http://www.w3.org/2000/svg">
<rect width="64" height="64" rx="32" fill="#8ED7C6"/>
<path d="M24.8111 25.9509C24.8111 26.6218 24.2393 27.1657 23.5341 27.1657C22.8288 27.1657 22.257 26.6218 22.257 25.9509C22.257 25.2801 22.8288 24.7362 23.5341 24.7362C24.2393 24.7362 24.8111 25.2801 24.8111 25.9509Z" fill="white"/>
<path d="M12.4663 36.616V25.9474C12.3461 25.9474 12.2487 25.85 12.2487 25.7298V25.2014C12.1113 25.2014 12 25.0901 12 24.9527V24.4243C12 24.2183 12.167 24.0512 12.373 24.0512H12.4663L12.4827 23.558C12.4921 23.2757 12.6085 23.0075 12.8082 22.8078L12.7816 22.7618C12.7204 22.6557 12.7151 22.5264 12.7675 22.4158L13.4748 20.9206C13.5043 20.8582 13.5672 20.8184 13.6363 20.8184L13.6588 20.8184C13.7278 20.8184 13.7907 20.8582 13.8202 20.9206L14.5276 22.4157C14.5799 22.5264 14.5746 22.6557 14.5134 22.7618L14.4868 22.8078C14.7046 23.0058 14.8288 23.2865 14.8288 23.5808V24.0512H14.922C15.128 24.0512 15.295 24.2182 15.295 24.4243V24.9527C15.295 25.09 15.1837 25.2014 15.0464 25.2014V25.7298C15.0464 25.85 14.9489 25.9474 14.8288 25.9474V30.2184C14.8288 30.2577 14.8766 30.2769 14.9038 30.2485C15.2927 29.8419 15.8308 29.612 16.3935 29.612H17.7197C19.5051 29.612 20.9526 31.0594 20.9526 32.8448V37.875C20.9526 37.9983 20.8526 38.0982 20.7293 38.0982H20.2687C19.3416 38.0982 18.5901 37.3467 18.5901 36.4196V33.249C18.5901 32.3906 17.8942 31.6947 17.0358 31.6947H16.383C15.5246 31.6947 14.8288 32.3906 14.8288 33.249V37.875C14.8288 37.9983 14.7288 38.0982 14.6055 38.0982H14.1422C13.4168 38.0982 12.7697 37.6422 12.5257 36.959C12.4864 36.8489 12.4663 36.7329 12.4663 36.616Z" fill="white"/>
<path d="M23.0234 28.5941C22.9148 28.5649 22.808 28.6467 22.808 28.7592V36.8212C22.808 37.4921 23.3518 38.036 24.0227 38.036C24.6936 38.036 25.2374 37.4921 25.2374 36.8212V31.4831C25.2374 30.1303 24.3297 28.9458 23.0234 28.5941Z" fill="white"/>
<path d="M29.1152 38.036C28.4186 38.036 27.8538 37.4712 27.8538 36.7745V30.3427H27.1289C26.2563 30.3427 25.5489 29.6353 25.5489 28.7627C25.5489 28.7064 25.5946 28.6607 25.6508 28.6607H27.8538V27.3526C27.8538 25.9076 29.0252 24.7362 30.4701 24.7362H31.7812C32.2368 24.7362 32.6724 24.9231 32.9864 25.2533L33.0211 25.2898C33.2325 25.5121 33.2982 25.8357 33.1902 26.1228C33.0571 26.4766 32.6946 26.6889 32.321 26.6321L31.5291 26.5116H31.3734C30.8229 26.5116 30.3767 26.9578 30.3767 27.5083V28.6607H31.3819C32.2545 28.6607 32.9619 29.3681 32.9619 30.2407C32.9619 30.297 32.9162 30.3427 32.8599 30.3427H30.3767V36.7745C30.3767 37.4712 29.8119 38.036 29.1152 38.036Z" fill="white"/>
<path d="M34.3085 30.3427C34.2357 30.3427 34.1766 30.2836 34.1766 30.2107C34.1766 29.3547 34.8706 28.6607 35.7266 28.6607H41.6737C41.8023 28.6607 41.9286 28.6943 42.0403 28.7581C42.2104 28.8553 42.3349 29.0161 42.3865 29.2051L42.4075 29.2823C42.519 29.6912 42.4165 30.1288 42.1349 30.4456L37.1044 36.1048H40.9916C41.8723 36.1048 42.5863 36.8188 42.5863 37.6996C42.5863 37.7821 42.5193 37.8491 42.4368 37.8491H34.898C34.4692 37.8491 34.0906 37.5694 33.9645 37.1596C33.9399 37.0798 33.9274 36.9968 33.9274 36.9134V36.8365C33.9274 36.5656 34.0255 36.3038 34.2035 36.0996L39.2224 30.3427H34.3085Z" fill="white"/>
<path fill-rule="evenodd" clip-rule="evenodd" d="M48.811 39.5555L49.3385 38.1786H46.6541C46.6356 38.8788 46.1984 40.0576 44.4292 39.8337C44.2824 39.8151 44.145 39.9177 44.145 40.0562V41.3341C44.145 41.4348 44.2184 41.5229 44.3244 41.5407C45.0084 41.6554 46.3407 41.6935 47.3835 41.0967L47.7118 40.8867C48.219 40.5623 48.6037 40.0964 48.811 39.5555Z" fill="white"/>
<path fill-rule="evenodd" clip-rule="evenodd" d="M43.926 30.4875L46.1965 36.8575H49.8447L52.6031 29.141C52.6631 28.9733 52.5783 28.7869 52.4061 28.7415C51.7834 28.5773 50.9334 28.5612 50.4806 29.2231L48.0899 35.6848L45.6542 28.716L45.6417 28.6803C45.6152 28.6081 45.5419 28.5618 45.4641 28.5672C45.4519 28.5681 45.4397 28.5702 45.4275 28.5737C44.7387 28.77 43.6756 29.361 43.926 30.4875Z" fill="white"/>
<path d="M46.1965 36.8575L46.6541 38.1786H49.3385L49.8447 36.8575H46.1965Z" fill="white"/>
<path d="M48.0899 35.6848L45.8754 28.9773C45.8407 28.8634 45.7594 28.771 45.6542 28.716L48.0899 35.6848Z" fill="white"/>
<path d="M45.4641 28.5672C45.5419 28.5618 45.6152 28.6081 45.6417 28.6803L45.6542 28.716C45.7594 28.771 45.8407 28.8634 45.8754 28.9773C45.7733 28.6274 45.5772 28.5577 45.4641 28.5672Z" fill="white"/>
</svg>
