<svg width="27" height="25" viewBox="0 0 27 25" fill="none" xmlns="http://www.w3.org/2000/svg">
<path d="M26.6122 15.9286C26.6082 16.2203 26.5137 16.5036 26.3417 16.7392C26.1697 16.9748 25.9287 17.1512 25.6521 17.2438L23.1795 18.0593C22.3998 18.3265 21.696 18.7776 21.1277 19.3745C20.5353 19.9516 20.0851 20.6585 19.8125 21.4394L18.9576 23.8988C18.8602 24.1701 18.6867 24.4075 18.4578 24.5827C18.2151 24.7533 17.9259 24.8451 17.6293 24.8458C17.3357 24.8516 17.0486 24.759 16.8138 24.5827C16.5739 24.41 16.3944 24.1661 16.3009 23.8857L15.4723 21.4131C15.2158 20.6358 14.7814 19.929 14.2038 19.3491C13.6261 18.7691 12.9211 18.332 12.1448 18.0724L9.67218 17.257C9.39409 17.1589 9.15145 16.9804 8.97512 16.744C8.84355 16.565 8.75669 16.3571 8.72178 16.1376C8.68686 15.9182 8.7049 15.6936 8.77439 15.4825C8.84389 15.2715 8.96282 15.0801 9.12127 14.9243C9.27973 14.7686 9.47313 14.6529 9.68534 14.5871L12.1448 13.7717C12.9298 13.516 13.6436 13.0792 14.2285 12.4966C14.8135 11.914 15.253 11.2018 15.5118 10.4178L16.3272 7.97154C16.4069 7.69835 16.573 7.45837 16.8007 7.28763C17.0268 7.10001 17.3092 6.99351 17.6029 6.98513C17.9023 6.96573 18.1993 7.04927 18.4447 7.22187C18.6969 7.38198 18.8871 7.62319 18.9839 7.90578L19.8125 10.4047C20.0681 11.1897 20.5049 11.9035 21.0876 12.4884C21.6702 13.0734 22.3823 13.5129 23.1663 13.7717L25.6258 14.6265C25.9026 14.7132 26.1431 14.8889 26.3097 15.1263C26.4893 15.357 26.5947 15.6368 26.6122 15.9286ZM13.631 6.78653C13.6272 7.05616 13.5406 7.3181 13.383 7.53689C13.2254 7.75567 13.0043 7.92073 12.7498 8.00968L10.9874 8.58838C10.4899 8.76377 10.0398 9.05186 9.67218 9.43012C9.2975 9.80064 9.00997 10.2499 8.83045 10.7453L8.21229 12.5077C8.12759 12.7534 7.97198 12.9685 7.76512 13.1259C7.5412 13.2829 7.2757 13.3698 7.00229 13.3758C6.73107 13.371 6.46795 13.2825 6.24898 13.1224C6.03001 12.9623 5.8659 12.7384 5.77914 12.4814L5.20045 10.719C5.02506 10.2216 4.73697 9.77143 4.35871 9.40381C3.98819 9.02913 3.53892 8.7416 3.04349 8.56207L1.26795 7.97023C1.01051 7.88738 0.788253 7.72069 0.636642 7.49675C0.472694 7.28139 0.384808 7.01773 0.38675 6.74707C0.388521 6.47297 0.475888 6.20627 0.636642 5.98425C0.800976 5.77311 1.0258 5.61711 1.2811 5.53707L3.04349 4.94523C3.53892 4.76571 3.98819 4.47818 4.35871 4.10349C4.74012 3.73917 5.02815 3.28805 5.20045 2.78827L5.79229 1.05218C5.87112 0.803342 6.0222 0.583582 6.22632 0.420879C6.43642 0.254957 6.69516 0.16255 6.96284 0.157836C7.23405 0.135026 7.50451 0.209636 7.72566 0.368271C7.95203 0.517839 8.1266 0.733755 8.22545 0.986423L8.81729 2.78827C8.99485 3.28542 9.28288 3.73523 9.65903 4.10349C10.0296 4.47818 10.4788 4.76571 10.9742 4.94523L12.7498 5.56338C12.9974 5.65583 13.2113 5.82072 13.3638 6.03656C13.5163 6.25239 13.6002 6.50915 13.6047 6.77338L13.631 6.78653Z" fill="white"/>
</svg>
