<svg width="33" height="33" viewBox="0 0 33 33" fill="none" xmlns="http://www.w3.org/2000/svg">
<path d="M16.5728 3.16699C23.9366 3.16699 29.9058 9.1362 29.9058 16.5C29.9058 23.8638 23.9366 29.833 16.5728 29.833C9.20896 29.833 3.23975 23.8638 3.23975 16.5C3.23975 9.1362 9.20896 3.16699 16.5728 3.16699ZM18.8491 11.5576C18.3285 11.037 17.4841 11.0372 16.9634 11.5576C16.4431 12.0782 16.4431 12.9218 16.9634 13.4424L18.688 15.167H11.2397C10.5034 15.167 9.90674 15.7636 9.90674 16.5C9.90674 17.2364 10.5034 17.833 11.2397 17.833H18.688L16.9634 19.5576C16.4431 20.0782 16.4431 20.9218 16.9634 21.4424C17.4841 21.9628 18.3285 21.963 18.8491 21.4424L22.8491 17.4424C23.3693 16.9218 23.3693 16.0782 22.8491 15.5576L18.8491 11.5576Z" fill="white"/>
</svg>
