<svg width="340" height="430" viewBox="0 0 340 430" fill="none" xmlns="http://www.w3.org/2000/svg">
<rect x="37" width="267" height="324" rx="32.4" fill="#FF825D"/>
<rect x="37.5" y="0.5" width="266" height="323" rx="31.9" stroke="white" stroke-opacity="0.06"/>
<rect x="18" y="12" width="304" height="360" rx="36" fill="#FD8F6E"/>
<rect x="18.5" y="12.5" width="303" height="359" rx="35.5" stroke="white" stroke-opacity="0.06"/>
<rect y="30" width="340" height="400" rx="40" fill="#FA9D7A"/>
<rect x="0.5" y="30.5" width="339" height="399" rx="39.5" stroke="white" stroke-opacity="0.19"/>
<g filter="url(#filter0_i_79_466)">
<path d="M174.918 148.254L163.942 169.058L141.133 156.804L151.682 136L174.918 148.254ZM203.001 173.618L191.882 194.137L168.788 181.882L179.48 161.506L203.001 173.618ZM170.214 186.442L159.38 207.103L136.287 195.134L146.835 174.473L170.214 186.442ZM270 303H134.006C115.759 303 101.219 299.818 90.3849 293.453C76.795 285.474 70 272.982 70 255.978C70 247.143 71.9957 238.119 75.9872 228.904C77.4127 225.58 80.8339 219.263 86.2509 209.953L90.5274 212.66C88.4367 217.03 86.3934 221.4 84.3977 225.77C81.6417 232.514 80.2637 238.546 80.2637 243.866C80.2637 255.075 86.1559 263.767 97.9401 269.942C108.489 275.452 121.841 278.206 137.997 278.206H258.738V274.359C258.738 263.72 257.455 255.075 254.89 248.426C252.324 241.681 247.952 235.934 241.775 231.184L252.751 207.958C256.933 213.183 259.451 216.46 260.306 217.79C266.769 228.429 270 243.914 270 264.242V303Z" fill="#FECDBA"/>
</g>
<path d="M252.86 208.896C256.748 213.764 259.082 216.81 259.886 218.061C266.275 228.586 269.5 243.96 269.5 264.242V302.5H134.006C115.81 302.5 101.368 299.325 90.6377 293.021C77.2151 285.14 70.5 272.821 70.5 255.978C70.5 247.22 72.4784 238.264 76.4463 229.104V229.102C77.835 225.863 81.1539 219.721 86.4219 210.653L89.8848 212.846C87.8596 217.084 85.8792 221.323 83.9434 225.562L83.9385 225.571L83.9346 225.58C81.1625 232.364 79.7637 238.462 79.7637 243.866C79.7637 255.3 85.7963 264.143 97.708 270.385H97.709C108.35 275.943 121.788 278.706 137.997 278.706H259.238V274.359C259.238 263.686 257.953 254.974 255.356 248.246H255.355C252.798 241.526 248.473 235.789 242.396 231.036L252.86 208.896ZM169.537 186.656L159.168 206.43L136.957 194.918L147.052 175.146L169.537 186.656ZM202.317 173.828L191.678 193.463L169.462 181.674L179.692 162.177L202.317 173.828ZM174.241 148.463L163.733 168.378L141.8 156.594L151.897 136.679L174.241 148.463Z" stroke="white" stroke-opacity="0.2"/>
<defs>
<filter id="filter0_i_79_466" x="70" y="136" width="200" height="167" filterUnits="userSpaceOnUse" color-interpolation-filters="sRGB">
<feFlood flood-opacity="0" result="BackgroundImageFix"/>
<feBlend mode="normal" in="SourceGraphic" in2="BackgroundImageFix" result="shape"/>
<feColorMatrix in="SourceAlpha" type="matrix" values="0 0 0 0 0 0 0 0 0 0 0 0 0 0 0 0 0 0 127 0" result="hardAlpha"/>
<feOffset/>
<feGaussianBlur stdDeviation="4.6"/>
<feComposite in2="hardAlpha" operator="arithmetic" k2="-1" k3="1"/>
<feColorMatrix type="matrix" values="0 0 0 0 0.980392 0 0 0 0 0.615686 0 0 0 0 0.478431 0 0 0 1 0"/>
<feBlend mode="normal" in2="shape" result="effect1_innerShadow_79_466"/>
</filter>
</defs>
</svg>
