<svg width="62" height="70" viewBox="0 0 62 70" fill="none" xmlns="http://www.w3.org/2000/svg">
<path d="M57.1482 70H4.87543C1.92456 70 -0.211467 67.1837 0.584175 64.3421L1.07349 62.5946C4.18458 51.4836 12.215 42.4104 22.8658 37.9726C25.8828 36.7155 26.248 32.5881 23.4987 30.8208L18.0687 27.3303C10.2432 22.2999 4.30125 14.8225 1.16844 6.06311C0.111886 3.10894 2.30177 0 5.4392 0H56.5954C59.7188 0 61.9012 3.09177 60.8553 6.0348C57.7365 14.8104 51.7909 22.3013 43.9524 27.3309L38.5099 30.8229C35.7596 32.5877 36.1245 36.7154 39.1417 37.9703C49.8126 42.4083 57.8533 51.5021 60.9511 62.6361L61.4314 64.3623C62.2197 67.1957 60.0891 70 57.1482 70Z" fill="url(#paint0_linear_89_571)"/>
<defs>
<linearGradient id="paint0_linear_89_571" x1="31.0066" y1="0" x2="31.0066" y2="70" gradientUnits="userSpaceOnUse">
<stop stop-color="#93C6B7"/>
<stop offset="1" stop-color="#BAF0DE"/>
</linearGradient>
</defs>
</svg>
