<svg width="62" height="70" viewBox="0 0 62 70" fill="none" xmlns="http://www.w3.org/2000/svg">
<path d="M57.1482 0H4.87543C1.92456 0 -0.211467 2.81628 0.584175 5.65785L1.07349 7.40539C4.18458 18.5164 12.215 27.5896 22.8658 32.0274C25.8828 33.2845 26.248 37.4119 23.4987 39.1792L18.0687 42.6697C10.2432 47.7001 4.30125 55.1775 1.16844 63.9369C0.111886 66.8911 2.30177 70 5.4392 70H56.5954C59.7188 70 61.9012 66.9082 60.8553 63.9652C57.7365 55.1896 51.7909 47.6987 43.9524 42.6691L38.5099 39.1771C35.7596 37.4123 36.1245 33.2846 39.1417 32.0297C49.8126 27.5917 57.8533 18.4979 60.9511 7.36391L61.4314 5.63765C62.2197 2.80431 60.0891 0 57.1482 0Z" fill="white"/>
</svg>
