<svg width="43" height="48" viewBox="0 0 43 48" fill="none" xmlns="http://www.w3.org/2000/svg">
<rect x="1.5" y="4" width="40" height="40" rx="18.1818" fill="white" fill-opacity="0.03"/>
<mask id="path-2-outside-1_80_1116" maskUnits="userSpaceOnUse" x="16.9287" y="14.7144" width="6" height="17" fill="black">
<rect fill="white" x="16.9287" y="14.7144" width="6" height="17"/>
<path d="M21.7236 30.7771V29.9359C21.7236 28.3539 21.6734 27.2364 21.573 26.5835C21.4725 25.9222 21.2549 24.9973 20.9201 23.8087C20.5852 22.62 20.1332 21.5863 19.564 20.7074C19.0032 19.8285 18.3503 19.0082 17.6053 18.2464L18.1955 16.1873C19.8361 18.0037 20.9661 19.6694 21.5855 21.1845C22.2049 22.6912 22.5146 24.3946 22.5146 26.2947C22.5146 27.8684 22.3807 29.3625 22.1129 30.7771H21.7236Z"/>
</mask>
<path d="M21.7236 30.7771V29.9359C21.7236 28.3539 21.6734 27.2364 21.573 26.5835C21.4725 25.9222 21.2549 24.9973 20.9201 23.8087C20.5852 22.62 20.1332 21.5863 19.564 20.7074C19.0032 19.8285 18.3503 19.0082 17.6053 18.2464L18.1955 16.1873C19.8361 18.0037 20.9661 19.6694 21.5855 21.1845C22.2049 22.6912 22.5146 24.3946 22.5146 26.2947C22.5146 27.8684 22.3807 29.3625 22.1129 30.7771H21.7236Z" fill="white"/>
<path d="M21.7236 30.7771H21.3903V31.1105H21.7236V30.7771ZM21.573 26.5835L21.2434 26.6336L21.2435 26.6342L21.573 26.5835ZM20.9201 23.8087L21.2409 23.7183L20.9201 23.8087ZM19.564 20.7074L19.283 20.8867L19.2843 20.8886L19.564 20.7074ZM17.6053 18.2464L17.2849 18.1546L17.2315 18.3409L17.367 18.4795L17.6053 18.2464ZM18.1955 16.1873L18.4428 15.9639L18.0404 15.5183L17.875 16.0955L18.1955 16.1873ZM21.5855 21.1845L21.277 21.3106L21.2772 21.3112L21.5855 21.1845ZM22.1129 30.7771V31.1105H22.389L22.4404 30.8391L22.1129 30.7771ZM21.7236 30.7771H22.057V29.9359H21.7236H21.3903V30.7771H21.7236ZM21.7236 29.9359H22.057C22.057 28.3538 22.0071 27.2135 21.9024 26.5328L21.573 26.5835L21.2435 26.6342C21.3397 27.2593 21.3903 28.354 21.3903 29.9359H21.7236ZM21.573 26.5835L21.9025 26.5334C21.799 25.8517 21.5769 24.9111 21.2409 23.7183L20.9201 23.8087L20.5992 23.899C20.9329 25.0835 21.1461 25.9928 21.2434 26.6336L21.573 26.5835ZM20.9201 23.8087L21.2409 23.7183C20.8986 22.5031 20.4341 21.4376 19.8438 20.5262L19.564 20.7074L19.2843 20.8886C19.8324 21.7349 20.2719 22.737 20.5992 23.899L20.9201 23.8087ZM19.564 20.7074L19.845 20.5281C19.2716 19.6294 18.6043 18.7911 17.8436 18.0134L17.6053 18.2464L17.367 18.4795C18.0963 19.2252 18.7348 20.0275 19.283 20.8867L19.564 20.7074ZM17.6053 18.2464L17.9258 18.3383L18.5159 16.2791L18.1955 16.1873L17.875 16.0955L17.2849 18.1546L17.6053 18.2464ZM18.1955 16.1873L17.9481 16.4107C19.5744 18.2113 20.6775 19.8444 21.277 21.3106L21.5855 21.1845L21.8941 21.0584C21.2547 19.4945 20.0978 17.7961 18.4428 15.9639L18.1955 16.1873ZM21.5855 21.1845L21.2772 21.3112C21.8776 22.7716 22.1813 24.4309 22.1813 26.2947H22.5146H22.848C22.848 24.3583 22.5323 22.6108 21.8938 21.0578L21.5855 21.1845ZM22.5146 26.2947H22.1813C22.1813 27.8495 22.049 29.3227 21.7853 30.7151L22.1129 30.7771L22.4404 30.8391C22.7124 29.4023 22.848 27.8873 22.848 26.2947H22.5146ZM22.1129 30.7771V30.4438H21.7236V30.7771V31.1105H22.1129V30.7771Z" fill="white" mask="url(#path-2-outside-1_80_1116)"/>
<mask id="path-4-inside-2_80_1116" fill="white">
<path d="M42.4085 24.0006C42.4085 26.3171 42.0919 28.4518 41.4585 30.4047C40.8252 32.3575 39.9702 34.1084 38.8936 35.6572C37.8169 37.206 36.563 38.5393 35.1317 39.6572C34.174 40.4209 33.1817 41.0772 32.1548 41.6261C31.5787 41.934 31.5492 42.868 31.8927 43.4237C31.9426 43.5043 31.9879 43.5878 32.0286 43.674C32.0703 43.7623 32.0542 43.866 31.9934 43.9424C31.9262 44.0268 31.8153 44.0631 31.7105 44.0375C31.2243 43.9186 30.7941 43.8592 30.4197 43.8592C29.8498 43.8592 29.3178 43.9468 28.8238 44.1218C28.3298 44.3104 27.8041 44.5057 27.2468 44.7077C26.7022 44.9232 26.0878 45.1185 25.4038 45.2936C25.2052 45.3483 24.9954 45.3951 24.7743 45.434C23.7547 45.6132 22.9434 46.4654 22.236 47.2212C22.1512 47.3118 22.0591 47.3984 21.9595 47.481C21.8311 47.5875 21.6663 47.637 21.4994 47.637C21.3326 47.637 21.1678 47.5875 21.0394 47.481C20.9398 47.3984 20.8476 47.3118 20.7628 47.2212C20.0554 46.4654 19.2441 45.6132 18.2246 45.434C18.0035 45.3951 17.7936 45.3483 17.595 45.2936C16.911 45.1185 16.2904 44.9232 15.733 44.7077C15.1884 44.5057 14.6691 44.3104 14.1751 44.1218C13.6811 43.9468 13.1491 43.8592 12.5791 43.8592C12.2047 43.8592 11.7745 43.9186 11.2884 44.0375C11.1835 44.0631 11.0727 44.0268 11.0055 43.9424C10.9447 43.866 10.9285 43.7623 10.9702 43.674C11.0108 43.5882 11.0558 43.5051 11.1054 43.4248C11.4481 42.8698 11.417 41.9357 10.8408 41.6298C9.80557 41.0802 8.80804 40.4226 7.84819 39.6572C6.42955 38.5393 5.18191 37.206 4.10526 35.6572C3.02862 34.1084 2.17363 32.3575 1.54031 30.4047C0.906993 28.4518 0.590332 26.3171 0.590332 24.0006C0.590332 21.6841 0.906993 19.5494 1.54031 17.5966C2.17363 15.6437 3.02862 13.8929 4.10526 12.3441C5.18191 10.7952 6.42955 9.4619 7.84819 8.34406C8.80803 7.57861 9.80557 6.92107 10.8408 6.37142C11.417 6.0655 11.4481 5.13147 11.1054 4.57642C11.0558 4.49614 11.0108 4.41307 10.9702 4.32721C10.9285 4.23893 10.9447 4.13527 11.0055 4.05888C11.0727 3.9744 11.1835 3.93815 11.2884 3.96379C11.7745 4.08262 12.2047 4.14204 12.5791 4.14204C13.1491 4.14204 13.6811 4.05449 14.1751 3.87941C14.6691 3.69086 15.1884 3.49557 15.733 3.29355C16.2904 3.07806 16.911 2.88278 17.595 2.70769C17.7936 2.65293 18.0035 2.60613 18.2246 2.56727C19.2441 2.38807 20.0554 1.53582 20.7628 0.780036C20.8476 0.689449 20.9398 0.602863 21.0394 0.52028C21.1678 0.413745 21.3326 0.364258 21.4994 0.364258C21.6663 0.364258 21.8311 0.413745 21.9595 0.52028C22.0591 0.602863 22.1512 0.689449 22.236 0.780036C22.9434 1.53582 23.7547 2.38807 24.7743 2.56727C24.9954 2.60613 25.2052 2.65293 25.4038 2.70769C26.0878 2.88278 26.7022 3.07806 27.2468 3.29355C27.8041 3.49557 28.3298 3.69086 28.8238 3.87941C29.3178 4.05449 29.8498 4.14204 30.4197 4.14204C30.7941 4.14204 31.2243 4.08262 31.7105 3.96379C31.8153 3.93815 31.9262 3.9744 31.9934 4.05888C32.0542 4.13527 32.0703 4.23894 32.0286 4.32721C31.9879 4.41347 31.9426 4.49692 31.8927 4.57755C31.5492 5.13321 31.5787 6.06723 32.1548 6.37518C33.1817 6.92407 34.174 7.58036 35.1317 8.34406C36.563 9.4619 37.8169 10.7952 38.8936 12.3441C39.9702 13.8929 40.8252 15.6437 41.4585 17.5966C42.0919 19.5494 42.4085 21.6841 42.4085 24.0006ZM1.9773 24.0006C1.9773 25.6437 2.1673 27.1656 2.54729 28.5663C2.93995 29.9535 3.45928 31.2195 4.10526 32.3643C4.75125 33.509 5.49224 34.5191 6.32822 35.3946C7.17687 36.27 8.05719 37.004 8.96917 37.5966C9.88115 38.1892 10.7995 38.6336 11.7241 38.9299C12.6614 39.2397 13.5354 39.3946 14.3461 39.3946C15.0965 39.3946 15.7627 39.2682 16.3448 39.0155C16.4787 38.9573 16.6366 38.9861 16.7334 39.0954C16.8181 39.1911 16.8368 39.3277 16.7878 39.4458C16.7346 39.5739 16.687 39.705 16.645 39.839C16.5817 40.041 16.55 40.2498 16.55 40.4653C16.55 40.6942 16.5944 40.8895 16.683 41.0511C16.7843 41.2262 16.911 41.3609 17.063 41.4552C17.215 41.5629 17.3797 41.637 17.557 41.6774C17.747 41.7313 17.9307 41.7582 18.108 41.7582C18.5513 41.7582 18.963 41.6235 19.343 41.3542C19.4211 41.3033 19.4972 41.2497 19.5713 41.1935C20.0707 40.8144 19.9479 40.0774 19.571 39.5764C19.3176 39.2531 19.191 38.8693 19.191 38.4249C19.191 38.0612 19.2796 37.7313 19.457 37.435C19.6343 37.1252 19.8433 36.8491 20.084 36.6067C20.3373 36.3643 20.5969 36.1555 20.8629 35.9804C21.2573 35.7208 21.7665 35.712 22.1549 35.9804C22.4082 36.142 22.6489 36.3441 22.8769 36.5865C23.1176 36.8154 23.3202 37.0848 23.4849 37.3946C23.6495 37.7043 23.7319 38.0478 23.7319 38.4249C23.7319 38.8424 23.6115 39.2195 23.3709 39.5562C23.0148 40.0743 22.9351 40.8118 23.4339 41.1945C23.5064 41.2501 23.5804 41.3033 23.6559 41.3542C24.0359 41.6235 24.4475 41.7582 24.8909 41.7582C25.0682 41.7582 25.2455 41.7313 25.4228 41.6774C25.6128 41.637 25.7838 41.5629 25.9358 41.4552C26.0878 41.3609 26.2082 41.2262 26.2968 41.0511C26.3982 40.8895 26.4488 40.6942 26.4488 40.4653C26.4488 40.2498 26.4172 40.041 26.3538 39.839C26.3117 39.7047 26.264 39.5733 26.2107 39.4449C26.1619 39.3274 26.1805 39.1914 26.2648 39.0961C26.3618 38.9866 26.5203 38.9584 26.6543 39.0173C27.2268 39.2688 27.893 39.3946 28.6528 39.3946C29.4634 39.3946 30.3311 39.2397 31.2557 38.9299C32.193 38.6336 33.1177 38.1892 34.0297 37.5966C34.9417 37.004 35.8156 36.27 36.6516 35.3946C37.5003 34.5191 38.2476 33.509 38.8936 32.3643C39.5396 31.2195 40.0526 29.9535 40.4326 28.5663C40.8252 27.1656 41.0215 25.6437 41.0215 24.0006C41.0215 22.3575 40.8252 20.8424 40.4326 19.4552C40.0526 18.0545 39.5396 16.7818 38.8936 15.637C38.2476 14.4922 37.5003 13.4821 36.6516 12.6067C35.8156 11.7313 34.9417 10.9973 34.0297 10.4047C33.1177 9.81207 32.193 9.36763 31.2557 9.07133C30.3311 8.76157 29.4634 8.60668 28.6528 8.60668C27.893 8.60668 27.2268 8.73245 26.6543 8.98399C26.5203 9.04283 26.3618 9.01466 26.2648 8.90513C26.1805 8.80983 26.1619 8.67387 26.2107 8.55634C26.264 8.42795 26.3117 8.29658 26.3538 8.16224C26.4172 7.96022 26.4488 7.75146 26.4488 7.53598C26.4488 7.30702 26.3982 7.11173 26.2968 6.95012C26.2082 6.77503 26.0878 6.64035 25.9358 6.54608C25.7838 6.43833 25.6128 6.36426 25.4228 6.32385C25.2455 6.26998 25.0682 6.24305 24.8909 6.24305C24.4349 6.24305 24.0105 6.37773 23.6179 6.64709C23.5352 6.70571 23.4543 6.7672 23.3752 6.83157C22.8933 7.22366 22.9999 7.94677 23.3709 8.44507C23.6115 8.7683 23.7319 9.1454 23.7319 9.57638C23.7319 9.94002 23.6432 10.2767 23.4659 10.5865C23.2886 10.8828 23.0732 11.1521 22.8199 11.3946C22.5792 11.637 22.3259 11.8457 22.0599 12.0208C22.0569 12.0228 22.0538 12.0248 22.0508 12.0268C21.6619 12.2828 21.1604 12.2914 20.7679 12.041C20.5146 11.8659 20.2676 11.6639 20.027 11.435C19.799 11.1925 19.6026 10.9232 19.438 10.6269C19.2733 10.3171 19.191 9.96695 19.191 9.57638C19.191 9.15887 19.3176 8.77503 19.571 8.42486C19.9394 7.89595 20.0186 7.13861 19.5019 6.7531C19.4437 6.70966 19.3844 6.66759 19.324 6.62688C18.9566 6.37099 18.5513 6.24305 18.108 6.24305C17.9307 6.24305 17.747 6.26998 17.557 6.32385C17.3797 6.36426 17.215 6.43833 17.063 6.54608C16.911 6.64035 16.7843 6.77503 16.683 6.95012C16.5944 7.11173 16.55 7.30702 16.55 7.53598C16.55 7.75146 16.5817 7.96022 16.645 8.16224C16.687 8.29627 16.7346 8.42734 16.7878 8.55545C16.8368 8.67353 16.8181 8.81012 16.7334 8.90585C16.6366 9.01516 16.4787 9.04393 16.3448 8.98579C15.7627 8.73305 15.0965 8.60668 14.3461 8.60668C13.5354 8.60668 12.6614 8.76157 11.7241 9.07133C10.7995 9.36763 9.88115 9.81207 8.96917 10.4047C8.05719 10.9973 7.17687 11.7313 6.32822 12.6067C5.49224 13.4821 4.75125 14.4922 4.10526 15.637C3.45928 16.7818 2.93995 18.0545 2.54729 19.4552C2.1673 20.8424 1.9773 22.3575 1.9773 24.0006ZM21.4899 46.4855C21.5263 46.4855 21.5614 46.4707 21.5844 46.4426C21.6375 46.3778 21.6946 46.291 21.7559 46.1824C21.8319 46.0612 21.9016 45.9198 21.9649 45.7582C22.0282 45.5966 22.0789 45.4282 22.1169 45.2532C22.1676 45.0915 22.1929 44.9299 22.1929 44.7683C22.1929 44.1025 22.1488 43.6476 22.0607 43.4037C22.0502 43.3748 22.06 43.342 22.0859 43.3255C22.1139 43.3076 22.1508 43.3151 22.1733 43.3395C22.26 43.4337 22.4123 43.5328 22.6299 43.637C22.8959 43.7717 23.1809 43.839 23.4849 43.839C23.7889 43.839 24.0992 43.8255 24.4159 43.7986C24.6694 43.7878 24.923 43.7727 25.1765 43.7533C25.2836 43.7451 25.3658 43.6555 25.3658 43.548C25.3658 43.439 25.2811 43.3491 25.1726 43.3387C24.8226 43.3054 24.4817 43.2432 24.1499 43.1521C23.7699 43.0444 23.4532 42.9165 23.1999 42.7683C22.8579 42.5528 22.5476 42.3239 22.2689 42.0814C22.0349 41.8681 21.8352 41.6497 21.6698 41.426C21.6277 41.369 21.5616 41.334 21.4908 41.334C21.419 41.334 21.3522 41.3699 21.3102 41.4281C20.9575 41.9165 20.4538 42.3632 19.799 42.7683C19.5456 42.9165 19.229 43.0444 18.849 43.1521C18.5406 43.2426 18.2189 43.3046 17.8837 43.3381C17.7749 43.3489 17.69 43.4392 17.69 43.5486C17.69 43.6559 17.7717 43.7457 17.8787 43.7545C18.1071 43.7733 18.3356 43.788 18.564 43.7986C18.8553 43.8255 19.1783 43.839 19.533 43.839C19.8243 43.839 20.0966 43.7717 20.3499 43.637C20.5676 43.5328 20.7198 43.4337 20.8065 43.3395C20.829 43.3151 20.8659 43.3076 20.8939 43.3255C20.9198 43.342 20.9296 43.3748 20.9192 43.4037C20.831 43.6476 20.7869 44.1025 20.7869 44.7683C20.7869 44.9299 20.8059 45.0915 20.8439 45.2532C20.8946 45.4282 20.9516 45.5966 21.0149 45.7582C21.0783 45.9198 21.1479 46.0612 21.2239 46.1824C21.2852 46.291 21.3424 46.3778 21.3954 46.4426C21.4185 46.4707 21.4536 46.4855 21.4899 46.4855ZM21.4899 1.51577C21.4536 1.51577 21.4185 1.53052 21.3954 1.55867C21.3424 1.62349 21.2852 1.7102 21.2239 1.8188C21.1479 1.94002 21.0783 2.08143 21.0149 2.24305C20.9516 2.40466 20.8946 2.57301 20.8439 2.7481C20.8059 2.90971 20.7869 3.07133 20.7869 3.23294C20.7869 3.89874 20.831 4.35362 20.9192 4.5976C20.9296 4.62647 20.9198 4.65928 20.8939 4.6758C20.866 4.69365 20.829 4.68618 20.8065 4.66177C20.7198 4.56757 20.5676 4.4684 20.3499 4.36426C20.0966 4.22958 19.8243 4.16224 19.533 4.16224C19.229 4.16224 18.925 4.17571 18.621 4.20264C18.3779 4.21341 18.1307 4.22849 17.8795 4.24787C17.7723 4.25614 17.69 4.34587 17.69 4.45339C17.69 4.56238 17.7746 4.65228 17.883 4.66311C18.2184 4.6966 18.5404 4.7586 18.849 4.84911C19.229 4.95685 19.5456 5.0848 19.799 5.23294C20.4538 5.63804 20.9575 6.08478 21.3102 6.57316C21.3522 6.63137 21.419 6.66729 21.4908 6.66729C21.5616 6.66729 21.6277 6.63229 21.6698 6.57529C21.8352 6.35159 22.0349 6.13309 22.2689 5.91981C22.5476 5.67739 22.8579 5.44843 23.1999 5.23294C23.4532 5.0848 23.7699 4.95685 24.1499 4.84911C24.4815 4.75811 24.8222 4.69593 25.1719 4.66257C25.2808 4.65218 25.3658 4.56193 25.3658 4.45249C25.3658 4.34527 25.2842 4.25557 25.1773 4.24683C24.9464 4.22795 24.7116 4.21322 24.4729 4.20264C24.1815 4.17571 23.8522 4.16224 23.4849 4.16224C23.1809 4.16224 22.8959 4.22958 22.6299 4.36426C22.4123 4.4684 22.26 4.56757 22.1733 4.66177C22.1508 4.68618 22.1139 4.69365 22.0859 4.6758C22.06 4.65928 22.0502 4.62647 22.0607 4.5976C22.1488 4.35362 22.1929 3.89874 22.1929 3.23294C22.1929 3.07133 22.1676 2.90971 22.1169 2.7481C22.0789 2.57301 22.0282 2.40466 21.9649 2.24305C21.9016 2.08143 21.8319 1.94002 21.7559 1.8188C21.6946 1.7102 21.6375 1.62349 21.5844 1.55867C21.5614 1.53052 21.5263 1.51577 21.4899 1.51577ZM22.4019 9.57638C22.4019 9.26662 22.2879 8.99725 22.0599 8.7683C22.0469 8.75522 22.0339 8.7423 22.021 8.72953C21.677 8.39008 21.1459 8.38678 20.8249 8.7481C20.6223 8.99052 20.5209 9.26662 20.5209 9.57638C20.5209 9.75146 20.5526 9.91982 20.6159 10.0814C20.6793 10.2296 20.7553 10.371 20.8439 10.5057C20.9326 10.6269 21.0276 10.7414 21.1289 10.8491C21.2983 10.9891 21.5472 11.0088 21.7056 10.8564C21.8124 10.7537 21.9241 10.6367 22.0409 10.5057C22.2816 10.2363 22.4019 9.92655 22.4019 9.57638ZM20.5209 38.4249C20.5209 38.7346 20.6349 39.004 20.8629 39.233C20.8792 39.2493 20.8954 39.2654 20.9115 39.2812C21.2503 39.6141 21.7742 39.6176 22.0789 39.2532C22.2942 39.0107 22.4019 38.7346 22.4019 38.4249C22.4019 38.2498 22.3702 38.0882 22.3069 37.94C22.2436 37.7784 22.1676 37.637 22.0789 37.5158C21.9902 37.3811 21.8889 37.2666 21.7749 37.1723C21.6242 37.0121 21.3756 36.9928 21.2172 37.1454C21.1059 37.2525 20.9878 37.376 20.8629 37.5158C20.6349 37.7717 20.5209 38.0747 20.5209 38.4249Z"/>
</mask>
<path d="M42.4085 24.0006C42.4085 26.3171 42.0919 28.4518 41.4585 30.4047C40.8252 32.3575 39.9702 34.1084 38.8936 35.6572C37.8169 37.206 36.563 38.5393 35.1317 39.6572C34.174 40.4209 33.1817 41.0772 32.1548 41.6261C31.5787 41.934 31.5492 42.868 31.8927 43.4237C31.9426 43.5043 31.9879 43.5878 32.0286 43.674C32.0703 43.7623 32.0542 43.866 31.9934 43.9424C31.9262 44.0268 31.8153 44.0631 31.7105 44.0375C31.2243 43.9186 30.7941 43.8592 30.4197 43.8592C29.8498 43.8592 29.3178 43.9468 28.8238 44.1218C28.3298 44.3104 27.8041 44.5057 27.2468 44.7077C26.7022 44.9232 26.0878 45.1185 25.4038 45.2936C25.2052 45.3483 24.9954 45.3951 24.7743 45.434C23.7547 45.6132 22.9434 46.4654 22.236 47.2212C22.1512 47.3118 22.0591 47.3984 21.9595 47.481C21.8311 47.5875 21.6663 47.637 21.4994 47.637C21.3326 47.637 21.1678 47.5875 21.0394 47.481C20.9398 47.3984 20.8476 47.3118 20.7628 47.2212C20.0554 46.4654 19.2441 45.6132 18.2246 45.434C18.0035 45.3951 17.7936 45.3483 17.595 45.2936C16.911 45.1185 16.2904 44.9232 15.733 44.7077C15.1884 44.5057 14.6691 44.3104 14.1751 44.1218C13.6811 43.9468 13.1491 43.8592 12.5791 43.8592C12.2047 43.8592 11.7745 43.9186 11.2884 44.0375C11.1835 44.0631 11.0727 44.0268 11.0055 43.9424C10.9447 43.866 10.9285 43.7623 10.9702 43.674C11.0108 43.5882 11.0558 43.5051 11.1054 43.4248C11.4481 42.8698 11.417 41.9357 10.8408 41.6298C9.80557 41.0802 8.80804 40.4226 7.84819 39.6572C6.42955 38.5393 5.18191 37.206 4.10526 35.6572C3.02862 34.1084 2.17363 32.3575 1.54031 30.4047C0.906993 28.4518 0.590332 26.3171 0.590332 24.0006C0.590332 21.6841 0.906993 19.5494 1.54031 17.5966C2.17363 15.6437 3.02862 13.8929 4.10526 12.3441C5.18191 10.7952 6.42955 9.4619 7.84819 8.34406C8.80803 7.57861 9.80557 6.92107 10.8408 6.37142C11.417 6.0655 11.4481 5.13147 11.1054 4.57642C11.0558 4.49614 11.0108 4.41307 10.9702 4.32721C10.9285 4.23893 10.9447 4.13527 11.0055 4.05888C11.0727 3.9744 11.1835 3.93815 11.2884 3.96379C11.7745 4.08262 12.2047 4.14204 12.5791 4.14204C13.1491 4.14204 13.6811 4.05449 14.1751 3.87941C14.6691 3.69086 15.1884 3.49557 15.733 3.29355C16.2904 3.07806 16.911 2.88278 17.595 2.70769C17.7936 2.65293 18.0035 2.60613 18.2246 2.56727C19.2441 2.38807 20.0554 1.53582 20.7628 0.780036C20.8476 0.689449 20.9398 0.602863 21.0394 0.52028C21.1678 0.413745 21.3326 0.364258 21.4994 0.364258C21.6663 0.364258 21.8311 0.413745 21.9595 0.52028C22.0591 0.602863 22.1512 0.689449 22.236 0.780036C22.9434 1.53582 23.7547 2.38807 24.7743 2.56727C24.9954 2.60613 25.2052 2.65293 25.4038 2.70769C26.0878 2.88278 26.7022 3.07806 27.2468 3.29355C27.8041 3.49557 28.3298 3.69086 28.8238 3.87941C29.3178 4.05449 29.8498 4.14204 30.4197 4.14204C30.7941 4.14204 31.2243 4.08262 31.7105 3.96379C31.8153 3.93815 31.9262 3.9744 31.9934 4.05888C32.0542 4.13527 32.0703 4.23894 32.0286 4.32721C31.9879 4.41347 31.9426 4.49692 31.8927 4.57755C31.5492 5.13321 31.5787 6.06723 32.1548 6.37518C33.1817 6.92407 34.174 7.58036 35.1317 8.34406C36.563 9.4619 37.8169 10.7952 38.8936 12.3441C39.9702 13.8929 40.8252 15.6437 41.4585 17.5966C42.0919 19.5494 42.4085 21.6841 42.4085 24.0006ZM1.9773 24.0006C1.9773 25.6437 2.1673 27.1656 2.54729 28.5663C2.93995 29.9535 3.45928 31.2195 4.10526 32.3643C4.75125 33.509 5.49224 34.5191 6.32822 35.3946C7.17687 36.27 8.05719 37.004 8.96917 37.5966C9.88115 38.1892 10.7995 38.6336 11.7241 38.9299C12.6614 39.2397 13.5354 39.3946 14.3461 39.3946C15.0965 39.3946 15.7627 39.2682 16.3448 39.0155C16.4787 38.9573 16.6366 38.9861 16.7334 39.0954C16.8181 39.1911 16.8368 39.3277 16.7878 39.4458C16.7346 39.5739 16.687 39.705 16.645 39.839C16.5817 40.041 16.55 40.2498 16.55 40.4653C16.55 40.6942 16.5944 40.8895 16.683 41.0511C16.7843 41.2262 16.911 41.3609 17.063 41.4552C17.215 41.5629 17.3797 41.637 17.557 41.6774C17.747 41.7313 17.9307 41.7582 18.108 41.7582C18.5513 41.7582 18.963 41.6235 19.343 41.3542C19.4211 41.3033 19.4972 41.2497 19.5713 41.1935C20.0707 40.8144 19.9479 40.0774 19.571 39.5764C19.3176 39.2531 19.191 38.8693 19.191 38.4249C19.191 38.0612 19.2796 37.7313 19.457 37.435C19.6343 37.1252 19.8433 36.8491 20.084 36.6067C20.3373 36.3643 20.5969 36.1555 20.8629 35.9804C21.2573 35.7208 21.7665 35.712 22.1549 35.9804C22.4082 36.142 22.6489 36.3441 22.8769 36.5865C23.1176 36.8154 23.3202 37.0848 23.4849 37.3946C23.6495 37.7043 23.7319 38.0478 23.7319 38.4249C23.7319 38.8424 23.6115 39.2195 23.3709 39.5562C23.0148 40.0743 22.9351 40.8118 23.4339 41.1945C23.5064 41.2501 23.5804 41.3033 23.6559 41.3542C24.0359 41.6235 24.4475 41.7582 24.8909 41.7582C25.0682 41.7582 25.2455 41.7313 25.4228 41.6774C25.6128 41.637 25.7838 41.5629 25.9358 41.4552C26.0878 41.3609 26.2082 41.2262 26.2968 41.0511C26.3982 40.8895 26.4488 40.6942 26.4488 40.4653C26.4488 40.2498 26.4172 40.041 26.3538 39.839C26.3117 39.7047 26.264 39.5733 26.2107 39.4449C26.1619 39.3274 26.1805 39.1914 26.2648 39.0961C26.3618 38.9866 26.5203 38.9584 26.6543 39.0173C27.2268 39.2688 27.893 39.3946 28.6528 39.3946C29.4634 39.3946 30.3311 39.2397 31.2557 38.9299C32.193 38.6336 33.1177 38.1892 34.0297 37.5966C34.9417 37.004 35.8156 36.27 36.6516 35.3946C37.5003 34.5191 38.2476 33.509 38.8936 32.3643C39.5396 31.2195 40.0526 29.9535 40.4326 28.5663C40.8252 27.1656 41.0215 25.6437 41.0215 24.0006C41.0215 22.3575 40.8252 20.8424 40.4326 19.4552C40.0526 18.0545 39.5396 16.7818 38.8936 15.637C38.2476 14.4922 37.5003 13.4821 36.6516 12.6067C35.8156 11.7313 34.9417 10.9973 34.0297 10.4047C33.1177 9.81207 32.193 9.36763 31.2557 9.07133C30.3311 8.76157 29.4634 8.60668 28.6528 8.60668C27.893 8.60668 27.2268 8.73245 26.6543 8.98399C26.5203 9.04283 26.3618 9.01466 26.2648 8.90513C26.1805 8.80983 26.1619 8.67387 26.2107 8.55634C26.264 8.42795 26.3117 8.29658 26.3538 8.16224C26.4172 7.96022 26.4488 7.75146 26.4488 7.53598C26.4488 7.30702 26.3982 7.11173 26.2968 6.95012C26.2082 6.77503 26.0878 6.64035 25.9358 6.54608C25.7838 6.43833 25.6128 6.36426 25.4228 6.32385C25.2455 6.26998 25.0682 6.24305 24.8909 6.24305C24.4349 6.24305 24.0105 6.37773 23.6179 6.64709C23.5352 6.70571 23.4543 6.7672 23.3752 6.83157C22.8933 7.22366 22.9999 7.94677 23.3709 8.44507C23.6115 8.7683 23.7319 9.1454 23.7319 9.57638C23.7319 9.94002 23.6432 10.2767 23.4659 10.5865C23.2886 10.8828 23.0732 11.1521 22.8199 11.3946C22.5792 11.637 22.3259 11.8457 22.0599 12.0208C22.0569 12.0228 22.0538 12.0248 22.0508 12.0268C21.6619 12.2828 21.1604 12.2914 20.7679 12.041C20.5146 11.8659 20.2676 11.6639 20.027 11.435C19.799 11.1925 19.6026 10.9232 19.438 10.6269C19.2733 10.3171 19.191 9.96695 19.191 9.57638C19.191 9.15887 19.3176 8.77503 19.571 8.42486C19.9394 7.89595 20.0186 7.13861 19.5019 6.7531C19.4437 6.70966 19.3844 6.66759 19.324 6.62688C18.9566 6.37099 18.5513 6.24305 18.108 6.24305C17.9307 6.24305 17.747 6.26998 17.557 6.32385C17.3797 6.36426 17.215 6.43833 17.063 6.54608C16.911 6.64035 16.7843 6.77503 16.683 6.95012C16.5944 7.11173 16.55 7.30702 16.55 7.53598C16.55 7.75146 16.5817 7.96022 16.645 8.16224C16.687 8.29627 16.7346 8.42734 16.7878 8.55545C16.8368 8.67353 16.8181 8.81012 16.7334 8.90585C16.6366 9.01516 16.4787 9.04393 16.3448 8.98579C15.7627 8.73305 15.0965 8.60668 14.3461 8.60668C13.5354 8.60668 12.6614 8.76157 11.7241 9.07133C10.7995 9.36763 9.88115 9.81207 8.96917 10.4047C8.05719 10.9973 7.17687 11.7313 6.32822 12.6067C5.49224 13.4821 4.75125 14.4922 4.10526 15.637C3.45928 16.7818 2.93995 18.0545 2.54729 19.4552C2.1673 20.8424 1.9773 22.3575 1.9773 24.0006ZM21.4899 46.4855C21.5263 46.4855 21.5614 46.4707 21.5844 46.4426C21.6375 46.3778 21.6946 46.291 21.7559 46.1824C21.8319 46.0612 21.9016 45.9198 21.9649 45.7582C22.0282 45.5966 22.0789 45.4282 22.1169 45.2532C22.1676 45.0915 22.1929 44.9299 22.1929 44.7683C22.1929 44.1025 22.1488 43.6476 22.0607 43.4037C22.0502 43.3748 22.06 43.342 22.0859 43.3255C22.1139 43.3076 22.1508 43.3151 22.1733 43.3395C22.26 43.4337 22.4123 43.5328 22.6299 43.637C22.8959 43.7717 23.1809 43.839 23.4849 43.839C23.7889 43.839 24.0992 43.8255 24.4159 43.7986C24.6694 43.7878 24.923 43.7727 25.1765 43.7533C25.2836 43.7451 25.3658 43.6555 25.3658 43.548C25.3658 43.439 25.2811 43.3491 25.1726 43.3387C24.8226 43.3054 24.4817 43.2432 24.1499 43.1521C23.7699 43.0444 23.4532 42.9165 23.1999 42.7683C22.8579 42.5528 22.5476 42.3239 22.2689 42.0814C22.0349 41.8681 21.8352 41.6497 21.6698 41.426C21.6277 41.369 21.5616 41.334 21.4908 41.334C21.419 41.334 21.3522 41.3699 21.3102 41.4281C20.9575 41.9165 20.4538 42.3632 19.799 42.7683C19.5456 42.9165 19.229 43.0444 18.849 43.1521C18.5406 43.2426 18.2189 43.3046 17.8837 43.3381C17.7749 43.3489 17.69 43.4392 17.69 43.5486C17.69 43.6559 17.7717 43.7457 17.8787 43.7545C18.1071 43.7733 18.3356 43.788 18.564 43.7986C18.8553 43.8255 19.1783 43.839 19.533 43.839C19.8243 43.839 20.0966 43.7717 20.3499 43.637C20.5676 43.5328 20.7198 43.4337 20.8065 43.3395C20.829 43.3151 20.8659 43.3076 20.8939 43.3255C20.9198 43.342 20.9296 43.3748 20.9192 43.4037C20.831 43.6476 20.7869 44.1025 20.7869 44.7683C20.7869 44.9299 20.8059 45.0915 20.8439 45.2532C20.8946 45.4282 20.9516 45.5966 21.0149 45.7582C21.0783 45.9198 21.1479 46.0612 21.2239 46.1824C21.2852 46.291 21.3424 46.3778 21.3954 46.4426C21.4185 46.4707 21.4536 46.4855 21.4899 46.4855ZM21.4899 1.51577C21.4536 1.51577 21.4185 1.53052 21.3954 1.55867C21.3424 1.62349 21.2852 1.7102 21.2239 1.8188C21.1479 1.94002 21.0783 2.08143 21.0149 2.24305C20.9516 2.40466 20.8946 2.57301 20.8439 2.7481C20.8059 2.90971 20.7869 3.07133 20.7869 3.23294C20.7869 3.89874 20.831 4.35362 20.9192 4.5976C20.9296 4.62647 20.9198 4.65928 20.8939 4.6758C20.866 4.69365 20.829 4.68618 20.8065 4.66177C20.7198 4.56757 20.5676 4.4684 20.3499 4.36426C20.0966 4.22958 19.8243 4.16224 19.533 4.16224C19.229 4.16224 18.925 4.17571 18.621 4.20264C18.3779 4.21341 18.1307 4.22849 17.8795 4.24787C17.7723 4.25614 17.69 4.34587 17.69 4.45339C17.69 4.56238 17.7746 4.65228 17.883 4.66311C18.2184 4.6966 18.5404 4.7586 18.849 4.84911C19.229 4.95685 19.5456 5.0848 19.799 5.23294C20.4538 5.63804 20.9575 6.08478 21.3102 6.57316C21.3522 6.63137 21.419 6.66729 21.4908 6.66729C21.5616 6.66729 21.6277 6.63229 21.6698 6.57529C21.8352 6.35159 22.0349 6.13309 22.2689 5.91981C22.5476 5.67739 22.8579 5.44843 23.1999 5.23294C23.4532 5.0848 23.7699 4.95685 24.1499 4.84911C24.4815 4.75811 24.8222 4.69593 25.1719 4.66257C25.2808 4.65218 25.3658 4.56193 25.3658 4.45249C25.3658 4.34527 25.2842 4.25557 25.1773 4.24683C24.9464 4.22795 24.7116 4.21322 24.4729 4.20264C24.1815 4.17571 23.8522 4.16224 23.4849 4.16224C23.1809 4.16224 22.8959 4.22958 22.6299 4.36426C22.4123 4.4684 22.26 4.56757 22.1733 4.66177C22.1508 4.68618 22.1139 4.69365 22.0859 4.6758C22.06 4.65928 22.0502 4.62647 22.0607 4.5976C22.1488 4.35362 22.1929 3.89874 22.1929 3.23294C22.1929 3.07133 22.1676 2.90971 22.1169 2.7481C22.0789 2.57301 22.0282 2.40466 21.9649 2.24305C21.9016 2.08143 21.8319 1.94002 21.7559 1.8188C21.6946 1.7102 21.6375 1.62349 21.5844 1.55867C21.5614 1.53052 21.5263 1.51577 21.4899 1.51577ZM22.4019 9.57638C22.4019 9.26662 22.2879 8.99725 22.0599 8.7683C22.0469 8.75522 22.0339 8.7423 22.021 8.72953C21.677 8.39008 21.1459 8.38678 20.8249 8.7481C20.6223 8.99052 20.5209 9.26662 20.5209 9.57638C20.5209 9.75146 20.5526 9.91982 20.6159 10.0814C20.6793 10.2296 20.7553 10.371 20.8439 10.5057C20.9326 10.6269 21.0276 10.7414 21.1289 10.8491C21.2983 10.9891 21.5472 11.0088 21.7056 10.8564C21.8124 10.7537 21.9241 10.6367 22.0409 10.5057C22.2816 10.2363 22.4019 9.92655 22.4019 9.57638ZM20.5209 38.4249C20.5209 38.7346 20.6349 39.004 20.8629 39.233C20.8792 39.2493 20.8954 39.2654 20.9115 39.2812C21.2503 39.6141 21.7742 39.6176 22.0789 39.2532C22.2942 39.0107 22.4019 38.7346 22.4019 38.4249C22.4019 38.2498 22.3702 38.0882 22.3069 37.94C22.2436 37.7784 22.1676 37.637 22.0789 37.5158C21.9902 37.3811 21.8889 37.2666 21.7749 37.1723C21.6242 37.0121 21.3756 36.9928 21.2172 37.1454C21.1059 37.2525 20.9878 37.376 20.8629 37.5158C20.6349 37.7717 20.5209 38.0747 20.5209 38.4249Z" stroke="white" stroke-opacity="0.4" stroke-width="3.63636" mask="url(#path-4-inside-2_80_1116)"/>
</svg>
