<svg width="26" height="36" viewBox="0 0 26 36" fill="none" xmlns="http://www.w3.org/2000/svg">
<path d="M24.375 13.7143C24.806 13.7143 25.2193 13.8949 25.524 14.2164C25.8288 14.5379 26 14.9739 26 15.4286C26.0003 18.7689 24.8451 21.9945 22.751 24.5C20.6569 27.0055 17.7681 28.6186 14.6266 29.0366L14.625 32.5714H19.5C19.931 32.5714 20.3443 32.752 20.649 33.0735C20.9538 33.395 21.125 33.8311 21.125 34.2857C21.125 34.7404 20.9538 35.1764 20.649 35.4979C20.3443 35.8194 19.931 36 19.5 36H6.5C6.06902 36 5.6557 35.8194 5.35095 35.4979C5.04621 35.1764 4.875 34.7404 4.875 34.2857C4.875 33.8311 5.04621 33.395 5.35095 33.0735C5.6557 32.752 6.06902 32.5714 6.5 32.5714H11.375V29.0366C8.23325 28.619 5.34399 27.0061 3.2496 24.5005C1.15521 21.995 -0.000295253 18.7691 5.65896e-08 15.4286C5.65896e-08 14.9739 0.171205 14.5379 0.475952 14.2164C0.780698 13.8949 1.19402 13.7143 1.625 13.7143C2.05598 13.7143 2.4693 13.8949 2.77405 14.2164C3.07879 14.5379 3.25 14.9739 3.25 15.4286C3.25 18.1565 4.27723 20.7727 6.10571 22.7017C7.93419 24.6306 10.4141 25.7143 13 25.7143C15.5859 25.7143 18.0658 24.6306 19.8943 22.7017C21.7228 20.7727 22.75 18.1565 22.75 15.4286C22.75 14.9739 22.9212 14.5379 23.226 14.2164C23.5307 13.8949 23.944 13.7143 24.375 13.7143ZM13 0C14.7239 0 16.3772 0.722447 17.5962 2.00841C18.8152 3.29437 19.5 5.03852 19.5 6.85714V15.4286C19.5 17.2472 18.8152 18.9913 17.5962 20.2773C16.3772 21.5633 14.7239 22.2857 13 22.2857C11.2761 22.2857 9.62279 21.5633 8.40381 20.2773C7.18482 18.9913 6.5 17.2472 6.5 15.4286V6.85714C6.5 5.03852 7.18482 3.29437 8.40381 2.00841C9.62279 0.722447 11.2761 0 13 0Z" fill="white"/>
</svg>
