<svg width="170" height="170" viewBox="0 0 170 170" fill="none" xmlns="http://www.w3.org/2000/svg">
<g filter="url(#filter0_g_3_2453)">
<path d="M1.99805 30.8C1.99805 14.8942 14.8922 2 30.798 2L138.798 2C154.704 2 167.598 14.8942 167.598 30.8V138.8C167.598 154.706 154.704 167.6 138.798 167.6H30.798C14.8922 167.6 1.99805 154.706 1.99805 138.8L1.99805 30.8Z" fill="white" fill-opacity="0.1"/>
<g opacity="0.15">
<path d="M58.3239 93.9288C58.3239 97.0691 57.5879 99.5618 56.1159 101.407C54.8009 103.036 52.8676 104.204 50.3161 104.91C48.1571 105.499 45.4191 105.793 42.1021 105.793C38.3141 105.793 35.3798 105.097 33.2994 103.703C31.0226 102.172 29.8842 99.8856 29.8842 96.8434C29.8842 95.1555 30.1296 93.3989 30.6202 91.5736C31.0324 90.023 31.6605 88.3253 32.5045 86.4803C33.1129 85.1457 33.9372 83.5363 34.9775 81.652L35.9196 82.2114C35.1934 83.5264 34.5849 84.7041 34.0942 85.7443C33.4466 87.1378 32.9657 88.3841 32.6517 89.4833C32.2787 90.8179 32.0923 92.1133 32.0923 93.3694C32.0923 95.7836 32.9657 97.6089 34.7125 98.8454C36.4789 100.082 38.9225 100.7 42.0432 100.7C45.3602 100.7 48.4319 100.131 51.2582 98.9926C54.3592 97.7365 55.9098 96.235 55.9098 94.4882C55.9098 92.5844 55.6056 89.3557 54.9971 84.8022C54.5261 81.3086 53.9471 77.4028 53.2601 73.0848L52.2886 67.3733L50.9343 66.6667C50.9343 64.0367 51.4741 61.6422 52.5535 59.4832H53.054C53.1325 60.2291 53.2699 60.7884 53.4662 61.1613C53.6625 61.5146 53.9863 61.7796 54.4378 61.9562C55.0462 62.2114 55.7135 62.5156 56.4397 62.8689C56.9696 63.1241 57.4309 63.3498 57.8234 63.546C57.8234 64.9199 57.7744 65.9209 57.6762 66.549C57.5781 67.1771 57.3818 68.0603 57.0874 69.1986L55.4093 68.6687C55.4485 69.1005 55.7331 71.073 56.2631 74.5863C56.8715 78.6884 57.3229 82.0151 57.6173 84.5667C58.0884 88.6491 58.3239 91.7698 58.3239 93.9288ZM74.0384 97.5795H57.2572V92.4568H71.8892C71.8892 90.1408 71.6145 88.3743 71.0649 87.1575C70.692 86.3135 69.7695 85.0966 68.2975 83.5068L70.5938 78.708C72.007 80.494 72.8902 81.8876 73.2435 82.8886C73.7734 84.3998 74.0384 86.9023 74.0384 90.3959V97.5795ZM73.8912 103.468L71.5948 107.707L66.8254 105.175L69.0335 100.965L73.8912 103.468ZM67.1199 106.117L64.8824 110.386L60.113 107.913L62.2916 103.644L67.1199 106.117Z" fill="black" fill-opacity="0.44"/>
<path d="M93.904 104.377C93.904 105.319 93.3937 106.222 92.3731 107.086C90.6067 107.773 87.7607 108.901 83.8353 110.472C83.8353 109.628 84.2671 108.813 85.1307 108.028C86.7598 107.361 89.6842 106.144 93.904 104.377ZM99.7265 97.5795H96.6646C95.3496 97.5795 93.8678 97.285 92.2191 96.6962C90.3153 96.0093 88.6371 95.0672 87.1847 93.8699C86.0464 95.2635 84.8785 96.235 83.6813 96.7846C82.5037 97.3145 80.7765 97.5795 78.4997 97.5795H73.907V92.4568H78.4114C80.1975 92.4568 81.7873 92.0054 83.1808 91.1025C84.2603 90.3959 85.2416 89.4048 86.1249 88.129C87.3221 86.4018 88.7941 84.9003 90.541 83.6246C92.1111 82.4862 93.5537 81.76 94.8687 81.446C96.223 83.5068 97.3025 85.3616 98.1072 87.0102C99.1867 89.2477 99.7265 91.0632 99.7265 92.4568V97.5795ZM96.3408 91.7796C96.0856 90.6413 95.6931 89.5225 95.1631 88.4234C94.7117 87.5009 94.1131 86.549 93.3673 85.5677C92.4252 85.8032 91.6303 86.2448 90.9826 86.8925C90.5508 87.3047 90.0405 88.0014 89.4517 88.9828C90.1582 89.7482 91.1494 90.4352 92.4252 91.0436C93.7206 91.6521 94.9374 92.025 96.0758 92.1624L96.3408 91.7796Z" fill="black"/>
<path d="M117.855 66.5421C117.855 67.445 117.345 68.338 116.324 69.2212C114.558 69.9082 111.712 71.0465 107.786 72.6363C107.786 71.7727 108.218 70.9484 109.082 70.1633C110.711 69.4764 113.635 68.2693 117.855 66.5421ZM133.628 97.5795H99.6245V92.4568H123.619C121.617 90.9062 119.929 89.6992 118.555 88.8356C116.847 87.7561 115.287 86.971 113.874 86.4803C112.284 85.9308 110.675 85.656 109.045 85.656C108.045 85.656 107.034 85.7247 106.013 85.8621C106.582 84.4097 107.328 83.2418 108.251 82.3586C109.585 81.0829 111.273 80.445 113.314 80.445C115.316 80.445 117.681 81.4263 120.41 83.389C121.764 84.3704 123.972 86.235 127.034 88.9828C129.409 91.1221 131.018 92.2801 131.862 92.4568H133.628V97.5795ZM118.643 103.968L116.435 108.208L111.636 105.735L113.933 101.436L118.643 103.968Z" fill="black" fill-opacity="0.46"/>
</g>
</g>
<defs>
<filter id="filter0_g_3_2453" x="-0.00195312" y="0" width="169.6" height="169.6" filterUnits="userSpaceOnUse" color-interpolation-filters="sRGB">
<feFlood flood-opacity="0" result="BackgroundImageFix"/>
<feBlend mode="normal" in="SourceGraphic" in2="BackgroundImageFix" result="shape"/>
<feTurbulence type="fractalNoise" baseFrequency="3.3333332538604736 3.3333332538604736" numOctaves="3" seed="2966" />
<feDisplacementMap in="shape" scale="4" xChannelSelector="R" yChannelSelector="G" result="displacedImage" width="100%" height="100%" />
<feMerge result="effect1_texture_3_2453">
<feMergeNode in="displacedImage"/>
</feMerge>
</filter>
</defs>
</svg>
