<svg width="167" height="166" viewBox="0 0 167 166" fill="none" xmlns="http://www.w3.org/2000/svg">
<path d="M0.599609 28.8C0.599609 12.8942 13.4938 0 29.3996 0L137.4 0C153.305 0 166.2 12.8942 166.2 28.8V136.8C166.2 152.706 153.305 165.6 137.4 165.6H29.3996C13.4938 165.6 0.599609 152.706 0.599609 136.8L0.599609 28.8Z" fill="white" fill-opacity="0.1"/>
<g filter="url(#filter0_d_3_2478)">
<rect x="19.4951" y="31.5" width="127.948" height="29.6829" rx="5.96842" fill="white" fill-opacity="0.59" shape-rendering="crispEdges"/>
<g clip-path="url(#clip0_3_2478)">
<path fill-rule="evenodd" clip-rule="evenodd" d="M31.2116 44.7886C31.3345 44.9115 31.3424 45.106 31.2348 45.2379L31.2116 45.2635L29.5333 46.9418C29.6562 46.8189 29.6639 46.6244 29.5562 46.4925L29.533 46.4673L29.2957 46.23L29.0584 46.4673L29.0352 46.4925C28.9276 46.6244 28.9355 46.8189 29.0584 46.9418L29.0801 46.9617C29.198 47.0608 29.3681 47.066 29.4915 46.9773C29.3694 47.0651 29.2015 47.0611 29.0837 46.965L29.0801 46.9617C29.0727 46.9555 29.0654 46.9488 29.0584 46.9418L27.3798 45.2635L27.3566 45.2379C27.2491 45.106 27.2569 44.9115 27.3798 44.7886C27.5027 44.6657 27.6972 44.6579 27.8291 44.7654L27.8547 44.7886L29.2957 46.23L30.7372 44.7886C30.8682 44.6576 31.0805 44.6576 31.2116 44.7886Z" fill="#191919" fill-opacity="0.25"/>
<path d="M29.0352 46.4925L29.0584 46.4673L29.2957 46.23L29.533 46.4673L29.5562 46.4925C29.6639 46.6244 29.6562 46.8189 29.5333 46.9418C29.5224 46.9527 29.511 46.9627 29.4991 46.9717C29.4966 46.9736 29.494 46.9755 29.4915 46.9773C29.3681 47.066 29.198 47.0608 29.0801 46.9617L29.0584 46.9418C28.9355 46.8189 28.9276 46.6244 29.0352 46.4925Z" fill="#191919" fill-opacity="0.25"/>
</g>
<path d="M38.9433 44.4685H38.2089V39.7376H38.9433V44.4685ZM39.658 44.4685V44.0128L41.4973 41.5965V41.5834H39.6711V41.0195H42.3103V41.5047L40.517 43.8915V43.9046H42.33V44.4685H39.658ZM42.989 44.4685V39.7376H43.6906V41.5965H43.707C43.8972 41.1932 44.2742 40.9605 44.7988 40.9605C45.5561 40.9605 46.0085 41.4654 46.0085 42.2456V44.4685H45.2971V42.3833C45.2971 41.8752 45.0414 41.5703 44.543 41.5703C44.0185 41.5703 43.6972 41.9309 43.6972 42.4751V44.4685H42.989ZM47.9003 43.9669C48.3953 43.9669 48.7822 43.6259 48.7822 43.1768V42.9046L47.9331 42.9571C47.5101 42.9866 47.2708 43.1735 47.2708 43.4685C47.2708 43.7702 47.52 43.9669 47.9003 43.9669ZM47.7036 44.5275C47.0282 44.5275 46.5561 44.1079 46.5561 43.4882C46.5561 42.885 47.0183 42.5145 47.838 42.4686L48.7822 42.4129V42.1473C48.7822 41.7637 48.5232 41.5342 48.0904 41.5342C47.6806 41.5342 47.4249 41.7309 47.3626 42.0391H46.6938C46.7331 41.4162 47.2642 40.9572 48.1167 40.9572C48.9527 40.9572 49.4871 41.3998 49.4871 42.0916V44.4685H48.8084V43.9013H48.792C48.592 44.2849 48.156 44.5275 47.7036 44.5275ZM50.1756 44.4685V41.0195H50.851V41.6063H50.8674C50.9821 41.2031 51.2903 40.9637 51.6968 40.9637C51.7985 40.9637 51.887 40.9801 51.9394 40.99V41.649C51.8837 41.626 51.7591 41.6096 51.6214 41.6096C51.1657 41.6096 50.8837 41.9145 50.8837 42.403V44.4685H50.1756Z" fill="#C1C1C1"/>
<path d="M39.6023 53.2933C38.7629 53.2933 38.148 52.7804 38.1101 52.046H38.7338C38.7804 52.4627 39.1389 52.7483 39.6081 52.7483C40.1385 52.7483 40.5057 52.3782 40.5057 51.8507C40.5057 51.3232 40.1385 50.9444 39.6139 50.9444C39.2496 50.9444 38.9349 51.1105 38.7717 51.3874H38.1743L38.3957 49.0093H40.8991V49.5601H38.9203L38.8037 50.8511H38.8183C39.0019 50.5859 39.3458 50.4256 39.7567 50.4256C40.564 50.4256 41.1439 51.0172 41.1439 51.8332C41.1439 52.6959 40.5086 53.2933 39.6023 53.2933ZM42.8721 53.2146V50.1488H43.4724V50.6646H43.487C43.6239 50.3236 43.9445 50.0963 44.3583 50.0963C44.7838 50.0963 45.0927 50.3149 45.2151 50.6967H45.2297C45.3871 50.3236 45.7484 50.0963 46.1856 50.0963C46.7918 50.0963 47.1881 50.4985 47.1881 51.1076V53.2146H46.5557V51.2591C46.5557 50.8628 46.343 50.6355 45.9699 50.6355C45.5969 50.6355 45.3375 50.9123 45.3375 51.2999V53.2146H44.7197V51.2125C44.7197 50.8599 44.4953 50.6355 44.1398 50.6355C43.7667 50.6355 43.5015 50.9269 43.5015 51.3203V53.2146H42.8721ZM47.8176 53.2146V50.1488H48.4471V53.2146H47.8176ZM48.1323 49.7C47.9312 49.7 47.768 49.5397 47.768 49.3415C47.768 49.1405 47.9312 48.9802 48.1323 48.9802C48.3363 48.9802 48.4995 49.1405 48.4995 49.3415C48.4995 49.5397 48.3363 49.7 48.1323 49.7ZM49.0911 53.2146V50.1488H49.6914V50.6617H49.706C49.8721 50.312 50.1985 50.0963 50.6706 50.0963C51.3468 50.0963 51.7343 50.5276 51.7343 51.23V53.2146H51.102V51.3524C51.102 50.8919 50.8863 50.6384 50.4492 50.6384C50.0062 50.6384 49.7206 50.9531 49.7206 51.4282V53.2146H49.0911Z" fill="#191919" fill-opacity="0.25"/>
<path d="M55.3926 52.7206C54.9882 52.7206 54.656 52.3862 54.656 51.984C54.656 51.5797 54.9882 51.2453 55.3926 51.2453C55.7969 51.2453 56.1292 51.5797 56.1292 51.984C56.1292 52.3862 55.7969 52.7206 55.3926 52.7206Z" fill="#191919" fill-opacity="0.25"/>
<path d="M59.0383 50.242C59.0383 49.4843 59.6473 48.9306 60.4837 48.9306C61.2852 48.9306 61.8826 49.4406 61.8826 50.108C61.8826 50.5976 61.6203 50.9619 61.0054 51.5914L59.9533 52.6492V52.6638H61.9496V53.2146H59.0732V52.7716L60.5916 51.2242C61.1045 50.6908 61.2385 50.4694 61.2385 50.14C61.2385 49.767 60.9005 49.4698 60.4633 49.4698C60.0029 49.4698 59.6561 49.802 59.6561 50.2391V50.2479H59.0383V50.242ZM64.8785 50.0992C65.3214 50.0992 65.6711 50.3236 65.8518 50.6763H65.8664V50.1488H66.4784V54.2288H65.846V52.6988H65.8343C65.6595 53.0427 65.301 53.2671 64.8639 53.2671C64.0945 53.2671 63.5904 52.6492 63.5904 51.6817C63.5904 50.7142 64.0945 50.0992 64.8785 50.0992ZM65.0329 52.7337C65.5167 52.7337 65.8489 52.3199 65.8489 51.6817C65.8489 51.0464 65.5167 50.6296 65.0329 50.6296C64.5404 50.6296 64.2344 51.0318 64.2344 51.6817C64.2344 52.3316 64.5404 52.7337 65.0329 52.7337ZM69.7307 50.1488V53.2146H69.1275V52.6959H69.1129C68.9439 53.0631 68.632 53.27 68.1628 53.27C67.4955 53.27 67.0875 52.8357 67.0875 52.1334V50.1488H67.717V52.011C67.717 52.4773 67.9384 52.7279 68.3727 52.7279C68.8273 52.7279 69.1012 52.4132 69.1012 51.9352V50.1488H69.7307ZM70.3748 53.2146V50.1488H71.0042V53.2146H70.3748ZM70.6895 49.7C70.4884 49.7 70.3252 49.5397 70.3252 49.3415C70.3252 49.1405 70.4884 48.9802 70.6895 48.9802C70.8935 48.9802 71.0567 49.1405 71.0567 49.3415C71.0567 49.5397 70.8935 49.7 70.6895 49.7ZM71.5842 53.2146V52.8095L73.2191 50.6617V50.65H71.5958V50.1488H73.9418V50.5801L72.3477 52.7017V52.7133H73.9593V53.2146H71.5842ZM74.4577 53.2146V52.8095L76.0926 50.6617V50.65H74.4693V50.1488H76.8153V50.5801L75.2212 52.7017V52.7133H76.8328V53.2146H74.4577ZM78.5784 50.6005C78.1384 50.6005 77.8295 50.9356 77.7974 51.399H79.3303C79.3157 50.9298 79.0185 50.6005 78.5784 50.6005ZM79.3274 52.3141H79.9248C79.8374 52.8736 79.307 53.2729 78.6047 53.2729C77.7042 53.2729 77.1592 52.6638 77.1592 51.6963C77.1592 50.7346 77.7129 50.0934 78.5784 50.0934C79.4294 50.0934 79.9598 50.6938 79.9598 51.6234V51.8391H77.7945V51.877C77.7945 52.4103 78.1151 52.7629 78.6192 52.7629C78.9777 52.7629 79.2429 52.5822 79.3274 52.3141ZM80.394 51.0172C80.394 50.4694 80.8778 50.0934 81.5947 50.0934C82.2766 50.0934 82.7546 50.4752 82.775 51.0202H82.1834C82.1542 50.7433 81.9298 50.5714 81.5772 50.5714C81.2362 50.5714 81.0089 50.7375 81.0089 50.9794C81.0089 51.1688 81.1605 51.297 81.4781 51.3757L81.994 51.4952C82.6118 51.6438 82.8449 51.877 82.8449 52.3287C82.8449 52.8882 82.3233 53.2729 81.5714 53.2729C80.8457 53.2729 80.3649 52.8969 80.3153 52.3345H80.939C80.9885 52.6288 81.2158 52.792 81.6005 52.792C81.9794 52.792 82.2125 52.6347 82.2125 52.3869C82.2125 52.1917 82.096 52.0839 81.7754 52.0023L81.2275 51.8682C80.6738 51.7342 80.394 51.4456 80.394 51.0172Z" fill="#191919" fill-opacity="0.25"/>
<rect x="131.776" y="41.4922" width="9.69868" height="9.69868" rx="2.98421" fill="#EBEBEB"/>
<path d="M134.993 46.4273L135.832 47.3132L137.931 45.0984" stroke="white" stroke-width="0.664453" stroke-linecap="round" stroke-linejoin="round"/>
</g>
<g filter="url(#filter1_d_3_2478)">
<rect x="19.4951" y="68.0566" width="127.948" height="77.4303" rx="5.96842" fill="white" fill-opacity="0.59" shape-rendering="crispEdges"/>
<g clip-path="url(#clip1_3_2478)">
<path fill-rule="evenodd" clip-rule="evenodd" d="M27.7156 83.4985C27.5927 83.3756 27.5848 83.1811 27.6924 83.0492L27.7156 83.0236L29.394 81.3453C29.271 81.4682 29.2634 81.6627 29.371 81.7946L29.3942 81.8198L29.6315 82.0571L29.8688 81.8198L29.892 81.7946C29.9996 81.6627 29.9917 81.4682 29.8688 81.3453L29.8471 81.3254C29.7292 81.2263 29.5592 81.2211 29.4358 81.3098C29.5579 81.222 29.7258 81.226 29.8435 81.3221L29.8471 81.3254C29.8546 81.3316 29.8618 81.3383 29.8688 81.3453L31.5475 83.0236L31.5707 83.0492C31.6782 83.1811 31.6704 83.3756 31.5475 83.4985C31.4246 83.6214 31.23 83.6292 31.0982 83.5217L31.0726 83.4985L29.6315 82.0571L28.1901 83.4985C28.059 83.6295 27.8467 83.6295 27.7156 83.4985Z" fill="#191919" fill-opacity="0.25"/>
<path d="M29.892 81.7946L29.8688 81.8198L29.6315 82.0571L29.3942 81.8198L29.371 81.7946C29.2634 81.6627 29.271 81.4682 29.394 81.3453C29.4048 81.3344 29.4163 81.3245 29.4282 81.3154C29.4307 81.3135 29.4332 81.3116 29.4358 81.3098C29.5592 81.2211 29.7292 81.2263 29.8471 81.3254L29.8688 81.3453C29.9917 81.4682 29.9996 81.6627 29.892 81.7946Z" fill="#191919" fill-opacity="0.25"/>
</g>
<path d="M38.6859 81.0251H37.9515V76.2942H38.6859V81.0251ZM40.2137 79.0547L41.6071 77.5761H42.4398L41.0104 79.0613L42.4956 81.0251H41.6726L40.5022 79.4941L40.2071 79.7859V81.0251H39.499V76.2942H40.2071V79.0547H40.2137ZM42.889 81.0251V76.2942H43.5971V81.0251H42.889ZM45.5315 80.5235C46.0266 80.5235 46.4134 80.1826 46.4134 79.7334V79.4613L45.5643 79.5137C45.1413 79.5432 44.902 79.7301 44.902 80.0252C44.902 80.3268 45.1512 80.5235 45.5315 80.5235ZM45.3348 81.0842C44.6594 81.0842 44.1873 80.6645 44.1873 80.0449C44.1873 79.4416 44.6496 79.0711 45.4692 79.0252L46.4134 78.9695V78.7039C46.4134 78.3203 46.1544 78.0908 45.7216 78.0908C45.3118 78.0908 45.0561 78.2876 44.9938 78.5957H44.325C44.3643 77.9728 44.8955 77.5138 45.7479 77.5138C46.5839 77.5138 47.1183 77.9564 47.1183 78.6482V81.0251H46.4396V80.458H46.4233C46.2233 80.8415 45.7872 81.0842 45.3348 81.0842ZM49.6428 81.0842C49.1379 81.0842 48.7477 80.8383 48.5346 80.4383H48.5215V81.0251H47.833V76.2942H48.5412V78.163H48.5576C48.7641 77.763 49.1576 77.5204 49.6461 77.5204C50.5149 77.5204 51.0821 78.2089 51.0821 79.3006C51.0821 80.3957 50.5182 81.0842 49.6428 81.0842ZM49.4526 78.1171C48.915 78.1171 48.5379 78.5892 48.5379 79.3006C48.5379 80.0186 48.915 80.4842 49.4526 80.4842C50.01 80.4842 50.3542 80.0317 50.3542 79.3006C50.3542 78.5761 50.01 78.1171 49.4526 78.1171Z" fill="#C1C1C1"/>
<path d="M39.6023 89.8499C38.7629 89.8499 38.148 89.337 38.1101 88.6026H38.7338C38.7804 89.0194 39.1389 89.305 39.6081 89.305C40.1385 89.305 40.5057 88.9348 40.5057 88.4074C40.5057 87.8799 40.1385 87.501 39.6139 87.501C39.2496 87.501 38.9349 87.6671 38.7717 87.944H38.1743L38.3957 85.566H40.8991V86.1167H38.9203L38.8037 87.4078H38.8183C39.0019 87.1426 39.3458 86.9823 39.7567 86.9823C40.564 86.9823 41.1439 87.5739 41.1439 88.3899C41.1439 89.2525 40.5086 89.8499 39.6023 89.8499ZM42.8721 89.7712V86.7054H43.4724V87.2213H43.487C43.6239 86.8803 43.9445 86.653 44.3583 86.653C44.7838 86.653 45.0927 86.8715 45.2151 87.2533H45.2297C45.3871 86.8803 45.7484 86.653 46.1856 86.653C46.7918 86.653 47.1881 87.0551 47.1881 87.6642V89.7712H46.5557V87.8158C46.5557 87.4194 46.343 87.1921 45.9699 87.1921C45.5969 87.1921 45.3375 87.469 45.3375 87.8566V89.7712H44.7197V87.7691C44.7197 87.4165 44.4953 87.1921 44.1398 87.1921C43.7667 87.1921 43.5015 87.4835 43.5015 87.877V89.7712H42.8721ZM47.8176 89.7712V86.7054H48.4471V89.7712H47.8176ZM48.1323 86.2566C47.9312 86.2566 47.768 86.0963 47.768 85.8982C47.768 85.6971 47.9312 85.5368 48.1323 85.5368C48.3363 85.5368 48.4995 85.6971 48.4995 85.8982C48.4995 86.0963 48.3363 86.2566 48.1323 86.2566ZM49.0911 89.7712V86.7054H49.6914V87.2183H49.706C49.8721 86.8686 50.1985 86.653 50.6706 86.653C51.3468 86.653 51.7343 87.0843 51.7343 87.7866V89.7712H51.102V87.909C51.102 87.4486 50.8863 87.195 50.4492 87.195C50.0062 87.195 49.7206 87.5098 49.7206 87.9848V89.7712H49.0911Z" fill="#191919" fill-opacity="0.25"/>
<path d="M55.3926 89.2773C54.9882 89.2773 54.656 88.9429 54.656 88.5407C54.656 88.1363 54.9882 87.8019 55.3926 87.8019C55.7969 87.8019 56.1292 88.1363 56.1292 88.5407C56.1292 88.9429 55.7969 89.2773 55.3926 89.2773Z" fill="#191919" fill-opacity="0.25"/>
<path d="M59.0383 86.7987C59.0383 86.041 59.6473 85.4873 60.4837 85.4873C61.2852 85.4873 61.8826 85.9973 61.8826 86.6646C61.8826 87.1542 61.6203 87.5185 61.0054 88.148L59.9533 89.2059V89.2204H61.9496V89.7712H59.0732V89.3283L60.5916 87.7808C61.1045 87.2475 61.2385 87.026 61.2385 86.6967C61.2385 86.3237 60.9005 86.0264 60.4633 86.0264C60.0029 86.0264 59.6561 86.3586 59.6561 86.7958V86.8045H59.0383V86.7987ZM64.8785 86.6559C65.3214 86.6559 65.6711 86.8803 65.8518 87.2329H65.8664V86.7054H66.4784V90.7854H65.846V89.2554H65.8343C65.6595 89.5993 65.301 89.8237 64.8639 89.8237C64.0945 89.8237 63.5904 89.2059 63.5904 88.2383C63.5904 87.2708 64.0945 86.6559 64.8785 86.6559ZM65.0329 89.2904C65.5167 89.2904 65.8489 88.8766 65.8489 88.2383C65.8489 87.603 65.5167 87.1863 65.0329 87.1863C64.5404 87.1863 64.2344 87.5885 64.2344 88.2383C64.2344 88.8882 64.5404 89.2904 65.0329 89.2904ZM69.7307 86.7054V89.7712H69.1275V89.2525H69.1129C68.9439 89.6197 68.632 89.8266 68.1628 89.8266C67.4955 89.8266 67.0875 89.3924 67.0875 88.69V86.7054H67.717V88.5676C67.717 89.0339 67.9384 89.2846 68.3727 89.2846C68.8273 89.2846 69.1012 88.9698 69.1012 88.4919V86.7054H69.7307ZM70.3748 89.7712V86.7054H71.0042V89.7712H70.3748ZM70.6895 86.2566C70.4884 86.2566 70.3252 86.0963 70.3252 85.8982C70.3252 85.6971 70.4884 85.5368 70.6895 85.5368C70.8935 85.5368 71.0567 85.6971 71.0567 85.8982C71.0567 86.0963 70.8935 86.2566 70.6895 86.2566ZM71.5842 89.7712V89.3662L73.2191 87.2183V87.2067H71.5958V86.7054H73.9418V87.1367L72.3477 89.2583V89.27H73.9593V89.7712H71.5842ZM74.4577 89.7712V89.3662L76.0926 87.2183V87.2067H74.4693V86.7054H76.8153V87.1367L75.2212 89.2583V89.27H76.8328V89.7712H74.4577ZM78.5784 87.1571C78.1384 87.1571 77.8295 87.4923 77.7974 87.9557H79.3303C79.3157 87.4865 79.0185 87.1571 78.5784 87.1571ZM79.3274 88.8707H79.9248C79.8374 89.4303 79.307 89.8295 78.6047 89.8295C77.7042 89.8295 77.1592 89.2204 77.1592 88.2529C77.1592 87.2912 77.7129 86.6501 78.5784 86.6501C79.4294 86.6501 79.9598 87.2504 79.9598 88.18V88.3957H77.7945V88.4336C77.7945 88.9669 78.1151 89.3195 78.6192 89.3195C78.9777 89.3195 79.2429 89.1388 79.3274 88.8707ZM80.394 87.5739C80.394 87.026 80.8778 86.6501 81.5947 86.6501C82.2766 86.6501 82.7546 87.0318 82.775 87.5768H82.1834C82.1542 87.2999 81.9298 87.128 81.5772 87.128C81.2362 87.128 81.0089 87.2941 81.0089 87.536C81.0089 87.7254 81.1605 87.8537 81.4781 87.9323L81.994 88.0518C82.6118 88.2004 82.8449 88.4336 82.8449 88.8853C82.8449 89.4448 82.3233 89.8295 81.5714 89.8295C80.8457 89.8295 80.3649 89.4536 80.3153 88.8911H80.939C80.9885 89.1855 81.2158 89.3487 81.6005 89.3487C81.9794 89.3487 82.2125 89.1913 82.2125 88.9436C82.2125 88.7483 82.096 88.6405 81.7754 88.5589L81.2275 88.4248C80.6738 88.2908 80.394 88.0023 80.394 87.5739Z" fill="#191919" fill-opacity="0.25"/>
<mask id="path-16-inside-1_3_2478" fill="white">
<path d="M131.776 77.0094C131.776 75.3612 133.112 74.0251 134.76 74.0251H138.49C140.138 74.0251 141.475 75.3612 141.475 77.0094V80.7396C141.475 82.3878 140.138 83.7238 138.49 83.7238H134.76C133.112 83.7238 131.776 82.3878 131.776 80.7396V77.0094Z"/>
</mask>
<path d="M134.76 74.0251V74.7712H138.49V74.0251V73.2791H134.76V74.0251ZM141.475 77.0094H140.729V80.7396H141.475H142.221V77.0094H141.475ZM138.49 83.7238V82.9778H134.76V83.7238V84.4699H138.49V83.7238ZM131.776 80.7396H132.522V77.0094H131.776H131.03V80.7396H131.776ZM134.76 83.7238V82.9778C133.524 82.9778 132.522 81.9757 132.522 80.7396H131.776H131.03C131.03 82.7998 132.7 84.4699 134.76 84.4699V83.7238ZM141.475 80.7396H140.729C140.729 81.9757 139.726 82.9778 138.49 82.9778V83.7238V84.4699C140.551 84.4699 142.221 82.7998 142.221 80.7396H141.475ZM138.49 74.0251V74.7712C139.726 74.7712 140.729 75.7733 140.729 77.0094H141.475H142.221C142.221 74.9492 140.551 73.2791 138.49 73.2791V74.0251ZM134.76 74.0251V73.2791C132.7 73.2791 131.03 74.9492 131.03 77.0094H131.776H132.522C132.522 75.7733 133.524 74.7712 134.76 74.7712V74.0251Z" fill="#F16F4E" fill-opacity="0.1" mask="url(#path-16-inside-1_3_2478)"/>
<rect x="25.4634" y="99.2317" width="116.011" height="17.9053" rx="4.47632" fill="#909090" fill-opacity="0.03"/>
<path d="M33.2968 110.05H35.535M33.2968 108.93H35.535M34.789 104.827C34.7534 104.827 34.7133 104.827 34.6676 104.827H32.9984C32.5806 104.827 32.3715 104.827 32.212 104.908C32.0716 104.98 31.9575 105.094 31.886 105.234C31.8047 105.394 31.8047 105.603 31.8047 106.021V110.348C31.8047 110.766 31.8047 110.975 31.886 111.134C31.9575 111.275 32.0716 111.389 32.212 111.46C32.3714 111.542 32.5802 111.542 32.9972 111.542L35.8345 111.542C36.2515 111.542 36.4601 111.542 36.6195 111.46C36.7599 111.389 36.8743 111.275 36.9458 111.134C37.0271 110.975 37.0271 110.766 37.0271 110.349V107.187C37.0271 107.141 37.027 107.101 37.0267 107.065M34.789 104.827C34.8955 104.828 34.9626 104.832 35.027 104.848C35.1031 104.866 35.176 104.896 35.2428 104.937C35.3181 104.983 35.3827 105.048 35.5116 105.177L36.6775 106.343C36.8066 106.472 36.8707 106.536 36.9168 106.611C36.9578 106.678 36.988 106.751 37.0063 106.827C37.0217 106.891 37.0257 106.959 37.0267 107.065M34.789 104.827L34.7889 105.872C34.7889 106.29 34.7889 106.498 34.8702 106.658C34.9417 106.798 35.0558 106.913 35.1962 106.984C35.3556 107.065 35.5644 107.065 35.9814 107.065H37.0267" stroke="#191919" stroke-opacity="0.25" stroke-width="0.559539" stroke-linecap="round" stroke-linejoin="round"/>
<path d="M43.9602 110.184H43.3074V106.541H42.0193V105.979H45.2454V106.541H43.9602V110.184ZM45.7262 110.184V105.979H46.3499V107.631H46.3644C46.5335 107.273 46.8686 107.066 47.3349 107.066C48.0081 107.066 48.4103 107.515 48.4103 108.208V110.184H47.7779V108.331C47.7779 107.879 47.5505 107.608 47.1076 107.608C46.6413 107.608 46.3557 107.929 46.3557 108.412V110.184H45.7262ZM50.3016 107.57C49.8616 107.57 49.5526 107.905 49.5206 108.369H51.0535C51.0389 107.9 50.7417 107.57 50.3016 107.57ZM51.0506 109.284H51.648C51.5606 109.843 51.0302 110.243 50.3278 110.243C49.4273 110.243 48.8824 109.634 48.8824 108.666C48.8824 107.704 49.4361 107.063 50.3016 107.063C51.1526 107.063 51.683 107.663 51.683 108.593V108.809H49.5177V108.847C49.5177 109.38 49.8382 109.733 50.3424 109.733C50.7009 109.733 50.9661 109.552 51.0506 109.284ZM53.4898 110.243C52.6126 110.243 52.0356 109.639 52.0356 108.651C52.0356 107.666 52.6155 107.063 53.4898 107.063C54.3641 107.063 54.944 107.666 54.944 108.651C54.944 109.639 54.367 110.243 53.4898 110.243ZM53.4898 109.724C53.9852 109.724 54.3029 109.333 54.3029 108.651C54.3029 107.972 53.9823 107.582 53.4898 107.582C52.9973 107.582 52.6767 107.972 52.6767 108.651C52.6767 109.333 52.9973 109.724 53.4898 109.724ZM55.4307 110.184V107.119H56.0311V107.64H56.0456C56.1476 107.282 56.4216 107.069 56.7829 107.069C56.8733 107.069 56.952 107.084 56.9986 107.092V107.678C56.9491 107.658 56.8383 107.643 56.7159 107.643C56.3108 107.643 56.0602 107.914 56.0602 108.348V110.184H55.4307ZM57.6922 111.327C57.6427 111.327 57.4824 111.321 57.4357 111.312V110.802C57.4824 110.814 57.5873 110.814 57.6397 110.814C57.9341 110.814 58.0885 110.691 58.1847 110.377C58.1847 110.371 58.2401 110.19 58.2401 110.187L57.1327 107.119H57.8146L58.5927 109.613H58.6014L59.3796 107.119H60.044L58.8929 110.345C58.6306 111.088 58.3304 111.327 57.6922 111.327ZM62.7047 110.184V106.626H62.6902L61.5915 107.407V106.766L62.6989 105.979H63.343V110.184H62.7047Z" fill="#969696" fill-opacity="0.7"/>
<rect x="25.4634" y="121.613" width="116.011" height="17.9053" rx="4.47632" fill="#909090" fill-opacity="0.03"/>
<g clip-path="url(#clip2_3_2478)">
<path d="M33.2968 131.685L34.0428 132.431L35.535 130.939M34.7889 127.209C34.7533 127.209 34.7133 127.209 34.6676 127.209H32.9984C32.5806 127.209 32.3715 127.209 32.212 127.29C32.0716 127.362 31.9575 127.476 31.886 127.616C31.8047 127.776 31.8047 127.985 31.8047 128.402V132.73C31.8047 133.147 31.8047 133.356 31.886 133.516C31.9575 133.656 32.0716 133.77 32.212 133.842C32.3714 133.923 32.5802 133.923 32.9972 133.923L35.8345 133.923C36.2515 133.923 36.4601 133.923 36.6195 133.842C36.7599 133.77 36.8743 133.656 36.9458 133.516C37.0271 133.356 37.0271 133.148 37.0271 132.731V129.568C37.0271 129.523 37.027 129.483 37.0267 129.447M34.7889 127.209C34.8954 127.21 34.9629 127.214 35.0272 127.229C35.1033 127.248 35.176 127.278 35.2428 127.319C35.3181 127.365 35.3827 127.43 35.5116 127.558L36.6775 128.724C36.8066 128.853 36.8707 128.918 36.9168 128.993C36.9578 129.06 36.988 129.133 37.0063 129.209C37.0217 129.273 37.0257 129.34 37.0267 129.447M34.7889 127.209V128.253C34.7889 128.671 34.7889 128.88 34.8702 129.039C34.9417 129.18 35.0558 129.294 35.1962 129.366C35.3556 129.447 35.5644 129.447 35.9814 129.447H37.0267M37.0267 129.447H37.0271" stroke="#191919" stroke-opacity="0.25" stroke-width="0.559539" stroke-linecap="round" stroke-linejoin="round"/>
</g>
<path d="M44.0826 132.636C42.8702 132.636 42.1125 131.805 42.1125 130.465C42.1125 129.13 42.8702 128.291 44.0826 128.291C45.292 128.291 46.0526 129.13 46.0526 130.465C46.0526 131.252 45.7903 131.869 45.3211 132.234L45.869 133.012H45.1871L44.8286 132.511C44.6042 132.595 44.3536 132.636 44.0826 132.636ZM44.0826 132.065C44.2225 132.065 44.3536 132.044 44.476 132.006L43.9747 131.298H44.6363L44.9335 131.7C45.2191 131.435 45.3823 131.007 45.3823 130.465C45.3823 129.483 44.8811 128.862 44.0826 128.862C43.2841 128.862 42.7799 129.483 42.7799 130.465C42.7799 131.444 43.2841 132.065 44.0826 132.065ZM49.2292 129.5V132.566H48.6259V132.047H48.6113C48.4423 132.414 48.1305 132.621 47.6613 132.621C46.9939 132.621 46.5859 132.187 46.5859 131.485V129.5H47.2154V131.362C47.2154 131.829 47.4369 132.079 47.8711 132.079C48.3257 132.079 48.5997 131.764 48.5997 131.287V129.5H49.2292ZM49.8732 132.566V129.5H50.5027V132.566H49.8732ZM50.188 129.051C49.9869 129.051 49.8237 128.891 49.8237 128.693C49.8237 128.492 49.9869 128.331 50.188 128.331C50.392 128.331 50.5552 128.492 50.5552 128.693C50.5552 128.891 50.392 129.051 50.188 129.051ZM51.0826 132.566V132.161L52.7175 130.013V130.001H51.0943V129.5H53.4403V129.931L51.8462 132.053V132.065H53.4578V132.566H51.0826ZM55.2034 129.952C54.7634 129.952 54.4544 130.287 54.4224 130.75H55.9553C55.9407 130.281 55.6435 129.952 55.2034 129.952ZM55.9524 131.665H56.5498C56.4624 132.225 55.932 132.624 55.2296 132.624C54.3291 132.624 53.7842 132.015 53.7842 131.048C53.7842 130.086 54.3379 129.445 55.2034 129.445C56.0544 129.445 56.5848 130.045 56.5848 130.975V131.19H54.4195V131.228C54.4195 131.762 54.74 132.114 55.2442 132.114C55.6027 132.114 55.8679 131.934 55.9524 131.665ZM59.365 132.566V129.008H59.3504L58.2517 129.789V129.147L59.3592 128.361H60.0032V132.566H59.365Z" fill="#969696" fill-opacity="0.7"/>
</g>
<defs>
<filter id="filter0_d_3_2478" x="8.51512" y="22.32" width="149.908" height="51.6429" filterUnits="userSpaceOnUse" color-interpolation-filters="sRGB">
<feFlood flood-opacity="0" result="BackgroundImageFix"/>
<feColorMatrix in="SourceAlpha" type="matrix" values="0 0 0 0 0 0 0 0 0 0 0 0 0 0 0 0 0 0 127 0" result="hardAlpha"/>
<feOffset dy="1.8"/>
<feGaussianBlur stdDeviation="5.49"/>
<feComposite in2="hardAlpha" operator="out"/>
<feColorMatrix type="matrix" values="0 0 0 0 0 0 0 0 0 0 0 0 0 0 0 0 0 0 0.02 0"/>
<feBlend mode="normal" in2="BackgroundImageFix" result="effect1_dropShadow_3_2478"/>
<feBlend mode="normal" in="SourceGraphic" in2="effect1_dropShadow_3_2478" result="shape"/>
</filter>
<filter id="filter1_d_3_2478" x="8.51512" y="58.8766" width="149.908" height="99.3902" filterUnits="userSpaceOnUse" color-interpolation-filters="sRGB">
<feFlood flood-opacity="0" result="BackgroundImageFix"/>
<feColorMatrix in="SourceAlpha" type="matrix" values="0 0 0 0 0 0 0 0 0 0 0 0 0 0 0 0 0 0 127 0" result="hardAlpha"/>
<feOffset dy="1.8"/>
<feGaussianBlur stdDeviation="5.49"/>
<feComposite in2="hardAlpha" operator="out"/>
<feColorMatrix type="matrix" values="0 0 0 0 0 0 0 0 0 0 0 0 0 0 0 0 0 0 0.02 0"/>
<feBlend mode="normal" in2="BackgroundImageFix" result="effect1_dropShadow_3_2478"/>
<feBlend mode="normal" in="SourceGraphic" in2="effect1_dropShadow_3_2478" result="shape"/>
</filter>
<clipPath id="clip0_3_2478">
<rect width="8.95263" height="8.95263" fill="white" transform="translate(25.4634 41.8652)"/>
</clipPath>
<clipPath id="clip1_3_2478">
<rect width="8.95263" height="8.95263" fill="white" transform="translate(25.4634 78.4219)"/>
</clipPath>
<clipPath id="clip2_3_2478">
<rect width="8.95263" height="8.95263" fill="white" transform="translate(29.9395 126.09)"/>
</clipPath>
</defs>
</svg>
