<svg width="166" height="166" viewBox="0 0 166 166" fill="none" xmlns="http://www.w3.org/2000/svg">
<path d="M0.201172 28.8C0.201172 12.8942 13.0954 0 29.0012 0L137.001 0C152.907 0 165.801 12.8942 165.801 28.8V136.8C165.801 152.706 152.907 165.6 137.001 165.6H29.0012C13.0954 165.6 0.201172 152.706 0.201172 136.8L0.201172 28.8Z" fill="white" fill-opacity="0.1"/>
<g opacity="0.04">
<path d="M94.74 59.4486C84.9702 56.2429 73.3593 59.7539 69.8577 69.2185C63.7582 85.7051 82.8839 96.3754 86.4967 99.8355M107.258 91.048C96.2665 96.4927 73.3685 104.023 60.2402 111.046" stroke="black" stroke-width="17.7078" stroke-linecap="round"/>
<rect x="58.707" y="109.582" width="3.05308" height="3.05308" rx="1.52654" fill="white"/>
<circle cx="94.4289" cy="59.2063" r="6.10615" fill="white"/>
</g>
</svg>
