<svg width="166" height="167" viewBox="0 0 166 167" fill="none" xmlns="http://www.w3.org/2000/svg">
<path d="M-0.00195313 29.4001C-0.00195313 13.4943 12.8922 0.600098 28.798 0.600098L136.798 0.600098C152.704 0.600098 165.598 13.4943 165.598 29.4001V137.4C165.598 153.306 152.704 166.2 136.798 166.2H28.798C12.8922 166.2 -0.00195313 153.306 -0.00195313 137.4L-0.00195313 29.4001Z" fill="white" fill-opacity="0.1"/>
<g opacity="0.13">
<g filter="url(#filter0_d_3_2455)">
<path d="M17.0967 41.0802C17.0967 35.1266 21.923 30.3003 27.8766 30.3003H137.717C143.67 30.3003 148.497 35.1266 148.497 41.0802V70.6757C148.497 76.6293 143.67 81.4557 137.717 81.4557H27.8766C21.923 81.4557 17.0967 76.6293 17.0967 70.6757V41.0802Z" fill="#F4F4F4"/>
<path d="M27.3341 44.5305H26.6598V40.7675H25.3292V40.1864H28.6617V40.7675H27.3341V44.5305ZM29.4535 44.0699C29.908 44.0699 30.2633 43.7568 30.2633 43.3444V43.0945L29.4836 43.1427C29.0952 43.1698 28.8755 43.3414 28.8755 43.6123C28.8755 43.8893 29.1043 44.0699 29.4535 44.0699ZM29.2728 44.5847C28.6527 44.5847 28.2192 44.1994 28.2192 43.6304C28.2192 43.0765 28.6437 42.7363 29.3963 42.6941L30.2633 42.643V42.3991C30.2633 42.0469 30.0254 41.8362 29.6281 41.8362C29.2518 41.8362 29.017 42.0168 28.9598 42.2998H28.3456C28.3817 41.7278 28.8694 41.3063 29.6522 41.3063C30.4198 41.3063 30.9105 41.7127 30.9105 42.3479V44.5305H30.2874V44.0097H30.2723C30.0887 44.3619 29.6883 44.5847 29.2728 44.5847ZM31.5427 44.5305V41.3635H32.1629V41.8934H32.1779C32.3495 41.5321 32.6867 41.3093 33.1744 41.3093C33.8728 41.3093 34.2732 41.7549 34.2732 42.4804V44.5305H33.6199V42.6068C33.6199 42.1312 33.3972 41.8693 32.9456 41.8693C32.488 41.8693 32.193 42.1944 32.193 42.6851V44.5305H31.5427ZM39.0809 41.3635L38.2139 44.5305H37.5365L36.8712 42.1583H36.8562L36.1969 44.5305H35.5255L34.6555 41.3635H35.3058L35.8838 43.8562H35.8958L36.5551 41.3635H37.1813L37.8436 43.8562H37.8586L38.4366 41.3635H39.0809ZM40.7848 41.8301C40.3302 41.8301 40.0111 42.1763 39.978 42.655H41.5615C41.5464 42.1703 41.2394 41.8301 40.7848 41.8301ZM41.5585 43.6003H42.1756C42.0853 44.1783 41.5374 44.5907 40.8119 44.5907C39.8817 44.5907 39.3187 43.9615 39.3187 42.9621C39.3187 41.9686 39.8907 41.3063 40.7848 41.3063C41.6638 41.3063 42.2117 41.9265 42.2117 42.8868V43.1096H39.975V43.1487C39.975 43.6996 40.3061 44.0639 40.8269 44.0639C41.1972 44.0639 41.4712 43.8773 41.5585 43.6003ZM44.0421 41.8301C43.5875 41.8301 43.2684 42.1763 43.2353 42.655H44.8188C44.8037 42.1703 44.4967 41.8301 44.0421 41.8301ZM44.8158 43.6003H45.4329C45.3426 44.1783 44.7947 44.5907 44.0692 44.5907C43.139 44.5907 42.576 43.9615 42.576 42.9621C42.576 41.9686 43.148 41.3063 44.0421 41.3063C44.9211 41.3063 45.469 41.9265 45.469 42.8868V43.1096H43.2323V43.1487C43.2323 43.6996 43.5634 44.0639 44.0842 44.0639C44.4545 44.0639 44.7285 43.8773 44.8158 43.6003ZM45.9748 44.5305V41.3635H46.5949V41.8934H46.61C46.7816 41.5321 47.1188 41.3093 47.6065 41.3093C48.3049 41.3093 48.7053 41.7549 48.7053 42.4804V44.5305H48.052V42.6068C48.052 42.1312 47.8292 41.8693 47.3777 41.8693C46.9201 41.8693 46.6251 42.1944 46.6251 42.6851V44.5305H45.9748Z" fill="black"/>
<rect x="52.2642" y="35.5945" width="22.7349" height="13.8721" rx="4.62405" fill="#515151" fill-opacity="0.26"/>
<rect x="52.4568" y="35.7872" width="22.3496" height="13.4868" rx="4.43138" stroke="black" stroke-opacity="0.37" stroke-width="0.385337"/>
<path d="M55.6318 44.1743L55.7089 43.4113H57.8283C57.9618 43.4113 58.0569 43.4473 58.1134 43.5192C58.1751 43.5911 58.2059 43.6759 58.2059 43.7735C58.2059 43.8814 58.1648 43.9765 58.0826 44.0587C58.0004 44.1357 57.8899 44.1743 57.7512 44.1743H55.6318ZM55.8049 41.5733L55.6893 41.188C55.7458 41.1212 55.7818 41.0519 55.7972 40.9799C55.8177 40.9029 55.8177 40.8386 55.7972 40.7873C55.7766 40.7359 55.7355 40.7102 55.6739 40.7102C55.6173 40.7102 55.566 40.7256 55.5197 40.7564C55.4786 40.7821 55.4452 40.8078 55.4195 40.8335L55.2115 40.5329C55.2731 40.461 55.345 40.3994 55.4272 40.348C55.5146 40.2966 55.6225 40.2709 55.7509 40.2709C55.9102 40.2709 56.0309 40.3172 56.1131 40.4096C56.1954 40.5021 56.239 40.6151 56.2442 40.7487C56.2493 40.8772 56.2108 41.0005 56.1286 41.1187C56.5036 41.0775 56.7862 40.9876 56.9763 40.8489C57.1715 40.7102 57.2692 40.5535 57.2692 40.3788C57.2692 40.2863 57.2486 40.2093 57.2075 40.1476C57.1664 40.0859 57.1047 40.0551 57.0225 40.0551C56.9455 40.0551 56.8813 40.0834 56.8299 40.1399C56.7836 40.1913 56.7605 40.2555 56.7605 40.3326C56.7605 40.3942 56.7785 40.4559 56.8145 40.5175C56.8556 40.574 56.9069 40.628 56.9686 40.6794C57.0302 40.7256 57.1022 40.7616 57.1844 40.7873L56.9146 41.0493C56.8068 41.0082 56.7091 40.9542 56.6218 40.8874C56.5344 40.8155 56.4625 40.7333 56.406 40.6408C56.3546 40.5484 56.3289 40.4405 56.3289 40.3171C56.3289 40.1322 56.3932 39.9729 56.5216 39.8393C56.6552 39.7006 56.8273 39.6312 57.038 39.6312C57.2537 39.6312 57.4156 39.7057 57.5235 39.8547C57.6365 39.9986 57.693 40.1656 57.693 40.3557C57.693 40.5869 57.6185 40.7898 57.4695 40.9645C57.3257 41.1392 57.1125 41.2779 56.8299 41.3807C56.5524 41.4834 56.2108 41.5477 55.8049 41.5733ZM62.458 44.1743L62.5351 43.4113H64.6544C64.788 43.4113 64.8831 43.4473 64.9396 43.5192C65.0013 43.5911 65.0321 43.6759 65.0321 43.7735C65.0321 43.8814 64.991 43.9765 64.9088 44.0587C64.8266 44.1357 64.7161 44.1743 64.5774 44.1743H62.458ZM62.7588 45.4844V45.0143L64.5159 44.498V44.9758L62.7588 45.4844ZM62.7588 46.2936V45.8235L64.5159 45.3072V45.785L62.7588 46.2936ZM69.2842 44.1743L69.3613 43.4113H71.4806C71.6142 43.4113 71.7093 43.4473 71.7658 43.5192C71.8274 43.5911 71.8583 43.6759 71.8583 43.7735C71.8583 43.8814 71.8172 43.9765 71.735 44.0587C71.6528 44.1357 71.5423 44.1743 71.4036 44.1743H69.2842ZM69.3441 40.7179V40.2478L71.1013 39.7314V40.2093L69.3441 40.7179ZM69.3441 41.5271V41.057L71.1013 40.5406V41.0185L69.3441 41.5271Z" fill="black"/>
<path d="M80.4061 43.0614H78.4312V42.4744H80.4061V43.0614ZM82.3508 44.5305V41.3635H83.0011V44.5305H82.3508ZM82.676 40.8999C82.4683 40.8999 82.2997 40.7343 82.2997 40.5296C82.2997 40.3219 82.4683 40.1563 82.676 40.1563C82.8867 40.1563 83.0553 40.3219 83.0553 40.5296C83.0553 40.7343 82.8867 40.8999 82.676 40.8999ZM83.6092 42.2606C83.6092 41.6947 84.1089 41.3063 84.8495 41.3063C85.554 41.3063 86.0477 41.7007 86.0687 42.2637H85.4576C85.4275 41.9777 85.1957 41.8 84.8315 41.8C84.4792 41.8 84.2444 41.9716 84.2444 42.2215C84.2444 42.4172 84.401 42.5496 84.7291 42.6309L85.2619 42.7544C85.9002 42.9079 86.141 43.1487 86.141 43.6153C86.141 44.1933 85.6021 44.5907 84.8254 44.5907C84.0758 44.5907 83.5791 44.2024 83.5279 43.6214H84.1722C84.2233 43.9254 84.4582 44.094 84.8555 44.094C85.2469 44.094 85.4877 43.9314 85.4877 43.6756C85.4877 43.4739 85.3673 43.3625 85.0362 43.2782L84.4702 43.1397C83.8982 43.0012 83.6092 42.7032 83.6092 42.2606ZM89.0069 44.0699C89.4615 44.0699 89.8168 43.7568 89.8168 43.3444V43.0945L89.037 43.1427C88.6487 43.1698 88.4289 43.3414 88.4289 43.6123C88.4289 43.8893 88.6577 44.0699 89.0069 44.0699ZM88.8263 44.5847C88.2062 44.5847 87.7727 44.1994 87.7727 43.6304C87.7727 43.0765 88.1971 42.7363 88.9497 42.6941L89.8168 42.643V42.3991C89.8168 42.0469 89.5789 41.8362 89.1815 41.8362C88.8052 41.8362 88.5704 42.0168 88.5132 42.2998H87.8991C87.9352 41.7278 88.4229 41.3063 89.2056 41.3063C89.9733 41.3063 90.464 41.7127 90.464 42.3479V44.5305H89.8408V44.0097H89.8258C89.6421 44.3619 89.2418 44.5847 88.8263 44.5847ZM92.3485 44.5305V41.3635H92.9687V41.8934H92.9837C93.1553 41.5321 93.4925 41.3093 93.9802 41.3093C94.6786 41.3093 95.079 41.7549 95.079 42.4804V44.5305H94.4257V42.6068C94.4257 42.1312 94.203 41.8693 93.7514 41.8693C93.2938 41.8693 92.9988 42.1944 92.9988 42.6851V44.5305H92.3485ZM97.0689 44.5907C96.1628 44.5907 95.5667 43.9676 95.5667 42.947C95.5667 41.9295 96.1658 41.3063 97.0689 41.3063C97.9721 41.3063 98.5711 41.9295 98.5711 42.947C98.5711 43.9676 97.9751 44.5907 97.0689 44.5907ZM97.0689 44.0549C97.5807 44.0549 97.9088 43.6515 97.9088 42.947C97.9088 42.2456 97.5777 41.8422 97.0689 41.8422C96.5602 41.8422 96.229 42.2456 96.229 42.947C96.229 43.6515 96.5602 44.0549 97.0689 44.0549ZM100.435 44.5907C99.5285 44.5907 98.9324 43.9676 98.9324 42.947C98.9324 41.9295 99.5315 41.3063 100.435 41.3063C101.338 41.3063 101.937 41.9295 101.937 42.947C101.937 43.9676 101.341 44.5907 100.435 44.5907ZM100.435 44.0549C100.946 44.0549 101.275 43.6515 101.275 42.947C101.275 42.2456 100.943 41.8422 100.435 41.8422C99.9258 41.8422 99.5947 42.2456 99.5947 42.947C99.5947 43.6515 99.9258 44.0549 100.435 44.0549ZM102.44 44.5305V41.3635H103.06V41.8934H103.075C103.246 41.5321 103.584 41.3093 104.071 41.3093C104.77 41.3093 105.17 41.7549 105.17 42.4804V44.5305H104.517V42.6068C104.517 42.1312 104.294 41.8693 103.842 41.8693C103.385 41.8693 103.09 42.1944 103.09 42.6851V44.5305H102.44ZM111.23 41.3635L110.363 44.5305H109.686L109.02 42.1583H109.005L108.346 44.5305H107.675L106.805 41.3635H107.455L108.033 43.8562H108.045L108.704 41.3635H109.33L109.993 43.8562H110.008L110.586 41.3635H111.23ZM111.649 44.5305V41.3635H112.299V44.5305H111.649ZM111.974 40.8999C111.766 40.8999 111.597 40.7343 111.597 40.5296C111.597 40.3219 111.766 40.1563 111.974 40.1563C112.184 40.1563 112.353 40.3219 112.353 40.5296C112.353 40.7343 112.184 40.8999 111.974 40.8999ZM113.154 40.6139H113.807V41.3635H114.409V41.8783H113.807V43.6244C113.807 43.8983 113.927 44.0218 114.192 44.0218C114.259 44.0218 114.364 44.0157 114.406 44.0067V44.5215C114.334 44.5395 114.189 44.5516 114.045 44.5516C113.404 44.5516 113.154 44.3077 113.154 43.6966V41.8783H112.693V41.3635H113.154V40.6139ZM114.969 44.5305V40.1864H115.613V41.8934H115.628C115.803 41.5231 116.149 41.3093 116.631 41.3093C117.326 41.3093 117.742 41.7729 117.742 42.4894V44.5305H117.088V42.6159C117.088 42.1493 116.854 41.8693 116.396 41.8693C115.914 41.8693 115.619 42.2004 115.619 42.7002V44.5305H114.969ZM119.566 42.2606C119.566 41.6947 120.066 41.3063 120.806 41.3063C121.511 41.3063 122.004 41.7007 122.026 42.2637H121.414C121.384 41.9777 121.152 41.8 120.788 41.8C120.436 41.8 120.201 41.9716 120.201 42.2215C120.201 42.4172 120.358 42.5496 120.686 42.6309L121.219 42.7544C121.857 42.9079 122.098 43.1487 122.098 43.6153C122.098 44.1933 121.559 44.5907 120.782 44.5907C120.033 44.5907 119.536 44.2024 119.485 43.6214H120.129C120.18 43.9254 120.415 44.094 120.812 44.094C121.204 44.094 121.445 43.9314 121.445 43.6756C121.445 43.4739 121.324 43.3625 120.993 43.2782L120.427 43.1397C119.855 43.0012 119.566 42.7032 119.566 42.2606ZM125.319 41.3635V44.5305H124.696V43.9947H124.681C124.506 44.374 124.184 44.5877 123.699 44.5877C123.01 44.5877 122.588 44.1392 122.588 43.4136V41.3635H123.239V43.2872C123.239 43.7689 123.468 44.0278 123.916 44.0278C124.386 44.0278 124.669 43.7026 124.669 43.2089V41.3635H125.319ZM126.644 42.7212L127.923 41.3635H128.688L127.375 42.7273L128.739 44.5305H127.983L126.908 43.1246L126.638 43.3926V44.5305H125.987V40.1864H126.638V42.7212H126.644ZM130.286 44.5907C129.38 44.5907 128.784 43.9676 128.784 42.947C128.784 41.9295 129.383 41.3063 130.286 41.3063C131.189 41.3063 131.788 41.9295 131.788 42.947C131.788 43.9676 131.192 44.5907 130.286 44.5907ZM130.286 44.0549C130.798 44.0549 131.126 43.6515 131.126 42.947C131.126 42.2456 130.795 41.8422 130.286 41.8422C129.777 41.8422 129.446 42.2456 129.446 42.947C129.446 43.6515 129.777 44.0549 130.286 44.0549ZM133.652 44.5907C132.746 44.5907 132.15 43.9676 132.15 42.947C132.15 41.9295 132.749 41.3063 133.652 41.3063C134.555 41.3063 135.154 41.9295 135.154 42.947C135.154 43.9676 134.558 44.5907 133.652 44.5907ZM133.652 44.0549C134.164 44.0549 134.492 43.6515 134.492 42.947C134.492 42.2456 134.161 41.8422 133.652 41.8422C133.143 41.8422 132.812 42.2456 132.812 42.947C132.812 43.6515 133.143 44.0549 133.652 44.0549ZM135.657 44.5305V41.3635H136.277V41.8934H136.292C136.464 41.5321 136.801 41.3093 137.288 41.3093C137.987 41.3093 138.387 41.7549 138.387 42.4804V44.5305H137.734V42.6068C137.734 42.1312 137.511 41.8693 137.06 41.8693C136.602 41.8693 136.307 42.1944 136.307 42.6851V44.5305H135.657Z" fill="black"/>
<path d="M25.6934 54.245H26.3467V54.9946H26.9488V55.5094H26.3467V57.2555C26.3467 57.5294 26.4671 57.6529 26.732 57.6529C26.7983 57.6529 26.9036 57.6468 26.9458 57.6378V58.1526C26.8735 58.1707 26.729 58.1827 26.5845 58.1827C25.9433 58.1827 25.6934 57.9388 25.6934 57.3277V55.5094H25.2328V54.9946H25.6934V54.245ZM27.5087 58.1616V53.8175H28.153V55.5245H28.168C28.3426 55.1542 28.6888 54.9404 29.1705 54.9404C29.8659 54.9404 30.2813 55.4041 30.2813 56.1205V58.1616H29.6281V56.247C29.6281 55.7804 29.3933 55.5004 28.9357 55.5004C28.454 55.5004 28.159 55.8315 28.159 56.3313V58.1616H27.5087ZM32.0184 57.701C32.4729 57.701 32.8282 57.3879 32.8282 56.9755V56.7256L32.0485 56.7738C31.6601 56.8009 31.4404 56.9725 31.4404 57.2434C31.4404 57.5204 31.6692 57.701 32.0184 57.701ZM31.8377 58.2158C31.2176 58.2158 30.7841 57.8305 30.7841 57.2615C30.7841 56.7076 31.2086 56.3674 31.9612 56.3252L32.8282 56.2741V56.0302C32.8282 55.678 32.5904 55.4673 32.193 55.4673C31.8167 55.4673 31.5819 55.6479 31.5247 55.9309H30.9105C30.9466 55.3589 31.4343 54.9374 32.2171 54.9374C32.9847 54.9374 33.4754 55.3438 33.4754 55.979V58.1616H32.8523V57.6408H32.8372C32.6536 57.993 32.2532 58.2158 31.8377 58.2158ZM34.2973 54.245H34.9505V54.9946H35.5526V55.5094H34.9505V57.2555C34.9505 57.5294 35.071 57.6529 35.3359 57.6529C35.4021 57.6529 35.5075 57.6468 35.5496 57.6378V58.1526C35.4774 58.1707 35.3329 58.1827 35.1884 58.1827C34.5471 58.1827 34.2973 57.9388 34.2973 57.3277V55.5094H33.8367V54.9946H34.2973V54.245ZM37.3619 58.1616V54.9946H38.0122V58.1616H37.3619ZM37.687 54.531C37.4793 54.531 37.3107 54.3654 37.3107 54.1607C37.3107 53.953 37.4793 53.7874 37.687 53.7874C37.8978 53.7874 38.0664 53.953 38.0664 54.1607C38.0664 54.3654 37.8978 54.531 37.687 54.531ZM38.6203 55.8917C38.6203 55.3258 39.12 54.9374 39.8606 54.9374C40.565 54.9374 41.0587 55.3318 41.0798 55.8948H40.4687C40.4386 55.6088 40.2068 55.4311 39.8425 55.4311C39.4903 55.4311 39.2555 55.6027 39.2555 55.8526C39.2555 56.0483 39.412 56.1807 39.7402 56.262L40.273 56.3855C40.9112 56.539 41.1521 56.7798 41.1521 57.2464C41.1521 57.8245 40.6132 58.2218 39.8365 58.2218C39.0869 58.2218 38.5902 57.8335 38.539 57.2525H39.1832C39.2344 57.5565 39.4692 57.7251 39.8666 57.7251C40.258 57.7251 40.4988 57.5625 40.4988 57.3067C40.4988 57.105 40.3784 56.9936 40.0472 56.9093L39.4813 56.7708C38.9093 56.6323 38.6203 56.3343 38.6203 55.8917ZM44.5599 54.9435C45.3637 54.9435 45.8935 55.5756 45.8935 56.5781C45.8935 57.5806 45.3667 58.2158 44.5719 58.2158C44.1174 58.2158 43.7561 57.993 43.5755 57.6408H43.5604V59.2093H42.9102V54.9946H43.5393V55.5395H43.5514C43.738 55.1753 44.1023 54.9435 44.5599 54.9435ZM44.3883 57.6649C44.9031 57.6649 45.2252 57.2434 45.2252 56.5781C45.2252 55.9158 44.9031 55.4914 44.3883 55.4914C43.8916 55.4914 43.5574 55.9249 43.5574 56.5781C43.5574 57.2374 43.8886 57.6649 44.3883 57.6649ZM46.3963 58.1616V54.9946H47.0164V55.5335H47.0315C47.1368 55.1632 47.4198 54.9435 47.7931 54.9435C47.8864 54.9435 47.9677 54.9585 48.0159 54.9675V55.5726C47.9647 55.5516 47.8503 55.5365 47.7239 55.5365C47.3054 55.5365 47.0465 55.8165 47.0465 56.265V58.1616H46.3963ZM49.6415 58.2218C48.7354 58.2218 48.1393 57.5987 48.1393 56.5781C48.1393 55.5606 48.7384 54.9374 49.6415 54.9374C50.5447 54.9374 51.1437 55.5606 51.1437 56.5781C51.1437 57.5987 50.5477 58.2218 49.6415 58.2218ZM49.6415 57.686C50.1533 57.686 50.4814 57.2826 50.4814 56.5781C50.4814 55.8767 50.1503 55.4733 49.6415 55.4733C49.1328 55.4733 48.8016 55.8767 48.8016 56.5781C48.8016 57.2826 49.1328 57.686 49.6415 57.686ZM51.6465 58.1616V54.9946H52.2666V55.5245H52.2817C52.4533 55.1632 52.7904 54.9404 53.2781 54.9404C53.9766 54.9404 54.377 55.386 54.377 56.1115V58.1616H53.7237V56.2379C53.7237 55.7623 53.5009 55.5004 53.0493 55.5004C52.5918 55.5004 52.2967 55.8255 52.2967 56.3162V58.1616H51.6465ZM56.3669 58.2218C55.4607 58.2218 54.8646 57.5987 54.8646 56.5781C54.8646 55.5606 55.4637 54.9374 56.3669 54.9374C57.27 54.9374 57.8691 55.5606 57.8691 56.5781C57.8691 57.5987 57.273 58.2218 56.3669 58.2218ZM56.3669 57.686C56.8786 57.686 57.2068 57.2826 57.2068 56.5781C57.2068 55.8767 56.8756 55.4733 56.3669 55.4733C55.8581 55.4733 55.5269 55.8767 55.5269 56.5781C55.5269 57.2826 55.8581 57.686 56.3669 57.686ZM61.0872 54.9946V58.1616H60.4641V57.6258H60.449C60.2744 58.0051 59.9523 58.2188 59.4676 58.2188C58.7782 58.2188 58.3568 57.7703 58.3568 57.0447V54.9946H59.007V56.9183C59.007 57.4 59.2358 57.6589 59.6844 57.6589C60.154 57.6589 60.437 57.3337 60.437 56.84V54.9946H61.0872ZM61.7315 58.1616V54.9946H62.3516V55.5245H62.3667C62.5383 55.1632 62.8754 54.9404 63.3631 54.9404C64.0616 54.9404 64.462 55.386 64.462 56.1115V58.1616H63.8087V56.2379C63.8087 55.7623 63.5859 55.5004 63.1343 55.5004C62.6768 55.5004 62.3817 55.8255 62.3817 56.3162V58.1616H61.7315ZM67.8096 56.0844H67.1894C67.1232 55.7472 66.8703 55.4793 66.4458 55.4793C65.9431 55.4793 65.6119 55.8978 65.6119 56.5781C65.6119 57.2735 65.9461 57.6769 66.4519 57.6769C66.8522 57.6769 67.1142 57.4572 67.1894 57.0899H67.8156C67.7463 57.7642 67.2075 58.2218 66.4458 58.2218C65.5397 58.2218 64.9496 57.6017 64.9496 56.5781C64.9496 55.5726 65.5397 54.9374 66.4398 54.9374C67.2556 54.9374 67.7524 55.4613 67.8096 56.0844ZM69.6008 55.4613C69.1462 55.4613 68.8271 55.8075 68.794 56.2861H70.3775C70.3624 55.8014 70.0554 55.4613 69.6008 55.4613ZM70.3745 57.2314H70.9916C70.9013 57.8094 70.3534 58.2218 69.6279 58.2218C68.6977 58.2218 68.1347 57.5926 68.1347 56.5932C68.1347 55.5997 68.7067 54.9374 69.6008 54.9374C70.4798 54.9374 71.0277 55.5576 71.0277 56.5179V56.7407H68.791V56.7798C68.791 57.3307 69.1221 57.695 69.6429 57.695C70.0132 57.695 70.2872 57.5084 70.3745 57.2314ZM72.7226 58.2158C71.9218 58.2158 71.392 57.5776 71.392 56.5781C71.392 55.5787 71.9218 54.9435 72.7166 54.9435C73.1712 54.9435 73.5324 55.1722 73.71 55.5215H73.7221V53.8175H74.3754V58.1616H73.7432V57.6228H73.7311C73.5445 57.984 73.1832 58.2158 72.7226 58.2158ZM72.8942 55.4914C72.3794 55.4914 72.0573 55.9128 72.0573 56.5781C72.0573 57.2464 72.3794 57.6649 72.8942 57.6649C73.3939 57.6649 73.7281 57.2404 73.7281 56.5781C73.7281 55.9218 73.3939 55.4914 72.8942 55.4914ZM77.9819 58.2158C77.5183 58.2158 77.16 57.99 76.9643 57.6228H76.9523V58.1616H76.3201V53.8175H76.9704V55.5335H76.9854C77.1751 55.1662 77.5363 54.9435 77.9849 54.9435C78.7826 54.9435 79.3035 55.5756 79.3035 56.5781C79.3035 57.5836 78.7857 58.2158 77.9819 58.2158ZM77.8073 55.4914C77.3135 55.4914 76.9673 55.9249 76.9673 56.5781C76.9673 57.2374 77.3135 57.6649 77.8073 57.6649C78.319 57.6649 78.6351 57.2495 78.6351 56.5781C78.6351 55.9128 78.319 55.4914 77.8073 55.4914ZM82.5276 54.9946V58.1616H81.9045V57.6258H81.8894C81.7148 58.0051 81.3927 58.2188 80.908 58.2188C80.2186 58.2188 79.7972 57.7703 79.7972 57.0447V54.9946H80.4474V56.9183C80.4474 57.4 80.6762 57.6589 81.1248 57.6589C81.5944 57.6589 81.8774 57.3337 81.8774 56.84V54.9946H82.5276ZM83.3615 54.245H84.0148V54.9946H84.6169V55.5094H84.0148V57.2555C84.0148 57.5294 84.1352 57.6529 84.4001 57.6529C84.4664 57.6529 84.5717 57.6468 84.6139 57.6378V58.1526C84.5416 58.1707 84.3971 58.1827 84.2526 58.1827C83.6114 58.1827 83.3615 57.9388 83.3615 57.3277V55.5094H82.9009V54.9946H83.3615V54.245ZM86.4051 58.1616V54.9946H87.0253V55.5245H87.0403C87.2119 55.1632 87.5491 54.9404 88.0368 54.9404C88.7352 54.9404 89.1356 55.386 89.1356 56.1115V58.1616H88.4823V56.2379C88.4823 55.7623 88.2595 55.5004 87.808 55.5004C87.3504 55.5004 87.0554 55.8255 87.0554 56.3162V58.1616H86.4051ZM91.1255 58.2218C90.2193 58.2218 89.6233 57.5987 89.6233 56.5781C89.6233 55.5606 90.2223 54.9374 91.1255 54.9374C92.0286 54.9374 92.6277 55.5606 92.6277 56.5781C92.6277 57.5987 92.0316 58.2218 91.1255 58.2218ZM91.1255 57.686C91.6373 57.686 91.9654 57.2826 91.9654 56.5781C91.9654 55.8767 91.6342 55.4733 91.1255 55.4733C90.6167 55.4733 90.2856 55.8767 90.2856 56.5781C90.2856 57.2826 90.6167 57.686 91.1255 57.686ZM93.3201 54.245H93.9734V54.9946H94.5755V55.5094H93.9734V57.2555C93.9734 57.5294 94.0938 57.6529 94.3587 57.6529C94.4249 57.6529 94.5303 57.6468 94.5724 57.6378V58.1526C94.5002 58.1707 94.3557 58.1827 94.2112 58.1827C93.57 58.1827 93.3201 57.9388 93.3201 57.3277V55.5094H92.8595V54.9946H93.3201V54.245ZM100.542 54.9946L99.6752 58.1616H98.9978L98.3325 55.7894H98.3174L97.6582 58.1616H96.9868L96.1168 54.9946H96.7671L97.3451 57.4873H97.3571L98.0164 54.9946H98.6426L99.3049 57.4873H99.3199L99.8979 54.9946H100.542ZM100.94 58.1616V54.9946H101.56V55.5335H101.575C101.68 55.1632 101.963 54.9435 102.336 54.9435C102.43 54.9435 102.511 54.9585 102.559 54.9675V55.5726C102.508 55.5516 102.394 55.5365 102.267 55.5365C101.849 55.5365 101.59 55.8165 101.59 56.265V58.1616H100.94ZM102.984 58.1616V54.9946H103.634V58.1616H102.984ZM103.309 54.531C103.101 54.531 102.932 54.3654 102.932 54.1607C102.932 53.953 103.101 53.7874 103.309 53.7874C103.519 53.7874 103.688 53.953 103.688 54.1607C103.688 54.3654 103.519 54.531 103.309 54.531ZM104.489 54.245H105.142V54.9946H105.744V55.5094H105.142V57.2555C105.142 57.5294 105.263 57.6529 105.527 57.6529C105.594 57.6529 105.699 57.6468 105.741 57.6378V58.1526C105.669 58.1707 105.524 58.1827 105.38 58.1827C104.739 58.1827 104.489 57.9388 104.489 57.3277V55.5094H104.028V54.9946H104.489V54.245ZM106.47 54.245H107.123V54.9946H107.725V55.5094H107.123V57.2555C107.123 57.5294 107.243 57.6529 107.508 57.6529C107.575 57.6529 107.68 57.6468 107.722 57.6378V58.1526C107.65 58.1707 107.505 58.1827 107.361 58.1827C106.72 58.1827 106.47 57.9388 106.47 57.3277V55.5094H106.009V54.9946H106.47V54.245ZM109.507 55.4613C109.053 55.4613 108.734 55.8075 108.7 56.2861H110.284C110.269 55.8014 109.962 55.4613 109.507 55.4613ZM110.281 57.2314H110.898C110.808 57.8094 110.26 58.2218 109.534 58.2218C108.604 58.2218 108.041 57.5926 108.041 56.5932C108.041 55.5997 108.613 54.9374 109.507 54.9374C110.386 54.9374 110.934 55.5576 110.934 56.5179V56.7407H108.697V56.7798C108.697 57.3307 109.029 57.695 109.549 57.695C109.92 57.695 110.194 57.5084 110.281 57.2314ZM111.44 58.1616V54.9946H112.06V55.5245H112.075C112.247 55.1632 112.584 54.9404 113.072 54.9404C113.77 54.9404 114.17 55.386 114.17 56.1115V58.1616H113.517V56.2379C113.517 55.7623 113.294 55.5004 112.843 55.5004C112.385 55.5004 112.09 55.8255 112.09 56.3162V58.1616H111.44ZM117.16 57.701C117.614 57.701 117.97 57.3879 117.97 56.9755V56.7256L117.19 56.7738C116.802 56.8009 116.582 56.9725 116.582 57.2434C116.582 57.5204 116.811 57.701 117.16 57.701ZM116.979 58.2158C116.359 58.2158 115.926 57.8305 115.926 57.2615C115.926 56.7076 116.35 56.3674 117.103 56.3252L117.97 56.2741V56.0302C117.97 55.678 117.732 55.4673 117.334 55.4673C116.958 55.4673 116.723 55.6479 116.666 55.9309H116.052C116.088 55.3589 116.576 54.9374 117.359 54.9374C118.126 54.9374 118.617 55.3438 118.617 55.979V58.1616H117.994V57.6408H117.979C117.795 57.993 117.395 58.2158 116.979 58.2158ZM119.192 55.8917C119.192 55.3258 119.692 54.9374 120.432 54.9374C121.137 54.9374 121.63 55.3318 121.651 55.8948H121.04C121.01 55.6088 120.778 55.4311 120.414 55.4311C120.062 55.4311 119.827 55.6027 119.827 55.8526C119.827 56.0483 119.984 56.1807 120.312 56.262L120.845 56.3855C121.483 56.539 121.724 56.7798 121.724 57.2464C121.724 57.8245 121.185 58.2218 120.408 58.2218C119.658 58.2218 119.162 57.8335 119.111 57.2525H119.755C119.806 57.5565 120.041 57.7251 120.438 57.7251C120.83 57.7251 121.07 57.5625 121.07 57.3067C121.07 57.105 120.95 56.9936 120.619 56.9093L120.053 56.7708C119.481 56.6323 119.192 56.3343 119.192 55.8917ZM123.671 54.245H124.325V54.9946H124.927V55.5094H124.325V57.2555C124.325 57.5294 124.445 57.6529 124.71 57.6529C124.776 57.6529 124.882 57.6468 124.924 57.6378V58.1526C124.852 58.1707 124.707 58.1827 124.563 58.1827C123.921 58.1827 123.671 57.9388 123.671 57.3277V55.5094H123.211V54.9946H123.671V54.245ZM125.487 58.1616V53.8175H126.131V55.5245H126.146C126.321 55.1542 126.667 54.9404 127.148 54.9404C127.844 54.9404 128.259 55.4041 128.259 56.1205V58.1616H127.606V56.247C127.606 55.7804 127.371 55.5004 126.914 55.5004C126.432 55.5004 126.137 55.8315 126.137 56.3313V58.1616H125.487ZM130.213 55.4613C129.759 55.4613 129.439 55.8075 129.406 56.2861H130.99C130.975 55.8014 130.668 55.4613 130.213 55.4613ZM130.987 57.2314H131.604C131.514 57.8094 130.966 58.2218 130.24 58.2218C129.31 58.2218 128.747 57.5926 128.747 56.5932C128.747 55.5997 129.319 54.9374 130.213 54.9374C131.092 54.9374 131.64 55.5576 131.64 56.5179V56.7407H129.403V56.7798C129.403 57.3307 129.734 57.695 130.255 57.695C130.626 57.695 130.9 57.5084 130.987 57.2314ZM25.5278 66.1616V61.8175H26.1781V66.1616H25.5278ZM28.171 63.4613C27.7164 63.4613 27.3973 63.8075 27.3642 64.2861H28.9477C28.9327 63.8014 28.6256 63.4613 28.171 63.4613ZM28.9447 65.2314H29.5618C29.4715 65.8094 28.9236 66.2218 28.1981 66.2218C27.2679 66.2218 26.7049 65.5926 26.7049 64.5932C26.7049 63.5997 27.2769 62.9374 28.171 62.9374C29.0501 62.9374 29.598 63.5576 29.598 64.5179V64.7407H27.3612V64.7798C27.3612 65.3307 27.6924 65.695 28.2132 65.695C28.5834 65.695 28.8574 65.5084 28.9447 65.2314ZM30.2934 62.245H30.9466V62.9946H31.5487V63.5094H30.9466V65.2555C30.9466 65.5294 31.0671 65.6529 31.332 65.6529C31.3982 65.6529 31.5036 65.6468 31.5457 65.6378V66.1526C31.4735 66.1707 31.329 66.1827 31.1845 66.1827C30.5432 66.1827 30.2934 65.9388 30.2934 65.3277V63.5094H29.8328V62.9946H30.2934V62.245ZM32.2743 62.245H32.9275V62.9946H33.5296V63.5094H32.9275V65.2555C32.9275 65.5294 33.0479 65.6529 33.3129 65.6529C33.3791 65.6529 33.4845 65.6468 33.5266 65.6378V66.1526C33.4543 66.1707 33.3098 66.1827 33.1653 66.1827C32.5241 66.1827 32.2743 65.9388 32.2743 65.3277V63.5094H31.8137V62.9946H32.2743V62.245ZM35.3118 63.4613C34.8572 63.4613 34.5381 63.8075 34.505 64.2861H36.0885C36.0734 63.8014 35.7664 63.4613 35.3118 63.4613ZM36.0855 65.2314H36.7026C36.6123 65.8094 36.0644 66.2218 35.3389 66.2218C34.4087 66.2218 33.8457 65.5926 33.8457 64.5932C33.8457 63.5997 34.4177 62.9374 35.3118 62.9374C36.1908 62.9374 36.7387 63.5576 36.7387 64.5179V64.7407H34.502V64.7798C34.502 65.3307 34.8331 65.695 35.3539 65.695C35.7242 65.695 35.9982 65.5084 36.0855 65.2314ZM37.2445 66.1616V62.9946H37.8647V63.5335H37.8797C37.9851 63.1632 38.2681 62.9435 38.6413 62.9435C38.7347 62.9435 38.816 62.9585 38.8641 62.9675V63.5726C38.8129 63.5516 38.6985 63.5365 38.5721 63.5365C38.1537 63.5365 37.8948 63.8165 37.8948 64.265V66.1616H37.2445ZM40.5199 66.1616V62.9946H41.14V63.5245H41.1551C41.3267 63.1632 41.6638 62.9404 42.1515 62.9404C42.85 62.9404 43.2503 63.386 43.2503 64.1115V66.1616H42.5971V64.2379C42.5971 63.7623 42.3743 63.5004 41.9227 63.5004C41.4651 63.5004 41.1701 63.8255 41.1701 64.3162V66.1616H40.5199ZM45.2402 66.2218C44.3341 66.2218 43.738 65.5987 43.738 64.5781C43.738 63.5606 44.3371 62.9374 45.2402 62.9374C46.1434 62.9374 46.7425 63.5606 46.7425 64.5781C46.7425 65.5987 46.1464 66.2218 45.2402 66.2218ZM45.2402 65.686C45.752 65.686 46.0802 65.2826 46.0802 64.5781C46.0802 63.8767 45.749 63.4733 45.2402 63.4733C44.7315 63.4733 44.4003 63.8767 44.4003 64.5781C44.4003 65.2826 44.7315 65.686 45.2402 65.686ZM48.6059 66.2218C47.6998 66.2218 47.1037 65.5987 47.1037 64.5781C47.1037 63.5606 47.7028 62.9374 48.6059 62.9374C49.5091 62.9374 50.1081 63.5606 50.1081 64.5781C50.1081 65.5987 49.5121 66.2218 48.6059 66.2218ZM48.6059 65.686C49.1177 65.686 49.4458 65.2826 49.4458 64.5781C49.4458 63.8767 49.1147 63.4733 48.6059 63.4733C48.0972 63.4733 47.766 63.8767 47.766 64.5781C47.766 65.2826 48.0972 65.686 48.6059 65.686ZM50.6109 66.1616V62.9946H51.231V63.5245H51.2461C51.4177 63.1632 51.7549 62.9404 52.2425 62.9404C52.941 62.9404 53.3414 63.386 53.3414 64.1115V66.1616H52.6881V64.2379C52.6881 63.7623 52.4653 63.5004 52.0138 63.5004C51.5562 63.5004 51.2611 63.8255 51.2611 64.3162V66.1616H50.6109ZM54.4582 66.1947C54.2385 66.1947 54.0639 66.0201 54.0639 65.8004C54.0639 65.5806 54.2385 65.406 54.4582 65.406C54.678 65.406 54.8526 65.5806 54.8526 65.8004C54.8526 66.0201 54.678 66.1947 54.4582 66.1947ZM57.27 66.1616H56.5957V61.8175H57.27V66.1616ZM58.1822 62.245H58.8354V62.9946H59.4375V63.5094H58.8354V65.2555C58.8354 65.5294 58.9558 65.6529 59.2208 65.6529C59.287 65.6529 59.3924 65.6468 59.4345 65.6378V66.1526C59.3623 66.1707 59.2178 66.1827 59.0733 66.1827C58.432 66.1827 58.1822 65.9388 58.1822 65.3277V63.5094H57.7216V62.9946H58.1822V62.245ZM61.2468 66.1616V62.9946H61.8971V66.1616H61.2468ZM61.5719 62.531C61.3642 62.531 61.1956 62.3654 61.1956 62.1607C61.1956 61.953 61.3642 61.7874 61.5719 61.7874C61.7827 61.7874 61.9512 61.953 61.9512 62.1607C61.9512 62.3654 61.7827 62.531 61.5719 62.531ZM62.5052 63.8917C62.5052 63.3258 63.0049 62.9374 63.7455 62.9374C64.4499 62.9374 64.9436 63.3318 64.9647 63.8948H64.3536C64.3235 63.6088 64.0917 63.4311 63.7274 63.4311C63.3752 63.4311 63.1404 63.6027 63.1404 63.8526C63.1404 64.0483 63.2969 64.1807 63.625 64.262L64.1579 64.3855C64.7961 64.539 65.0369 64.7798 65.0369 65.2464C65.0369 65.8245 64.4981 66.2218 63.7214 66.2218C62.9718 66.2218 62.4751 65.8335 62.4239 65.2525H63.0681C63.1193 65.5565 63.3541 65.7251 63.7515 65.7251C64.1428 65.7251 64.3837 65.5625 64.3837 65.3067C64.3837 65.105 64.2633 64.9936 63.9321 64.9093L63.3661 64.7708C62.7942 64.6323 62.5052 64.3343 62.5052 63.8917ZM66.8161 66.1616V62.9946H67.4664V66.1616H66.8161ZM67.1413 62.531C66.9335 62.531 66.7649 62.3654 66.7649 62.1607C66.7649 61.953 66.9335 61.7874 67.1413 61.7874C67.352 61.7874 67.5206 61.953 67.5206 62.1607C67.5206 62.3654 67.352 62.531 67.1413 62.531ZM68.1317 66.1616V62.9946H68.7518V63.5245H68.7669C68.9385 63.1632 69.2757 62.9404 69.7634 62.9404C70.4618 62.9404 70.8622 63.386 70.8622 64.1115V66.1616H70.2089V64.2379C70.2089 63.7623 69.9861 63.5004 69.5346 63.5004C69.077 63.5004 68.7819 63.8255 68.7819 64.3162V66.1616H68.1317ZM72.6805 66.2158C71.8797 66.2158 71.3499 65.5776 71.3499 64.5781C71.3499 63.5787 71.8797 62.9435 72.6745 62.9435C73.129 62.9435 73.4903 63.1722 73.6679 63.5215H73.6799V61.8175H74.3332V66.1616H73.701V65.6228H73.689C73.5023 65.984 73.1411 66.2158 72.6805 66.2158ZM72.8521 63.4914C72.3373 63.4914 72.0152 63.9128 72.0152 64.5781C72.0152 65.2464 72.3373 65.6649 72.8521 65.6649C73.3518 65.6649 73.686 65.2404 73.686 64.5781C73.686 63.9218 73.3518 63.4914 72.8521 63.4914ZM75.0226 66.1616V62.9946H75.6729V66.1616H75.0226ZM75.3477 62.531C75.14 62.531 74.9714 62.3654 74.9714 62.1607C74.9714 61.953 75.14 61.7874 75.3477 61.7874C75.5585 61.7874 75.727 61.953 75.727 62.1607C75.727 62.3654 75.5585 62.531 75.3477 62.531ZM79.0566 64.0844H78.4364C78.3702 63.7472 78.1173 63.4793 77.6929 63.4793C77.1901 63.4793 76.859 63.8978 76.859 64.5781C76.859 65.2735 77.1931 65.6769 77.6989 65.6769C78.0993 65.6769 78.3612 65.4572 78.4364 65.0899H79.0626C78.9934 65.7642 78.4545 66.2218 77.6929 66.2218C76.7867 66.2218 76.1967 65.6017 76.1967 64.5781C76.1967 63.5726 76.7867 62.9374 77.6868 62.9374C78.5027 62.9374 78.9994 63.4613 79.0566 64.0844ZM80.6311 65.701C81.0856 65.701 81.4409 65.3879 81.4409 64.9755V64.7256L80.6612 64.7738C80.2728 64.8009 80.0531 64.9725 80.0531 65.2434C80.0531 65.5204 80.2818 65.701 80.6311 65.701ZM80.4504 66.2158C79.8303 66.2158 79.3968 65.8305 79.3968 65.2615C79.3968 64.7076 79.8213 64.3674 80.5739 64.3252L81.4409 64.2741V64.0302C81.4409 63.678 81.203 63.4673 80.8057 63.4673C80.4294 63.4673 80.1945 63.6479 80.1373 63.9309H79.5232C79.5593 63.3589 80.047 62.9374 80.8298 62.9374C81.5974 62.9374 82.0881 63.3438 82.0881 63.979V66.1616H81.465V65.6408H81.4499C81.2663 65.993 80.8659 66.2158 80.4504 66.2158ZM82.91 62.245H83.5632V62.9946H84.1653V63.5094H83.5632V65.2555C83.5632 65.5294 83.6837 65.6529 83.9486 65.6529C84.0148 65.6529 84.1202 65.6468 84.1623 65.6378V66.1526C84.0901 66.1707 83.9456 66.1827 83.8011 66.1827C83.1598 66.1827 82.91 65.9388 82.91 65.3277V63.5094H82.4494V62.9946H82.91V62.245ZM85.9475 63.4613C85.4929 63.4613 85.1738 63.8075 85.1407 64.2861H86.7242C86.7092 63.8014 86.4021 63.4613 85.9475 63.4613ZM86.7212 65.2314H87.3383C87.248 65.8094 86.7001 66.2218 85.9746 66.2218C85.0444 66.2218 84.4814 65.5926 84.4814 64.5932C84.4814 63.5997 85.0534 62.9374 85.9475 62.9374C86.8266 62.9374 87.3745 63.5576 87.3745 64.5179V64.7407H85.1377V64.7798C85.1377 65.3307 85.4688 65.695 85.9897 65.695C86.3599 65.695 86.6339 65.5084 86.7212 65.2314ZM89.0693 66.2158C88.2686 66.2158 87.7387 65.5776 87.7387 64.5781C87.7387 63.5787 88.2686 62.9435 89.0633 62.9435C89.5179 62.9435 89.8792 63.1722 90.0568 63.5215H90.0688V61.8175H90.7221V66.1616H90.0899V65.6228H90.0778C89.8912 65.984 89.5299 66.2158 89.0693 66.2158ZM89.2409 63.4914C88.7262 63.4914 88.404 63.9128 88.404 64.5781C88.404 65.2464 88.7262 65.6649 89.2409 65.6649C89.7407 65.6649 90.0748 65.2404 90.0748 64.5781C90.0748 63.9218 89.7407 63.4914 89.2409 63.4914ZM92.6638 66.1616V62.9946H93.3141V66.1616H92.6638ZM92.9889 62.531C92.7812 62.531 92.6126 62.3654 92.6126 62.1607C92.6126 61.953 92.7812 61.7874 92.9889 61.7874C93.1997 61.7874 93.3683 61.953 93.3683 62.1607C93.3683 62.3654 93.1997 62.531 92.9889 62.531ZM93.9794 66.1616V62.9946H94.5995V63.5245H94.6146C94.7862 63.1632 95.1234 62.9404 95.611 62.9404C96.3095 62.9404 96.7099 63.386 96.7099 64.1115V66.1616H96.0566V64.2379C96.0566 63.7623 95.8338 63.5004 95.3823 63.5004C94.9247 63.5004 94.6296 63.8255 94.6296 64.3162V66.1616H93.9794ZM102.77 62.9946L101.903 66.1616H101.226L100.56 63.7894H100.545L99.8859 66.1616H99.2146L98.3445 62.9946H98.9948L99.5728 65.4873H99.5848L100.244 62.9946H100.87L101.533 65.4873H101.548L102.126 62.9946H102.77ZM103.167 66.1616V62.9946H103.787V63.5335H103.802C103.908 63.1632 104.191 62.9435 104.564 62.9435C104.657 62.9435 104.739 62.9585 104.787 62.9675V63.5726C104.736 63.5516 104.621 63.5365 104.495 63.5365C104.076 63.5365 103.818 63.8165 103.818 64.265V66.1616H103.167ZM105.211 66.1616V62.9946H105.862V66.1616H105.211ZM105.536 62.531C105.329 62.531 105.16 62.3654 105.16 62.1607C105.16 61.953 105.329 61.7874 105.536 61.7874C105.747 61.7874 105.916 61.953 105.916 62.1607C105.916 62.3654 105.747 62.531 105.536 62.531ZM106.717 62.245H107.37V62.9946H107.972V63.5094H107.37V65.2555C107.37 65.5294 107.49 65.6529 107.755 65.6529C107.821 65.6529 107.927 65.6468 107.969 65.6378V66.1526C107.897 66.1707 107.752 66.1827 107.608 66.1827C106.966 66.1827 106.717 65.9388 106.717 65.3277V63.5094H106.256V62.9946H106.717V62.245ZM108.529 66.1616V62.9946H109.179V66.1616H108.529ZM108.854 62.531C108.646 62.531 108.478 62.3654 108.478 62.1607C108.478 61.953 108.646 61.7874 108.854 61.7874C109.065 61.7874 109.233 61.953 109.233 62.1607C109.233 62.3654 109.065 62.531 108.854 62.531ZM109.844 66.1616V62.9946H110.465V63.5245H110.48C110.651 63.1632 110.988 62.9404 111.476 62.9404C112.175 62.9404 112.575 63.386 112.575 64.1115V66.1616H111.922V64.2379C111.922 63.7623 111.699 63.5004 111.247 63.5004C110.79 63.5004 110.495 63.8255 110.495 64.3162V66.1616H109.844ZM114.553 65.6348C115.062 65.6348 115.396 65.2224 115.396 64.5691C115.396 63.9188 115.062 63.4914 114.553 63.4914C114.053 63.4914 113.728 63.9098 113.728 64.5691C113.728 65.2314 114.053 65.6348 114.553 65.6348ZM114.559 67.3538C113.812 67.3538 113.258 66.9564 113.177 66.4085H113.83C113.924 66.6734 114.213 66.848 114.583 66.848C115.092 66.848 115.393 66.559 115.393 66.1255V65.6047H115.381C115.203 65.9479 114.83 66.1737 114.378 66.1737C113.583 66.1737 113.063 65.5535 113.063 64.5661C113.063 63.5696 113.58 62.9435 114.393 62.9435C114.842 62.9435 115.209 63.1692 115.402 63.5365H115.414V62.9946H116.046V66.1044C116.046 66.86 115.462 67.3538 114.559 67.3538ZM122.121 62.9946L121.254 66.1616H120.577L119.911 63.7894H119.896L119.237 66.1616H118.566L117.696 62.9946H118.346L118.924 65.4873H118.936L119.595 62.9946H120.221L120.884 65.4873H120.899L121.477 62.9946H122.121ZM122.539 66.1616V62.9946H123.19V66.1616H122.539ZM122.865 62.531C122.657 62.531 122.488 62.3654 122.488 62.1607C122.488 61.953 122.657 61.7874 122.865 61.7874C123.075 61.7874 123.244 61.953 123.244 62.1607C123.244 62.3654 123.075 62.531 122.865 62.531ZM124.045 62.245H124.698V62.9946H125.3V63.5094H124.698V65.2555C124.698 65.5294 124.818 65.6529 125.083 65.6529C125.15 65.6529 125.255 65.6468 125.297 65.6378V66.1526C125.225 66.1707 125.08 66.1827 124.936 66.1827C124.295 66.1827 124.045 65.9388 124.045 65.3277V63.5094H123.584V62.9946H124.045V62.245ZM125.86 66.1616V61.8175H126.504V63.5245H126.519C126.694 63.1542 127.04 62.9404 127.522 62.9404C128.217 62.9404 128.633 63.4041 128.633 64.1205V66.1616H127.979V64.247C127.979 63.7804 127.745 63.5004 127.287 63.5004C126.805 63.5004 126.51 63.8315 126.51 64.3313V66.1616H125.86ZM131.622 65.701C132.077 65.701 132.432 65.3879 132.432 64.9755V64.7256L131.652 64.7738C131.264 64.8009 131.044 64.9725 131.044 65.2434C131.044 65.5204 131.273 65.701 131.622 65.701ZM131.441 66.2158C130.821 66.2158 130.388 65.8305 130.388 65.2615C130.388 64.7076 130.812 64.3674 131.565 64.3252L132.432 64.2741V64.0302C132.432 63.678 132.194 63.4673 131.797 63.4673C131.42 63.4673 131.185 63.6479 131.128 63.9309H130.514C130.55 63.3589 131.038 62.9374 131.821 62.9374C132.588 62.9374 133.079 63.3438 133.079 63.979V66.1616H132.456V65.6408H132.441C132.257 65.993 131.857 66.2158 131.441 66.2158ZM133.711 66.1616V62.9946H134.331V63.5245H134.346C134.518 63.1632 134.855 62.9404 135.343 62.9404C136.041 62.9404 136.442 63.386 136.442 64.1115V66.1616H135.788V64.2379C135.788 63.7623 135.566 63.5004 135.114 63.5004C134.657 63.5004 134.362 63.8255 134.362 64.3162V66.1616H133.711ZM26.8284 70.4613C26.3738 70.4613 26.0547 70.8075 26.0216 71.2861H27.6051C27.59 70.8014 27.2829 70.4613 26.8284 70.4613ZM27.602 72.2314H28.2192C28.1289 72.8094 27.581 73.2218 26.8554 73.2218C25.9252 73.2218 25.3623 72.5926 25.3623 71.5932C25.3623 70.5997 25.9343 69.9374 26.8284 69.9374C27.7074 69.9374 28.2553 70.5576 28.2553 71.5179V71.7407H26.0185V71.7798C26.0185 72.3307 26.3497 72.695 26.8705 72.695C27.2408 72.695 27.5147 72.5084 27.602 72.2314ZM29.893 71.9966H29.8779L29.1765 73.1616H28.4721L29.5167 71.5811L28.4871 69.9946H29.2156L29.908 71.1416H29.9201L30.6035 69.9946H31.3199L30.2813 71.5601L31.3079 73.1616H30.5914L29.893 71.9966ZM31.919 69.245H32.5723V69.9946H33.1744V70.5094H32.5723V72.2555C32.5723 72.5294 32.6927 72.6529 32.9576 72.6529C33.0239 72.6529 33.1292 72.6468 33.1714 72.6378V73.1526C33.0991 73.1707 32.9546 73.1827 32.8101 73.1827C32.1689 73.1827 31.919 72.9388 31.919 72.3277V70.5094H31.4584V69.9946H31.919V69.245ZM33.7102 73.1616V69.9946H34.3304V70.5335H34.3454C34.4508 70.1632 34.7338 69.9435 35.1071 69.9435C35.2004 69.9435 35.2817 69.9585 35.3299 69.9675V70.5726C35.2787 70.5516 35.1643 70.5365 35.0378 70.5365C34.6194 70.5365 34.3605 70.8165 34.3605 71.265V73.1616H33.7102ZM36.7749 72.701C37.2294 72.701 37.5847 72.3879 37.5847 71.9755V71.7256L36.805 71.7738C36.4166 71.8009 36.1969 71.9725 36.1969 72.2434C36.1969 72.5204 36.4257 72.701 36.7749 72.701ZM36.5942 73.2158C35.9741 73.2158 35.5406 72.8305 35.5406 72.2615C35.5406 71.7076 35.9651 71.3674 36.7177 71.3252L37.5847 71.2741V71.0302C37.5847 70.678 37.3469 70.4673 36.9495 70.4673C36.5732 70.4673 36.3384 70.6479 36.2812 70.9309H35.667C35.7032 70.3589 36.1908 69.9374 36.9736 69.9374C37.7412 69.9374 38.2319 70.3438 38.2319 70.979V73.1616H37.6088V72.6408H37.5937C37.4101 72.993 37.0097 73.2158 36.5942 73.2158ZM42.8198 69.9946L41.6849 73.1616H40.9865L39.8455 69.9946H40.5379L41.3327 72.5264H41.3447L42.1395 69.9946H42.8198ZM44.4636 73.2218C43.5574 73.2218 42.9613 72.5987 42.9613 71.5781C42.9613 70.5606 43.5604 69.9374 44.4636 69.9374C45.3667 69.9374 45.9658 70.5606 45.9658 71.5781C45.9658 72.5987 45.3697 73.2218 44.4636 73.2218ZM44.4636 72.686C44.9753 72.686 45.3035 72.2826 45.3035 71.5781C45.3035 70.8767 44.9723 70.4733 44.4636 70.4733C43.9548 70.4733 43.6236 70.8767 43.6236 71.5781C43.6236 72.2826 43.9548 72.686 44.4636 72.686ZM50.635 69.9946L49.768 73.1616H49.0906L48.4253 70.7894H48.4102L47.751 73.1616H47.0796L46.2096 69.9946H46.8599L47.4379 72.4873H47.4499L48.1092 69.9946H48.7354L49.3977 72.4873H49.4127L49.9907 69.9946H50.635ZM52.3389 70.4613C51.8843 70.4613 51.5652 70.8075 51.5321 71.2861H53.1156C53.1005 70.8014 52.7935 70.4613 52.3389 70.4613ZM53.1126 72.2314H53.7297C53.6394 72.8094 53.0915 73.2218 52.366 73.2218C51.4357 73.2218 50.8728 72.5926 50.8728 71.5932C50.8728 70.5997 51.4448 69.9374 52.3389 69.9374C53.2179 69.9374 53.7658 70.5576 53.7658 71.5179V71.7407H51.5291V71.7798C51.5291 72.3307 51.8602 72.695 52.381 72.695C52.7513 72.695 53.0253 72.5084 53.1126 72.2314ZM54.2957 73.1616V68.8175H54.9459V73.1616H54.2957ZM56.8094 70.8917C56.8094 70.3258 57.3091 69.9374 58.0497 69.9374C58.7541 69.9374 59.2479 70.3318 59.2689 70.8948H58.6578C58.6277 70.6088 58.3959 70.4311 58.0316 70.4311C57.6794 70.4311 57.4446 70.6027 57.4446 70.8526C57.4446 71.0483 57.6011 71.1807 57.9293 71.262L58.4621 71.3855C59.1003 71.539 59.3412 71.7798 59.3412 72.2464C59.3412 72.8245 58.8023 73.2218 58.0256 73.2218C57.276 73.2218 56.7793 72.8335 56.7281 72.2525H57.3723C57.4235 72.5565 57.6583 72.7251 58.0557 72.7251C58.4471 72.7251 58.6879 72.5625 58.6879 72.3067C58.6879 72.105 58.5675 71.9936 58.2363 71.9093L57.6704 71.7708C57.0984 71.6323 56.8094 71.3343 56.8094 70.8917ZM59.868 73.1616V69.9946H60.5183V73.1616H59.868ZM60.1931 69.531C59.9854 69.531 59.8168 69.3654 59.8168 69.1607C59.8168 68.953 59.9854 68.7874 60.1931 68.7874C60.4039 68.7874 60.5725 68.953 60.5725 69.1607C60.5725 69.3654 60.4039 69.531 60.1931 69.531ZM62.5323 72.6348C63.041 72.6348 63.3752 72.2224 63.3752 71.5691C63.3752 70.9188 63.041 70.4914 62.5323 70.4914C62.0325 70.4914 61.7074 70.9098 61.7074 71.5691C61.7074 72.2314 62.0325 72.6348 62.5323 72.6348ZM62.5383 74.3538C61.7917 74.3538 61.2378 73.9564 61.1565 73.4085H61.8097C61.9031 73.6734 62.1921 73.848 62.5624 73.848C63.0711 73.848 63.3722 73.559 63.3722 73.1255V72.6047H63.3601C63.1825 72.9479 62.8092 73.1737 62.3576 73.1737C61.5629 73.1737 61.0421 72.5535 61.0421 71.5661C61.0421 70.5696 61.5599 69.9435 62.3727 69.9435C62.8213 69.9435 63.1885 70.1692 63.3812 70.5365H63.3932V69.9946H64.0254V73.1044C64.0254 73.86 63.4414 74.3538 62.5383 74.3538ZM64.6697 73.1616V69.9946H65.2898V70.5245H65.3049C65.4765 70.1632 65.8136 69.9404 66.3013 69.9404C66.9998 69.9404 67.4001 70.386 67.4001 71.1115V73.1616H66.7469V71.2379C66.7469 70.7623 66.5241 70.5004 66.0725 70.5004C65.615 70.5004 65.3199 70.8255 65.3199 71.3162V73.1616H64.6697ZM68.517 73.1947C68.2973 73.1947 68.1227 73.0201 68.1227 72.8004C68.1227 72.5806 68.2973 72.406 68.517 72.406C68.7368 72.406 68.9114 72.5806 68.9114 72.8004C68.9114 73.0201 68.7368 73.1947 68.517 73.1947Z" fill="black"/>
</g>
<g filter="url(#filter1_d_3_2455)">
<path d="M17.0967 103.025C17.0967 97.0715 21.923 92.2451 27.8766 92.2451H137.717C143.67 92.2451 148.497 97.0715 148.497 103.025V116.988C148.497 122.941 143.67 127.768 137.717 127.768H27.8766C21.923 127.768 17.0967 122.941 17.0967 116.988V103.025Z" fill="#F4F4F4" shape-rendering="crispEdges"/>
<path d="M45.0961 105.083C45.0961 105.332 45.0037 105.555 44.8191 105.751C44.6345 105.948 44.4077 106.046 44.1387 106.046C43.922 106.046 43.7594 105.986 43.651 105.866C43.5427 105.745 43.4885 105.577 43.4885 105.36C43.4885 105.051 43.5688 104.778 43.7293 104.541C43.8899 104.3 44.0886 104.18 44.3254 104.18C44.5421 104.18 44.7248 104.27 44.8733 104.451C45.0218 104.632 45.0961 104.842 45.0961 105.083ZM44.7348 105.246C44.7348 105.133 44.6565 105.009 44.5 104.872C44.3434 104.736 44.211 104.668 44.1026 104.668C43.9982 104.668 43.9099 104.714 43.8377 104.806C43.7654 104.894 43.7293 104.987 43.7293 105.083C43.7293 105.224 43.7955 105.322 43.928 105.378C44.0324 105.422 44.1829 105.444 44.3796 105.444C44.4799 105.444 44.5642 105.43 44.6325 105.402C44.7007 105.374 44.7348 105.322 44.7348 105.246ZM45.5416 107.124L45.09 107.985L44.1508 107.467L44.5843 106.63L45.5416 107.124ZM47.7814 111.742C47.7814 112.637 47.5185 113.296 46.9926 113.717C46.4267 114.171 45.5135 114.397 44.2531 114.397C43.4503 114.397 42.8362 114.257 42.4107 113.976C41.9451 113.667 41.7123 113.193 41.7123 112.555C41.7123 112.21 41.7545 111.861 41.8388 111.507C41.923 111.154 42.0374 110.799 42.1819 110.442C42.2703 110.225 42.4228 109.892 42.6395 109.442L42.8804 109.551C42.5994 110.129 42.4127 110.584 42.3204 110.917C42.2321 111.251 42.188 111.556 42.188 111.833C42.188 112.33 42.3646 112.71 42.7178 112.97C43.075 113.227 43.5828 113.356 44.2411 113.356C44.9997 113.356 45.6721 113.221 46.2581 112.952C46.9846 112.619 47.3479 112.154 47.3479 111.556C47.3479 111.146 47.2877 110.765 47.1672 110.412C47.0629 110.099 46.9144 109.826 46.7217 109.593L47.2214 108.358C47.4342 108.684 47.5807 109.015 47.661 109.352C47.7412 109.689 47.7814 110.137 47.7814 110.695V111.742ZM51.2313 106.963C51.2313 107.148 51.127 107.331 50.9183 107.511C50.557 107.652 49.975 107.884 49.1722 108.21C49.1722 108.033 49.2605 107.864 49.4371 107.704C49.7703 107.563 50.3684 107.316 51.2313 106.963ZM52.6463 111.742H52.0201C51.7512 111.742 51.4481 111.682 51.1109 111.562C50.7216 111.421 50.3784 111.228 50.0814 110.984C49.8486 111.269 49.6097 111.467 49.3649 111.58C49.124 111.688 48.7708 111.742 48.3052 111.742H47.3659V110.695H48.2871C48.6524 110.695 48.9775 110.602 49.2625 110.418C49.4833 110.273 49.684 110.07 49.8646 109.81C50.1095 109.456 50.4105 109.149 50.7677 108.888C51.0889 108.656 51.3839 108.507 51.6528 108.443C51.9298 108.864 52.1505 109.244 52.3151 109.581C52.5359 110.038 52.6463 110.41 52.6463 110.695V111.742ZM51.9539 110.556C51.9017 110.323 51.8214 110.095 51.713 109.87C51.6207 109.681 51.4983 109.486 51.3457 109.286C51.1531 109.334 50.9905 109.424 50.8581 109.557C50.7697 109.641 50.6654 109.783 50.545 109.984C50.6895 110.141 50.8922 110.281 51.1531 110.406C51.418 110.53 51.6669 110.606 51.8997 110.634L51.9539 110.556ZM55.6627 111.742H52.2308V110.695H55.2232C55.2232 110.221 55.167 109.86 55.0546 109.611C54.9784 109.438 54.7897 109.189 54.4887 108.864L54.9583 107.883C55.2473 108.248 55.4279 108.533 55.5002 108.738C55.6085 109.047 55.6627 109.559 55.6627 110.273V111.742ZM55.6326 112.946L55.163 113.813L54.1876 113.296L54.6392 112.435L55.6326 112.946ZM54.2478 113.488L53.7902 114.361L52.8148 113.856L53.2604 112.983L54.2478 113.488ZM60.3109 113.519C60.3109 113.712 60.2065 113.896 59.9978 114.073C59.6365 114.213 59.0545 114.444 58.2517 114.765C58.2517 114.593 58.34 114.426 58.5166 114.266C58.8498 114.129 59.4479 113.88 60.3109 113.519ZM62.1954 111.742H55.2413V110.695H60.1483C59.7389 110.377 59.3937 110.131 59.1127 109.954C58.7635 109.733 58.4444 109.573 58.1554 109.472C57.8302 109.36 57.5011 109.304 57.168 109.304C56.9632 109.304 56.7565 109.318 56.5478 109.346C56.6642 109.049 56.8167 108.81 57.0054 108.629C57.2783 108.369 57.6235 108.238 58.041 108.238C58.4504 108.238 58.9341 108.439 59.492 108.84C59.769 109.041 60.2205 109.422 60.8467 109.984C61.3324 110.422 61.6615 110.658 61.8341 110.695H62.1954V111.742ZM66.5124 105.963C66.5124 106.148 66.408 106.331 66.1993 106.511C65.838 106.652 65.256 106.884 64.4532 107.21C64.4532 107.033 64.5415 106.864 64.7182 106.704C65.0513 106.563 65.6494 106.316 66.5124 105.963ZM68.2283 111.742C68.2283 112.184 68.0397 112.641 67.6624 113.115C67.3332 113.532 66.9238 113.892 66.4341 114.193C65.9685 114.482 65.5852 114.626 65.2841 114.626C65.0072 114.626 64.7081 114.586 64.387 114.506C64.1422 114.446 63.8491 114.351 63.508 114.223C63.2189 114.114 62.932 114.006 62.647 113.898L62.7493 113.657C63.0142 113.709 63.2892 113.761 63.5742 113.813C63.8632 113.87 64.1241 113.898 64.3569 113.898C64.8707 113.898 65.4065 113.733 65.9645 113.404C66.4702 113.103 66.9017 112.724 67.259 112.266C67.6162 111.804 67.7948 111.389 67.7948 111.02C67.7948 110.703 67.7025 110.369 67.5179 110.02C67.3694 109.739 67.1606 109.45 66.8917 109.153L67.2349 108.208C67.564 108.513 67.8069 108.818 67.9634 109.123C68.14 109.468 68.2283 109.854 68.2283 110.279V111.742ZM71.8168 110.285H74.9296V111.194H71.8168V110.285ZM80.1678 102.891C80.1678 103.076 80.0654 103.254 79.8607 103.427C79.4954 103.575 78.9114 103.81 78.1086 104.131C78.1086 103.959 78.1969 103.792 78.3735 103.632C78.7067 103.491 79.3048 103.244 80.1678 102.891ZM80.1678 103.794C80.1678 103.987 80.1397 104.107 80.0835 104.155C80.0313 104.2 79.959 104.262 79.8667 104.342C79.4974 104.491 78.9114 104.725 78.1086 105.046C78.1086 104.874 78.1969 104.707 78.3735 104.547C78.7067 104.406 79.3048 104.155 80.1678 103.794ZM81.3358 111.742H80.4929C80.2199 111.742 80.0012 111.632 79.8366 111.411C79.6921 111.218 79.5817 110.931 79.5055 110.55C79.4332 110.169 79.377 109.699 79.3369 109.141C79.3128 108.688 79.2867 108.222 79.2586 107.744C79.2345 107.267 79.2004 106.905 79.1563 106.661C79.1161 106.412 79.0599 106.209 78.9877 106.052C78.8994 105.86 78.7769 105.691 78.6204 105.547L79.361 104.379C79.5175 104.86 79.6279 105.436 79.6921 106.107C79.7323 106.524 79.7724 107.512 79.8125 109.069C79.8848 109.783 79.9891 110.241 80.1256 110.442C80.238 110.61 80.3604 110.695 80.4929 110.695H81.3358V111.742ZM86.1947 111.742H85.5685C85.2996 111.742 84.9965 111.682 84.6594 111.562C84.27 111.421 83.9268 111.228 83.6298 110.984C83.397 111.269 83.1581 111.467 82.9133 111.58C82.6725 111.688 82.3192 111.742 81.8536 111.742H80.9144V110.695H81.8356C82.2008 110.695 82.5259 110.602 82.8109 110.418C83.0317 110.273 83.2324 110.07 83.413 109.81C83.6579 109.456 83.9589 109.149 84.3162 108.888C84.6373 108.656 84.9323 108.507 85.2012 108.443C85.4782 108.864 85.699 109.244 85.8635 109.581C86.0843 110.038 86.1947 110.41 86.1947 110.695V111.742ZM85.5023 110.556C85.4501 110.323 85.3698 110.095 85.2614 109.87C85.1691 109.681 85.0467 109.486 84.8942 109.286C84.7015 109.334 84.5389 109.424 84.4065 109.557C84.3182 109.641 84.2138 109.783 84.0934 109.984C84.2379 110.141 84.4406 110.281 84.7015 110.406C84.9664 110.53 85.2153 110.606 85.4481 110.634L85.5023 110.556ZM89.2111 111.742H85.7792V110.695H88.7716C88.7716 110.221 88.7154 109.86 88.603 109.611C88.5268 109.438 88.3381 109.189 88.0371 108.864L88.5067 107.883C88.7957 108.248 88.9763 108.533 89.0486 108.738C89.157 109.047 89.2111 109.559 89.2111 110.273V111.742ZM89.181 112.946L88.7114 113.813L87.736 113.296L88.1876 112.435L89.181 112.946ZM87.7962 113.488L87.3386 114.361L86.3633 113.856L86.8088 112.983L87.7962 113.488ZM93.8593 113.519C93.8593 113.712 93.7549 113.896 93.5462 114.073C93.1849 114.213 92.6029 114.444 91.8001 114.765C91.8001 114.593 91.8884 114.426 92.0651 114.266C92.3982 114.129 92.9963 113.88 93.8593 113.519ZM95.7438 111.742H88.7897V110.695H93.6967C93.2873 110.377 92.9421 110.131 92.6611 109.954C92.3119 109.733 91.9928 109.573 91.7038 109.472C91.3787 109.36 91.0495 109.304 90.7164 109.304C90.5117 109.304 90.3049 109.318 90.0962 109.346C90.2126 109.049 90.3652 108.81 90.5538 108.629C90.8268 108.369 91.172 108.238 91.5894 108.238C91.9988 108.238 92.4825 108.439 93.0404 108.84C93.3174 109.041 93.769 109.422 94.3951 109.984C94.8808 110.422 95.21 110.658 95.3826 110.695H95.7438V111.742ZM100.061 105.963C100.061 106.148 99.9564 106.331 99.7477 106.511C99.3865 106.652 98.8044 106.884 98.0017 107.21C98.0017 107.033 98.09 106.864 98.2666 106.704C98.5997 106.563 99.1978 106.316 100.061 105.963ZM101.777 111.742C101.777 112.184 101.588 112.641 101.211 113.115C100.882 113.532 100.472 113.892 99.9825 114.193C99.5169 114.482 99.1336 114.626 98.8325 114.626C98.5556 114.626 98.2565 114.586 97.9354 114.506C97.6906 114.446 97.3976 114.351 97.0564 114.223C96.7674 114.114 96.4804 114.006 96.1954 113.898L96.2977 113.657C96.5627 113.709 96.8376 113.761 97.1226 113.813C97.4116 113.87 97.6725 113.898 97.9053 113.898C98.4191 113.898 98.955 113.733 99.5129 113.404C100.019 113.103 100.45 112.724 100.807 112.266C101.165 111.804 101.343 111.389 101.343 111.02C101.343 110.703 101.251 110.369 101.066 110.02C100.918 109.739 100.709 109.45 100.44 109.153L100.783 108.208C101.112 108.513 101.355 108.818 101.512 109.123C101.688 109.468 101.777 109.854 101.777 110.279V111.742ZM105.088 108.19H111.585V108.684H105.088V108.19ZM105.088 110.153H111.585V110.646H105.088V110.153ZM118.708 105.083C118.708 105.332 118.615 105.555 118.431 105.751C118.246 105.948 118.019 106.046 117.75 106.046C117.533 106.046 117.371 105.986 117.262 105.866C117.154 105.745 117.1 105.577 117.1 105.36C117.1 105.051 117.18 104.778 117.341 104.541C117.501 104.3 117.7 104.18 117.937 104.18C118.154 104.18 118.336 104.27 118.485 104.451C118.633 104.632 118.708 104.842 118.708 105.083ZM118.346 105.246C118.346 105.133 118.268 105.009 118.111 104.872C117.955 104.736 117.822 104.668 117.714 104.668C117.61 104.668 117.521 104.714 117.449 104.806C117.377 104.894 117.341 104.987 117.341 105.083C117.341 105.224 117.407 105.322 117.539 105.378C117.644 105.422 117.794 105.444 117.991 105.444C118.091 105.444 118.176 105.43 118.244 105.402C118.312 105.374 118.346 105.322 118.346 105.246ZM119.153 107.124L118.701 107.985L117.762 107.467L118.196 106.63L119.153 107.124ZM121.393 111.742C121.393 112.637 121.13 113.296 120.604 113.717C120.038 114.171 119.125 114.397 117.865 114.397C117.062 114.397 116.448 114.257 116.022 113.976C115.557 113.667 115.324 113.193 115.324 112.555C115.324 112.21 115.366 111.861 115.45 111.507C115.534 111.154 115.649 110.799 115.793 110.442C115.882 110.225 116.034 109.892 116.251 109.442L116.492 109.551C116.211 110.129 116.024 110.584 115.932 110.917C115.844 111.251 115.799 111.556 115.799 111.833C115.799 112.33 115.976 112.71 116.329 112.97C116.686 113.227 117.194 113.356 117.853 113.356C118.611 113.356 119.284 113.221 119.87 112.952C120.596 112.619 120.959 112.154 120.959 111.556C120.959 111.146 120.899 110.765 120.779 110.412C120.674 110.099 120.526 109.826 120.333 109.593L120.833 108.358C121.046 108.684 121.192 109.015 121.272 109.352C121.353 109.689 121.393 110.137 121.393 110.695V111.742ZM123.458 101.963C123.458 102.148 123.354 102.331 123.145 102.511C122.784 102.652 122.202 102.884 121.399 103.21C121.399 103.033 121.487 102.864 121.664 102.704C121.997 102.563 122.595 102.316 123.458 101.963ZM123.602 103.644C123.602 103.744 123.54 103.835 123.416 103.915C123.332 103.967 123.205 104.023 123.037 104.084L121.917 104.469C121.917 104.284 122.117 104.122 122.519 103.981C122.394 103.917 122.3 103.855 122.236 103.795C122.151 103.718 122.109 103.638 122.109 103.554C122.109 103.429 122.216 103.255 122.428 103.03C122.665 102.781 122.874 102.657 123.055 102.657C123.135 102.657 123.203 102.685 123.259 102.741C123.32 102.793 123.35 102.863 123.35 102.952C123.35 103.008 123.338 103.066 123.313 103.126C123.289 103.183 123.255 103.247 123.211 103.319C123.087 103.207 122.952 103.15 122.808 103.15C122.719 103.15 122.631 103.168 122.543 103.205C122.459 103.241 122.416 103.283 122.416 103.331C122.416 103.391 122.509 103.474 122.693 103.578C122.882 103.682 123.043 103.734 123.175 103.734C123.263 103.734 123.326 103.732 123.362 103.728C123.402 103.72 123.482 103.692 123.602 103.644ZM123.434 110.207C123.434 110.528 123.376 110.839 123.259 111.14C123.199 111.301 123.069 111.556 122.868 111.905L122.76 111.845C122.772 111.728 122.782 111.594 122.79 111.441C122.802 111.289 122.808 111.186 122.808 111.134C122.808 110.717 122.774 110.135 122.705 109.388C122.641 108.637 122.563 107.855 122.471 107.04C122.414 106.546 122.352 106.042 122.284 105.529C122.364 105.352 122.455 105.161 122.555 104.957C122.659 104.752 122.758 104.559 122.85 104.379C122.914 104.836 122.994 105.462 123.091 106.257C123.191 107.052 123.269 107.768 123.326 108.407C123.398 109.201 123.434 109.801 123.434 110.207Z" fill="black"/>
</g>
</g>
<defs>
<filter id="filter0_d_3_2455" x="10.9476" y="28.763" width="143.698" height="63.4535" filterUnits="userSpaceOnUse" color-interpolation-filters="sRGB">
<feFlood flood-opacity="0" result="BackgroundImageFix"/>
<feColorMatrix in="SourceAlpha" type="matrix" values="0 0 0 0 0 0 0 0 0 0 0 0 0 0 0 0 0 0 127 0" result="hardAlpha"/>
<feOffset dy="4.61184"/>
<feGaussianBlur stdDeviation="3.07456"/>
<feComposite in2="hardAlpha" operator="out"/>
<feColorMatrix type="matrix" values="0 0 0 0 0 0 0 0 0 0 0 0 0 0 0 0 0 0 0.21 0"/>
<feBlend mode="normal" in2="BackgroundImageFix" result="effect1_dropShadow_3_2455"/>
<feBlend mode="normal" in="SourceGraphic" in2="effect1_dropShadow_3_2455" result="shape"/>
</filter>
<filter id="filter1_d_3_2455" x="10.9476" y="90.7078" width="143.698" height="47.8207" filterUnits="userSpaceOnUse" color-interpolation-filters="sRGB">
<feFlood flood-opacity="0" result="BackgroundImageFix"/>
<feColorMatrix in="SourceAlpha" type="matrix" values="0 0 0 0 0 0 0 0 0 0 0 0 0 0 0 0 0 0 127 0" result="hardAlpha"/>
<feOffset dy="4.61184"/>
<feGaussianBlur stdDeviation="3.07456"/>
<feComposite in2="hardAlpha" operator="out"/>
<feColorMatrix type="matrix" values="0 0 0 0 0 0 0 0 0 0 0 0 0 0 0 0 0 0 0.21 0"/>
<feBlend mode="normal" in2="BackgroundImageFix" result="effect1_dropShadow_3_2455"/>
<feBlend mode="normal" in="SourceGraphic" in2="effect1_dropShadow_3_2455" result="shape"/>
</filter>
</defs>
</svg>
