<svg width="167" height="167" viewBox="0 0 167 167" fill="none" xmlns="http://www.w3.org/2000/svg">
<rect x="0.599609" y="0.600098" width="165.6" height="165.6" rx="28.8" fill="url(#paint0_linear_3_2447)"/>
<g filter="url(#filter0_d_3_2447)">
<path fill-rule="evenodd" clip-rule="evenodd" d="M110.674 87.5502C111.167 87.468 112.082 86.9565 112.335 85.5814C112.414 85.1464 112.265 84.7124 112.12 84.29C112.101 84.2368 112.083 84.1837 112.065 84.1309C111.924 83.7104 111.82 83.1439 111.858 82.4668C111.887 81.9585 112.268 81.5614 112.736 81.3596C114.586 80.561 116.192 79.214 116.571 78.2013C117.003 77.0506 116.859 75.9 109.38 67.1264C110.099 62.6197 110.276 49.9564 99.4556 43.2507C89.2437 36.9222 74.573 36.7783 62.2037 43.2507C57.1915 45.8733 48.3098 55.7351 50.8412 70.5783C52.3432 79.3855 55.1739 82.7158 57.5335 85.4918C60.1448 88.564 62.1791 90.9574 61.1969 99.3442C58.4732 107.334 54.854 112.625 52.4591 115.303C51.571 116.295 51.3206 117.715 52.3135 118.603C55.4883 121.443 63.197 125.882 73.4108 128.11C74.5553 114.813 78.2324 87.7107 82.4839 75.5463C82.6644 75.0299 83.0581 74.6319 83.5457 74.3838C85.0056 73.6412 86.2829 72.6934 87.1968 71.9295C88.1973 71.0933 88.7652 69.8825 89.231 68.6646C90.0945 66.4072 92.1377 62.91 96.579 62.5238C101.872 62.0636 104.346 64.1539 104.921 65.2566C106.452 67.7809 109.519 72.6553 111.07 74.5343C111.439 74.981 111.786 75.4867 111.803 76.0656C111.832 77.0739 111.428 77.6824 111.039 77.9905C110.819 78.1647 110.532 78.2058 110.251 78.207C107.967 78.2167 102.501 77.9477 95.716 76.763C88.467 76.4178 85.0247 79.8793 84.2096 81.6532C84.0179 82.4203 84.0658 83.7531 85.7918 82.9476C86.3663 82.6795 86.8389 82.2685 87.3507 81.8234C88.7607 80.5972 90.4687 79.1119 95.4284 79.6395C99.2416 80.0452 101.636 81.595 103.644 82.8949C105.196 83.8994 106.518 84.7547 108.085 84.8174C111.681 84.9612 111.25 86.5434 110.674 87.5502ZM110.176 91.2675C110.074 90.1308 109.079 89.7991 108.373 89.5638C107.983 89.4337 106.858 90.3328 105.409 91.4899C103.654 92.892 101.426 94.6728 99.4556 95.4608C97.4896 96.2472 95.1796 95.5717 92.8548 94.8919C90.9276 94.3283 88.9902 93.7618 87.2301 94.0225C84.1233 94.4828 82.0042 97.7621 81.333 99.3442C80.6649 101.274 79.7898 105.406 80.39 109.363C80.7356 111.641 82.304 113.451 83.7346 115.257C87.4292 119.92 88.5808 125.533 88.6684 128.11C88.8601 128.35 90.2792 128.513 94.4215 127.247C98.5638 125.981 95.5722 121.062 93.5586 118.761C92.7503 117.791 91.0563 115.247 89.8549 111.922C89.3974 110.656 89.2055 109.295 89.4019 107.963C90.1837 102.66 93.625 101.416 95.4284 101.502C97.7776 102.125 102.879 103.228 104.49 102.652C109.322 101.387 110.051 97.9059 109.811 96.3238C109.524 95.5567 109.178 93.6486 110.099 92.1527C110.177 91.8127 110.199 91.5202 110.176 91.2675Z" fill="#FFF8EC"/>
<path fill-rule="evenodd" clip-rule="evenodd" d="M110.674 87.5502C111.167 87.468 112.082 86.9565 112.335 85.5814C112.414 85.1464 112.265 84.7124 112.12 84.29C112.101 84.2368 112.083 84.1837 112.065 84.1309C111.924 83.7104 111.82 83.1439 111.858 82.4668C111.887 81.9585 112.268 81.5614 112.736 81.3596C114.586 80.561 116.192 79.214 116.571 78.2013C117.003 77.0506 116.859 75.9 109.38 67.1264C110.099 62.6197 110.276 49.9564 99.4556 43.2507C89.2437 36.9222 74.573 36.7783 62.2037 43.2507C57.1915 45.8733 48.3098 55.7351 50.8412 70.5783C52.3432 79.3855 55.1739 82.7158 57.5335 85.4918C60.1448 88.564 62.1791 90.9574 61.1969 99.3442C58.4732 107.334 54.854 112.625 52.4591 115.303C51.571 116.295 51.3206 117.715 52.3135 118.603C55.4883 121.443 63.197 125.882 73.4108 128.11C74.5553 114.813 78.2324 87.7107 82.4839 75.5463C82.6644 75.0299 83.0581 74.6319 83.5457 74.3838C85.0056 73.6412 86.2829 72.6934 87.1968 71.9295C88.1973 71.0933 88.7652 69.8825 89.231 68.6646C90.0945 66.4072 92.1377 62.91 96.579 62.5238C101.872 62.0636 104.346 64.1539 104.921 65.2566C106.452 67.7809 109.519 72.6553 111.07 74.5343C111.439 74.981 111.786 75.4867 111.803 76.0656C111.832 77.0739 111.428 77.6824 111.039 77.9905C110.819 78.1647 110.532 78.2058 110.251 78.207C107.967 78.2167 102.501 77.9477 95.716 76.763C88.467 76.4178 85.0247 79.8793 84.2096 81.6532C84.0179 82.4203 84.0658 83.7531 85.7918 82.9476C86.3663 82.6795 86.8389 82.2685 87.3507 81.8234C88.7607 80.5972 90.4687 79.1119 95.4284 79.6395C99.2416 80.0452 101.636 81.595 103.644 82.8949C105.196 83.8994 106.518 84.7547 108.085 84.8174C111.681 84.9612 111.25 86.5434 110.674 87.5502ZM110.176 91.2675C110.074 90.1308 109.079 89.7991 108.373 89.5638C107.983 89.4337 106.858 90.3328 105.409 91.4899C103.654 92.892 101.426 94.6728 99.4556 95.4608C97.4896 96.2472 95.1796 95.5717 92.8548 94.8919C90.9276 94.3283 88.9902 93.7618 87.2301 94.0225C84.1233 94.4828 82.0042 97.7621 81.333 99.3442C80.6649 101.274 79.7898 105.406 80.39 109.363C80.7356 111.641 82.304 113.451 83.7346 115.257C87.4292 119.92 88.5808 125.533 88.6684 128.11C88.8601 128.35 90.2792 128.513 94.4215 127.247C98.5638 125.981 95.5722 121.062 93.5586 118.761C92.7503 117.791 91.0563 115.247 89.8549 111.922C89.3974 110.656 89.2055 109.295 89.4019 107.963C90.1837 102.66 93.625 101.416 95.4284 101.502C97.7776 102.125 102.879 103.228 104.49 102.652C109.322 101.387 110.051 97.9059 109.811 96.3238C109.524 95.5567 109.178 93.6486 110.099 92.1527C110.177 91.8127 110.199 91.5202 110.176 91.2675Z" fill="white" fill-opacity="0.4"/>
</g>
<defs>
<filter id="filter0_d_3_2447" x="34.6187" y="24.4158" width="97.8681" height="121.382" filterUnits="userSpaceOnUse" color-interpolation-filters="sRGB">
<feFlood flood-opacity="0" result="BackgroundImageFix"/>
<feColorMatrix in="SourceAlpha" type="matrix" values="0 0 0 0 0 0 0 0 0 0 0 0 0 0 0 0 0 0 127 0" result="hardAlpha"/>
<feOffset dy="1.7434"/>
<feGaussianBlur stdDeviation="7.8889"/>
<feComposite in2="hardAlpha" operator="out"/>
<feColorMatrix type="matrix" values="0 0 0 0 0.919231 0 0 0 0 0.563471 0 0 0 0 0.207711 0 0 0 0.69 0"/>
<feBlend mode="normal" in2="BackgroundImageFix" result="effect1_dropShadow_3_2447"/>
<feBlend mode="normal" in="SourceGraphic" in2="effect1_dropShadow_3_2447" result="shape"/>
</filter>
<linearGradient id="paint0_linear_3_2447" x1="83.3996" y1="-16.0499" x2="83.3996" y2="196.35" gradientUnits="userSpaceOnUse">
<stop stop-color="#F69366"/>
<stop offset="1" stop-color="#FE6C44"/>
</linearGradient>
</defs>
</svg>
