<svg width="166" height="167" viewBox="0 0 166 167" fill="none" xmlns="http://www.w3.org/2000/svg">
<path d="M0.201172 29.4001C0.201172 13.4943 13.0954 0.600098 29.0012 0.600098L137.001 0.600098C152.907 0.600098 165.801 13.4943 165.801 29.4001V137.4C165.801 153.306 152.907 166.2 137.001 166.2H29.0012C13.0954 166.2 0.201172 153.306 0.201172 137.4L0.201172 29.4001Z" fill="white" fill-opacity="0.1"/>
<g opacity="0.39">
<g filter="url(#filter0_d_3_2509)">
<path d="M47.0933 35.9011C47.0933 31.7783 50.4355 28.436 54.5583 28.436H73.221C77.3438 28.436 80.686 31.7783 80.686 35.9011V52.6975C80.686 56.8203 77.3438 60.1625 73.221 60.1625H54.5583C50.4355 60.1625 47.0933 56.8203 47.0933 52.6975V35.9011Z" fill="#FAFAFA" shape-rendering="crispEdges"/>
<path d="M67.0727 46.0359L65.4588 47.1012C64.5743 47.1012 63.8896 47.065 63.4049 46.9927C62.5671 46.8694 61.9207 46.6228 61.4657 46.2528C60.8916 45.7893 60.6045 45.1237 60.6045 44.2562C60.6045 43.7289 60.6853 43.2547 60.8469 42.8337C60.9788 42.4893 61.168 42.164 61.4147 41.8578C61.5337 41.7132 61.7421 41.4942 62.0398 41.2008C61.6315 40.9966 61.3487 40.8202 61.1914 40.6713C60.8427 40.3439 60.6683 39.9292 60.6683 39.4274C60.6683 38.9767 60.8576 38.5344 61.2361 38.1006C61.6698 37.6031 62.195 37.3543 62.8116 37.3543C63.088 37.3543 63.3815 37.4351 63.6919 37.5967C63.9003 37.703 64.1618 37.8795 64.4765 38.1262C64.0598 38.1262 63.6324 38.1538 63.1944 38.2091C62.6288 38.2814 62.1716 38.3856 61.8229 38.5216C61.3977 38.6875 61.185 38.8916 61.185 39.134C61.185 39.3934 61.4295 39.6401 61.9186 39.874C62.3311 40.0696 62.7989 40.2078 63.3219 40.2886C63.7472 40.0589 64.1618 39.8633 64.5658 39.7017C65.0166 39.5231 65.4844 39.3743 65.9691 39.2552L65.7012 40.2503C64.8167 40.5948 64.1788 40.8584 63.7876 41.0413C62.9966 41.4155 62.3906 41.7982 61.9696 42.1895C61.4295 42.6913 61.1595 43.2292 61.1595 43.8033C61.1595 44.4029 61.3849 44.875 61.8357 45.2194C62.2269 45.5171 62.8031 45.7276 63.5643 45.8509C64.1682 45.9487 64.9379 45.9976 65.8735 45.9976C66.0733 45.9976 66.2732 45.9955 66.4731 45.9913C66.6729 45.987 66.8728 45.9828 67.0727 45.9785V46.0359Z" fill="url(#paint0_linear_3_2509)" fill-opacity="0.6"/>
<path d="M60.7923 53.8476C61.2051 53.8476 61.5277 53.5633 61.5277 53.1888V52.9619L60.8196 53.0056C60.4669 53.0302 60.2674 53.186 60.2674 53.4321C60.2674 53.6836 60.4751 53.8476 60.7923 53.8476ZM60.6282 54.3151C60.0651 54.3151 59.6714 53.9652 59.6714 53.4485C59.6714 52.9455 60.0569 52.6365 60.7403 52.5983L61.5277 52.5518V52.3303C61.5277 52.0105 61.3117 51.8191 60.9508 51.8191C60.6091 51.8191 60.3959 51.9832 60.3439 52.2401H59.7862C59.819 51.7207 60.2619 51.338 60.9727 51.338C61.6698 51.338 62.1154 51.707 62.1154 52.2839V54.2659H61.5495V53.7929H61.5359C61.3691 54.1128 61.0055 54.3151 60.6282 54.3151ZM62.9738 55.3375C62.9274 55.3375 62.777 55.332 62.7333 55.3238V54.8454C62.777 54.8564 62.8754 54.8564 62.9246 54.8564C63.2007 54.8564 63.3456 54.7415 63.4358 54.4463C63.4358 54.4408 63.4878 54.2713 63.4878 54.2686L62.4489 51.3899H63.0886L63.8186 53.73H63.8268L64.5567 51.3899H65.18L64.1002 54.4162C63.8541 55.1133 63.5725 55.3375 62.9738 55.3375ZM65.5272 54.2659V51.3899H66.0903V51.8711H66.104C66.2598 51.543 66.566 51.3407 67.0089 51.3407C67.6431 51.3407 68.0067 51.7453 68.0067 52.4042V54.2659H67.4135V52.519C67.4135 52.087 67.2112 51.8492 66.8011 51.8492C66.3856 51.8492 66.1177 52.1445 66.1177 52.5901V54.2659H65.5272Z" fill="url(#paint1_linear_3_2509)" fill-opacity="0.6"/>
</g>
<g filter="url(#filter1_d_3_2509)">
<path d="M86.2847 35.9011C86.2847 31.7783 89.6269 28.436 93.7497 28.436H112.412C116.535 28.436 119.877 31.7783 119.877 35.9011V52.6975C119.877 56.8203 116.535 60.1625 112.412 60.1625H93.7497C89.6269 60.1625 86.2847 56.8203 86.2847 52.6975V35.9011Z" fill="#FAFAFA" shape-rendering="crispEdges"/>
<path d="M103.059 35.0491L102.543 35.9677L101.547 35.4382L102.064 34.5069L103.059 35.0491ZM106.619 45.8357L105.005 46.901C104.12 46.901 103.436 46.8648 102.951 46.7925C102.113 46.6692 101.467 46.4226 101.012 46.0526C100.437 45.5891 100.15 44.9235 100.15 44.056C100.15 43.5287 100.231 43.0545 100.393 42.6335C100.525 42.2891 100.714 41.9638 100.961 41.6576C101.08 41.513 101.288 41.294 101.586 41.0006C101.177 40.7964 100.895 40.62 100.737 40.4711C100.389 40.1437 100.214 39.729 100.214 39.2272C100.214 38.7765 100.403 38.3342 100.782 37.9004C101.216 37.4029 101.741 37.1541 102.358 37.1541C102.634 37.1541 102.927 37.2349 103.238 37.3965C103.446 37.5028 103.708 37.6793 104.022 37.926C103.606 37.926 103.178 37.9536 102.74 38.0089C102.175 38.0812 101.718 38.1854 101.369 38.3215C100.944 38.4873 100.731 38.6914 100.731 38.9338C100.731 39.1932 100.975 39.4399 101.464 39.6738C101.877 39.8694 102.345 40.0076 102.868 40.0884C103.293 39.8587 103.708 39.6631 104.112 39.5015C104.562 39.3229 105.03 39.1741 105.515 39.055L105.247 40.0501C104.363 40.3946 103.725 40.6582 103.333 40.8411C102.543 41.2153 101.937 41.598 101.516 41.9893C100.975 42.4911 100.705 43.029 100.705 43.6031C100.705 44.2027 100.931 44.6748 101.382 45.0192C101.773 45.3169 102.349 45.5274 103.11 45.6507C103.714 45.7485 104.484 45.7974 105.419 45.7974C105.619 45.7974 105.819 45.7953 106.019 45.7911C106.219 45.7868 106.419 45.7826 106.619 45.7783V45.8357Z" fill="url(#paint2_linear_3_2509)" fill-opacity="0.6"/>
<path d="M97.4185 53.5873C97.8805 53.5873 98.1839 53.2127 98.1839 52.6195C98.1839 52.029 97.8805 51.6408 97.4185 51.6408C96.9647 51.6408 96.6694 52.0208 96.6694 52.6195C96.6694 53.2209 96.9647 53.5873 97.4185 53.5873ZM97.4239 55.1483C96.746 55.1483 96.243 54.7874 96.1691 54.2898H96.7624C96.8471 54.5304 97.1096 54.689 97.4458 54.689C97.9078 54.689 98.1812 54.4265 98.1812 54.0329V53.5599H98.1703C98.009 53.8716 97.67 54.0766 97.2599 54.0766C96.5382 54.0766 96.0653 53.5134 96.0653 52.6168C96.0653 51.7119 96.5355 51.1433 97.2736 51.1433C97.6809 51.1433 98.0144 51.3483 98.1894 51.6818H98.2003V51.1897H98.7744V54.0137C98.7744 54.6999 98.2441 55.1483 97.4239 55.1483ZM99.3813 54.0657V50.1208H99.9664V51.6709H99.98C100.139 51.3346 100.453 51.1405 100.89 51.1405C101.522 51.1405 101.899 51.5615 101.899 52.2122V54.0657H101.306V52.327C101.306 51.9032 101.093 51.649 100.677 51.649C100.24 51.649 99.9718 51.9497 99.9718 52.4035V54.0657H99.3813ZM103.477 53.6474C103.889 53.6474 104.212 53.3631 104.212 52.9886V52.7617L103.504 52.8054C103.151 52.83 102.952 52.9858 102.952 53.2319C102.952 53.4834 103.159 53.6474 103.477 53.6474ZM103.313 54.1149C102.749 54.1149 102.356 53.765 102.356 53.2483C102.356 52.7453 102.741 52.4363 103.425 52.3981L104.212 52.3516V52.1302C104.212 51.8103 103.996 51.6189 103.635 51.6189C103.293 51.6189 103.08 51.783 103.028 52.0399H102.471C102.503 51.5205 102.946 51.1378 103.657 51.1378C104.354 51.1378 104.8 51.5068 104.8 52.0837V54.0657H104.234V53.5927H104.22C104.053 53.9126 103.69 54.1149 103.313 54.1149ZM105.658 55.1373C105.612 55.1373 105.461 55.1319 105.418 55.1236V54.6452C105.461 54.6562 105.56 54.6562 105.609 54.6562C105.885 54.6562 106.03 54.5414 106.12 54.2461C106.12 54.2406 106.172 54.0711 106.172 54.0684L105.133 51.1897H105.773L106.503 53.5299H106.511L107.241 51.1897H107.864L106.784 54.216C106.538 54.9131 106.257 55.1373 105.658 55.1373ZM108.211 54.0657V51.1897H108.775V51.6709H108.788C108.944 51.3428 109.25 51.1405 109.693 51.1405C110.327 51.1405 110.691 51.5451 110.691 52.204V54.0657H110.098V52.3188C110.098 51.8868 109.895 51.649 109.485 51.649C109.07 51.649 108.802 51.9443 108.802 52.3899V54.0657H108.211Z" fill="url(#paint3_linear_3_2509)" fill-opacity="0.6"/>
</g>
<g filter="url(#filter2_d_3_2509)">
<path d="M47.0933 76.959C47.0933 72.8361 50.4355 69.4939 54.5583 69.4939H73.221C77.3438 69.4939 80.686 72.8361 80.686 76.959V93.7553C80.686 97.8782 77.3438 101.22 73.221 101.22H54.5583C50.4355 101.22 47.0933 97.8782 47.0933 93.7553V76.959Z" fill="#FAFAFA" shape-rendering="crispEdges"/>
<path d="M65.9373 81.9652L65.6311 83.0113C64.9847 83.1729 64.4531 83.3537 64.0364 83.5535C63.5558 83.7832 63.1178 84.083 62.7223 84.4529L62.5246 84.3445C62.5799 84.1489 62.6543 83.9681 62.7478 83.8023C62.8286 83.6577 62.9222 83.528 63.0285 83.4132L62.2886 82.9922C62.0717 82.8476 61.9632 82.6903 61.9632 82.5201C61.9632 82.3841 62.0483 82.1374 62.2184 81.7802C62.4225 81.3549 62.6564 80.9999 62.9201 80.7149C63.2603 80.3492 63.6026 80.1664 63.9471 80.1664C64.266 80.1664 64.5297 80.2578 64.738 80.4406C64.7848 80.4789 64.8933 80.5959 65.0634 80.7915L64.7317 81.6271C64.5743 81.5208 64.4808 81.457 64.451 81.4357C64.1916 81.2699 63.979 81.187 63.8131 81.187C63.609 81.187 63.3964 81.2444 63.1752 81.3592C62.9541 81.474 62.8435 81.6037 62.8435 81.7483C62.8435 81.9227 62.9711 82.0906 63.2262 82.2522C63.4261 82.3756 63.7281 82.5095 64.132 82.6541C64.7231 82.3692 65.3249 82.1395 65.9373 81.9652Z" fill="url(#paint4_linear_3_2509)" fill-opacity="0.6"/>
<path d="M56.0984 95.3237V91.3789H56.6834V92.9289H56.6971C56.8556 92.5927 57.17 92.3986 57.6074 92.3986C58.2389 92.3986 58.6162 92.8196 58.6162 93.4702V95.3237H58.0229V93.585C58.0229 93.1613 57.8097 92.9071 57.3942 92.9071C56.9568 92.9071 56.6889 93.2078 56.6889 93.6616V95.3237H56.0984ZM60.1936 94.9055C60.6064 94.9055 60.929 94.6211 60.929 94.2466V94.0197L60.2209 94.0635C59.8682 94.0881 59.6687 94.2439 59.6687 94.4899C59.6687 94.7414 59.8764 94.9055 60.1936 94.9055ZM60.0295 95.3729C59.4664 95.3729 59.0727 95.023 59.0727 94.5063C59.0727 94.0033 59.4582 93.6944 60.1416 93.6561L60.929 93.6096V93.3882C60.929 93.0684 60.713 92.877 60.3521 92.877C60.0104 92.877 59.7972 93.041 59.7452 93.298H59.1875C59.2203 92.7786 59.6632 92.3958 60.374 92.3958C61.0711 92.3958 61.5167 92.7649 61.5167 93.3417V95.3237H60.9508V94.8508H60.9372C60.7704 95.1706 60.4068 95.3729 60.0295 95.3729ZM62.0908 95.3237V92.4478H62.654V92.9317H62.6676C62.7961 92.6118 63.0969 92.3986 63.485 92.3986C63.8842 92.3986 64.174 92.6036 64.2888 92.9617H64.3025C64.4501 92.6118 64.7891 92.3986 65.1991 92.3986C65.7678 92.3986 66.1396 92.7758 66.1396 93.3472V95.3237H65.5463V93.4894C65.5463 93.1176 65.3468 92.9043 64.9968 92.9043C64.6469 92.9043 64.4036 93.164 64.4036 93.5276V95.3237H63.824V93.4456C63.824 93.1148 63.6135 92.9043 63.28 92.9043C62.9301 92.9043 62.6813 93.1777 62.6813 93.5468V95.3237H62.0908ZM66.6289 95.3237V94.9437L68.1626 92.9289V92.918H66.6398V92.4478H68.8405V92.8524L67.3452 94.8426V94.8535H68.8569V95.3237H66.6289ZM70.3906 94.9055C70.8034 94.9055 71.126 94.6211 71.126 94.2466V94.0197L70.4179 94.0635C70.0653 94.0881 69.8657 94.2439 69.8657 94.4899C69.8657 94.7414 70.0735 94.9055 70.3906 94.9055ZM70.2266 95.3729C69.6634 95.3729 69.2697 95.023 69.2697 94.5063C69.2697 94.0033 69.6552 93.6944 70.3387 93.6561L71.126 93.6096V93.3882C71.126 93.0684 70.91 92.877 70.5492 92.877C70.2074 92.877 69.9942 93.041 69.9423 93.298H69.3846C69.4174 92.7786 69.8602 92.3958 70.571 92.3958C71.2681 92.3958 71.7137 92.7649 71.7137 93.3417V95.3237H71.1479V94.8508H71.1342C70.9674 95.1706 70.6038 95.3729 70.2266 95.3729Z" fill="url(#paint5_linear_3_2509)" fill-opacity="0.6"/>
</g>
<g filter="url(#filter3_d_3_2509)">
<path d="M86.2847 76.959C86.2847 72.8361 89.6269 69.4939 93.7497 69.4939H112.412C116.535 69.4939 119.877 72.8361 119.877 76.959V93.7553C119.877 97.8782 116.535 101.22 112.412 101.22H93.7497C89.6269 101.22 86.2847 97.8782 86.2847 93.7553V76.959Z" fill="#FAFAFA" shape-rendering="crispEdges"/>
<path d="M104.657 81.6399C104.657 82.2395 104.559 82.6903 104.363 82.9922C104.061 83.46 103.508 83.6939 102.705 83.6939C102.394 83.6939 102.137 83.6322 101.933 83.5089C101.699 83.3685 101.582 83.1687 101.582 82.9093C101.582 82.6116 101.656 82.2671 101.805 81.8759C101.941 81.5442 102.08 81.2104 102.22 80.8744L102.124 80.8489L102.513 79.7709C103.283 80.1749 103.742 80.43 103.891 80.5363C104.401 80.8935 104.657 81.2614 104.657 81.6399ZM104.102 82.1374C104.102 81.9758 103.868 81.7611 103.4 81.4932C103.2 81.3783 102.985 81.2656 102.756 81.1551C102.564 81.3635 102.45 81.4932 102.411 81.5442C102.292 81.71 102.233 81.8674 102.233 82.0162C102.233 82.2331 102.292 82.4032 102.411 82.5265C102.535 82.6456 102.698 82.7051 102.902 82.7051C103.141 82.7051 103.4 82.6392 103.681 82.5074C103.961 82.3713 104.102 82.248 104.102 82.1374Z" fill="url(#paint6_linear_3_2509)" fill-opacity="0.6"/>
<path d="M98.9366 95.3237V91.3789H99.5217V92.9289H99.5353C99.6939 92.5927 100.008 92.3986 100.446 92.3986C101.077 92.3986 101.454 92.8196 101.454 93.4702V95.3237H100.861V93.585C100.861 93.1613 100.648 92.9071 100.232 92.9071C99.795 92.9071 99.5271 93.2078 99.5271 93.6616V95.3237H98.9366ZM103.032 94.9055C103.445 94.9055 103.767 94.6211 103.767 94.2466V94.0197L103.059 94.0635C102.707 94.0881 102.507 94.2439 102.507 94.4899C102.507 94.7414 102.715 94.9055 103.032 94.9055ZM102.868 95.3729C102.305 95.3729 101.911 95.023 101.911 94.5063C101.911 94.0033 102.296 93.6944 102.98 93.6561L103.767 93.6096V93.3882C103.767 93.0684 103.551 92.877 103.19 92.877C102.849 92.877 102.635 93.041 102.584 93.298H102.026C102.059 92.7786 102.501 92.3958 103.212 92.3958C103.909 92.3958 104.355 92.7649 104.355 93.3417V95.3237H103.789V94.8508H103.775C103.609 95.1706 103.245 95.3729 102.868 95.3729ZM105.935 94.9055C106.348 94.9055 106.671 94.6211 106.671 94.2466V94.0197L105.962 94.0635C105.61 94.0881 105.41 94.2439 105.41 94.4899C105.41 94.7414 105.618 94.9055 105.935 94.9055ZM105.771 95.3729C105.208 95.3729 104.814 95.023 104.814 94.5063C104.814 94.0033 105.2 93.6944 105.883 93.6561L106.671 93.6096V93.3882C106.671 93.0684 106.455 92.877 106.094 92.877C105.752 92.877 105.539 93.041 105.487 93.298H104.929C104.962 92.7786 105.405 92.3958 106.116 92.3958C106.813 92.3958 107.258 92.7649 107.258 93.3417V95.3237H106.692V94.8508H106.679C106.512 95.1706 106.148 95.3729 105.771 95.3729Z" fill="url(#paint7_linear_3_2509)" fill-opacity="0.6"/>
</g>
<g filter="url(#filter4_d_3_2509)">
<path d="M47.0918 114.284C47.0918 110.161 50.434 106.819 54.5569 106.819H73.2195C77.3424 106.819 80.6846 110.161 80.6846 114.284V131.081C80.6846 135.203 77.3423 138.546 73.2195 138.546H54.5569C50.434 138.546 47.0918 135.203 47.0918 131.081V114.284Z" fill="#FAFAFA" shape-rendering="crispEdges"/>
<path d="M63.295 118.276C63.2099 118.276 63.0866 118.27 62.925 118.257C62.7634 118.244 62.6422 118.238 62.5614 118.238C62.2892 118.238 61.983 118.263 61.6428 118.314C61.4217 118.348 61.1198 118.404 60.737 118.48C60.9071 118 61.0666 117.687 61.2155 117.543C61.5344 117.228 62.0702 117.071 62.8229 117.071C63.1036 117.071 63.6777 117.13 64.5452 117.249C64.9492 117.304 65.2979 117.332 65.5913 117.332C65.7147 117.332 65.8954 117.317 66.1335 117.287C66.3717 117.258 66.5503 117.243 66.6694 117.243L66.4333 118.321C65.536 118.474 64.7727 118.648 64.1433 118.844C63.2078 119.133 62.4785 119.486 61.9554 119.903C61.3048 120.422 60.9794 121.034 60.9794 121.74C60.9794 122.654 61.4557 123.341 62.4083 123.8C63.2375 124.2 64.3453 124.4 65.7317 124.4H66.9054L66.9436 124.47L65.502 125.484H65.1321C64.2135 125.484 63.4502 125.399 62.8421 125.229C62.1149 125.025 61.5642 124.698 61.1899 124.247C60.7647 123.732 60.5521 123.052 60.5521 122.206C60.5521 121.491 60.72 120.849 61.056 120.279C61.3111 119.845 61.6832 119.435 62.1723 119.048C62.3211 118.929 62.6953 118.672 63.295 118.276Z" fill="url(#paint8_linear_3_2509)" fill-opacity="0.6"/>
<path d="M59.7438 132.649V128.704H60.3288V130.254H60.3425C60.501 129.918 60.8154 129.724 61.2528 129.724C61.8843 129.724 62.2616 130.145 62.2616 130.795V132.649H61.6683V130.91C61.6683 130.487 61.4551 130.232 61.0396 130.232C60.6022 130.232 60.3343 130.533 60.3343 130.987V132.649H59.7438ZM63.839 132.231C64.2518 132.231 64.5744 131.946 64.5744 131.572V131.345L63.8663 131.389C63.5137 131.413 63.3141 131.569 63.3141 131.815C63.3141 132.067 63.5219 132.231 63.839 132.231ZM63.6749 132.698C63.1118 132.698 62.7181 132.348 62.7181 131.832C62.7181 131.329 63.1036 131.02 63.787 130.981L64.5744 130.935V130.713C64.5744 130.394 64.3584 130.202 63.9975 130.202C63.6558 130.202 63.4426 130.366 63.3906 130.623H62.8329C62.8657 130.104 63.3086 129.721 64.0194 129.721C64.7165 129.721 65.1621 130.09 65.1621 130.667V132.649H64.5962V132.176H64.5826C64.4158 132.496 64.0522 132.698 63.6749 132.698ZM66.7423 132.231C67.1551 132.231 67.4776 131.946 67.4776 131.572V131.345L66.7696 131.389C66.4169 131.413 66.2174 131.569 66.2174 131.815C66.2174 132.067 66.4251 132.231 66.7423 132.231ZM66.5782 132.698C66.0151 132.698 65.6214 132.348 65.6214 131.832C65.6214 131.329 66.0069 131.02 66.6903 130.981L67.4776 130.935V130.713C67.4776 130.394 67.2617 130.202 66.9008 130.202C66.5591 130.202 66.3459 130.366 66.2939 130.623H65.7362C65.769 130.104 66.2119 129.721 66.9227 129.721C67.6198 129.721 68.0654 130.09 68.0654 130.667V132.649H67.4995V132.176H67.4858C67.3191 132.496 66.9555 132.698 66.5782 132.698Z" fill="url(#paint9_linear_3_2509)" fill-opacity="0.6"/>
<path d="M59.4294 133.663H62.5404V134.06H59.4294V133.663Z" fill="url(#paint10_linear_3_2509)" fill-opacity="0.6"/>
</g>
<g filter="url(#filter5_d_3_2509)">
<path d="M86.291 114.284C86.291 110.161 89.6332 106.819 93.7561 106.819H112.419C116.542 106.819 119.884 110.161 119.884 114.284V131.081C119.884 135.203 116.542 138.546 112.419 138.546H93.7561C89.6332 138.546 86.291 135.203 86.291 131.081V114.284Z" fill="#FAFAFA" shape-rendering="crispEdges"/>
<path d="M103.719 114.908L103.228 115.833L102.201 115.297L102.679 114.366L103.719 114.908ZM102.494 118.276C102.409 118.276 102.286 118.27 102.124 118.257C101.963 118.244 101.841 118.238 101.761 118.238C101.488 118.238 101.182 118.263 100.842 118.314C100.621 118.348 100.319 118.404 99.9363 118.48C100.106 118 100.266 117.687 100.415 117.543C100.734 117.228 101.269 117.071 102.022 117.071C102.303 117.071 102.877 117.13 103.744 117.249C104.148 117.304 104.497 117.332 104.791 117.332C104.914 117.332 105.095 117.317 105.333 117.287C105.571 117.258 105.75 117.243 105.869 117.243L105.633 118.321C104.735 118.474 103.972 118.648 103.343 118.844C102.407 119.133 101.678 119.486 101.155 119.903C100.504 120.422 100.179 121.034 100.179 121.74C100.179 122.654 100.655 123.341 101.608 123.8C102.437 124.2 103.545 124.4 104.931 124.4H106.105L106.143 124.47L104.701 125.484H104.331C103.413 125.484 102.649 125.399 102.041 125.229C101.314 125.025 100.763 124.698 100.389 124.247C99.9639 123.732 99.7513 123.052 99.7513 122.206C99.7513 121.491 99.9192 120.849 100.255 120.279C100.51 119.845 100.882 119.435 101.371 119.048C101.52 118.929 101.895 118.672 102.494 118.276Z" fill="url(#paint11_linear_3_2509)" fill-opacity="0.6"/>
<path d="M98.1256 131.006L99.2874 129.773H99.9818L98.7899 131.011L100.028 132.649H99.3421L98.3662 131.372L98.1201 131.616V132.649H97.5296V128.704H98.1201V131.006H98.1256ZM100.356 132.649V128.704H100.941V130.254H100.955C101.114 129.918 101.428 129.724 101.865 129.724C102.497 129.724 102.874 130.145 102.874 130.795V132.649H102.281V130.91C102.281 130.487 102.068 130.232 101.652 130.232C101.215 130.232 100.947 130.533 100.947 130.987V132.649H100.356ZM104.452 132.231C104.864 132.231 105.187 131.946 105.187 131.572V131.345L104.479 131.389C104.126 131.413 103.927 131.569 103.927 131.815C103.927 132.067 104.134 132.231 104.452 132.231ZM104.288 132.698C103.724 132.698 103.331 132.348 103.331 131.832C103.331 131.329 103.716 131.02 104.4 130.981L105.187 130.935V130.713C105.187 130.394 104.971 130.202 104.61 130.202C104.268 130.202 104.055 130.366 104.003 130.623H103.446C103.478 130.104 103.921 129.721 104.632 129.721C105.329 129.721 105.775 130.09 105.775 130.667V132.649H105.209V132.176H105.195C105.028 132.496 104.665 132.698 104.288 132.698ZM107.355 132.231C107.768 132.231 108.09 131.946 108.09 131.572V131.345L107.382 131.389C107.03 131.413 106.83 131.569 106.83 131.815C106.83 132.067 107.038 132.231 107.355 132.231ZM107.191 132.698C106.628 132.698 106.234 132.348 106.234 131.832C106.234 131.329 106.619 131.02 107.303 130.981L108.09 130.935V130.713C108.09 130.394 107.874 130.202 107.513 130.202C107.172 130.202 106.958 130.366 106.907 130.623H106.349C106.382 130.104 106.824 129.721 107.535 129.721C108.232 129.721 108.678 130.09 108.678 130.667V132.649H108.112V132.176H108.098C107.932 132.496 107.568 132.698 107.191 132.698Z" fill="url(#paint12_linear_3_2509)" fill-opacity="0.6"/>
</g>
</g>
<defs>
<filter id="filter0_d_3_2509" x="42.835" y="27.3715" width="42.1093" height="40.243" filterUnits="userSpaceOnUse" color-interpolation-filters="sRGB">
<feFlood flood-opacity="0" result="BackgroundImageFix"/>
<feColorMatrix in="SourceAlpha" type="matrix" values="0 0 0 0 0 0 0 0 0 0 0 0 0 0 0 0 0 0 127 0" result="hardAlpha"/>
<feOffset dy="3.19368"/>
<feGaussianBlur stdDeviation="2.12912"/>
<feComposite in2="hardAlpha" operator="out"/>
<feColorMatrix type="matrix" values="0 0 0 0 0 0 0 0 0 0 0 0 0 0 0 0 0 0 0.1 0"/>
<feBlend mode="normal" in2="BackgroundImageFix" result="effect1_dropShadow_3_2509"/>
<feBlend mode="normal" in="SourceGraphic" in2="effect1_dropShadow_3_2509" result="shape"/>
</filter>
<filter id="filter1_d_3_2509" x="82.0264" y="27.3715" width="42.1093" height="40.243" filterUnits="userSpaceOnUse" color-interpolation-filters="sRGB">
<feFlood flood-opacity="0" result="BackgroundImageFix"/>
<feColorMatrix in="SourceAlpha" type="matrix" values="0 0 0 0 0 0 0 0 0 0 0 0 0 0 0 0 0 0 127 0" result="hardAlpha"/>
<feOffset dy="3.19368"/>
<feGaussianBlur stdDeviation="2.12912"/>
<feComposite in2="hardAlpha" operator="out"/>
<feColorMatrix type="matrix" values="0 0 0 0 0 0 0 0 0 0 0 0 0 0 0 0 0 0 0.1 0"/>
<feBlend mode="normal" in2="BackgroundImageFix" result="effect1_dropShadow_3_2509"/>
<feBlend mode="normal" in="SourceGraphic" in2="effect1_dropShadow_3_2509" result="shape"/>
</filter>
<filter id="filter2_d_3_2509" x="42.835" y="68.4293" width="42.1093" height="40.243" filterUnits="userSpaceOnUse" color-interpolation-filters="sRGB">
<feFlood flood-opacity="0" result="BackgroundImageFix"/>
<feColorMatrix in="SourceAlpha" type="matrix" values="0 0 0 0 0 0 0 0 0 0 0 0 0 0 0 0 0 0 127 0" result="hardAlpha"/>
<feOffset dy="3.19368"/>
<feGaussianBlur stdDeviation="2.12912"/>
<feComposite in2="hardAlpha" operator="out"/>
<feColorMatrix type="matrix" values="0 0 0 0 0 0 0 0 0 0 0 0 0 0 0 0 0 0 0.1 0"/>
<feBlend mode="normal" in2="BackgroundImageFix" result="effect1_dropShadow_3_2509"/>
<feBlend mode="normal" in="SourceGraphic" in2="effect1_dropShadow_3_2509" result="shape"/>
</filter>
<filter id="filter3_d_3_2509" x="82.0264" y="68.4293" width="42.1093" height="40.243" filterUnits="userSpaceOnUse" color-interpolation-filters="sRGB">
<feFlood flood-opacity="0" result="BackgroundImageFix"/>
<feColorMatrix in="SourceAlpha" type="matrix" values="0 0 0 0 0 0 0 0 0 0 0 0 0 0 0 0 0 0 127 0" result="hardAlpha"/>
<feOffset dy="3.19368"/>
<feGaussianBlur stdDeviation="2.12912"/>
<feComposite in2="hardAlpha" operator="out"/>
<feColorMatrix type="matrix" values="0 0 0 0 0 0 0 0 0 0 0 0 0 0 0 0 0 0 0.1 0"/>
<feBlend mode="normal" in2="BackgroundImageFix" result="effect1_dropShadow_3_2509"/>
<feBlend mode="normal" in="SourceGraphic" in2="effect1_dropShadow_3_2509" result="shape"/>
</filter>
<filter id="filter4_d_3_2509" x="42.8336" y="105.755" width="42.1093" height="40.243" filterUnits="userSpaceOnUse" color-interpolation-filters="sRGB">
<feFlood flood-opacity="0" result="BackgroundImageFix"/>
<feColorMatrix in="SourceAlpha" type="matrix" values="0 0 0 0 0 0 0 0 0 0 0 0 0 0 0 0 0 0 127 0" result="hardAlpha"/>
<feOffset dy="3.19368"/>
<feGaussianBlur stdDeviation="2.12912"/>
<feComposite in2="hardAlpha" operator="out"/>
<feColorMatrix type="matrix" values="0 0 0 0 0 0 0 0 0 0 0 0 0 0 0 0 0 0 0.1 0"/>
<feBlend mode="normal" in2="BackgroundImageFix" result="effect1_dropShadow_3_2509"/>
<feBlend mode="normal" in="SourceGraphic" in2="effect1_dropShadow_3_2509" result="shape"/>
</filter>
<filter id="filter5_d_3_2509" x="82.0328" y="105.755" width="42.1093" height="40.243" filterUnits="userSpaceOnUse" color-interpolation-filters="sRGB">
<feFlood flood-opacity="0" result="BackgroundImageFix"/>
<feColorMatrix in="SourceAlpha" type="matrix" values="0 0 0 0 0 0 0 0 0 0 0 0 0 0 0 0 0 0 127 0" result="hardAlpha"/>
<feOffset dy="3.19368"/>
<feGaussianBlur stdDeviation="2.12912"/>
<feComposite in2="hardAlpha" operator="out"/>
<feColorMatrix type="matrix" values="0 0 0 0 0 0 0 0 0 0 0 0 0 0 0 0 0 0 0.1 0"/>
<feBlend mode="normal" in2="BackgroundImageFix" result="effect1_dropShadow_3_2509"/>
<feBlend mode="normal" in="SourceGraphic" in2="effect1_dropShadow_3_2509" result="shape"/>
</filter>
<linearGradient id="paint0_linear_3_2509" x1="63.8896" y1="32.3328" x2="63.8896" y2="47.3328" gradientUnits="userSpaceOnUse">
<stop/>
<stop offset="1"/>
</linearGradient>
<linearGradient id="paint1_linear_3_2509" x1="63.8896" y1="48.2659" x2="63.8896" y2="56.2659" gradientUnits="userSpaceOnUse">
<stop/>
<stop offset="1"/>
</linearGradient>
<linearGradient id="paint2_linear_3_2509" x1="103.436" y1="32.1326" x2="103.436" y2="47.1326" gradientUnits="userSpaceOnUse">
<stop/>
<stop offset="1"/>
</linearGradient>
<linearGradient id="paint3_linear_3_2509" x1="103.436" y1="48.0657" x2="103.436" y2="56.0657" gradientUnits="userSpaceOnUse">
<stop/>
<stop offset="1"/>
</linearGradient>
<linearGradient id="paint4_linear_3_2509" x1="63.8896" y1="73.3906" x2="63.8896" y2="88.3906" gradientUnits="userSpaceOnUse">
<stop/>
<stop offset="1"/>
</linearGradient>
<linearGradient id="paint5_linear_3_2509" x1="63.8896" y1="89.3237" x2="63.8896" y2="97.3237" gradientUnits="userSpaceOnUse">
<stop/>
<stop offset="1"/>
</linearGradient>
<linearGradient id="paint6_linear_3_2509" x1="103.081" y1="73.3906" x2="103.081" y2="88.3906" gradientUnits="userSpaceOnUse">
<stop/>
<stop offset="1"/>
</linearGradient>
<linearGradient id="paint7_linear_3_2509" x1="103.081" y1="89.3237" x2="103.081" y2="97.3237" gradientUnits="userSpaceOnUse">
<stop/>
<stop offset="1"/>
</linearGradient>
<linearGradient id="paint8_linear_3_2509" x1="63.8882" y1="110.716" x2="63.8882" y2="125.716" gradientUnits="userSpaceOnUse">
<stop/>
<stop offset="1"/>
</linearGradient>
<linearGradient id="paint9_linear_3_2509" x1="63.8882" y1="126.649" x2="63.8882" y2="134.649" gradientUnits="userSpaceOnUse">
<stop/>
<stop offset="1"/>
</linearGradient>
<linearGradient id="paint10_linear_3_2509" x1="63.8882" y1="126.649" x2="63.8882" y2="134.649" gradientUnits="userSpaceOnUse">
<stop/>
<stop offset="1"/>
</linearGradient>
<linearGradient id="paint11_linear_3_2509" x1="103.087" y1="110.716" x2="103.087" y2="125.716" gradientUnits="userSpaceOnUse">
<stop/>
<stop offset="1"/>
</linearGradient>
<linearGradient id="paint12_linear_3_2509" x1="103.087" y1="126.649" x2="103.087" y2="134.649" gradientUnits="userSpaceOnUse">
<stop/>
<stop offset="1"/>
</linearGradient>
</defs>
</svg>
