<svg width="166" height="166" viewBox="0 0 166 166" fill="none" xmlns="http://www.w3.org/2000/svg">
<path d="M-0.00195313 29.0002C-0.00195313 13.0944 12.8922 0.200195 28.798 0.200195L136.798 0.200195C152.704 0.200195 165.598 13.0944 165.598 29.0002V137C165.598 152.906 152.704 165.8 136.798 165.8H28.798C12.8922 165.8 -0.00195313 152.906 -0.00195313 137L-0.00195313 29.0002Z" fill="white" fill-opacity="0.1"/>
<path fill-rule="evenodd" clip-rule="evenodd" d="M118.754 66.1422C120.383 66.7466 123.987 67.2059 125.373 64.2081C126.759 61.2104 125.084 57.6404 124.074 56.2301L115.572 42.7099C113.322 39.1308 109.331 36.95 105.032 36.95L51.2705 36.95C44.4381 36.95 38.8994 42.3619 38.8994 49.0378V122.232C38.8994 124.02 40.349 125.469 42.1372 125.469H52.5677C53.4848 125.469 54.3588 125.858 54.9728 126.54L62.4901 134.88C63.104 135.561 63.9781 135.95 64.8951 135.95H68.03C68.3269 135.95 68.5569 135.698 68.5252 135.409C67.9549 130.227 67.8176 120.273 71.4955 117.939C75.9356 115.122 89.1376 113.933 100.177 113.785C101.743 113.764 103.359 113.566 104.637 112.682C108.104 110.285 107.513 106.74 106.877 105.549C106.182 104.247 104.89 101.355 107.878 95.2345C108.197 94.5816 109.387 93.3486 110.227 92.4786C110.495 92.2005 110.727 91.9595 110.884 91.7864C112.383 90.1326 112.102 83.6667 113.68 82.0881C113.939 81.8285 114.183 81.5588 114.407 81.2774C114.964 80.5763 114.239 79.2613 114.748 78.5192L111.019 75.0034C110.858 74.8522 110.714 74.685 110.587 74.5045L108.65 71.7381C108.329 71.279 108.156 70.7322 108.156 70.1718C108.156 69.0312 108.865 68.0107 109.934 67.6128L111.98 66.8515C112.252 66.75 112.537 66.6857 112.827 66.6604L118.754 66.1422Z" fill="url(#paint0_linear_3_2466)" fill-opacity="0.21"/>
<path d="M47.8908 96.5118C47.4439 130.185 42.6139 128.521 40.2548 128.5C39.3975 128.5 38.7025 127.805 38.7025 126.948V49.3299C38.7025 42.4725 39.4416 36.9136 51.1188 36.9136L105.077 36.9136C109.392 36.9136 113.397 39.1536 115.656 42.83L124.188 56.7176C125.202 58.1661 126.883 61.8331 125.492 64.9123C124.24 67.6859 121.18 67.5784 119.391 67.076C119.06 66.9833 118.849 66.672 118.85 66.3287C118.85 65.8846 119.203 65.5242 119.638 65.4318C120.415 65.2665 121.32 64.883 121.8 64.1352C122.258 63.4227 122.277 62.4965 122.155 61.6586C121.516 57.2858 114.657 49.9897 110.966 46.5985C109.103 45.1706 103.851 41.992 97.7423 40.7007C90.1063 39.0866 74.1514 39.8316 71.8544 41.3215C70.0167 42.5135 69.8886 45.005 70.0542 46.1018C70.2141 46.9774 69.9075 48.4399 69.5269 49.7713C68.9747 51.703 67.4447 53.1588 65.5729 53.8889C62.8035 54.9691 58.9073 56.5309 57.7094 57.221C55.6963 58.3807 53.2846 59.4013 52.2353 61.474C50.2091 65.4764 47.0052 75.346 47.8908 96.5118Z" fill="#F7F7FB"/>
<path d="M68.9952 64.7872C82.6934 60.3842 101.452 63.3704 109.486 65.4979C109.726 65.5614 109.935 65.6896 110.105 65.8699C110.869 66.678 110.361 68.0707 109.404 68.6376C108.177 69.3645 107.431 70.6169 108.729 72.6094C111.399 76.7068 116.303 79.5626 115.372 82.2321C114.504 84.7212 108.885 82.1366 106.268 80.0648C106.151 79.9723 105.935 79.8831 105.801 79.8927C105.678 79.9015 105.632 80.0655 105.543 80.1502L102.389 83.1471C102.121 83.401 101.681 83.1945 101.706 82.8267L101.907 79.804C101.99 78.5714 101.362 77.3927 100.279 76.7987C89.4358 70.8531 82.3408 69.8496 72.9684 69.3191C65.0717 68.8721 59.8693 73.6441 58.2551 76.086C57.4067 77.5139 55.3746 80.3944 54.0336 80.4938C53.9747 80.4981 53.9169 80.5006 53.8602 80.5013C52.1464 80.5219 51.6447 78.3173 52.3014 76.7342C53.7348 73.2789 58.1939 68.259 68.9952 64.7872Z" fill="#FCFCFC"/>
<path opacity="0.54" d="M61.7734 80.7367C57.3278 84.5472 57.8849 91.2633 59.0206 95.0377C59.2565 95.8214 60.1818 96.0868 60.8822 95.6633C75.7555 86.6692 95.4658 94.0796 96.8587 91.0405C97.7723 89.0473 99.738 87.5829 101.138 86.8052C101.691 86.4977 102.076 85.9322 102.076 85.2989V84.7349C102.076 83.9997 101.567 83.3639 100.849 83.209C89.129 80.6847 66.7079 76.5071 61.7734 80.7367Z" fill="#E7E3E3"/>
<path opacity="0.66" d="M59.8051 109.672C66.002 118.872 63.8511 130.408 62.3324 136.316C62.2395 136.677 62.5121 137.028 62.8854 137.028H67.8555C68.1962 137.028 68.4603 136.732 68.4237 136.393C67.8592 131.163 67.7427 122.486 71.4141 120.102C75.8704 117.208 89.1207 115.987 100.201 115.835C101.773 115.813 103.394 115.61 104.677 114.702C108.156 112.24 107.563 108.599 106.925 107.375C106.227 106.038 104.93 103.067 107.93 96.7807C108.352 95.8957 110.297 93.9731 110.947 93.2389C113.897 89.9072 107.759 86.0221 105.127 89.6107C105.075 89.6817 105.023 89.7539 104.97 89.8274C104.75 90.1314 104.287 90.1159 104.098 89.7917L102.459 86.9703C102.404 86.8753 102.375 86.7651 102.313 86.6744C102.158 86.448 101.795 86.4301 101.634 86.694C100.83 88.3916 99.6516 89.9683 97.9009 90.6482C96.1788 91.3169 94.5336 91.4601 93.2801 91.3758C92.0968 91.2962 90.9259 91.0033 89.7415 90.9431C75.3264 90.2114 65.3458 92.4617 60.9568 94.5575C58.9336 95.5237 59.0462 97.7136 60.1959 99.6384L62.732 103.884C63.1861 104.645 62.5243 105.458 61.7577 105.014C60.4695 104.269 59.0986 103.094 58.4391 101.415C57.92 100.094 57.4552 99.328 57.0791 98.9074C56.6194 98.3932 55.8042 98.6668 55.687 99.3465C55.4543 100.697 56.1514 103.753 59.8051 109.672Z" fill="#FCFCFC"/>
<defs>
<linearGradient id="paint0_linear_3_2466" x1="82.3994" y1="36.95" x2="82.3994" y2="135.95" gradientUnits="userSpaceOnUse">
<stop stop-color="#D5D5D9"/>
<stop offset="1" stop-color="#D5D5D9" stop-opacity="0"/>
</linearGradient>
</defs>
</svg>
