<svg width="166" height="166" viewBox="0 0 166 166" fill="none" xmlns="http://www.w3.org/2000/svg">
<path d="M0.201172 29.0002C0.201172 13.0944 13.0954 0.200195 29.0012 0.200195L137.001 0.200195C152.907 0.200195 165.801 13.0944 165.801 29.0002V137C165.801 152.906 152.907 165.8 137.001 165.8H29.0012C13.0954 165.8 0.201172 152.906 0.201172 137L0.201172 29.0002Z" fill="white" fill-opacity="0.1"/>
<g opacity="0.09">
<g filter="url(#filter0_d_3_2546)">
<path d="M20.9043 64.6313C20.9043 59.596 24.9862 55.5142 30.0215 55.5142H136.811C141.846 55.5142 145.928 59.5961 145.928 64.6313V71.183C145.928 76.2183 141.846 80.3002 136.811 80.3002H30.0215C24.9862 80.3002 20.9043 76.2183 20.9043 71.183V64.6313Z" fill="#F4F4F4" shape-rendering="crispEdges"/>
<path d="M29.5238 66.9072H28.9656V63.7926H27.8643V63.3117H30.6226V63.7926H29.5238V66.9072ZM31.0337 66.9072V63.3117H31.5669V64.7245H31.5794C31.7239 64.418 32.0105 64.2411 32.4091 64.2411C32.9847 64.2411 33.3286 64.6248 33.3286 65.2179V66.9072H32.7879V65.3225C32.7879 64.9363 32.5935 64.7046 32.2148 64.7046C31.8161 64.7046 31.5719 64.9787 31.5719 65.3923V66.9072H31.0337ZM34.9457 64.6722C34.5694 64.6722 34.3053 64.9587 34.2779 65.3549H35.5885C35.5761 64.9537 35.3219 64.6722 34.9457 64.6722ZM35.5861 66.1373H36.0969C36.0221 66.6157 35.5686 66.9571 34.9681 66.9571C34.1982 66.9571 33.7322 66.4363 33.7322 65.6091C33.7322 64.7868 34.2057 64.2386 34.9457 64.2386C35.6733 64.2386 36.1268 64.7519 36.1268 65.5468V65.7311H34.2754V65.7635C34.2754 66.2195 34.5495 66.521 34.9806 66.521C35.2871 66.521 35.5138 66.3665 35.5861 66.1373ZM37.5819 66.9072V64.286H38.0952V64.727H38.1077C38.2248 64.4355 38.4989 64.2411 38.8527 64.2411C39.2165 64.2411 39.4806 64.428 39.5852 64.7544H39.5977C39.7322 64.4355 40.0412 64.2411 40.415 64.2411C40.9332 64.2411 41.2721 64.585 41.2721 65.1057V66.9072H40.7314V65.2353C40.7314 64.8964 40.5495 64.7021 40.2306 64.7021C39.9116 64.7021 39.6899 64.9388 39.6899 65.2702V66.9072H39.1616V65.1954C39.1616 64.8939 38.9698 64.7021 38.6658 64.7021C38.3469 64.7021 38.1201 64.9512 38.1201 65.2876V66.9072H37.5819ZM41.8103 66.9072V64.286H42.3485V66.9072H41.8103ZM42.0794 63.9022C41.9075 63.9022 41.768 63.7652 41.768 63.5958C41.768 63.4238 41.9075 63.2868 42.0794 63.2868C42.2538 63.2868 42.3934 63.4238 42.3934 63.5958C42.3934 63.7652 42.2538 63.9022 42.0794 63.9022ZM43.8834 66.9521C43.2206 66.9521 42.7821 66.4238 42.7821 65.5966C42.7821 64.7693 43.2206 64.2436 43.8784 64.2436C44.2547 64.2436 44.5537 64.433 44.7007 64.722H44.7107V63.3117H45.2514V66.9072H44.7281V66.4612H44.7181C44.5636 66.7602 44.2646 66.9521 43.8834 66.9521ZM44.0254 64.6971C43.5994 64.6971 43.3327 65.0459 43.3327 65.5966C43.3327 66.1498 43.5994 66.4961 44.0254 66.4961C44.4391 66.4961 44.7156 66.1448 44.7156 65.5966C44.7156 65.0534 44.4391 64.6971 44.0254 64.6971ZM46.7887 66.9521C46.1259 66.9521 45.6874 66.4238 45.6874 65.5966C45.6874 64.7693 46.1259 64.2436 46.7838 64.2436C47.16 64.2436 47.459 64.433 47.606 64.722H47.616V63.3117H48.1567V66.9072H47.6334V66.4612H47.6235C47.469 66.7602 47.17 66.9521 46.7887 66.9521ZM46.9308 64.6971C46.5047 64.6971 46.2381 65.0459 46.2381 65.5966C46.2381 66.1498 46.5047 66.4961 46.9308 66.4961C47.3444 66.4961 47.621 66.1448 47.621 65.5966C47.621 65.0534 47.3444 64.6971 46.9308 64.6971ZM48.7298 66.9072V63.3117H49.268V66.9072H48.7298ZM50.9175 64.6722C50.5412 64.6722 50.2771 64.9587 50.2497 65.3549H51.5603C51.5479 64.9537 51.2937 64.6722 50.9175 64.6722ZM51.5578 66.1373H52.0686C51.9939 66.6157 51.5404 66.9571 50.9399 66.9571C50.17 66.9571 49.704 66.4363 49.704 65.6091C49.704 64.7868 50.1774 64.2386 50.9175 64.2386C51.6451 64.2386 52.0985 64.7519 52.0985 65.5468V65.7311H50.2472V65.7635C50.2472 66.2195 50.5213 66.521 50.9524 66.521C51.2588 66.521 51.4856 66.3665 51.5578 66.1373ZM54.9191 64.2436C55.5844 64.2436 56.023 64.7669 56.023 65.5966C56.023 66.4263 55.5869 66.9521 54.9291 66.9521C54.5529 66.9521 54.2539 66.7677 54.1044 66.4762H54.0919V67.7743H53.5537V64.286H54.0745V64.737H54.0844C54.2389 64.4355 54.5404 64.2436 54.9191 64.2436ZM54.7771 66.4961C55.2032 66.4961 55.4698 66.1473 55.4698 65.5966C55.4698 65.0484 55.2032 64.6971 54.7771 64.6971C54.366 64.6971 54.0894 65.0559 54.0894 65.5966C54.0894 66.1423 54.3635 66.4961 54.7771 66.4961ZM57.356 66.526C57.7323 66.526 58.0263 66.2669 58.0263 65.9255V65.7187L57.3809 65.7586C57.0595 65.781 56.8776 65.923 56.8776 66.1473C56.8776 66.3765 57.067 66.526 57.356 66.526ZM57.2065 66.9521C56.6932 66.9521 56.3344 66.6331 56.3344 66.1622C56.3344 65.7037 56.6858 65.4222 57.3087 65.3873L58.0263 65.3449V65.1431C58.0263 64.8516 57.8295 64.6772 57.5005 64.6772C57.1891 64.6772 56.9947 64.8267 56.9474 65.0609H56.4391C56.469 64.5875 56.8726 64.2386 57.5205 64.2386C58.1559 64.2386 58.562 64.575 58.562 65.1007V66.9072H58.0462V66.4762H58.0338C57.8818 66.7677 57.5504 66.9521 57.2065 66.9521ZM59.0853 66.9072V64.286H59.5986V64.732H59.611C59.6982 64.4255 59.9324 64.2436 60.2414 64.2436C60.3187 64.2436 60.3859 64.2561 60.4258 64.2635V64.7644C60.3834 64.7469 60.2888 64.7345 60.1841 64.7345C59.8378 64.7345 59.6235 64.9662 59.6235 65.3375V66.9072H59.0853ZM60.9167 63.6655H61.4574V64.286H61.9557V64.712H61.4574V66.1572C61.4574 66.384 61.557 66.4861 61.7763 66.4861C61.8311 66.4861 61.9183 66.4811 61.9532 66.4737V66.8998C61.8934 66.9147 61.7738 66.9247 61.6542 66.9247C61.1235 66.9247 60.9167 66.7228 60.9167 66.217V64.712H60.5354V64.286H60.9167V63.6655ZM64.562 66.9571C63.812 66.9571 63.3187 66.4413 63.3187 65.5966C63.3187 64.7544 63.8145 64.2386 64.562 64.2386C65.3095 64.2386 65.8054 64.7544 65.8054 65.5966C65.8054 66.4413 65.312 66.9571 64.562 66.9571ZM64.562 66.5135C64.9856 66.5135 65.2572 66.1797 65.2572 65.5966C65.2572 65.016 64.9831 64.6821 64.562 64.6821C64.1409 64.6821 63.8668 65.016 63.8668 65.5966C63.8668 66.1797 64.1409 66.5135 64.562 66.5135ZM66.3785 66.9072V64.712H66.0172V64.2909H66.3785V64.0343C66.3785 63.526 66.6177 63.2868 67.1509 63.2868C67.2605 63.2868 67.3826 63.2992 67.4524 63.3117V63.7104C67.4001 63.7004 67.3278 63.6954 67.2555 63.6954C67.0213 63.6954 66.9117 63.8125 66.9117 64.0443V64.2909H67.4424V64.712H66.9192V66.9072H66.3785ZM69.0595 63.6655H69.6002V64.286H70.0986V64.712H69.6002V66.1572C69.6002 66.384 69.6999 66.4861 69.9192 66.4861C69.974 66.4861 70.0612 66.4811 70.0961 66.4737V66.8998C70.0363 66.9147 69.9167 66.9247 69.7971 66.9247C69.2663 66.9247 69.0595 66.7228 69.0595 66.217V64.712H68.6783V64.286H69.0595V63.6655ZM70.562 66.9072V63.3117H71.0953V64.7245H71.1077C71.2522 64.418 71.5388 64.2411 71.9374 64.2411C72.513 64.2411 72.8569 64.6248 72.8569 65.2179V66.9072H72.3162V65.3225C72.3162 64.9363 72.1218 64.7046 71.7431 64.7046C71.3444 64.7046 71.1002 64.9787 71.1002 65.3923V66.9072H70.562ZM74.474 64.6722C74.0978 64.6722 73.8336 64.9587 73.8062 65.3549H75.1169C75.1044 64.9537 74.8502 64.6722 74.474 64.6722ZM75.1144 66.1373H75.6252C75.5504 66.6157 75.0969 66.9571 74.4964 66.9571C73.7265 66.9571 73.2605 66.4363 73.2605 65.6091C73.2605 64.7868 73.734 64.2386 74.474 64.2386C75.2016 64.2386 75.6551 64.7519 75.6551 65.5468V65.7311H73.8037V65.7635C73.8037 66.2195 74.0778 66.521 74.5089 66.521C74.8154 66.521 75.0421 66.3665 75.1144 66.1373ZM77.2672 63.6655H77.8079V64.286H78.3062V64.712H77.8079V66.1572C77.8079 66.384 77.9076 66.4861 78.1268 66.4861C78.1816 66.4861 78.2689 66.4811 78.3037 66.4737V66.8998C78.2439 66.9147 78.1243 66.9247 78.0047 66.9247C77.474 66.9247 77.2672 66.7228 77.2672 66.217V64.712H76.886V64.286H77.2672V63.6655ZM79.8112 66.9571C79.0612 66.9571 78.5679 66.4413 78.5679 65.5966C78.5679 64.7544 79.0637 64.2386 79.8112 64.2386C80.5587 64.2386 81.0546 64.7544 81.0546 65.5966C81.0546 66.4413 80.5612 66.9571 79.8112 66.9571ZM79.8112 66.5135C80.2348 66.5135 80.5064 66.1797 80.5064 65.5966C80.5064 65.016 80.2323 64.6821 79.8112 64.6821C79.3901 64.6821 79.116 65.016 79.116 65.5966C79.116 66.1797 79.3901 66.5135 79.8112 66.5135ZM81.4707 66.9072V64.286H81.984V64.7245H81.9964C82.1385 64.4255 82.4175 64.2411 82.8212 64.2411C83.3993 64.2411 83.7307 64.6099 83.7307 65.2104V66.9072H83.19V65.315C83.19 64.9213 83.0056 64.7046 82.6318 64.7046C82.2531 64.7046 82.0089 64.9737 82.0089 65.3798V66.9072H81.4707ZM85.3677 66.4712C85.7888 66.4712 86.0654 66.1298 86.0654 65.5891C86.0654 65.0509 85.7888 64.6971 85.3677 64.6971C84.9541 64.6971 84.685 65.0434 84.685 65.5891C84.685 66.1373 84.9541 66.4712 85.3677 66.4712ZM85.3727 67.8939C84.7547 67.8939 84.2963 67.565 84.229 67.1115H84.7697C84.8469 67.3308 85.0861 67.4753 85.3926 67.4753C85.8137 67.4753 86.0629 67.2361 86.0629 66.8773V66.4463H86.0529C85.9059 66.7303 85.5969 66.9172 85.2232 66.9172C84.5654 66.9172 84.1343 66.4039 84.1343 65.5866C84.1343 64.7619 84.5629 64.2436 85.2356 64.2436C85.6069 64.2436 85.9109 64.4305 86.0704 64.7345H86.0803V64.286H86.6036V66.8599C86.6036 67.4853 86.1202 67.8939 85.3727 67.8939ZM89.3843 64.286V66.9072H88.8685V66.4637H88.8561C88.7116 66.7777 88.445 66.9546 88.0438 66.9546C87.4732 66.9546 87.1244 66.5833 87.1244 65.9828V64.286H87.6626V65.8782C87.6626 66.2768 87.8519 66.4911 88.2232 66.4911C88.6119 66.4911 88.8461 66.222 88.8461 65.8134V64.286H89.3843ZM91.0139 64.6722C90.6376 64.6722 90.3735 64.9587 90.3461 65.3549H91.6568C91.6443 64.9537 91.3901 64.6722 91.0139 64.6722ZM91.6543 66.1373H92.1651C92.0903 66.6157 91.6368 66.9571 91.0363 66.9571C90.2664 66.9571 89.8004 66.4363 89.8004 65.6091C89.8004 64.7868 90.2739 64.2386 91.0139 64.2386C91.7415 64.2386 92.195 64.7519 92.195 65.5468V65.7311H90.3436V65.7635C90.3436 66.2195 90.6177 66.521 91.0488 66.521C91.3553 66.521 91.582 66.3665 91.6543 66.1373ZM93.6676 66.9072V64.286H94.2058V66.9072H93.6676ZM93.9367 63.9022C93.7647 63.9022 93.6252 63.7652 93.6252 63.5958C93.6252 63.4238 93.7647 63.2868 93.9367 63.2868C94.1111 63.2868 94.2506 63.4238 94.2506 63.5958C94.2506 63.7652 94.1111 63.9022 93.9367 63.9022ZM94.7091 65.0285C94.7091 64.56 95.1227 64.2386 95.7357 64.2386C96.3187 64.2386 96.7274 64.565 96.7448 65.031H96.239C96.2141 64.7943 96.0222 64.6473 95.7207 64.6473C95.4292 64.6473 95.2348 64.7893 95.2348 64.9961C95.2348 65.1581 95.3644 65.2677 95.636 65.335L96.077 65.4371C96.6053 65.5642 96.8046 65.7635 96.8046 66.1498C96.8046 66.6282 96.3586 66.9571 95.7157 66.9571C95.0953 66.9571 94.6842 66.6356 94.6418 66.1547H95.175C95.2174 66.4064 95.4117 66.5459 95.7406 66.5459C96.0646 66.5459 96.2639 66.4114 96.2639 66.1996C96.2639 66.0326 96.1642 65.9404 95.8901 65.8707L95.4217 65.7561C94.9483 65.6414 94.7091 65.3948 94.7091 65.0285ZM98.2772 66.9072V64.286H98.8154V66.9072H98.2772ZM98.5463 63.9022C98.3744 63.9022 98.2348 63.7652 98.2348 63.5958C98.2348 63.4238 98.3744 63.2868 98.5463 63.2868C98.7207 63.2868 98.8603 63.4238 98.8603 63.5958C98.8603 63.7652 98.7207 63.9022 98.5463 63.9022ZM99.3661 66.9072V64.286H99.8794V64.7245H99.8918C100.034 64.4255 100.313 64.2411 100.717 64.2411C101.295 64.2411 101.626 64.6099 101.626 65.2104V66.9072H101.085V65.315C101.085 64.9213 100.901 64.7046 100.527 64.7046C100.148 64.7046 99.9043 64.9737 99.9043 65.3798V66.9072H99.3661ZM30.2588 71.188H29.7455C29.6907 70.9089 29.4814 70.6871 29.1301 70.6871C28.714 70.6871 28.4399 71.0335 28.4399 71.5966C28.4399 72.1722 28.7164 72.5061 29.135 72.5061C29.4664 72.5061 29.6832 72.3242 29.7455 72.0202H30.2638C30.2065 72.5783 29.7605 72.9571 29.1301 72.9571C28.3801 72.9571 27.8917 72.4438 27.8917 71.5966C27.8917 70.7644 28.3801 70.2386 29.1251 70.2386C29.8003 70.2386 30.2115 70.6722 30.2588 71.188ZM31.7713 72.9571C31.0213 72.9571 30.5279 72.4413 30.5279 71.5966C30.5279 70.7544 31.0238 70.2386 31.7713 70.2386C32.5188 70.2386 33.0146 70.7544 33.0146 71.5966C33.0146 72.4413 32.5213 72.9571 31.7713 72.9571ZM31.7713 72.5135C32.1949 72.5135 32.4664 72.1797 32.4664 71.5966C32.4664 71.016 32.1924 70.6821 31.7713 70.6821C31.3502 70.6821 31.0761 71.016 31.0761 71.5966C31.0761 72.1797 31.3502 72.5135 31.7713 72.5135ZM33.4307 72.9072V70.286H33.944V70.7245H33.9565C34.0985 70.4255 34.3776 70.2411 34.7812 70.2411C35.3593 70.2411 35.6907 70.6099 35.6907 71.2104V72.9072H35.15V71.315C35.15 70.9213 34.9656 70.7046 34.5919 70.7046C34.2131 70.7046 33.9689 70.9737 33.9689 71.3798V72.9072H33.4307ZM36.3684 69.6655H36.9091V70.286H37.4075V70.712H36.9091V72.1572C36.9091 72.384 37.0088 72.4861 37.2281 72.4861C37.2829 72.4861 37.3701 72.4811 37.405 72.4737V72.8998C37.3452 72.9147 37.2256 72.9247 37.106 72.9247C36.5753 72.9247 36.3684 72.7228 36.3684 72.217V70.712H35.9872V70.286H36.3684V69.6655ZM38.7281 72.526C39.1043 72.526 39.3984 72.2669 39.3984 71.9255V71.7187L38.753 71.7586C38.4316 71.781 38.2497 71.923 38.2497 72.1473C38.2497 72.3765 38.4391 72.526 38.7281 72.526ZM38.5786 72.9521C38.0653 72.9521 37.7065 72.6331 37.7065 72.1622C37.7065 71.7037 38.0578 71.4222 38.6807 71.3873L39.3984 71.3449V71.1431C39.3984 70.8516 39.2015 70.6772 38.8726 70.6772C38.5611 70.6772 38.3668 70.8267 38.3194 71.0609H37.8111C37.841 70.5875 38.2447 70.2386 38.8925 70.2386C39.5279 70.2386 39.9341 70.575 39.9341 71.1007V72.9072H39.4183V72.4762H39.4058C39.2538 72.7677 38.9224 72.9521 38.5786 72.9521ZM42.7073 71.188H42.194C42.1392 70.9089 41.9299 70.6871 41.5786 70.6871C41.1625 70.6871 40.8884 71.0335 40.8884 71.5966C40.8884 72.1722 41.165 72.5061 41.5836 72.5061C41.915 72.5061 42.1317 72.3242 42.194 72.0202H42.7123C42.655 72.5783 42.209 72.9571 41.5786 72.9571C40.8286 72.9571 40.3402 72.4438 40.3402 71.5966C40.3402 70.7644 40.8286 70.2386 41.5736 70.2386C42.2489 70.2386 42.66 70.6722 42.7073 71.188ZM43.2505 69.6655H43.7912V70.286H44.2896V70.712H43.7912V72.1572C43.7912 72.384 43.8909 72.4861 44.1102 72.4861C44.165 72.4861 44.2522 72.4811 44.2871 72.4737V72.8998C44.2273 72.9147 44.1077 72.9247 43.9881 72.9247C43.4573 72.9247 43.2505 72.7228 43.2505 72.217V70.712H42.8693V70.286H43.2505V69.6655ZM49.2281 70.286L48.5105 72.9072H47.9499L47.3992 70.9438H47.3867L46.8411 72.9072H46.2854L45.5653 70.286H46.1035L46.5819 72.3491H46.5919L47.1376 70.286H47.6558L48.204 72.3491H48.2165L48.6949 70.286H49.2281ZM49.5745 72.9072V70.286H50.1127V72.9072H49.5745ZM49.8436 69.9022C49.6716 69.9022 49.5321 69.7652 49.5321 69.5958C49.5321 69.4238 49.6716 69.2868 49.8436 69.2868C50.018 69.2868 50.1575 69.4238 50.1575 69.5958C50.1575 69.7652 50.018 69.9022 49.8436 69.9022ZM50.8203 69.6655H51.361V70.286H51.8593V70.712H51.361V72.1572C51.361 72.384 51.4607 72.4861 51.6799 72.4861C51.7348 72.4861 51.822 72.4811 51.8568 72.4737V72.8998C51.797 72.9147 51.6774 72.9247 51.5578 72.9247C51.0271 72.9247 50.8203 72.7228 50.8203 72.217V70.712H50.4391V70.286H50.8203V69.6655ZM52.3228 72.9072V69.3117H52.856V70.7245H52.8685C53.013 70.418 53.2995 70.2411 53.6982 70.2411C54.2738 70.2411 54.6177 70.6248 54.6177 71.2179V72.9072H54.077V71.3225C54.077 70.9363 53.8826 70.7046 53.5039 70.7046C53.1052 70.7046 52.861 70.9787 52.861 71.3923V72.9072H52.3228ZM56.3319 69.6655H56.8726V70.286H57.371V70.712H56.8726V72.1572C56.8726 72.384 56.9723 72.4861 57.1916 72.4861C57.2464 72.4861 57.3336 72.4811 57.3685 72.4737V72.8998C57.3087 72.9147 57.1891 72.9247 57.0695 72.9247C56.5388 72.9247 56.3319 72.7228 56.3319 72.217V70.712H55.9507V70.286H56.3319V69.6655ZM57.8344 72.9072V69.3117H58.3677V70.7245H58.3801C58.5246 70.418 58.8112 70.2411 59.2099 70.2411C59.7854 70.2411 60.1293 70.6248 60.1293 71.2179V72.9072H59.5886V71.3225C59.5886 70.9363 59.3942 70.7046 59.0155 70.7046C58.6168 70.7046 58.3726 70.9787 58.3726 71.3923V72.9072H57.8344ZM61.7464 70.6722C61.3702 70.6722 61.106 70.9587 61.0786 71.3549H62.3893C62.3768 70.9537 62.1226 70.6722 61.7464 70.6722ZM62.3868 72.1373H62.8976C62.8228 72.6157 62.3693 72.9571 61.7688 72.9571C60.9989 72.9571 60.5329 72.4363 60.5329 71.6091C60.5329 70.7868 61.0064 70.2386 61.7464 70.2386C62.474 70.2386 62.9275 70.7519 62.9275 71.5468V71.7311H61.0761V71.7635C61.0761 72.2195 61.3502 72.521 61.7813 72.521C62.0878 72.521 62.3145 72.3665 62.3868 72.1373ZM64.4026 72.9072V69.3117H64.9358V70.7245H64.9482C65.0928 70.418 65.3793 70.2411 65.778 70.2411C66.3536 70.2411 66.6974 70.6248 66.6974 71.2179V72.9072H66.1567V71.3225C66.1567 70.9363 65.9624 70.7046 65.5836 70.7046C65.1849 70.7046 64.9408 70.9787 64.9408 71.3923V72.9072H64.4026ZM68.1351 72.526C68.5114 72.526 68.8054 72.2669 68.8054 71.9255V71.7187L68.16 71.7586C67.8386 71.781 67.6567 71.923 67.6567 72.1473C67.6567 72.3765 67.8461 72.526 68.1351 72.526ZM67.9856 72.9521C67.4723 72.9521 67.1135 72.6331 67.1135 72.1622C67.1135 71.7037 67.4649 71.4222 68.0878 71.3873L68.8054 71.3449V71.1431C68.8054 70.8516 68.6085 70.6772 68.2796 70.6772C67.9682 70.6772 67.7738 70.8267 67.7265 71.0609H67.2182C67.2481 70.5875 67.6517 70.2386 68.2996 70.2386C68.935 70.2386 69.3411 70.575 69.3411 71.1007V72.9072H68.8253V72.4762H68.8129C68.6609 72.7677 68.3295 72.9521 67.9856 72.9521ZM69.8644 72.9072V70.286H70.3776V70.732H70.3901C70.4773 70.4255 70.7115 70.2436 71.0205 70.2436C71.0977 70.2436 71.165 70.2561 71.2049 70.2635V70.7644C71.1625 70.7469 71.0678 70.7345 70.9632 70.7345C70.6168 70.7345 70.4026 70.9662 70.4026 71.3375V72.9072H69.8644ZM72.4084 72.9521C71.7456 72.9521 71.307 72.4238 71.307 71.5966C71.307 70.7693 71.7456 70.2436 72.4034 70.2436C72.7796 70.2436 73.0786 70.433 73.2257 70.722H73.2356V69.3117H73.7763V72.9072H73.2531V72.4612H73.2431C73.0886 72.7602 72.7896 72.9521 72.4084 72.9521ZM72.5504 70.6971C72.1243 70.6971 71.8577 71.0459 71.8577 71.5966C71.8577 72.1498 72.1243 72.4961 72.5504 72.4961C72.964 72.4961 73.2406 72.1448 73.2406 71.5966C73.2406 71.0534 72.964 70.6971 72.5504 70.6971ZM76.7315 70.2436C77.3968 70.2436 77.8353 70.7669 77.8353 71.5966C77.8353 72.4263 77.3993 72.9521 76.7414 72.9521C76.3652 72.9521 76.0662 72.7677 75.9167 72.4762H75.9042V73.7743H75.366V70.286H75.8868V70.737H75.8968C76.0512 70.4355 76.3527 70.2436 76.7315 70.2436ZM76.5895 72.4961C77.0155 72.4961 77.2821 72.1473 77.2821 71.5966C77.2821 71.0484 77.0155 70.6971 76.5895 70.6971C76.1783 70.6971 75.9017 71.0559 75.9017 71.5966C75.9017 72.1423 76.1758 72.4961 76.5895 72.4961ZM79.1684 72.526C79.5446 72.526 79.8386 72.2669 79.8386 71.9255V71.7187L79.1933 71.7586C78.8718 71.781 78.69 71.923 78.69 72.1473C78.69 72.3765 78.8793 72.526 79.1684 72.526ZM79.0189 72.9521C78.5056 72.9521 78.1468 72.6331 78.1468 72.1622C78.1468 71.7037 78.4981 71.4222 79.121 71.3873L79.8386 71.3449V71.1431C79.8386 70.8516 79.6418 70.6772 79.3129 70.6772C79.0014 70.6772 78.8071 70.8267 78.7597 71.0609H78.2514C78.2813 70.5875 78.685 70.2386 79.3328 70.2386C79.9682 70.2386 80.3743 70.575 80.3743 71.1007V72.9072H79.8586V72.4762H79.8461C79.6941 72.7677 79.3627 72.9521 79.0189 72.9521ZM80.9175 72.9072V69.3117H81.4557V72.9072H80.9175ZM82.9258 72.526C83.3021 72.526 83.5961 72.2669 83.5961 71.9255V71.7187L82.9508 71.7586C82.6293 71.781 82.4474 71.923 82.4474 72.1473C82.4474 72.3765 82.6368 72.526 82.9258 72.526ZM82.7763 72.9521C82.263 72.9521 81.9042 72.6331 81.9042 72.1622C81.9042 71.7037 82.2556 71.4222 82.8785 71.3873L83.5961 71.3449V71.1431C83.5961 70.8516 83.3993 70.6772 83.0704 70.6772C82.7589 70.6772 82.5645 70.8267 82.5172 71.0609H82.0089C82.0388 70.5875 82.4425 70.2386 83.0903 70.2386C83.7257 70.2386 84.1318 70.575 84.1318 71.1007V72.9072H83.616V72.4762H83.6036C83.4516 72.7677 83.1202 72.9521 82.7763 72.9521ZM84.8121 69.6655H85.3528V70.286H85.8511V70.712H85.3528V72.1572C85.3528 72.384 85.4524 72.4861 85.6717 72.4861C85.7265 72.4861 85.8137 72.4811 85.8486 72.4737V72.8998C85.7888 72.9147 85.6692 72.9247 85.5496 72.9247C85.0189 72.9247 84.8121 72.7228 84.8121 72.217V70.712H84.4308V70.286H84.8121V69.6655ZM87.3262 70.6722C86.9499 70.6722 86.6858 70.9587 86.6584 71.3549H87.969C87.9566 70.9537 87.7024 70.6722 87.3262 70.6722ZM87.9665 72.1373H88.4773C88.4026 72.6157 87.9491 72.9571 87.3486 72.9571C86.5787 72.9571 86.1127 72.4363 86.1127 71.6091C86.1127 70.7868 86.5861 70.2386 87.3262 70.2386C88.0538 70.2386 88.5072 70.7519 88.5072 71.5468V71.7311H86.6559V71.7635C86.6559 72.2195 86.93 72.521 87.3611 72.521C87.6675 72.521 87.8943 72.3665 87.9665 72.1373Z" fill="black"/>
<rect x="111.388" y="59.8882" width="27.702" height="16.038" rx="4.374" fill="black"/>
<g clip-path="url(#clip0_3_2546)">
<path fill-rule="evenodd" clip-rule="evenodd" d="M119.403 70.8232C121.013 70.8232 122.319 69.5177 122.319 67.9072C122.319 66.2967 121.013 64.9912 119.403 64.9912C117.792 64.9912 116.487 66.2967 116.487 67.9072C116.487 69.5177 117.792 70.8232 119.403 70.8232ZM118.932 66.9205C118.789 66.7781 118.558 66.7781 118.416 66.9205C118.274 67.0628 118.274 67.2936 118.416 67.436L118.887 67.9072L118.416 68.3785C118.274 68.5208 118.274 68.7516 118.416 68.894C118.558 69.0363 118.789 69.0363 118.932 68.894L119.403 68.4227L119.874 68.894C120.016 69.0363 120.247 69.0363 120.39 68.894C120.532 68.7516 120.532 68.5208 120.39 68.3785L119.918 67.9072L120.39 67.436C120.532 67.2936 120.532 67.0628 120.39 66.9205C120.247 66.7781 120.016 66.7781 119.874 66.9205L119.403 67.3917L118.932 66.9205Z" fill="white" fill-opacity="0.43"/>
</g>
<rect x="125.239" y="62.0752" width="11.664" height="11.664" rx="2.916" fill="white" fill-opacity="0.5"/>
<rect x="128.155" y="64.9912" width="5.832" height="5.832" rx="2.916" fill="white"/>
<path d="M132.165 67.0872L130.707 68.7273L129.978 67.9072" stroke="black" stroke-width="0.54672" stroke-linecap="round" stroke-linejoin="round"/>
</g>
<g filter="url(#filter1_d_3_2546)">
<path d="M20.9043 95.2492C20.9043 90.214 24.9862 86.1321 30.0215 86.1321H136.811C141.846 86.1321 145.928 90.214 145.928 95.2492V101.801C145.928 106.836 141.846 110.918 136.811 110.918H30.0215C24.9862 110.918 20.9043 106.836 20.9043 101.801V95.2492Z" fill="#F4F4F4" shape-rendering="crispEdges"/>
<path d="M29.5203 97.6753H28.9622V94.5607H27.8609V94.0798H30.6192V94.5607H29.5203V97.6753ZM31.0303 97.6753V94.0798H31.5635V95.4926H31.576C31.7205 95.1861 32.007 95.0092 32.4057 95.0092C32.9813 95.0092 33.3252 95.3929 33.3252 95.9859V97.6753H32.7845V96.0906C32.7845 95.7044 32.5901 95.4726 32.2114 95.4726C31.8127 95.4726 31.5685 95.7467 31.5685 96.1603V97.6753H31.0303ZM34.9423 95.4402C34.566 95.4402 34.3019 95.7268 34.2745 96.123H35.5851C35.5727 95.7218 35.3185 95.4402 34.9423 95.4402ZM35.5826 96.9054H36.0934C36.0187 97.3838 35.5652 97.7251 34.9647 97.7251C34.1948 97.7251 33.7288 97.2044 33.7288 96.3771C33.7288 95.5549 34.2022 95.0067 34.9423 95.0067C35.6698 95.0067 36.1233 95.52 36.1233 96.3148V96.4992H34.272V96.5316C34.272 96.9876 34.5461 97.2891 34.9772 97.2891C35.2836 97.2891 35.5104 97.1346 35.5826 96.9054ZM37.5785 97.6753V95.054H38.0918V95.4951H38.1042C38.2213 95.2035 38.4954 95.0092 38.8493 95.0092C39.213 95.0092 39.4772 95.1961 39.5818 95.5225H39.5943C39.7288 95.2035 40.0378 95.0092 40.4115 95.0092C40.9298 95.0092 41.2687 95.353 41.2687 95.8738V97.6753H40.728V96.0034C40.728 95.6645 40.5461 95.4701 40.2272 95.4701C39.9082 95.4701 39.6865 95.7069 39.6865 96.0382V97.6753H39.1582V95.9635C39.1582 95.662 38.9664 95.4701 38.6624 95.4701C38.3434 95.4701 38.1167 95.7193 38.1167 96.0557V97.6753H37.5785ZM41.8069 97.6753V95.054H42.3451V97.6753H41.8069ZM42.076 94.6703C41.9041 94.6703 41.7645 94.5333 41.7645 94.3638C41.7645 94.1919 41.9041 94.0549 42.076 94.0549C42.2504 94.0549 42.39 94.1919 42.39 94.3638C42.39 94.5333 42.2504 94.6703 42.076 94.6703ZM43.88 97.7201C43.2172 97.7201 42.7787 97.1919 42.7787 96.3647C42.7787 95.5374 43.2172 95.0117 43.875 95.0117C44.2513 95.0117 44.5503 95.201 44.6973 95.4901H44.7072V94.0798H45.2479V97.6753H44.7247V97.2293H44.7147C44.5602 97.5283 44.2612 97.7201 43.88 97.7201ZM44.022 95.4652C43.5959 95.4652 43.3293 95.814 43.3293 96.3647C43.3293 96.9178 43.5959 97.2642 44.022 97.2642C44.4356 97.2642 44.7122 96.9128 44.7122 96.3647C44.7122 95.8215 44.4356 95.4652 44.022 95.4652ZM46.7853 97.7201C46.1225 97.7201 45.684 97.1919 45.684 96.3647C45.684 95.5374 46.1225 95.0117 46.7803 95.0117C47.1566 95.0117 47.4556 95.201 47.6026 95.4901H47.6126V94.0798H48.1533V97.6753H47.63V97.2293H47.62C47.4655 97.5283 47.1665 97.7201 46.7853 97.7201ZM46.9273 95.4652C46.5013 95.4652 46.2347 95.814 46.2347 96.3647C46.2347 96.9178 46.5013 97.2642 46.9273 97.2642C47.341 97.2642 47.6175 96.9128 47.6175 96.3647C47.6175 95.8215 47.341 95.4652 46.9273 95.4652ZM48.7263 97.6753V94.0798H49.2646V97.6753H48.7263ZM50.9141 95.4402C50.5378 95.4402 50.2737 95.7268 50.2463 96.123H51.5569C51.5445 95.7218 51.2903 95.4402 50.9141 95.4402ZM51.5544 96.9054H52.0652C51.9905 97.3838 51.537 97.7251 50.9365 97.7251C50.1666 97.7251 49.7006 97.2044 49.7006 96.3771C49.7006 95.5549 50.174 95.0067 50.9141 95.0067C51.6416 95.0067 52.0951 95.52 52.0951 96.3148V96.4992H50.2438V96.5316C50.2438 96.9876 50.5179 97.2891 50.9489 97.2891C51.2554 97.2891 51.4822 97.1346 51.5544 96.9054ZM54.9157 95.0117C55.581 95.0117 56.0196 95.5349 56.0196 96.3647C56.0196 97.1944 55.5835 97.7201 54.9257 97.7201C54.5494 97.7201 54.2504 97.5358 54.1009 97.2442H54.0885V98.5424H53.5503V95.054H54.071V95.505H54.081C54.2355 95.2035 54.537 95.0117 54.9157 95.0117ZM54.7737 97.2642C55.1998 97.2642 55.4664 96.9153 55.4664 96.3647C55.4664 95.8165 55.1998 95.4652 54.7737 95.4652C54.3626 95.4652 54.086 95.824 54.086 96.3647C54.086 96.9103 54.3601 97.2642 54.7737 97.2642ZM57.3526 97.2941C57.7289 97.2941 58.0229 97.0349 58.0229 96.6936V96.4868L57.3775 96.5266C57.0561 96.549 56.8742 96.6911 56.8742 96.9153C56.8742 97.1446 57.0636 97.2941 57.3526 97.2941ZM57.2031 97.7201C56.6898 97.7201 56.331 97.4012 56.331 96.9303C56.331 96.4718 56.6823 96.1902 57.3053 96.1554L58.0229 96.113V95.9112C58.0229 95.6196 57.826 95.4452 57.4971 95.4452C57.1857 95.4452 56.9913 95.5947 56.944 95.8289H56.4357C56.4656 95.3555 56.8692 95.0067 57.5171 95.0067C58.1524 95.0067 58.5586 95.3431 58.5586 95.8688V97.6753H58.0428V97.2442H58.0304C57.8784 97.5358 57.547 97.7201 57.2031 97.7201ZM59.0818 97.6753V95.054H59.5951V95.5H59.6076C59.6948 95.1936 59.929 95.0117 60.238 95.0117C60.3152 95.0117 60.3825 95.0241 60.4224 95.0316V95.5324C60.38 95.515 60.2853 95.5025 60.1807 95.5025C59.8343 95.5025 59.6201 95.7343 59.6201 96.1055V97.6753H59.0818ZM60.9132 94.4336H61.4539V95.054H61.9523V95.4801H61.4539V96.9253C61.4539 97.152 61.5536 97.2542 61.7729 97.2542C61.8277 97.2542 61.9149 97.2492 61.9498 97.2417V97.6678C61.89 97.6828 61.7704 97.6927 61.6508 97.6927C61.1201 97.6927 60.9132 97.4909 60.9132 96.9851V95.4801H60.532V95.054H60.9132V94.4336ZM64.5586 97.7251C63.8086 97.7251 63.3152 97.2093 63.3152 96.3647C63.3152 95.5225 63.8111 95.0067 64.5586 95.0067C65.3061 95.0067 65.802 95.5225 65.802 96.3647C65.802 97.2093 65.3086 97.7251 64.5586 97.7251ZM64.5586 97.2816C64.9822 97.2816 65.2538 96.9477 65.2538 96.3647C65.2538 95.7841 64.9797 95.4502 64.5586 95.4502C64.1375 95.4502 63.8634 95.7841 63.8634 96.3647C63.8634 96.9477 64.1375 97.2816 64.5586 97.2816ZM66.3751 97.6753V95.4801H66.0138V95.059H66.3751V94.8024C66.3751 94.2941 66.6143 94.0549 67.1475 94.0549C67.2571 94.0549 67.3792 94.0673 67.449 94.0798V94.4784C67.3966 94.4685 67.3244 94.4635 67.2521 94.4635C67.0179 94.4635 66.9083 94.5806 66.9083 94.8123V95.059H67.439V95.4801H66.9157V97.6753H66.3751ZM69.0561 94.4336H69.5968V95.054H70.0952V95.4801H69.5968V96.9253C69.5968 97.152 69.6965 97.2542 69.9158 97.2542C69.9706 97.2542 70.0578 97.2492 70.0927 97.2417V97.6678C70.0329 97.6828 69.9133 97.6927 69.7937 97.6927C69.2629 97.6927 69.0561 97.4909 69.0561 96.9851V95.4801H68.6749V95.054H69.0561V94.4336ZM70.5586 97.6753V94.0798H71.0918V95.4926H71.1043C71.2488 95.1861 71.5354 95.0092 71.934 95.0092C72.5096 95.0092 72.8535 95.3929 72.8535 95.9859V97.6753H72.3128V96.0906C72.3128 95.7044 72.1184 95.4726 71.7397 95.4726C71.341 95.4726 71.0968 95.7467 71.0968 96.1603V97.6753H70.5586ZM74.4706 95.4402C74.0943 95.4402 73.8302 95.7268 73.8028 96.123H75.1134C75.101 95.7218 74.8468 95.4402 74.4706 95.4402ZM75.1109 96.9054H75.6217C75.547 97.3838 75.0935 97.7251 74.493 97.7251C73.7231 97.7251 73.2571 97.2044 73.2571 96.3771C73.2571 95.5549 73.7305 95.0067 74.4706 95.0067C75.1982 95.0067 75.6516 95.52 75.6516 96.3148V96.4992H73.8003V96.5316C73.8003 96.9876 74.0744 97.2891 74.5055 97.2891C74.8119 97.2891 75.0387 97.1346 75.1109 96.9054ZM77.2638 94.4336H77.8045V95.054H78.3028V95.4801H77.8045V96.9253C77.8045 97.152 77.9041 97.2542 78.1234 97.2542C78.1782 97.2542 78.2654 97.2492 78.3003 97.2417V97.6678C78.2405 97.6828 78.1209 97.6927 78.0013 97.6927C77.4706 97.6927 77.2638 97.4909 77.2638 96.9851V95.4801H76.8825V95.054H77.2638V94.4336ZM79.8078 97.7251C79.0578 97.7251 78.5644 97.2093 78.5644 96.3647C78.5644 95.5225 79.0603 95.0067 79.8078 95.0067C80.5553 95.0067 81.0512 95.5225 81.0512 96.3647C81.0512 97.2093 80.5578 97.7251 79.8078 97.7251ZM79.8078 97.2816C80.2314 97.2816 80.503 96.9477 80.503 96.3647C80.503 95.7841 80.2289 95.4502 79.8078 95.4502C79.3867 95.4502 79.1126 95.7841 79.1126 96.3647C79.1126 96.9477 79.3867 97.2816 79.8078 97.2816ZM81.4673 97.6753V95.054H81.9806V95.4926H81.993C82.135 95.1936 82.4141 95.0092 82.8178 95.0092C83.3958 95.0092 83.7272 95.3779 83.7272 95.9784V97.6753H83.1865V96.0831C83.1865 95.6894 83.0022 95.4726 82.6284 95.4726C82.2497 95.4726 82.0055 95.7417 82.0055 96.1479V97.6753H81.4673ZM85.3643 97.2392C85.7854 97.2392 86.062 96.8979 86.062 96.3572C86.062 95.819 85.7854 95.4652 85.3643 95.4652C84.9507 95.4652 84.6816 95.8115 84.6816 96.3572C84.6816 96.9054 84.9507 97.2392 85.3643 97.2392ZM85.3693 98.662C84.7513 98.662 84.2929 98.3331 84.2256 97.8796H84.7663C84.8435 98.0989 85.0827 98.2434 85.3892 98.2434C85.8103 98.2434 86.0595 98.0042 86.0595 97.6454V97.2143H86.0495C85.9025 97.4984 85.5935 97.6853 85.2198 97.6853C84.562 97.6853 84.1309 97.172 84.1309 96.3547C84.1309 95.5299 84.5595 95.0117 85.2322 95.0117C85.6035 95.0117 85.9075 95.1985 86.0669 95.5025H86.0769V95.054H86.6002V97.628C86.6002 98.2534 86.1168 98.662 85.3693 98.662ZM89.3809 95.054V97.6753H88.8651V97.2318H88.8527C88.7081 97.5457 88.4415 97.7226 88.0404 97.7226C87.4698 97.7226 87.1209 97.3514 87.1209 96.7509V95.054H87.6591V96.6462C87.6591 97.0449 87.8485 97.2592 88.2198 97.2592C88.6085 97.2592 88.8427 96.9901 88.8427 96.5814V95.054H89.3809ZM91.0105 95.4402C90.6342 95.4402 90.3701 95.7268 90.3427 96.123H91.6533C91.6409 95.7218 91.3867 95.4402 91.0105 95.4402ZM91.6508 96.9054H92.1616C92.0869 97.3838 91.6334 97.7251 91.0329 97.7251C90.263 97.7251 89.797 97.2044 89.797 96.3771C89.797 95.5549 90.2704 95.0067 91.0105 95.0067C91.7381 95.0067 92.1915 95.52 92.1915 96.3148V96.4992H90.3402V96.5316C90.3402 96.9876 90.6143 97.2891 91.0454 97.2891C91.3518 97.2891 91.5786 97.1346 91.6508 96.9054ZM93.6641 97.6753V95.054H94.2023V97.6753H93.6641ZM93.9332 94.6703C93.7613 94.6703 93.6218 94.5333 93.6218 94.3638C93.6218 94.1919 93.7613 94.0549 93.9332 94.0549C94.1077 94.0549 94.2472 94.1919 94.2472 94.3638C94.2472 94.5333 94.1077 94.6703 93.9332 94.6703ZM94.7057 95.7966C94.7057 95.3281 95.1193 95.0067 95.7322 95.0067C96.3153 95.0067 96.7239 95.3331 96.7414 95.799H96.2356C96.2107 95.5623 96.0188 95.4153 95.7173 95.4153C95.4258 95.4153 95.2314 95.5573 95.2314 95.7642C95.2314 95.9261 95.361 96.0358 95.6326 96.103L96.0736 96.2052C96.6018 96.3323 96.8012 96.5316 96.8012 96.9178C96.8012 97.3962 96.3552 97.7251 95.7123 97.7251C95.0919 97.7251 94.6807 97.4037 94.6384 96.9228H95.1716C95.214 97.1745 95.4083 97.314 95.7372 97.314C96.0612 97.314 96.2605 97.1794 96.2605 96.9677C96.2605 96.8007 96.1608 96.7085 95.8867 96.6387L95.4183 96.5241C94.9449 96.4095 94.7057 96.1628 94.7057 95.7966ZM98.2738 97.6753V95.054H98.812V97.6753H98.2738ZM98.5429 94.6703C98.371 94.6703 98.2314 94.5333 98.2314 94.3638C98.2314 94.1919 98.371 94.0549 98.5429 94.0549C98.7173 94.0549 98.8568 94.1919 98.8568 94.3638C98.8568 94.5333 98.7173 94.6703 98.5429 94.6703ZM99.3627 97.6753V95.054H99.8759V95.4926H99.8884C100.03 95.1936 100.309 95.0092 100.713 95.0092C101.291 95.0092 101.623 95.3779 101.623 95.9784V97.6753H101.082V96.0831C101.082 95.6894 100.898 95.4726 100.524 95.4726C100.145 95.4726 99.9009 95.7417 99.9009 96.1479V97.6753H99.3627ZM30.2554 101.956H29.7421C29.6873 101.677 29.478 101.455 29.1266 101.455C28.7105 101.455 28.4364 101.802 28.4364 102.365C28.4364 102.94 28.713 103.274 29.1316 103.274C29.463 103.274 29.6798 103.092 29.7421 102.788H30.2604C30.2031 103.346 29.757 103.725 29.1266 103.725C28.3766 103.725 27.8883 103.212 27.8883 102.365C27.8883 101.532 28.3766 101.007 29.1217 101.007C29.7969 101.007 30.208 101.44 30.2554 101.956ZM31.7678 103.725C31.0178 103.725 30.5245 103.209 30.5245 102.365C30.5245 101.522 31.0203 101.007 31.7678 101.007C32.5154 101.007 33.0112 101.522 33.0112 102.365C33.0112 103.209 32.5178 103.725 31.7678 103.725ZM31.7678 103.282C32.1914 103.282 32.463 102.948 32.463 102.365C32.463 101.784 32.1889 101.45 31.7678 101.45C31.3467 101.45 31.0727 101.784 31.0727 102.365C31.0727 102.948 31.3467 103.282 31.7678 103.282ZM33.4273 103.675V101.054H33.9406V101.493H33.9531C34.0951 101.194 34.3742 101.009 34.7778 101.009C35.3559 101.009 35.6873 101.378 35.6873 101.978V103.675H35.1466V102.083C35.1466 101.689 34.9622 101.473 34.5884 101.473C34.2097 101.473 33.9655 101.742 33.9655 102.148V103.675H33.4273ZM36.365 100.434H36.9057V101.054H37.4041V101.48H36.9057V102.925C36.9057 103.152 37.0054 103.254 37.2247 103.254C37.2795 103.254 37.3667 103.249 37.4016 103.242V103.668C37.3418 103.683 37.2222 103.693 37.1026 103.693C36.5718 103.693 36.365 103.491 36.365 102.985V101.48H35.9838V101.054H36.365V100.434ZM38.7247 103.294C39.1009 103.294 39.3949 103.035 39.3949 102.694V102.487L38.7496 102.527C38.4282 102.549 38.2463 102.691 38.2463 102.915C38.2463 103.145 38.4356 103.294 38.7247 103.294ZM38.5752 103.72C38.0619 103.72 37.7031 103.401 37.7031 102.93C37.7031 102.472 38.0544 102.19 38.6773 102.155L39.3949 102.113V101.911C39.3949 101.62 39.1981 101.445 38.8692 101.445C38.5577 101.445 38.3634 101.595 38.316 101.829H37.8077C37.8376 101.356 38.2413 101.007 38.8891 101.007C39.5245 101.007 39.9307 101.343 39.9307 101.869V103.675H39.4149V103.244H39.4024C39.2504 103.536 38.919 103.72 38.5752 103.72ZM42.7039 101.956H42.1906C42.1358 101.677 41.9265 101.455 41.5752 101.455C41.1591 101.455 40.885 101.802 40.885 102.365C40.885 102.94 41.1616 103.274 41.5802 103.274C41.9116 103.274 42.1283 103.092 42.1906 102.788H42.7089C42.6516 103.346 42.2056 103.725 41.5752 103.725C40.8252 103.725 40.3368 103.212 40.3368 102.365C40.3368 101.532 40.8252 101.007 41.5702 101.007C42.2454 101.007 42.6566 101.44 42.7039 101.956ZM43.2471 100.434H43.7878V101.054H44.2861V101.48H43.7878V102.925C43.7878 103.152 43.8875 103.254 44.1067 103.254C44.1616 103.254 44.2488 103.249 44.2837 103.242V103.668C44.2238 103.683 44.1042 103.693 43.9846 103.693C43.4539 103.693 43.2471 103.491 43.2471 102.985V101.48H42.8659V101.054H43.2471V100.434ZM49.2247 101.054L48.5071 103.675H47.9464L47.3958 101.712H47.3833L46.8376 103.675H46.282L45.5619 101.054H46.1001L46.5785 103.117H46.5885L47.1342 101.054H47.6524L48.2006 103.117H48.2131L48.6915 101.054H49.2247ZM49.571 103.675V101.054H50.1092V103.675H49.571ZM49.8401 100.67C49.6682 100.67 49.5287 100.533 49.5287 100.364C49.5287 100.192 49.6682 100.055 49.8401 100.055C50.0146 100.055 50.1541 100.192 50.1541 100.364C50.1541 100.533 50.0146 100.67 49.8401 100.67ZM50.8169 100.434H51.3576V101.054H51.8559V101.48H51.3576V102.925C51.3576 103.152 51.4573 103.254 51.6765 103.254C51.7313 103.254 51.8185 103.249 51.8534 103.242V103.668C51.7936 103.683 51.674 103.693 51.5544 103.693C51.0237 103.693 50.8169 103.491 50.8169 102.985V101.48H50.4357V101.054H50.8169V100.434ZM52.3194 103.675V100.08H52.8526V101.493H52.8651C53.0096 101.186 53.2961 101.009 53.6948 101.009C54.2704 101.009 54.6142 101.393 54.6142 101.986V103.675H54.0735V102.091C54.0735 101.704 53.8792 101.473 53.5004 101.473C53.1018 101.473 52.8576 101.747 52.8576 102.16V103.675H52.3194ZM56.3285 100.434H56.8692V101.054H57.3676V101.48H56.8692V102.925C56.8692 103.152 56.9689 103.254 57.1882 103.254C57.243 103.254 57.3302 103.249 57.3651 103.242V103.668C57.3053 103.683 57.1857 103.693 57.0661 103.693C56.5353 103.693 56.3285 103.491 56.3285 102.985V101.48H55.9473V101.054H56.3285V100.434ZM57.831 103.675V100.08H58.3642V101.493H58.3767C58.5212 101.186 58.8078 101.009 59.2064 101.009C59.782 101.009 60.1259 101.393 60.1259 101.986V103.675H59.5852V102.091C59.5852 101.704 59.3908 101.473 59.0121 101.473C58.6134 101.473 58.3692 101.747 58.3692 102.16V103.675H57.831ZM61.743 101.44C61.3667 101.44 61.1026 101.727 61.0752 102.123H62.3858C62.3734 101.722 62.1192 101.44 61.743 101.44ZM62.3833 102.905H62.8941C62.8194 103.384 62.3659 103.725 61.7654 103.725C60.9955 103.725 60.5295 103.204 60.5295 102.377C60.5295 101.555 61.0029 101.007 61.743 101.007C62.4706 101.007 62.924 101.52 62.924 102.315V102.499H61.0727V102.532C61.0727 102.988 61.3468 103.289 61.7779 103.289C62.0843 103.289 62.3111 103.135 62.3833 102.905ZM64.3991 103.675V100.08H64.9324V101.493H64.9448C65.0893 101.186 65.3759 101.009 65.7746 101.009C66.3501 101.009 66.694 101.393 66.694 101.986V103.675H66.1533V102.091C66.1533 101.704 65.9589 101.473 65.5802 101.473C65.1815 101.473 64.9373 101.747 64.9373 102.16V103.675H64.3991ZM68.1317 103.294C68.5079 103.294 68.802 103.035 68.802 102.694V102.487L68.1566 102.527C67.8352 102.549 67.6533 102.691 67.6533 102.915C67.6533 103.145 67.8427 103.294 68.1317 103.294ZM67.9822 103.72C67.4689 103.72 67.1101 103.401 67.1101 102.93C67.1101 102.472 67.4614 102.19 68.0844 102.155L68.802 102.113V101.911C68.802 101.62 68.6051 101.445 68.2762 101.445C67.9648 101.445 67.7704 101.595 67.7231 101.829H67.2148C67.2447 101.356 67.6483 101.007 68.2962 101.007C68.9315 101.007 69.3377 101.343 69.3377 101.869V103.675H68.8219V103.244H68.8094C68.6574 103.536 68.3261 103.72 67.9822 103.72ZM69.8609 103.675V101.054H70.3742V101.5H70.3867C70.4739 101.194 70.7081 101.012 71.0171 101.012C71.0943 101.012 71.1616 101.024 71.2015 101.032V101.532C71.1591 101.515 71.0644 101.503 70.9598 101.503C70.6134 101.503 70.3991 101.734 70.3991 102.106V103.675H69.8609ZM72.405 103.72C71.7422 103.72 71.3036 103.192 71.3036 102.365C71.3036 101.537 71.7422 101.012 72.4 101.012C72.7762 101.012 73.0752 101.201 73.2222 101.49H73.2322V100.08H73.7729V103.675H73.2496V103.229H73.2397C73.0852 103.528 72.7862 103.72 72.405 103.72ZM72.547 101.465C72.1209 101.465 71.8543 101.814 71.8543 102.365C71.8543 102.918 72.1209 103.264 72.547 103.264C72.9606 103.264 73.2372 102.913 73.2372 102.365C73.2372 101.821 72.9606 101.465 72.547 101.465ZM76.7281 101.012C77.3933 101.012 77.8319 101.535 77.8319 102.365C77.8319 103.194 77.3958 103.72 76.738 103.72C76.3618 103.72 76.0628 103.536 75.9133 103.244H75.9008V104.542H75.3626V101.054H75.8834V101.505H75.8933C76.0478 101.204 76.3493 101.012 76.7281 101.012ZM76.586 103.264C77.0121 103.264 77.2787 102.915 77.2787 102.365C77.2787 101.816 77.0121 101.465 76.586 101.465C76.1749 101.465 75.8983 101.824 75.8983 102.365C75.8983 102.91 76.1724 103.264 76.586 103.264ZM79.1649 103.294C79.5412 103.294 79.8352 103.035 79.8352 102.694V102.487L79.1899 102.527C78.8684 102.549 78.6865 102.691 78.6865 102.915C78.6865 103.145 78.8759 103.294 79.1649 103.294ZM79.0154 103.72C78.5021 103.72 78.1433 103.401 78.1433 102.93C78.1433 102.472 78.4947 102.19 79.1176 102.155L79.8352 102.113V101.911C79.8352 101.62 79.6384 101.445 79.3095 101.445C78.998 101.445 78.8036 101.595 78.7563 101.829H78.248C78.2779 101.356 78.6816 101.007 79.3294 101.007C79.9648 101.007 80.3709 101.343 80.3709 101.869V103.675H79.8551V103.244H79.8427C79.6907 103.536 79.3593 103.72 79.0154 103.72ZM80.9141 103.675V100.08H81.4523V103.675H80.9141ZM82.9224 103.294C83.2987 103.294 83.5927 103.035 83.5927 102.694V102.487L82.9473 102.527C82.6259 102.549 82.444 102.691 82.444 102.915C82.444 103.145 82.6334 103.294 82.9224 103.294ZM82.7729 103.72C82.2596 103.72 81.9008 103.401 81.9008 102.93C81.9008 102.472 82.2522 102.19 82.8751 102.155L83.5927 102.113V101.911C83.5927 101.62 83.3958 101.445 83.0669 101.445C82.7555 101.445 82.5611 101.595 82.5138 101.829H82.0055C82.0354 101.356 82.439 101.007 83.0869 101.007C83.7223 101.007 84.1284 101.343 84.1284 101.869V103.675H83.6126V103.244H83.6002C83.4482 103.536 83.1168 103.72 82.7729 103.72ZM84.8086 100.434H85.3493V101.054H85.8477V101.48H85.3493V102.925C85.3493 103.152 85.449 103.254 85.6683 103.254C85.7231 103.254 85.8103 103.249 85.8452 103.242V103.668C85.7854 103.683 85.6658 103.693 85.5462 103.693C85.0155 103.693 84.8086 103.491 84.8086 102.985V101.48H84.4274V101.054H84.8086V100.434ZM87.3228 101.44C86.9465 101.44 86.6824 101.727 86.655 102.123H87.9656C87.9532 101.722 87.699 101.44 87.3228 101.44ZM87.9631 102.905H88.4739C88.3992 103.384 87.9457 103.725 87.3452 103.725C86.5753 103.725 86.1093 103.204 86.1093 102.377C86.1093 101.555 86.5827 101.007 87.3228 101.007C88.0503 101.007 88.5038 101.52 88.5038 102.315V102.499H86.6525V102.532C86.6525 102.988 86.9266 103.289 87.3576 103.289C87.6641 103.289 87.8909 103.135 87.9631 102.905Z" fill="black"/>
<rect x="111.39" y="90.5063" width="27.702" height="16.038" rx="4.374" fill="black"/>
<rect x="113.577" y="92.6934" width="11.664" height="11.664" rx="2.916" fill="white" fill-opacity="0.5"/>
<g clip-path="url(#clip1_3_2546)">
<path fill-rule="evenodd" clip-rule="evenodd" d="M119.405 101.441C121.015 101.441 122.321 100.136 122.321 98.5254C122.321 96.9149 121.015 95.6094 119.405 95.6094C117.794 95.6094 116.489 96.9149 116.489 98.5254C116.489 100.136 117.794 101.441 119.405 101.441ZM118.934 97.5386C118.791 97.3963 118.56 97.3963 118.418 97.5386C118.276 97.681 118.276 97.9118 118.418 98.0541L118.889 98.5254L118.418 98.9966C118.276 99.139 118.276 99.3698 118.418 99.5121C118.56 99.6545 118.791 99.6545 118.934 99.5121L119.405 99.0409L119.876 99.5121C120.018 99.6545 120.249 99.6545 120.392 99.5121C120.534 99.3698 120.534 99.139 120.392 98.9966L119.92 98.5254L120.392 98.0541C120.534 97.9118 120.534 97.681 120.392 97.5386C120.249 97.3963 120.018 97.3963 119.876 97.5386L119.405 98.0099L118.934 97.5386Z" fill="white"/>
</g>
<rect x="128.157" y="95.6094" width="5.832" height="5.832" rx="2.916" fill="white" fill-opacity="0.43"/>
<path d="M132.166 97.7053L130.709 99.3455L129.979 98.5254" stroke="black" stroke-width="0.54672" stroke-linecap="round" stroke-linejoin="round"/>
</g>
</g>
<defs>
<filter id="filter0_d_3_2546" x="15.7037" y="54.214" width="135.425" height="35.1872" filterUnits="userSpaceOnUse" color-interpolation-filters="sRGB">
<feFlood flood-opacity="0" result="BackgroundImageFix"/>
<feColorMatrix in="SourceAlpha" type="matrix" values="0 0 0 0 0 0 0 0 0 0 0 0 0 0 0 0 0 0 127 0" result="hardAlpha"/>
<feOffset dy="3.90048"/>
<feGaussianBlur stdDeviation="2.60032"/>
<feComposite in2="hardAlpha" operator="out"/>
<feColorMatrix type="matrix" values="0 0 0 0 0 0 0 0 0 0 0 0 0 0 0 0 0 0 0.36 0"/>
<feBlend mode="normal" in2="BackgroundImageFix" result="effect1_dropShadow_3_2546"/>
<feBlend mode="normal" in="SourceGraphic" in2="effect1_dropShadow_3_2546" result="shape"/>
</filter>
<filter id="filter1_d_3_2546" x="15.7037" y="84.8319" width="135.425" height="35.1872" filterUnits="userSpaceOnUse" color-interpolation-filters="sRGB">
<feFlood flood-opacity="0" result="BackgroundImageFix"/>
<feColorMatrix in="SourceAlpha" type="matrix" values="0 0 0 0 0 0 0 0 0 0 0 0 0 0 0 0 0 0 127 0" result="hardAlpha"/>
<feOffset dy="3.90048"/>
<feGaussianBlur stdDeviation="2.60032"/>
<feComposite in2="hardAlpha" operator="out"/>
<feColorMatrix type="matrix" values="0 0 0 0 0 0 0 0 0 0 0 0 0 0 0 0 0 0 0.36 0"/>
<feBlend mode="normal" in2="BackgroundImageFix" result="effect1_dropShadow_3_2546"/>
<feBlend mode="normal" in="SourceGraphic" in2="effect1_dropShadow_3_2546" result="shape"/>
</filter>
<clipPath id="clip0_3_2546">
<rect width="5.832" height="5.832" fill="white" transform="translate(116.491 64.9912)"/>
</clipPath>
<clipPath id="clip1_3_2546">
<rect width="5.832" height="5.832" fill="white" transform="translate(116.493 95.6094)"/>
</clipPath>
</defs>
</svg>
