<svg width="1046" height="963" viewBox="0 0 1046 963" fill="none" xmlns="http://www.w3.org/2000/svg">
<g clip-path="url(#clip0_134_430)">
<path d="M535.896 419.244C523.151 454.785 497.747 490.73 462.665 525.071C231.406 751.434 -420.457 908.046 -640.147 419.244" stroke="url(#paint0_linear_134_430)" stroke-opacity="0.09" stroke-width="117.053" stroke-linecap="round"/>
<path d="M535.901 419.244C523.155 454.785 497.752 490.731 462.669 525.071" stroke="url(#paint1_linear_134_430)" stroke-width="117.053" stroke-linecap="round"/>
<path d="M535.663 419.663C535.663 637.818 1402.81 892.679 1596.34 419.663" stroke="url(#paint2_linear_134_430)" stroke-width="117.053" stroke-linecap="round"/>
<path d="M535.67 -1182.6V419.661" stroke="url(#paint3_linear_134_430)" stroke-width="117.053" stroke-linecap="round"/>
<g opacity="0.8">
<g opacity="0.6">
<ellipse cx="755.786" cy="619.365" rx="37.9338" ry="27.0956" fill="#8ECCC2" fill-opacity="0.4"/>
<ellipse cx="755.786" cy="619.365" rx="37.9338" ry="27.0956" fill="black" fill-opacity="0.09"/>
</g>
<ellipse cx="755.786" cy="611.235" rx="37.9338" ry="27.0956" fill="#BADCD3"/>
<path d="M743.611 613.891C741.777 612.424 741.777 610.046 743.611 608.579L752.464 601.497C754.297 600.03 757.27 600.03 759.103 601.497L767.956 608.579C769.79 610.046 769.79 612.424 767.956 613.891L759.103 620.973C757.27 622.44 754.297 622.44 752.464 620.973L743.611 613.891Z" fill="#8BC9BD"/>
</g>
<g opacity="0.5">
<g opacity="0.6">
<ellipse cx="904.444" cy="665.253" rx="37.9338" ry="27.0956" fill="#8ECCC2" fill-opacity="0.4"/>
<ellipse cx="904.444" cy="665.253" rx="37.9338" ry="27.0956" fill="black" fill-opacity="0.09"/>
</g>
<ellipse cx="904.444" cy="657.123" rx="37.9338" ry="27.0956" fill="#BADCD3"/>
<path d="M892.276 659.779C890.443 658.312 890.443 655.934 892.276 654.467L901.129 647.385C902.962 645.918 905.935 645.918 907.768 647.385L916.621 654.467C918.455 655.934 918.455 658.312 916.621 659.779L907.768 666.861C905.935 668.328 902.962 668.328 901.129 666.861L892.276 659.779Z" fill="#8BC9BD"/>
</g>
<g opacity="0.6">
<ellipse cx="624.505" cy="551.085" rx="37.9338" ry="27.0956" fill="#8ECCC2" fill-opacity="0.4"/>
<ellipse cx="624.505" cy="551.085" rx="37.9338" ry="27.0956" fill="black" fill-opacity="0.09"/>
</g>
<ellipse cx="624.505" cy="542.956" rx="37.9338" ry="27.0956" fill="#BADCD3"/>
<path d="M612.33 545.611C610.496 544.144 610.496 541.766 612.33 540.3L621.183 533.217C623.016 531.75 625.989 531.75 627.822 533.217L636.675 540.3C638.509 541.766 638.509 544.144 636.675 545.611L627.822 552.694C625.989 554.16 623.016 554.16 621.183 552.694L612.33 545.611Z" fill="#8BC9BD"/>
<g opacity="0.5">
<g opacity="0.6">
<ellipse cx="536.717" cy="161.675" rx="37.9338" ry="27.0956" fill="#8ECCC2" fill-opacity="0.4"/>
<ellipse cx="536.717" cy="161.675" rx="37.9338" ry="27.0956" fill="black" fill-opacity="0.09"/>
</g>
<ellipse cx="536.717" cy="153.546" rx="37.9338" ry="27.0956" fill="#BADCD3"/>
<path d="M524.542 156.201C522.708 154.734 522.708 152.356 524.542 150.889L533.395 143.807C535.228 142.34 538.201 142.34 540.034 143.807L548.887 150.889C550.721 152.356 550.721 154.734 548.887 156.201L540.034 163.283C538.201 164.75 535.228 164.75 533.395 163.283L524.542 156.201Z" fill="#8BC9BD"/>
</g>
<g opacity="0.8">
<g opacity="0.6">
<ellipse cx="536.717" cy="285.807" rx="37.9338" ry="27.0956" fill="#8ECCC2" fill-opacity="0.4"/>
<ellipse cx="536.717" cy="285.807" rx="37.9338" ry="27.0956" fill="black" fill-opacity="0.09"/>
</g>
<ellipse cx="536.717" cy="277.677" rx="37.9338" ry="27.0956" fill="#BADCD3"/>
<path d="M524.542 280.332C522.708 278.866 522.708 276.488 524.542 275.021L533.395 267.938C535.228 266.472 538.201 266.472 540.034 267.938L548.887 275.021C550.721 276.488 550.721 278.866 548.887 280.332L540.034 287.415C538.201 288.882 535.228 288.882 533.395 287.415L524.542 280.332Z" fill="#8BC9BD"/>
</g>
<g opacity="0.6">
<ellipse cx="536.717" cy="424.373" rx="37.9338" ry="27.0956" fill="#8ECCC2" fill-opacity="0.4"/>
<ellipse cx="536.717" cy="424.373" rx="37.9338" ry="27.0956" fill="black" fill-opacity="0.09"/>
</g>
<ellipse cx="536.717" cy="416.244" rx="37.9338" ry="27.0956" fill="#BADCD3"/>
<path d="M524.542 418.899C522.708 417.432 522.708 415.054 524.542 413.587L533.395 406.505C535.228 405.038 538.201 405.038 540.034 406.505L548.887 413.587C550.721 415.054 550.721 417.432 548.887 418.899L540.034 425.981C538.201 427.448 535.228 427.448 533.395 425.981L524.542 418.899Z" fill="#8BC9BD"/>
<path d="M476.489 514.721C478.322 516.188 478.322 518.566 476.489 520.033L467.636 527.115C465.802 528.582 462.83 528.582 460.996 527.115L452.143 520.033C450.31 518.566 450.31 516.188 452.143 514.721L460.996 507.639C462.83 506.172 465.802 506.172 467.636 507.639L476.489 514.721Z" fill="#E0E0E0"/>
<path opacity="0.23" d="M380.884 592.756C382.718 594.222 382.718 596.601 380.884 598.067L372.031 605.15C370.198 606.616 367.225 606.616 365.392 605.15L356.539 598.067C354.705 596.601 354.705 594.222 356.539 592.756L365.392 585.673C367.225 584.207 370.198 584.207 372.031 585.673L380.884 592.756Z" fill="#B4B4B4"/>
<path opacity="0.23" d="M277.485 649.332C279.319 650.798 279.319 653.177 277.485 654.643L268.633 661.726C266.799 663.192 263.826 663.192 261.993 661.726L253.14 654.643C251.307 653.177 251.307 650.798 253.14 649.332L261.993 642.249C263.826 640.783 266.799 640.783 268.633 642.249L277.485 649.332Z" fill="#B4B4B4"/>
<path opacity="0.23" d="M156.675 693.083C158.508 694.55 158.508 696.928 156.675 698.395L147.822 705.477C145.988 706.944 143.016 706.944 141.182 705.477L132.329 698.395C130.496 696.928 130.496 694.55 132.329 693.083L141.182 686.001C143.016 684.534 145.988 684.534 147.822 686.001L156.675 693.083Z" fill="#B4B4B4"/>
<path d="M503.128 505.968C503.128 514.212 497.493 521.732 488.226 527.427C477.509 534.013 461.935 538.157 444.602 538.157C427.268 538.157 411.695 534.013 400.978 527.427C391.711 521.732 386.075 514.212 386.075 505.968C386.075 488.19 412.279 473.778 444.602 473.778C476.925 473.778 503.128 488.19 503.128 505.968Z" fill="url(#paint4_linear_134_430)"/>
<path d="M503.128 505.968C503.128 514.212 497.493 521.732 488.226 527.427C477.509 534.013 461.935 538.157 444.602 538.157C427.268 538.157 411.695 534.013 400.978 527.427C391.711 521.732 386.075 514.212 386.075 505.968C386.075 488.19 412.279 473.778 444.602 473.778C476.925 473.778 503.128 488.19 503.128 505.968Z" fill="url(#paint5_linear_134_430)" fill-opacity="0.2"/>
<path d="M503.128 548.887C503.128 566.665 476.925 581.077 444.602 581.077C412.279 581.077 386.075 566.665 386.075 548.887C386.075 540.643 391.711 533.122 400.978 527.427C411.695 520.842 427.268 516.697 444.602 516.697C461.935 516.697 477.509 520.842 488.226 527.427C497.493 533.122 503.128 540.643 503.128 548.887Z" fill="url(#paint6_linear_134_430)"/>
<path d="M503.128 548.887C503.128 566.665 476.925 581.077 444.602 581.077C412.279 581.077 386.075 566.665 386.075 548.887C386.075 540.643 391.711 533.122 400.978 527.427C411.695 520.842 427.268 516.697 444.602 516.697C461.935 516.697 477.509 520.842 488.226 527.427C497.493 533.122 503.128 540.643 503.128 548.887Z" fill="url(#paint7_linear_134_430)" fill-opacity="0.2"/>
<path d="M400.978 527.427C391.711 521.732 386.075 514.212 386.075 505.968V548.887C386.075 540.643 391.711 533.122 400.978 527.427Z" fill="url(#paint8_linear_134_430)"/>
<path d="M400.978 527.427C391.711 521.732 386.075 514.212 386.075 505.968V548.887C386.075 540.643 391.711 533.122 400.978 527.427Z" fill="url(#paint9_linear_134_430)" fill-opacity="0.2"/>
<path d="M503.128 505.968C503.128 514.212 497.493 521.732 488.226 527.427C497.493 533.122 503.128 540.643 503.128 548.887V505.968Z" fill="url(#paint10_linear_134_430)"/>
<path d="M503.128 505.968C503.128 514.212 497.493 521.732 488.226 527.427C497.493 533.122 503.128 540.643 503.128 548.887V505.968Z" fill="url(#paint11_linear_134_430)" fill-opacity="0.2"/>
<path d="M446.759 510.81C445.259 511.717 443.153 511.723 441.645 510.825L426.726 501.938C424.578 500.659 424.562 498.162 426.693 496.866L441.612 487.797C443.133 486.873 445.279 486.879 446.791 487.813L461.476 496.882C463.573 498.177 463.557 500.644 461.443 501.923L446.759 510.81Z" fill="white"/>
<path d="M528.276 500.656C528.276 507.061 526.103 513.403 521.882 519.321C517.661 525.238 511.474 530.614 503.674 535.143C495.874 539.672 486.614 543.265 476.423 545.716C466.233 548.167 455.31 549.428 444.279 549.428C433.249 549.428 422.326 548.167 412.135 545.716C401.945 543.265 392.685 539.672 384.885 535.143C377.085 530.614 370.898 525.238 366.677 519.321C362.456 513.403 360.283 507.061 360.283 500.656C360.283 494.251 362.456 487.909 366.677 481.992C370.898 476.075 377.085 470.698 384.885 466.169C392.685 461.64 401.945 458.048 412.136 455.597C422.326 453.146 433.249 451.884 444.279 451.884C455.31 451.884 466.233 453.146 476.423 455.597C486.614 458.048 495.874 461.64 503.674 466.169C511.474 470.698 517.661 476.075 521.882 481.992C526.103 487.909 528.276 494.251 528.276 500.656L528.276 500.656Z" stroke="#C8E1D3" stroke-opacity="0.6" stroke-width="10.8382"/>
<path d="M445.796 446.466C447.951 446.466 449.698 448.213 449.698 450.368V453.401C449.698 455.555 447.951 457.302 445.796 457.302H444.28C428.256 457.302 412.69 460.066 399.573 465.155C386.407 470.264 376.651 477.342 371.089 485.139C365.635 492.784 364.409 500.782 367.024 508.414C369.711 516.258 376.582 524.055 387.607 530.457C398.59 536.834 412.811 541.293 428.515 543.107C444.202 544.919 460.45 543.984 475.157 540.447C489.897 536.902 502.156 530.971 510.566 523.663C518.952 516.375 522.856 508.332 522.856 500.656V499.14C522.856 496.985 524.603 495.238 526.758 495.238H529.793C531.948 495.238 533.694 496.985 533.694 499.14V500.656C533.694 512.273 527.747 523.09 517.674 531.844C507.624 540.576 493.646 547.147 477.69 550.985C461.7 554.83 444.171 555.827 427.27 553.875C410.387 551.925 394.675 547.094 382.164 539.83C369.695 532.59 360.565 523.004 356.77 511.927C352.903 500.638 355.004 489.022 362.265 478.844C369.418 468.817 381.195 460.662 395.654 455.052C410.164 449.423 427.077 446.466 444.28 446.466H445.796Z" fill="url(#paint12_linear_134_430)"/>
<path d="M445.796 446.466C447.951 446.466 449.698 448.213 449.698 450.368V453.401C449.698 455.555 447.951 457.302 445.796 457.302H444.28C428.256 457.302 412.69 460.066 399.573 465.155C386.407 470.264 376.651 477.342 371.089 485.139C365.635 492.784 364.409 500.782 367.024 508.414C369.711 516.258 376.582 524.055 387.607 530.457C398.59 536.834 412.811 541.293 428.515 543.107C444.202 544.919 460.45 543.984 475.157 540.447C489.897 536.902 502.156 530.971 510.566 523.663C518.952 516.375 522.856 508.332 522.856 500.656V499.14C522.856 496.985 524.603 495.238 526.758 495.238H529.793C531.948 495.238 533.694 496.985 533.694 499.14V500.656C533.694 512.273 527.747 523.09 517.674 531.844C507.624 540.576 493.646 547.147 477.69 550.985C461.7 554.83 444.171 555.827 427.27 553.875C410.387 551.925 394.675 547.094 382.164 539.83C369.695 532.59 360.565 523.004 356.77 511.927C352.903 500.638 355.004 489.022 362.265 478.844C369.418 468.817 381.195 460.662 395.654 455.052C410.164 449.423 427.077 446.466 444.28 446.466H445.796Z" fill="white" fill-opacity="0.53"/>
</g>
<defs>
<linearGradient id="paint0_linear_134_430" x1="52.2663" y1="713.788" x2="321.264" y2="605.38" gradientUnits="userSpaceOnUse">
<stop stop-color="#9D9EA2" stop-opacity="0"/>
<stop offset="1" stop-color="#9D9EA2"/>
</linearGradient>
<linearGradient id="paint1_linear_134_430" x1="494.554" y1="513.761" x2="474.598" y2="564.812" gradientUnits="userSpaceOnUse">
<stop stop-color="#D2E6E1"/>
<stop offset="1" stop-color="#D2E6E1" stop-opacity="0"/>
</linearGradient>
<linearGradient id="paint2_linear_134_430" x1="576.826" y1="488.438" x2="1066" y2="687.14" gradientUnits="userSpaceOnUse">
<stop stop-color="#D2E6E1"/>
<stop offset="1" stop-color="#D2E6E1" stop-opacity="0"/>
</linearGradient>
<linearGradient id="paint3_linear_134_430" x1="535.666" y1="453.153" x2="535.666" y2="16.6337" gradientUnits="userSpaceOnUse">
<stop stop-color="#D2E6E1"/>
<stop offset="1" stop-color="#D2E6E1" stop-opacity="0"/>
</linearGradient>
<linearGradient id="paint4_linear_134_430" x1="398.632" y1="487.512" x2="474.588" y2="560.848" gradientUnits="userSpaceOnUse">
<stop stop-color="#9CE8CF"/>
<stop offset="1" stop-color="#6FA39E"/>
</linearGradient>
<linearGradient id="paint5_linear_134_430" x1="443.644" y1="580.218" x2="443.644" y2="473.993" gradientUnits="userSpaceOnUse">
<stop stop-color="white" stop-opacity="0"/>
<stop offset="1" stop-color="white"/>
</linearGradient>
<linearGradient id="paint6_linear_134_430" x1="398.632" y1="487.512" x2="474.588" y2="560.848" gradientUnits="userSpaceOnUse">
<stop stop-color="#9CE8CF"/>
<stop offset="1" stop-color="#6FA39E"/>
</linearGradient>
<linearGradient id="paint7_linear_134_430" x1="443.644" y1="580.218" x2="443.644" y2="473.993" gradientUnits="userSpaceOnUse">
<stop stop-color="white" stop-opacity="0"/>
<stop offset="1" stop-color="white"/>
</linearGradient>
<linearGradient id="paint8_linear_134_430" x1="398.632" y1="487.512" x2="474.588" y2="560.848" gradientUnits="userSpaceOnUse">
<stop stop-color="#9CE8CF"/>
<stop offset="1" stop-color="#6FA39E"/>
</linearGradient>
<linearGradient id="paint9_linear_134_430" x1="443.644" y1="580.218" x2="443.644" y2="473.993" gradientUnits="userSpaceOnUse">
<stop stop-color="white" stop-opacity="0"/>
<stop offset="1" stop-color="white"/>
</linearGradient>
<linearGradient id="paint10_linear_134_430" x1="398.632" y1="487.512" x2="474.588" y2="560.848" gradientUnits="userSpaceOnUse">
<stop stop-color="#9CE8CF"/>
<stop offset="1" stop-color="#6FA39E"/>
</linearGradient>
<linearGradient id="paint11_linear_134_430" x1="443.644" y1="580.218" x2="443.644" y2="473.993" gradientUnits="userSpaceOnUse">
<stop stop-color="white" stop-opacity="0"/>
<stop offset="1" stop-color="white"/>
</linearGradient>
<linearGradient id="paint12_linear_134_430" x1="324.04" y1="583.975" x2="557.402" y2="569.065" gradientUnits="userSpaceOnUse">
<stop stop-color="#95D8C2"/>
<stop offset="1" stop-color="#8AB3AF"/>
</linearGradient>
<clipPath id="clip0_134_430">
<rect x="0.679688" width="1072.22" height="1008.02" rx="51.4733" fill="white"/>
</clipPath>
</defs>
</svg>
