<svg width="392" height="472" viewBox="0 0 392 472" fill="none" xmlns="http://www.w3.org/2000/svg">
<g clip-path="url(#clip0_165_1262)">
<path d="M247.751 253.199C240.327 273.901 225.53 294.838 205.095 314.841C70.3925 446.692 -309.302 537.915 -437.267 253.199" stroke="url(#paint0_linear_165_1262)" stroke-opacity="0.09" stroke-width="68.1805" stroke-linecap="round"/>
<path d="M247.753 253.2C240.329 273.901 225.533 294.839 205.098 314.841" stroke="url(#paint1_linear_165_1262)" stroke-width="68.1805" stroke-linecap="round"/>
<path d="M247.615 253.443C247.615 380.514 752.707 528.964 865.431 253.443" stroke="url(#paint2_linear_165_1262)" stroke-width="68.1805" stroke-linecap="round"/>
<path d="M247.619 -679.835V253.443" stroke="url(#paint3_linear_165_1262)" stroke-width="68.1805" stroke-linecap="round"/>
<g opacity="0.8">
<g opacity="0.6">
<ellipse cx="375.831" cy="369.765" rx="22.0955" ry="15.7825" fill="#8ECCC2" fill-opacity="0.4"/>
<ellipse cx="375.831" cy="369.765" rx="22.0955" ry="15.7825" fill="black" fill-opacity="0.09"/>
</g>
<ellipse cx="375.831" cy="365.03" rx="22.0955" ry="15.7825" fill="#BADCD3"/>
<path d="M368.739 366.577C367.671 365.722 367.671 364.337 368.739 363.483L373.896 359.358C374.964 358.503 376.695 358.503 377.763 359.358L382.92 363.483C383.988 364.337 383.988 365.722 382.92 366.577L377.763 370.702C376.695 371.556 374.964 371.556 373.896 370.702L368.739 366.577Z" fill="#8BC9BD"/>
</g>
<g opacity="0.6">
<ellipse cx="299.363" cy="329.994" rx="22.0955" ry="15.7825" fill="#8ECCC2" fill-opacity="0.4"/>
<ellipse cx="299.363" cy="329.994" rx="22.0955" ry="15.7825" fill="black" fill-opacity="0.09"/>
</g>
<ellipse cx="299.363" cy="325.259" rx="22.0955" ry="15.7825" fill="#BADCD3"/>
<path d="M292.271 326.805C291.203 325.951 291.203 324.566 292.271 323.711L297.428 319.586C298.496 318.732 300.227 318.732 301.295 319.586L306.452 323.711C307.52 324.566 307.52 325.951 306.452 326.805L301.295 330.931C300.227 331.785 298.496 331.785 297.428 330.931L292.271 326.805Z" fill="#8BC9BD"/>
<g opacity="0.5">
<g opacity="0.6">
<ellipse cx="248.229" cy="103.172" rx="22.0955" ry="15.7825" fill="#8ECCC2" fill-opacity="0.4"/>
<ellipse cx="248.229" cy="103.172" rx="22.0955" ry="15.7825" fill="black" fill-opacity="0.09"/>
</g>
<ellipse cx="248.229" cy="98.4368" rx="22.0955" ry="15.7825" fill="#BADCD3"/>
<path d="M241.137 99.9833C240.069 99.1289 240.069 97.7437 241.137 96.8893L246.294 92.7641C247.362 91.9097 249.093 91.9097 250.161 92.7641L255.318 96.8893C256.386 97.7437 256.386 99.1289 255.318 99.9833L250.161 104.109C249.093 104.963 247.362 104.963 246.294 104.109L241.137 99.9833Z" fill="#8BC9BD"/>
</g>
<g opacity="0.8">
<g opacity="0.6">
<ellipse cx="248.229" cy="175.476" rx="22.0955" ry="15.7825" fill="#8ECCC2" fill-opacity="0.4"/>
<ellipse cx="248.229" cy="175.476" rx="22.0955" ry="15.7825" fill="black" fill-opacity="0.09"/>
</g>
<ellipse cx="248.229" cy="170.74" rx="22.0955" ry="15.7825" fill="#BADCD3"/>
<path d="M241.137 172.287C240.069 171.433 240.069 170.047 241.137 169.193L246.294 165.068C247.362 164.213 249.093 164.213 250.161 165.068L255.318 169.193C256.386 170.047 256.386 171.433 255.318 172.287L250.161 176.412C249.093 177.267 247.362 177.267 246.294 176.412L241.137 172.287Z" fill="#8BC9BD"/>
</g>
<g opacity="0.6">
<ellipse cx="248.229" cy="256.187" rx="22.0955" ry="15.7825" fill="#8ECCC2" fill-opacity="0.4"/>
<ellipse cx="248.229" cy="256.187" rx="22.0955" ry="15.7825" fill="black" fill-opacity="0.09"/>
</g>
<ellipse cx="248.229" cy="251.452" rx="22.0955" ry="15.7825" fill="#BADCD3"/>
<path d="M241.137 252.999C240.069 252.144 240.069 250.759 241.137 249.905L246.294 245.779C247.362 244.925 249.093 244.925 250.161 245.779L255.318 249.905C256.386 250.759 256.386 252.144 255.318 252.999L250.161 257.124C249.093 257.978 247.362 257.978 246.294 257.124L241.137 252.999Z" fill="#8BC9BD"/>
<path d="M213.147 308.813C214.215 309.667 214.215 311.052 213.147 311.907L207.991 316.032C206.923 316.886 205.191 316.886 204.123 316.032L198.967 311.907C197.899 311.052 197.899 309.667 198.967 308.813L204.123 304.687C205.191 303.833 206.923 303.833 207.991 304.687L213.147 308.813Z" fill="#E0E0E0"/>
<path opacity="0.23" d="M157.46 354.266C158.528 355.12 158.528 356.506 157.46 357.36L152.303 361.485C151.235 362.34 149.504 362.34 148.436 361.485L143.279 357.36C142.211 356.506 142.211 355.12 143.279 354.266L148.436 350.141C149.504 349.286 151.235 349.286 152.303 350.141L157.46 354.266Z" fill="#B4B4B4"/>
<path opacity="0.23" d="M97.2327 387.22C98.3007 388.074 98.3007 389.46 97.2327 390.314L92.0761 394.439C91.0082 395.294 89.2767 395.294 88.2087 394.439L83.0521 390.314C81.9842 389.46 81.9842 388.074 83.0521 387.22L88.2087 383.095C89.2767 382.24 91.0082 382.24 92.0761 383.095L97.2327 387.22Z" fill="#B4B4B4"/>
<path opacity="0.23" d="M26.8632 412.704C27.9312 413.559 27.9312 414.944 26.8632 415.798L21.7066 419.923C20.6387 420.778 18.9072 420.778 17.8392 419.923L12.6826 415.798C11.6147 414.944 11.6147 413.559 12.6826 412.704L17.8392 408.579C18.9072 407.725 20.6387 407.725 21.7066 408.579L26.8632 412.704Z" fill="#B4B4B4"/>
<path d="M228.664 303.714C228.664 308.516 225.382 312.896 219.984 316.214C213.742 320.049 204.67 322.463 194.574 322.463C184.478 322.463 175.406 320.049 169.164 316.214C163.766 312.896 160.484 308.516 160.484 303.714C160.484 293.359 175.746 284.964 194.574 284.964C213.402 284.964 228.664 293.359 228.664 303.714Z" fill="url(#paint4_linear_165_1262)"/>
<path d="M228.664 303.714C228.664 308.516 225.382 312.896 219.984 316.214C213.742 320.049 204.67 322.463 194.574 322.463C184.478 322.463 175.406 320.049 169.164 316.214C163.766 312.896 160.484 308.516 160.484 303.714C160.484 293.359 175.746 284.964 194.574 284.964C213.402 284.964 228.664 293.359 228.664 303.714Z" fill="url(#paint5_linear_165_1262)" fill-opacity="0.2"/>
<path d="M228.664 328.713C228.664 339.068 213.402 347.463 194.574 347.463C175.746 347.463 160.484 339.068 160.484 328.713C160.484 323.911 163.766 319.531 169.164 316.214C175.406 312.378 184.478 309.964 194.574 309.964C204.67 309.964 213.742 312.378 219.984 316.214C225.382 319.531 228.664 323.911 228.664 328.713Z" fill="url(#paint6_linear_165_1262)"/>
<path d="M228.664 328.713C228.664 339.068 213.402 347.463 194.574 347.463C175.746 347.463 160.484 339.068 160.484 328.713C160.484 323.911 163.766 319.531 169.164 316.214C175.406 312.378 184.478 309.964 194.574 309.964C204.67 309.964 213.742 312.378 219.984 316.214C225.382 319.531 228.664 323.911 228.664 328.713Z" fill="url(#paint7_linear_165_1262)" fill-opacity="0.2"/>
<path d="M169.164 316.214C163.766 312.896 160.484 308.516 160.484 303.714V328.713C160.484 323.911 163.766 319.531 169.164 316.214Z" fill="url(#paint8_linear_165_1262)"/>
<path d="M169.164 316.214C163.766 312.896 160.484 308.516 160.484 303.714V328.713C160.484 323.911 163.766 319.531 169.164 316.214Z" fill="url(#paint9_linear_165_1262)" fill-opacity="0.2"/>
<path d="M228.664 303.714C228.664 308.516 225.382 312.896 219.984 316.214C225.382 319.531 228.664 323.911 228.664 328.713V303.714Z" fill="url(#paint10_linear_165_1262)"/>
<path d="M228.664 303.714C228.664 308.516 225.382 312.896 219.984 316.214C225.382 319.531 228.664 323.911 228.664 328.713V303.714Z" fill="url(#paint11_linear_165_1262)" fill-opacity="0.2"/>
<path d="M195.83 306.534C194.957 307.063 193.73 307.066 192.852 306.543L184.161 301.367C182.911 300.622 182.901 299.167 184.143 298.413L192.833 293.13C193.719 292.592 194.968 292.595 195.849 293.139L204.403 298.422C205.624 299.176 205.615 300.613 204.384 301.358L195.83 306.534Z" fill="white"/>
<path d="M243.312 300.62C243.312 304.351 242.047 308.045 239.588 311.492C237.129 314.938 233.525 318.07 228.982 320.708C224.439 323.346 219.045 325.439 213.109 326.866C207.173 328.294 200.811 329.029 194.386 329.029C187.961 329.029 181.599 328.294 175.663 326.866C169.727 325.439 164.334 323.346 159.79 320.708C155.247 318.07 151.643 314.938 149.185 311.492C146.726 308.045 145.46 304.351 145.46 300.62C145.46 296.89 146.726 293.195 149.185 289.749C151.643 286.302 155.247 283.17 159.79 280.532C164.334 277.894 169.727 275.802 175.663 274.374C181.599 272.946 187.961 272.212 194.386 272.212C200.811 272.212 207.173 272.946 213.109 274.374C219.045 275.802 224.439 277.894 228.982 280.532C233.525 283.17 237.129 286.302 239.588 289.749C242.047 293.195 243.312 296.89 243.312 300.62L243.312 300.62Z" stroke="#C8E1D3" stroke-opacity="0.6" stroke-width="6.31301"/>
<path d="M195.27 269.056C196.525 269.056 197.542 270.073 197.542 271.328V273.095C197.542 274.35 196.525 275.368 195.27 275.368H194.386C185.053 275.368 175.986 276.978 168.346 279.942C160.677 282.917 154.994 287.04 151.755 291.582C148.578 296.035 147.864 300.693 149.387 305.139C150.952 309.708 154.954 314.249 161.376 317.978C167.773 321.693 176.057 324.29 185.204 325.347C194.341 326.402 203.805 325.858 212.371 323.798C220.958 321.733 228.098 318.278 232.996 314.021C237.881 309.776 240.155 305.091 240.155 300.62V299.737C240.155 298.482 241.173 297.464 242.428 297.464H244.196C245.451 297.464 246.468 298.482 246.468 299.737V300.62C246.468 307.387 243.004 313.687 237.137 318.786C231.283 323.873 223.141 327.7 213.847 329.935C204.533 332.175 194.323 332.756 184.479 331.619C174.645 330.483 165.493 327.669 158.205 323.438C150.942 319.221 145.624 313.637 143.414 307.185C141.162 300.61 142.385 293.844 146.615 287.915C150.781 282.075 157.641 277.325 166.063 274.057C174.515 270.778 184.366 269.056 194.386 269.056H195.27Z" fill="url(#paint12_linear_165_1262)"/>
<path d="M195.27 269.056C196.525 269.056 197.542 270.073 197.542 271.328V273.095C197.542 274.35 196.525 275.368 195.27 275.368H194.386C185.053 275.368 175.986 276.978 168.346 279.942C160.677 282.917 154.994 287.04 151.755 291.582C148.578 296.035 147.864 300.693 149.387 305.139C150.952 309.708 154.954 314.249 161.376 317.978C167.773 321.693 176.057 324.29 185.204 325.347C194.341 326.402 203.805 325.858 212.371 323.798C220.958 321.733 228.098 318.278 232.996 314.021C237.881 309.776 240.155 305.091 240.155 300.62V299.737C240.155 298.482 241.173 297.464 242.428 297.464H244.196C245.451 297.464 246.468 298.482 246.468 299.737V300.62C246.468 307.387 243.004 313.687 237.137 318.786C231.283 323.873 223.141 327.7 213.847 329.935C204.533 332.175 194.323 332.756 184.479 331.619C174.645 330.483 165.493 327.669 158.205 323.438C150.942 319.221 145.624 313.637 143.414 307.185C141.162 300.61 142.385 293.844 146.615 287.915C150.781 282.075 157.641 277.325 166.063 274.057C174.515 270.778 184.366 269.056 194.386 269.056H195.27Z" fill="white" fill-opacity="0.53"/>
</g>
<defs>
<linearGradient id="paint0_linear_165_1262" x1="-33.9522" y1="424.764" x2="122.732" y2="361.619" gradientUnits="userSpaceOnUse">
<stop stop-color="#9D9EA2" stop-opacity="0"/>
<stop offset="1" stop-color="#9D9EA2"/>
</linearGradient>
<linearGradient id="paint1_linear_165_1262" x1="223.67" y1="308.253" x2="212.046" y2="337.989" gradientUnits="userSpaceOnUse">
<stop stop-color="#D2E6E1"/>
<stop offset="1" stop-color="#D2E6E1" stop-opacity="0"/>
</linearGradient>
<linearGradient id="paint2_linear_165_1262" x1="271.592" y1="293.503" x2="556.523" y2="409.242" gradientUnits="userSpaceOnUse">
<stop stop-color="#D2E6E1"/>
<stop offset="1" stop-color="#D2E6E1" stop-opacity="0"/>
</linearGradient>
<linearGradient id="paint3_linear_165_1262" x1="247.615" y1="272.951" x2="247.615" y2="18.6887" gradientUnits="userSpaceOnUse">
<stop stop-color="#D2E6E1"/>
<stop offset="1" stop-color="#D2E6E1" stop-opacity="0"/>
</linearGradient>
<linearGradient id="paint4_linear_165_1262" x1="167.798" y1="292.964" x2="212.04" y2="335.68" gradientUnits="userSpaceOnUse">
<stop stop-color="#9CE8CF"/>
<stop offset="1" stop-color="#6FA39E"/>
</linearGradient>
<linearGradient id="paint5_linear_165_1262" x1="194.016" y1="346.963" x2="194.016" y2="285.089" gradientUnits="userSpaceOnUse">
<stop stop-color="white" stop-opacity="0"/>
<stop offset="1" stop-color="white"/>
</linearGradient>
<linearGradient id="paint6_linear_165_1262" x1="167.798" y1="292.964" x2="212.04" y2="335.68" gradientUnits="userSpaceOnUse">
<stop stop-color="#9CE8CF"/>
<stop offset="1" stop-color="#6FA39E"/>
</linearGradient>
<linearGradient id="paint7_linear_165_1262" x1="194.016" y1="346.963" x2="194.016" y2="285.089" gradientUnits="userSpaceOnUse">
<stop stop-color="white" stop-opacity="0"/>
<stop offset="1" stop-color="white"/>
</linearGradient>
<linearGradient id="paint8_linear_165_1262" x1="167.798" y1="292.964" x2="212.04" y2="335.68" gradientUnits="userSpaceOnUse">
<stop stop-color="#9CE8CF"/>
<stop offset="1" stop-color="#6FA39E"/>
</linearGradient>
<linearGradient id="paint9_linear_165_1262" x1="194.016" y1="346.963" x2="194.016" y2="285.089" gradientUnits="userSpaceOnUse">
<stop stop-color="white" stop-opacity="0"/>
<stop offset="1" stop-color="white"/>
</linearGradient>
<linearGradient id="paint10_linear_165_1262" x1="167.798" y1="292.964" x2="212.04" y2="335.68" gradientUnits="userSpaceOnUse">
<stop stop-color="#9CE8CF"/>
<stop offset="1" stop-color="#6FA39E"/>
</linearGradient>
<linearGradient id="paint11_linear_165_1262" x1="194.016" y1="346.963" x2="194.016" y2="285.089" gradientUnits="userSpaceOnUse">
<stop stop-color="white" stop-opacity="0"/>
<stop offset="1" stop-color="white"/>
</linearGradient>
<linearGradient id="paint12_linear_165_1262" x1="124.35" y1="349.151" x2="260.278" y2="340.467" gradientUnits="userSpaceOnUse">
<stop stop-color="#95D8C2"/>
<stop offset="1" stop-color="#8AB3AF"/>
</linearGradient>
<clipPath id="clip0_165_1262">
<rect width="392" height="472" rx="29.9819" fill="white"/>
</clipPath>
</defs>
</svg>
