<svg width="25" height="25" viewBox="0 0 25 25" fill="none" xmlns="http://www.w3.org/2000/svg">
<path d="M19.9243 11.1754H5.21902C4.73151 11.1754 4.26397 11.3691 3.91924 11.7138C3.57452 12.0585 3.38086 12.526 3.38086 13.0136V20.7338C3.38086 21.2213 3.57452 21.6889 3.91924 22.0336C4.26397 22.3783 4.73151 22.572 5.21902 22.572H19.9243C20.4118 22.572 20.8794 22.3783 21.2241 22.0336C21.5688 21.6889 21.7625 21.2213 21.7625 20.7338V13.0136C21.7625 12.526 21.5688 12.0585 21.2241 11.7138C20.8794 11.3691 20.4118 11.1754 19.9243 11.1754ZM19.5567 20.3662H5.58665V13.3812H19.5567V20.3662ZM4.85139 8.60197C4.85139 8.30947 4.96759 8.02894 5.17442 7.82211C5.38125 7.61527 5.66178 7.49908 5.95429 7.49908H19.189C19.4816 7.49908 19.7621 7.61527 19.9689 7.82211C20.1757 8.02894 20.2919 8.30947 20.2919 8.60197C20.2919 8.89448 20.1757 9.17501 19.9689 9.38184C19.7621 9.58867 19.4816 9.70487 19.189 9.70487H5.95429C5.66178 9.70487 5.38125 9.58867 5.17442 9.38184C4.96759 9.17501 4.85139 8.89448 4.85139 8.60197ZM6.32192 4.92565C6.32192 4.63314 6.43812 4.35262 6.64495 4.14578C6.85178 3.93895 7.13231 3.82275 7.42481 3.82275H17.7185C18.011 3.82275 18.2916 3.93895 18.4984 4.14578C18.7052 4.35262 18.8214 4.63314 18.8214 4.92565C18.8214 5.21816 18.7052 5.49868 18.4984 5.70552C18.2916 5.91235 18.011 6.02855 17.7185 6.02855H7.42481C7.13231 6.02855 6.85178 5.91235 6.64495 5.70552C6.43812 5.49868 6.32192 5.21816 6.32192 4.92565Z" fill="#191919" fill-opacity="0.25"/>
</svg>
