<svg width="280" height="240" viewBox="0 0 280 240" fill="none" xmlns="http://www.w3.org/2000/svg">
<g clip-path="url(#clip0_132_899)">
<path d="M0 20C0 8.9543 8.95431 0 20 0H260C271.046 0 280 8.95431 280 20V220C280 231.046 271.046 240 260 240H20C8.95431 240 0 231.046 0 220V20Z" fill="url(#paint0_linear_132_899)"/>
<g opacity="0.4" filter="url(#filter0_d_132_899)">
<g clip-path="url(#clip1_132_899)">
<rect x="14.7644" y="141.393" width="254" height="56.1731" rx="19.4951" transform="rotate(1.8 14.7644 141.393)" fill="white" fill-opacity="0.04" shape-rendering="crispEdges"/>
<g filter="url(#filter1_dii_132_899)">
<rect x="27.083" y="155.712" width="27.8502" height="27.8502" rx="13.9251" transform="rotate(1.8 27.083 155.712)" fill="url(#paint1_linear_132_899)"/>
<rect x="27.083" y="155.712" width="27.8502" height="27.8502" rx="13.9251" transform="rotate(1.8 27.083 155.712)" fill="black" fill-opacity="0.03"/>
<rect x="28.0941" y="156.788" width="25.7614" height="25.7614" rx="12.8807" transform="rotate(1.8 28.0941 156.788)" stroke="white" stroke-opacity="0.65" stroke-width="2.08876"/>
<path d="M37.2942 176.234C36.8887 176.221 36.5703 175.882 36.583 175.476C36.5937 175.136 36.8366 174.848 37.17 174.78L39.3892 174.326L39.4326 172.946C38.8714 172.807 38.3742 172.564 37.941 172.217C37.5078 171.869 37.1951 171.439 37.0029 170.929C36.1413 170.803 35.7403 170.431 35.1777 169.794C34.6151 169.157 34.3466 168.422 34.3723 167.589L34.4197 166.081C34.4278 165.825 34.6421 165.623 34.8984 165.632L36.8904 165.695L36.9171 164.844C36.9252 164.588 37.1394 164.387 37.3957 164.395L43.3861 164.583C43.6423 164.591 43.8435 164.805 43.8354 165.062L43.8087 165.912L45.8008 165.975C46.057 165.983 46.2582 166.197 46.2502 166.453L46.2028 167.961C46.1766 168.794 45.8626 169.51 45.2606 170.111C44.6586 170.712 44.2352 171.058 43.3678 171.129C43.1444 171.626 42.8056 172.035 42.3514 172.355C41.8972 172.676 41.3855 172.887 40.8163 172.989L40.7729 174.369L42.9592 174.962C43.2877 175.051 43.512 175.354 43.5013 175.694C43.4886 176.099 43.1495 176.418 42.744 176.405L37.2942 176.234ZM36.7706 169.507L36.8491 167.009L35.7766 166.975L35.756 167.632C35.7429 168.048 35.858 168.428 36.1011 168.77C36.3443 169.112 36.6039 169.304 36.7706 169.507ZM43.6889 169.724C44.1085 169.595 44.1391 169.357 44.4033 169.031C44.6674 168.704 44.8061 168.333 44.8191 167.918L44.8398 167.26L43.7674 167.227L43.6889 169.724Z" fill="white" fill-opacity="0.92"/>
</g>
<path d="M75.5389 177.421L74.6314 174.348L70.301 174.212L69.2023 177.222L67.033 177.154L71.5783 165.517L73.9515 165.592L77.7571 177.491L75.5389 177.421ZM72.6466 167.632L70.8413 172.604L74.185 172.709L72.7036 167.634L72.6466 167.632ZM78.8744 177.526L79.2442 165.758L81.2749 165.822L80.905 177.59L78.8744 177.526ZM82.6829 177.646L82.9545 169.001L84.9852 169.065L84.7135 177.709L82.6829 177.646ZM84.0014 167.899C83.3735 167.88 82.8914 167.375 82.9106 166.763C82.9301 166.143 83.4429 165.669 84.0709 165.689C84.707 165.709 85.1891 166.214 85.1696 166.834C85.1504 167.446 84.6375 167.919 84.0014 167.899Z" fill="white"/>
<path d="M207.577 181.174C205.405 181.106 203.871 179.752 203.85 177.883L205.614 177.939C205.7 178.919 206.531 179.616 207.639 179.651C208.893 179.691 209.78 178.843 209.819 177.604C209.859 176.343 209.02 175.426 207.788 175.388C206.928 175.361 206.172 175.731 205.765 176.375L204.059 176.321L204.794 170.347L211.238 170.549L211.189 172.087L206.233 171.932L205.867 174.999L205.91 175C206.369 174.336 207.242 173.941 208.285 173.973C210.296 174.036 211.7 175.562 211.636 177.61C211.567 179.797 209.909 181.247 207.577 181.174ZM216.761 181.463C214.18 181.382 212.709 179.227 212.815 175.852C212.92 172.492 214.539 170.442 217.105 170.522C219.663 170.603 221.143 172.736 221.037 176.103C220.931 179.471 219.334 181.544 216.761 181.463ZM216.809 179.925C218.201 179.969 219.056 178.529 219.134 176.051C219.211 173.594 218.434 172.103 217.056 172.06C215.671 172.017 214.787 173.47 214.71 175.904C214.632 178.383 215.41 179.881 216.809 179.925ZM226.236 181.76C223.656 181.679 222.184 179.525 222.29 176.15C222.396 172.79 224.014 170.739 226.58 170.82C229.138 170.9 230.618 173.034 230.512 176.401C230.406 179.768 228.809 181.841 226.236 181.76ZM226.285 180.223C227.677 180.266 228.532 178.827 228.61 176.348C228.687 173.892 227.909 172.401 226.532 172.358C225.147 172.314 224.262 173.768 224.186 176.202C224.108 178.68 224.885 180.179 226.285 180.223Z" fill="white" fill-opacity="0.8"/>
<g clip-path="url(#clip2_132_899)">
<path d="M250.192 176.44L248.59 175.916C247.187 175.456 246.139 174.397 245.81 173.107C245.821 174.806 245.174 177.755 240.672 178.816C241.335 179.349 241.811 180.056 242.014 180.851L242.838 184.084C243.039 184.868 244.288 184.908 244.537 184.137L245.563 180.962C245.972 179.696 247.085 178.705 248.514 178.334L250.146 177.911C250.954 177.701 250.985 176.7 250.192 176.44Z" fill="#FFEC40"/>
<path d="M245.81 173.107L244.985 169.874C244.785 169.09 243.536 169.051 243.287 169.821L242.261 172.996C241.851 174.263 240.739 175.253 239.309 175.624L237.678 176.047C236.87 176.257 236.839 177.258 237.632 177.518L239.233 178.042C239.772 178.219 240.258 178.484 240.672 178.816C245.174 177.755 245.821 174.806 245.81 173.107Z" fill="#FFF6A7"/>
<path d="M245.81 173.107L244.985 169.874C244.785 169.09 243.536 169.051 243.287 169.821L242.261 172.996C241.851 174.263 240.739 175.253 239.309 175.624L237.678 176.047C236.87 176.257 236.839 177.258 237.632 177.518L239.233 178.042C239.772 178.219 240.258 178.484 240.672 178.816C245.174 177.755 245.821 174.806 245.81 173.107Z" fill="white" fill-opacity="0.2"/>
</g>
</g>
<rect x="15.1014" y="141.752" width="253.304" height="55.4768" rx="19.147" transform="rotate(1.8 15.1014 141.752)" stroke="white" stroke-opacity="0.08" stroke-width="0.696254" shape-rendering="crispEdges"/>
</g>
<g opacity="0.8" filter="url(#filter2_d_132_899)">
<rect x="13" y="96.4741" width="254" height="53.7308" rx="19.4951" transform="rotate(-1.6 13 96.4741)" fill="white" fill-opacity="0.04" shape-rendering="crispEdges"/>
<rect x="13.3577" y="96.8123" width="253.304" height="53.0345" rx="19.147" transform="rotate(-1.6 13.3577 96.8123)" stroke="white" stroke-opacity="0.08" stroke-width="0.696254" shape-rendering="crispEdges"/>
<path d="M197.146 124.838L196.903 116.112L196.859 116.113L194.193 118.099L194.144 116.328L196.838 114.319L198.697 114.267L198.991 124.786L197.146 124.838ZM202.544 126.912L201.152 126.951L201.647 122.976L203.418 122.926L202.544 126.912ZM204.929 117.216C204.875 115.277 206.389 113.841 208.568 113.78C210.668 113.721 212.205 114.962 212.253 116.668C212.288 117.922 211.571 118.89 210.232 120.321L207.701 122.967L207.702 123.004L212.586 122.867L212.629 124.405L205.238 124.612L205.202 123.343L208.966 119.386C210.127 118.136 210.44 117.587 210.418 116.8C210.394 115.932 209.594 115.261 208.552 115.291C207.459 115.321 206.664 116.117 206.693 117.159L206.694 117.188L204.93 117.237L204.929 117.216ZM216.325 119.611L216.286 118.197L217.554 118.162C218.633 118.131 219.351 117.447 219.325 116.507C219.299 115.589 218.64 114.994 217.46 115.027C216.373 115.058 215.662 115.712 215.617 116.698L213.867 116.747C213.917 114.856 215.333 113.591 217.505 113.53C219.576 113.473 221.08 114.561 221.125 116.201C221.162 117.506 220.313 118.471 219.022 118.733L219.023 118.777C220.601 118.85 221.649 119.783 221.689 121.249C221.741 123.107 220.085 124.409 217.789 124.473C215.478 124.537 213.941 123.311 213.794 121.44L215.587 121.39C215.702 122.35 216.507 122.969 217.761 122.934C218.971 122.9 219.805 122.199 219.778 121.229C219.748 120.165 218.928 119.538 217.623 119.575L216.325 119.611ZM225.525 119.354L225.485 117.94L226.754 117.905C227.833 117.874 228.55 117.19 228.524 116.25C228.499 115.332 227.84 114.737 226.659 114.77C225.573 114.801 224.862 115.455 224.816 116.441L223.067 116.49C223.116 114.599 224.532 113.334 226.705 113.273C228.775 113.216 230.279 114.304 230.325 115.945C230.361 117.249 229.513 118.214 228.222 118.476L228.223 118.52C229.801 118.593 230.848 119.526 230.889 120.992C230.941 122.851 229.285 124.152 226.989 124.216C224.678 124.28 223.141 123.054 222.994 121.183L224.787 121.133C224.901 122.093 225.706 122.712 226.96 122.677C228.17 122.643 229.004 121.942 228.977 120.972C228.947 119.908 228.127 119.281 226.823 119.318L225.525 119.354Z" fill="white" fill-opacity="0.8"/>
<g clip-path="url(#clip3_132_899)">
<path d="M250.09 117.498L248.461 117.069C247.032 116.694 245.923 115.699 245.518 114.431C245.63 116.126 245.16 119.108 240.728 120.434C241.422 120.927 241.939 121.605 242.188 122.386L243.203 125.564C243.45 126.336 244.699 126.301 244.902 125.517L245.738 122.287C246.071 120.998 247.123 119.943 248.528 119.488L250.131 118.969C250.926 118.712 250.898 117.711 250.09 117.498Z" fill="#FFEC40"/>
<path d="M245.518 114.431L244.503 111.253C244.257 110.481 243.008 110.516 242.805 111.3L241.969 114.53C241.635 115.819 240.584 116.874 239.178 117.329L237.575 117.848C236.781 118.105 236.809 119.106 237.616 119.319L239.246 119.748C239.794 119.892 240.296 120.127 240.728 120.434C245.16 119.108 245.63 116.126 245.518 114.431Z" fill="#FFF6A7"/>
<path d="M245.518 114.431L244.503 111.253C244.257 110.481 243.008 110.516 242.805 111.3L241.969 114.53C241.635 115.819 240.584 116.874 239.178 117.329L237.575 117.848C236.781 118.105 236.809 119.106 237.616 119.319L239.246 119.748C239.794 119.892 240.296 120.127 240.728 120.434C245.16 119.108 245.63 116.126 245.518 114.431Z" fill="white" fill-opacity="0.2"/>
</g>
<g filter="url(#filter3_dii_132_899)">
<rect x="26.1465" y="110.037" width="27.8502" height="27.8502" rx="13.9251" transform="rotate(-1.6 26.1465 110.037)" fill="url(#paint2_linear_132_899)"/>
<rect x="26.1465" y="110.037" width="27.8502" height="27.8502" rx="13.9251" transform="rotate(-1.6 26.1465 110.037)" fill="black" fill-opacity="0.03"/>
<rect x="27.2196" y="111.051" width="25.7614" height="25.7614" rx="12.8807" transform="rotate(-1.6 27.2196 111.051)" stroke="white" stroke-opacity="0.65" stroke-width="2.08876"/>
<path d="M37.5568 129.917C37.1513 129.928 36.8133 129.609 36.802 129.203C36.7925 128.863 37.0179 128.561 37.3467 128.473L39.5351 127.888L39.4965 126.508C38.9281 126.403 38.4173 126.19 37.9643 125.869C37.5112 125.547 37.1736 125.137 36.9515 124.639C36.0839 124.564 35.6615 124.216 35.0621 123.614C34.4627 123.011 34.1512 122.294 34.1274 121.46L34.0853 119.953C34.0782 119.696 34.2802 119.483 34.5365 119.476L36.5288 119.421L36.505 118.57C36.4978 118.314 36.6998 118.1 36.956 118.093L42.9471 117.926C43.2033 117.918 43.4169 118.12 43.424 118.377L43.4478 119.227L45.4401 119.172C45.6963 119.165 45.9099 119.366 45.917 119.623L45.9592 121.131C45.9824 121.963 45.7114 122.697 45.1461 123.333C44.5808 123.968 44.1786 124.338 43.317 124.461C43.1235 124.97 42.8095 125.399 42.3751 125.745C41.9407 126.092 41.4425 126.334 40.8803 126.469L40.9189 127.85L43.1364 128.311C43.4696 128.381 43.7115 128.67 43.721 129.01C43.7324 129.416 43.4128 129.754 43.0072 129.765L37.5568 129.917ZM36.6353 123.233L36.5655 120.735L35.4929 120.765L35.5112 121.422C35.5229 121.838 35.6602 122.21 35.9232 122.537C36.1863 122.864 36.4568 123.041 36.6353 123.233ZM43.5543 123.04C43.9654 122.886 43.9819 122.647 44.2262 122.305C44.4706 121.964 44.587 121.585 44.5754 121.169L44.557 120.512L43.4845 120.542L43.5543 123.04Z" fill="white" fill-opacity="0.92"/>
</g>
<path d="M75.681 127.059L75.7307 128.837L68.1129 129.05L67.7842 117.281L75.4019 117.068L75.4516 118.846L69.9381 119L70.027 122.181L75.2387 122.035L75.2854 123.707L70.0737 123.853L70.1675 127.213L75.681 127.059ZM77.3537 128.792L77.1122 120.146L79.0615 120.092L79.1035 121.593L79.1442 121.591C79.4914 120.578 80.3864 119.892 81.5609 119.859C82.7843 119.825 83.6745 120.428 84.0236 121.529L84.0725 121.527C84.4587 120.447 85.4676 119.75 86.7155 119.715C88.4201 119.667 89.5696 120.786 89.6179 122.515L89.7836 128.445L87.7527 128.501L87.601 123.069C87.5714 122.009 86.9999 121.421 86.0048 121.449C85.0261 121.476 84.3774 122.213 84.4063 123.248L84.5555 128.591L82.5818 128.646L82.4271 123.108C82.4002 122.145 81.7963 121.566 80.8502 121.593C79.8715 121.62 79.2076 122.398 79.2367 123.442L79.3846 128.735L77.3537 128.792ZM91.4637 128.398L91.2222 119.752L93.2531 119.695L93.4946 128.341L91.4637 128.398ZM92.2019 118.59C91.5739 118.608 91.0627 118.132 91.0456 117.521C91.0283 116.901 91.5121 116.398 92.1402 116.38C92.7763 116.362 93.2875 116.838 93.3048 117.458C93.3219 118.069 92.8381 118.573 92.2019 118.59ZM95.1992 128.293L94.9577 119.648L96.907 119.593L96.9491 121.102L96.9899 121.101C97.2541 120.041 97.9958 119.416 99.0153 119.388C99.2763 119.38 99.506 119.423 99.6537 119.451L99.705 121.287C99.5319 121.226 99.2206 121.186 98.8781 121.195C97.728 121.227 97.0555 121.989 97.0895 123.204L97.23 128.237L95.1992 128.293Z" fill="white"/>
</g>
<g filter="url(#filter4_i_132_899)">
<g clip-path="url(#clip4_132_899)">
<rect x="13" y="42" width="254" height="56.1731" rx="19.4951" fill="url(#paint3_linear_132_899)"/>
<g filter="url(#filter5_f_132_899)">
<ellipse cx="139.79" cy="123.114" rx="102.001" ry="49.0859" fill="#FFC619"/>
</g>
<g filter="url(#filter6_dii_132_899)">
<rect x="25.532" y="55.9251" width="27.8502" height="27.8502" rx="13.9251" fill="url(#paint4_linear_132_899)"/>
<rect x="25.532" y="55.9251" width="27.8502" height="27.8502" rx="13.9251" fill="black" fill-opacity="0.03"/>
<rect x="26.5764" y="56.9695" width="25.7614" height="25.7614" rx="12.8807" stroke="white" stroke-opacity="0.9" stroke-width="2.08876"/>
<path d="M36.3831 76.1164C35.9774 76.1164 35.6485 75.7875 35.6485 75.3818C35.6485 75.0415 35.8823 74.7457 36.2134 74.6671L38.4172 74.1436V72.7627C37.8519 72.6422 37.3473 72.4149 36.9034 72.0808C36.4595 71.7468 36.1335 71.3275 35.9254 70.8229C35.0602 70.7243 34.6477 70.3648 34.0654 69.7458C33.483 69.1268 33.1916 68.4006 33.1912 67.5672V66.0588C33.1912 65.8024 33.3991 65.5946 33.6555 65.5946L35.6485 65.5952V64.7442C35.6485 64.4878 35.8563 64.28 36.1127 64.28H42.1061C42.3624 64.28 42.5702 64.4878 42.5702 64.7442V65.5952H44.5633C44.8197 65.5952 45.0275 65.803 45.0275 66.0593V67.5679C45.0275 68.4008 44.7361 69.127 44.1533 69.7464C43.5705 70.3659 43.1581 70.7247 42.2934 70.8229C42.0857 71.327 41.7599 71.7463 41.316 72.0808C40.8721 72.4153 40.3673 72.6426 39.8015 72.7627V74.1436L42.0054 74.6671C42.3365 74.7457 42.5702 75.0415 42.5702 75.3818C42.5702 75.7875 42.2413 76.1164 41.8356 76.1164H36.3831ZM35.6485 69.4091V66.9103L34.5755 66.9097V67.5672C34.5755 67.9837 34.7024 68.3592 34.9562 68.6937C35.21 69.0281 35.4755 69.2118 35.6485 69.4091ZM42.5702 69.4091C42.9855 69.2666 43.0087 69.0281 43.2625 68.6937C43.5162 68.3592 43.6431 67.9839 43.6431 67.5679V66.9103H42.5702V69.4091Z" fill="white"/>
</g>
<path d="M69.0568 76.1021H66.9517V64.3284H74.4582V66.1071H69.0568V69.5829H73.9932V71.2964H69.0568V76.1021ZM78.5052 74.7069C79.6557 74.7069 80.5777 73.9399 80.5777 72.8956V72.2347L78.5786 72.3571C77.5995 72.4223 77.0366 72.8629 77.0366 73.5483C77.0366 74.2582 77.624 74.7069 78.5052 74.7069ZM77.8933 76.2408C76.2206 76.2408 75.0049 75.1883 75.0049 73.6299C75.0049 72.096 76.188 71.174 78.2931 71.0434L80.5777 70.9129V70.2928C80.5777 69.3871 79.9657 68.8649 78.9621 68.8649C77.9993 68.8649 77.3874 69.33 77.2569 70.048H75.3721C75.4618 68.4325 76.8407 67.2739 79.0437 67.2739C81.1896 67.2739 82.5848 68.408 82.5848 70.1459V76.1021H80.6266V74.7232H80.5858C80.0881 75.6615 79.0029 76.2408 77.8933 76.2408ZM84.7878 65.4299H86.8195V67.4534H88.4513V69.0199H86.8195V73.5157C86.8195 74.2255 87.1458 74.5519 87.8639 74.5519C88.0515 74.5519 88.3126 74.5356 88.4432 74.5111V76.0613C88.2229 76.1103 87.8231 76.1429 87.3906 76.1429C85.5222 76.1429 84.7878 75.482 84.7878 73.8012V69.0199H83.5476V67.4534H84.7878V65.4299ZM89.8873 76.1021V67.4534H91.919V76.1021H89.8873ZM90.8991 66.3192C90.2708 66.3192 89.7731 65.8297 89.7731 65.2177C89.7731 64.5976 90.2708 64.1081 90.8991 64.1081C91.5355 64.1081 92.0332 64.5976 92.0332 65.2177C92.0332 65.8297 91.5355 66.3192 90.8991 66.3192ZM93.6243 76.1021V67.4534H95.5743V68.9547H95.6151C95.9904 67.9511 96.9043 67.2902 98.0792 67.2902C99.3031 67.2902 100.176 67.9184 100.494 69.0281H100.543C100.959 67.9592 101.987 67.2902 103.236 67.2902C104.941 67.2902 106.059 68.4406 106.059 70.1704V76.1021H104.027V70.6681C104.027 69.6074 103.472 69.0036 102.477 69.0036C101.498 69.0036 100.829 69.7216 100.829 70.7578V76.1021H98.8543V70.562C98.8543 69.5992 98.2669 69.0036 97.3204 69.0036C96.3413 69.0036 95.6559 69.7624 95.6559 70.8068V76.1021H93.6243ZM110.848 74.7069C111.999 74.7069 112.921 73.9399 112.921 72.8956V72.2347L110.922 72.3571C109.943 72.4223 109.38 72.8629 109.38 73.5483C109.38 74.2582 109.967 74.7069 110.848 74.7069ZM110.236 76.2408C108.564 76.2408 107.348 75.1883 107.348 73.6299C107.348 72.096 108.531 71.174 110.636 71.0434L112.921 70.9129V70.2928C112.921 69.3871 112.309 68.8649 111.305 68.8649C110.343 68.8649 109.731 69.33 109.6 70.048H107.715C107.805 68.4325 109.184 67.2739 111.387 67.2739C113.533 67.2739 114.928 68.408 114.928 70.1459V76.1021H112.97V74.7232H112.929C112.431 75.6615 111.346 76.2408 110.236 76.2408Z" fill="#AC730A"/>
<path d="M193.318 70.1531V68.7384H194.586C195.666 68.7384 196.402 68.0748 196.402 67.1341C196.402 66.2152 195.761 65.6026 194.579 65.6026C193.493 65.6026 192.763 66.2371 192.69 67.2216H190.94C191.042 65.3328 192.494 64.1077 194.667 64.1077C196.738 64.1077 198.211 65.238 198.211 66.8788C198.211 68.1842 197.336 69.1249 196.038 69.351V69.3947C197.613 69.5114 198.634 70.474 198.634 71.9398C198.634 73.7993 196.942 75.0536 194.645 75.0536C192.333 75.0536 190.831 73.7848 190.736 71.9106H192.53C192.617 72.8732 193.405 73.5149 194.659 73.5149C195.87 73.5149 196.723 72.8367 196.723 71.8668C196.723 70.8022 195.921 70.1531 194.616 70.1531H193.318ZM201.23 77.0664H199.837L200.442 73.1066H202.214L201.23 77.0664ZM203.884 67.4403C203.884 65.5005 205.438 64.1077 207.618 64.1077C209.718 64.1077 211.22 65.3912 211.22 67.0976C211.22 68.3519 210.477 69.2999 209.098 70.6928L206.495 73.267V73.3035H211.381V74.8422H203.986V73.5733L207.859 69.7229C209.055 68.505 209.383 67.9654 209.383 67.1778C209.383 66.31 208.603 65.6172 207.56 65.6172C206.466 65.6172 205.649 66.3902 205.649 67.433V67.4622H203.884V67.4403ZM216.471 75.0536C214.539 75.0536 213.029 73.9014 212.73 72.2096H214.597C214.83 73.0045 215.581 73.5295 216.5 73.5295C218.054 73.5295 218.987 72.071 218.958 69.526C218.958 69.526 218.95 69.526 218.943 69.526H218.936H218.929C218.52 70.5542 217.441 71.247 216.077 71.247C214.079 71.247 212.584 69.7666 212.584 67.7685C212.584 65.6391 214.24 64.1004 216.515 64.1004C218.061 64.1004 219.315 64.8442 220.015 66.186C220.511 67.0465 220.766 68.1477 220.766 69.4603C220.766 72.968 219.169 75.0536 216.471 75.0536ZM216.522 69.7739C217.725 69.7739 218.637 68.8988 218.637 67.7393C218.637 66.5652 217.718 65.6464 216.537 65.6464C215.363 65.6464 214.436 66.558 214.436 67.7102C214.436 68.8988 215.326 69.7739 216.522 69.7739ZM226.024 75.0536C223.851 75.0536 222.276 73.7483 222.196 71.8814H223.96C224.077 72.8586 224.93 73.5295 226.039 73.5295C227.293 73.5295 228.154 72.6544 228.154 71.4147C228.154 70.1531 227.286 69.2634 226.053 69.2634C225.193 69.2634 224.449 69.6572 224.062 70.3136H222.356L222.903 64.3192H229.35V65.8579H224.391L224.121 68.9353H224.165C224.602 68.2571 225.463 67.8341 226.505 67.8341C228.518 67.8341 229.969 69.3145 229.969 71.3637C229.969 73.5514 228.358 75.0536 226.024 75.0536Z" fill="white"/>
<g clip-path="url(#clip5_132_899)">
<path d="M249.178 68.3634L247.561 67.8892C246.144 67.4735 245.063 66.4486 244.694 65.1695C244.758 66.8669 244.205 69.8347 239.738 71.0369C240.418 71.5489 240.915 72.2405 241.143 73.0286L242.069 76.234C242.293 77.0118 243.543 77.0118 243.768 76.234L244.694 73.0286C245.063 71.7495 246.144 70.7246 247.561 70.3089L249.178 69.8347C249.979 69.5998 249.979 68.5983 249.178 68.3634Z" fill="#FFEC40"/>
<path d="M244.694 65.1695L243.768 61.9641C243.543 61.1863 242.293 61.1863 242.069 61.9641L241.143 65.1695C240.773 66.4486 239.693 67.4735 238.275 67.8892L236.658 68.3634C235.857 68.5983 235.857 69.5998 236.658 69.8347L238.275 70.3089C238.819 70.4685 239.314 70.7178 239.738 71.0369C244.205 69.8347 244.758 66.8669 244.694 65.1695Z" fill="#FFF6A7"/>
<path d="M244.694 65.1695L243.768 61.9641C243.543 61.1863 242.293 61.1863 242.069 61.9641L241.143 65.1695C240.773 66.4486 239.693 67.4735 238.275 67.8892L236.658 68.3634C235.857 68.5983 235.857 69.5998 236.658 69.8347L238.275 70.3089C238.819 70.4685 239.314 70.7178 239.738 71.0369C244.205 69.8347 244.758 66.8669 244.694 65.1695Z" fill="white" fill-opacity="0.2"/>
</g>
</g>
<rect x="13.6963" y="42.6963" width="252.607" height="54.7806" rx="18.7989" stroke="#FFE9CB" stroke-opacity="0.6" stroke-width="1.39251"/>
</g>
</g>
<defs>
<filter id="filter0_d_132_899" x="-12.3437" y="116.049" width="306.326" height="114.811" filterUnits="userSpaceOnUse" color-interpolation-filters="sRGB">
<feFlood flood-opacity="0" result="BackgroundImageFix"/>
<feColorMatrix in="SourceAlpha" type="matrix" values="0 0 0 0 0 0 0 0 0 0 0 0 0 0 0 0 0 0 127 0" result="hardAlpha"/>
<feOffset/>
<feGaussianBlur stdDeviation="12.6718"/>
<feComposite in2="hardAlpha" operator="out"/>
<feColorMatrix type="matrix" values="0 0 0 0 0 0 0 0 0 0 0 0 0 0 0 0 0 0 0.25 0"/>
<feBlend mode="normal" in2="BackgroundImageFix" result="effect1_dropShadow_132_899"/>
<feBlend mode="normal" in="SourceGraphic" in2="effect1_dropShadow_132_899" result="shape"/>
</filter>
<filter id="filter1_dii_132_899" x="15.4859" y="146.382" width="50.1558" height="50.1559" filterUnits="userSpaceOnUse" color-interpolation-filters="sRGB">
<feFlood flood-opacity="0" result="BackgroundImageFix"/>
<feColorMatrix in="SourceAlpha" type="matrix" values="0 0 0 0 0 0 0 0 0 0 0 0 0 0 0 0 0 0 127 0" result="hardAlpha"/>
<feOffset dy="1.39251"/>
<feGaussianBlur stdDeviation="5.36116"/>
<feComposite in2="hardAlpha" operator="out"/>
<feColorMatrix type="matrix" values="0 0 0 0 0 0 0 0 0 0 0 0 0 0 0 0 0 0 0.25 0"/>
<feBlend mode="normal" in2="BackgroundImageFix" result="effect1_dropShadow_132_899"/>
<feBlend mode="normal" in="SourceGraphic" in2="effect1_dropShadow_132_899" result="shape"/>
<feColorMatrix in="SourceAlpha" type="matrix" values="0 0 0 0 0 0 0 0 0 0 0 0 0 0 0 0 0 0 127 0" result="hardAlpha"/>
<feOffset dy="2.78502"/>
<feGaussianBlur stdDeviation="2.01914"/>
<feComposite in2="hardAlpha" operator="arithmetic" k2="-1" k3="1"/>
<feColorMatrix type="matrix" values="0 0 0 0 1 0 0 0 0 1 0 0 0 0 1 0 0 0 0.66 0"/>
<feBlend mode="normal" in2="shape" result="effect2_innerShadow_132_899"/>
<feColorMatrix in="SourceAlpha" type="matrix" values="0 0 0 0 0 0 0 0 0 0 0 0 0 0 0 0 0 0 127 0" result="hardAlpha"/>
<feOffset dy="-4.17753"/>
<feGaussianBlur stdDeviation="4.17753"/>
<feComposite in2="hardAlpha" operator="arithmetic" k2="-1" k3="1"/>
<feColorMatrix type="matrix" values="0 0 0 0 1 0 0 0 0 1 0 0 0 0 1 0 0 0 0.37 0"/>
<feBlend mode="normal" in2="effect2_innerShadow_132_899" result="effect3_innerShadow_132_899"/>
</filter>
<filter id="filter2_d_132_899" x="-12.3437" y="64.0383" width="306.089" height="111.489" filterUnits="userSpaceOnUse" color-interpolation-filters="sRGB">
<feFlood flood-opacity="0" result="BackgroundImageFix"/>
<feColorMatrix in="SourceAlpha" type="matrix" values="0 0 0 0 0 0 0 0 0 0 0 0 0 0 0 0 0 0 127 0" result="hardAlpha"/>
<feOffset/>
<feGaussianBlur stdDeviation="12.6718"/>
<feComposite in2="hardAlpha" operator="out"/>
<feColorMatrix type="matrix" values="0 0 0 0 0 0 0 0 0 0 0 0 0 0 0 0 0 0 0.25 0"/>
<feBlend mode="normal" in2="BackgroundImageFix" result="effect1_dropShadow_132_899"/>
<feBlend mode="normal" in="SourceGraphic" in2="effect1_dropShadow_132_899" result="shape"/>
</filter>
<filter id="filter3_dii_132_899" x="15.4242" y="99.9293" width="50.0613" height="50.0616" filterUnits="userSpaceOnUse" color-interpolation-filters="sRGB">
<feFlood flood-opacity="0" result="BackgroundImageFix"/>
<feColorMatrix in="SourceAlpha" type="matrix" values="0 0 0 0 0 0 0 0 0 0 0 0 0 0 0 0 0 0 127 0" result="hardAlpha"/>
<feOffset dy="1.39251"/>
<feGaussianBlur stdDeviation="5.36116"/>
<feComposite in2="hardAlpha" operator="out"/>
<feColorMatrix type="matrix" values="0 0 0 0 0 0 0 0 0 0 0 0 0 0 0 0 0 0 0.25 0"/>
<feBlend mode="normal" in2="BackgroundImageFix" result="effect1_dropShadow_132_899"/>
<feBlend mode="normal" in="SourceGraphic" in2="effect1_dropShadow_132_899" result="shape"/>
<feColorMatrix in="SourceAlpha" type="matrix" values="0 0 0 0 0 0 0 0 0 0 0 0 0 0 0 0 0 0 127 0" result="hardAlpha"/>
<feOffset dy="2.78502"/>
<feGaussianBlur stdDeviation="2.01914"/>
<feComposite in2="hardAlpha" operator="arithmetic" k2="-1" k3="1"/>
<feColorMatrix type="matrix" values="0 0 0 0 1 0 0 0 0 1 0 0 0 0 1 0 0 0 0.66 0"/>
<feBlend mode="normal" in2="shape" result="effect2_innerShadow_132_899"/>
<feColorMatrix in="SourceAlpha" type="matrix" values="0 0 0 0 0 0 0 0 0 0 0 0 0 0 0 0 0 0 127 0" result="hardAlpha"/>
<feOffset dy="-4.17753"/>
<feGaussianBlur stdDeviation="4.17753"/>
<feComposite in2="hardAlpha" operator="arithmetic" k2="-1" k3="1"/>
<feColorMatrix type="matrix" values="0 0 0 0 1 0 0 0 0 1 0 0 0 0 1 0 0 0 0.37 0"/>
<feBlend mode="normal" in2="effect2_innerShadow_132_899" result="effect3_innerShadow_132_899"/>
</filter>
<filter id="filter4_i_132_899" x="13" y="42" width="254" height="56.1731" filterUnits="userSpaceOnUse" color-interpolation-filters="sRGB">
<feFlood flood-opacity="0" result="BackgroundImageFix"/>
<feBlend mode="normal" in="SourceGraphic" in2="BackgroundImageFix" result="shape"/>
<feColorMatrix in="SourceAlpha" type="matrix" values="0 0 0 0 0 0 0 0 0 0 0 0 0 0 0 0 0 0 127 0" result="hardAlpha"/>
<feMorphology radius="8.35505" operator="erode" in="SourceAlpha" result="effect1_innerShadow_132_899"/>
<feOffset/>
<feGaussianBlur stdDeviation="11.8015"/>
<feComposite in2="hardAlpha" operator="arithmetic" k2="-1" k3="1"/>
<feColorMatrix type="matrix" values="0 0 0 0 1 0 0 0 0 0.913725 0 0 0 0 0.796078 0 0 0 0.38 0"/>
<feBlend mode="normal" in2="shape" result="effect1_innerShadow_132_899"/>
</filter>
<filter id="filter5_f_132_899" x="-4.05582" y="32.1829" width="287.692" height="181.862" filterUnits="userSpaceOnUse" color-interpolation-filters="sRGB">
<feFlood flood-opacity="0" result="BackgroundImageFix"/>
<feBlend mode="normal" in="SourceGraphic" in2="BackgroundImageFix" result="shape"/>
<feGaussianBlur stdDeviation="20.9224" result="effect1_foregroundBlur_132_899"/>
</filter>
<filter id="filter6_dii_132_899" x="14.8097" y="46.5953" width="49.295" height="49.2948" filterUnits="userSpaceOnUse" color-interpolation-filters="sRGB">
<feFlood flood-opacity="0" result="BackgroundImageFix"/>
<feColorMatrix in="SourceAlpha" type="matrix" values="0 0 0 0 0 0 0 0 0 0 0 0 0 0 0 0 0 0 127 0" result="hardAlpha"/>
<feOffset dy="1.39251"/>
<feGaussianBlur stdDeviation="5.36116"/>
<feComposite in2="hardAlpha" operator="out"/>
<feColorMatrix type="matrix" values="0 0 0 0 0 0 0 0 0 0 0 0 0 0 0 0 0 0 0.25 0"/>
<feBlend mode="normal" in2="BackgroundImageFix" result="effect1_dropShadow_132_899"/>
<feBlend mode="normal" in="SourceGraphic" in2="effect1_dropShadow_132_899" result="shape"/>
<feColorMatrix in="SourceAlpha" type="matrix" values="0 0 0 0 0 0 0 0 0 0 0 0 0 0 0 0 0 0 127 0" result="hardAlpha"/>
<feOffset dy="2.78502"/>
<feGaussianBlur stdDeviation="2.01914"/>
<feComposite in2="hardAlpha" operator="arithmetic" k2="-1" k3="1"/>
<feColorMatrix type="matrix" values="0 0 0 0 1 0 0 0 0 1 0 0 0 0 1 0 0 0 0.66 0"/>
<feBlend mode="normal" in2="shape" result="effect2_innerShadow_132_899"/>
<feColorMatrix in="SourceAlpha" type="matrix" values="0 0 0 0 0 0 0 0 0 0 0 0 0 0 0 0 0 0 127 0" result="hardAlpha"/>
<feOffset dy="-4.17753"/>
<feGaussianBlur stdDeviation="4.17753"/>
<feComposite in2="hardAlpha" operator="arithmetic" k2="-1" k3="1"/>
<feColorMatrix type="matrix" values="0 0 0 0 1 0 0 0 0 1 0 0 0 0 1 0 0 0 0.37 0"/>
<feBlend mode="normal" in2="effect2_innerShadow_132_899" result="effect3_innerShadow_132_899"/>
</filter>
<linearGradient id="paint0_linear_132_899" x1="140" y1="15.9474" x2="140" y2="240" gradientUnits="userSpaceOnUse">
<stop stop-color="#4D5159"/>
<stop offset="1" stop-color="#292B31"/>
</linearGradient>
<linearGradient id="paint1_linear_132_899" x1="41.0081" y1="155.712" x2="11.6659" y2="195.497" gradientUnits="userSpaceOnUse">
<stop stop-color="#D6C973"/>
<stop offset="1" stop-color="#9A5D0E"/>
</linearGradient>
<linearGradient id="paint2_linear_132_899" x1="40.0716" y1="110.037" x2="10.7294" y2="149.823" gradientUnits="userSpaceOnUse">
<stop stop-color="#747BB6"/>
<stop offset="1" stop-color="#626392"/>
</linearGradient>
<linearGradient id="paint3_linear_132_899" x1="13" y1="70.0865" x2="267" y2="70.0865" gradientUnits="userSpaceOnUse">
<stop stop-color="#FEE549"/>
<stop offset="0.524038" stop-color="#FFBC3A"/>
<stop offset="1" stop-color="#FE9C2E"/>
</linearGradient>
<linearGradient id="paint4_linear_132_899" x1="39.4571" y1="55.9251" x2="10.1149" y2="95.7111" gradientUnits="userSpaceOnUse">
<stop stop-color="#FEB632"/>
<stop offset="1" stop-color="#FEA633"/>
</linearGradient>
<clipPath id="clip0_132_899">
<path d="M0 20C0 8.9543 8.95431 0 20 0H260C271.046 0 280 8.95431 280 20V220C280 231.046 271.046 240 260 240H20C8.95431 240 0 231.046 0 220V20Z" fill="white"/>
</clipPath>
<clipPath id="clip1_132_899">
<rect x="14.7644" y="141.393" width="254" height="56.1731" rx="19.4951" transform="rotate(1.8 14.7644 141.393)" fill="white"/>
</clipPath>
<clipPath id="clip2_132_899">
<rect width="15.6817" height="15.6817" fill="white" transform="translate(236.317 169.019) rotate(1.8)"/>
</clipPath>
<clipPath id="clip3_132_899">
<rect width="15.6817" height="15.6817" fill="white" transform="translate(235.8 110.912) rotate(-1.6)"/>
</clipPath>
<clipPath id="clip4_132_899">
<rect x="13" y="42" width="254" height="56.1731" rx="19.4951" fill="white"/>
</clipPath>
<clipPath id="clip5_132_899">
<rect width="15.6817" height="15.6817" fill="white" transform="translate(235.079 61.3807)"/>
</clipPath>
</defs>
</svg>
