<svg width="27" height="26" viewBox="0 0 27 26" fill="none" xmlns="http://www.w3.org/2000/svg">
<path d="M16.688 6.91876C16.688 5.06905 14.515 4.07467 13.1152 5.28385L9.5187 8.39069C9.12627 8.72969 8.62499 8.91623 8.1064 8.91623L6.4258 8.91625C4.93432 8.91626 3.72525 10.1253 3.72525 11.6168V15.174C3.72525 16.6655 4.93434 17.8746 6.42582 17.8746H8.10644C8.62503 17.8746 9.12631 18.0611 9.51875 18.4001L13.1152 21.5069C14.515 22.7161 16.688 21.7217 16.688 19.872V13.3954V6.91876Z" stroke="#5C8C83" stroke-width="2.16046"/>
<path d="M19.9286 16.6366C20.6069 15.7339 21.0089 14.6119 21.0089 13.396C21.0089 12.18 20.6069 11.058 19.9286 10.1553" stroke="#5C8C83" stroke-opacity="0.4" stroke-width="2.16046" stroke-linecap="round"/>
<path d="M22.0891 19.8773C23.4457 18.0719 24.2496 15.8277 24.2496 13.3959C24.2496 10.9641 23.4457 8.71996 22.0891 6.91455" stroke="#5C8C83" stroke-opacity="0.4" stroke-width="2.16046" stroke-linecap="round"/>
</svg>
