<svg width="32" height="32" viewBox="0 0 32 32" fill="none" xmlns="http://www.w3.org/2000/svg">
<path d="M15.2667 3.73143C15.3334 3.485 15.4949 3.27502 15.7161 3.14751C15.9372 3.02 16.1999 2.98535 16.4466 3.05116L28.671 6.32456C28.9182 6.3903 29.1292 6.55152 29.2575 6.77276C29.3858 6.99401 29.421 7.25717 29.3554 7.50437L24.6646 25.0045C24.598 25.2514 24.4361 25.4617 24.2145 25.5893C23.9929 25.7168 23.7297 25.7512 23.4827 25.6847L11.2583 22.4113C11.0114 22.3452 10.801 22.1838 10.6731 21.9626C10.5451 21.7414 10.5102 21.4785 10.576 21.2315L15.2667 3.73143Z" stroke="#5C8C83" stroke-width="3.04597" stroke-linecap="round" stroke-linejoin="round"/>
<path d="M14.3774 7.13892L3.70433 10.0001C3.45752 10.0663 3.24706 10.2277 3.11914 10.4489C2.99122 10.6701 2.95629 10.933 3.02203 11.1799L7.70876 28.68C7.77535 28.9269 7.93725 29.1372 8.15886 29.2648C8.38047 29.3924 8.64367 29.4267 8.8906 29.3603L15.0028 27.7236" stroke="#5C8C83" stroke-opacity="0.4" stroke-width="3.04597" stroke-linecap="round" stroke-linejoin="round"/>
</svg>
