<svg width="24" height="22" viewBox="0 0 24 22" fill="none" xmlns="http://www.w3.org/2000/svg">
<path d="M8.80974 13.9202L14.9197 2.8832C15.0037 2.7312 15.0877 2.5812 15.1637 2.4242C15.2327 2.2822 15.2907 2.1392 15.3287 1.9842C15.4087 1.6582 15.3867 1.3182 15.2627 1.0072C15.1423 0.700803 14.9245 0.442527 14.6427 0.272202C14.3663 0.104835 14.0411 0.0367539 13.7207 0.0792016C13.4007 0.122202 13.1077 0.273202 12.8767 0.509202C12.7667 0.619202 12.6767 0.744202 12.5937 0.877202C12.5017 1.0232 12.4187 1.1752 12.3347 1.3272L11.9487 2.0242L11.5617 1.3262C11.4777 1.1752 11.3947 1.0232 11.3027 0.877202C11.2217 0.744549 11.1268 0.620858 11.0197 0.508202C10.7943 0.274795 10.4972 0.123739 10.1757 0.0792016C9.85573 0.0369872 9.53089 0.10506 9.25474 0.272202C8.97302 0.442527 8.75516 0.700803 8.63474 1.0072C8.51118 1.31797 8.4881 1.65964 8.56874 1.9842C8.60674 2.1392 8.66475 2.2822 8.73275 2.4242C8.80875 2.5812 8.89274 2.7312 8.97674 2.8832L10.2247 5.1372L5.36274 13.9192H2.03074C1.86274 13.9192 1.69474 13.9192 1.52774 13.9292C1.37574 13.9382 1.22774 13.9572 1.07974 14.0002C0.769745 14.0902 0.497745 14.2802 0.301745 14.5482C0.105799 14.8179 0.000179845 15.1427 2.29472e-07 15.476C-0.000179387 15.8094 0.105089 16.1343 0.300745 16.4042C0.497745 16.6722 0.768745 16.8612 1.07974 16.9522C1.22774 16.9952 1.37574 17.0142 1.52774 17.0232C1.69474 17.0332 1.86274 17.0332 2.03074 17.0332H15.1277C15.1675 16.9457 15.2009 16.8555 15.2277 16.7632C15.6427 15.3472 14.6117 13.9192 13.1927 13.9192L8.80974 13.9202ZM3.11374 17.5422L2.32174 19.0422C2.23974 19.1982 2.15674 19.3522 2.08274 19.5132C2.01446 19.6582 1.96086 19.8096 1.92274 19.9652C1.8425 20.2983 1.86481 20.648 1.98674 20.9682C2.10774 21.2862 2.32074 21.5512 2.59374 21.7232C2.86674 21.8952 3.18274 21.9652 3.49474 21.9202C3.80874 21.8762 4.09474 21.7222 4.32074 21.4802C4.42874 21.3652 4.51674 21.2382 4.59874 21.1022C4.68874 20.9522 4.76974 20.7962 4.85174 20.6402L6.00074 18.4642C5.91074 18.3142 5.05374 16.9942 3.11374 17.5422ZM23.6997 14.5362C23.5068 14.2751 23.2329 14.0853 22.9207 13.9962C22.7746 13.9556 22.6243 13.9318 22.4727 13.9252C22.3047 13.9152 22.1377 13.9152 21.9697 13.9152H18.6487L14.2587 6.1002C13.6825 6.70476 13.3068 7.4723 13.1827 8.2982C13.0216 9.33116 13.214 10.3883 13.7287 11.2982L19.0027 20.6912C19.0867 20.8412 19.1697 20.9912 19.2617 21.1352C19.3457 21.2652 19.4357 21.3882 19.5447 21.4992C19.7757 21.7312 20.0687 21.8792 20.3897 21.9222C20.7107 21.9652 21.0327 21.8982 21.3117 21.7322C21.5923 21.5644 21.8104 21.3094 21.9327 21.0062C22.0577 20.6992 22.0787 20.3642 21.9987 20.0422C21.9592 19.8921 21.9039 19.7466 21.8337 19.6082C21.7587 19.4532 21.6737 19.3052 21.5897 19.1552L20.3737 16.9892H21.9697C22.1377 16.9892 22.3047 16.9892 22.4727 16.9802C22.6247 16.9712 22.7727 16.9522 22.9207 16.9102C23.2334 16.8211 23.5077 16.6308 23.7007 16.3692C23.8962 16.1038 24.0013 15.7828 24.0007 15.4532C24.0013 15.1236 23.8962 14.8026 23.7007 14.5372" fill="#5D5D5E"/>
</svg>
