<svg width="24" height="24" viewBox="0 0 24 24" fill="none" xmlns="http://www.w3.org/2000/svg">
<g clip-path="url(#clip0_29_1158)">
<path d="M8.80974 14.9202L14.9197 3.8832C15.0037 3.7312 15.0877 3.5812 15.1637 3.4242C15.2327 3.2822 15.2907 3.1392 15.3287 2.9842C15.4087 2.6582 15.3867 2.3182 15.2627 2.0072C15.1423 1.7008 14.9245 1.44253 14.6427 1.2722C14.3663 1.10484 14.0411 1.03675 13.7207 1.0792C13.4007 1.1222 13.1077 1.2732 12.8767 1.5092C12.7667 1.6192 12.6767 1.7442 12.5937 1.8772C12.5017 2.0232 12.4187 2.1752 12.3347 2.3272L11.9487 3.0242L11.5617 2.3262C11.4777 2.1752 11.3947 2.0232 11.3027 1.8772C11.2217 1.74455 11.1268 1.62086 11.0197 1.5082C10.7943 1.27479 10.4972 1.12374 10.1757 1.0792C9.85573 1.03699 9.53089 1.10506 9.25474 1.2722C8.97302 1.44253 8.75516 1.7008 8.63474 2.0072C8.51118 2.31797 8.4881 2.65964 8.56874 2.9842C8.60674 3.1392 8.66475 3.2822 8.73275 3.4242C8.80875 3.5812 8.89275 3.7312 8.97674 3.8832L10.2247 6.1372L5.36274 14.9192H2.03074C1.86274 14.9192 1.69474 14.9192 1.52774 14.9292C1.37574 14.9382 1.22774 14.9572 1.07974 15.0002C0.769745 15.0902 0.497745 15.2802 0.301745 15.5482C0.105799 15.8179 0.000179845 16.1427 2.29472e-07 16.476C-0.000179387 16.8094 0.105089 17.1343 0.300745 17.4042C0.497745 17.6722 0.768745 17.8612 1.07974 17.9522C1.22774 17.9952 1.37574 18.0142 1.52774 18.0232C1.69474 18.0332 1.86274 18.0332 2.03074 18.0332H15.1277C15.1675 17.9457 15.2009 17.8555 15.2277 17.7632C15.6427 16.3472 14.6117 14.9192 13.1927 14.9192L8.80974 14.9202ZM3.11374 18.5422L2.32174 20.0422C2.23974 20.1982 2.15674 20.3522 2.08274 20.5132C2.01446 20.6581 1.96086 20.8096 1.92274 20.9652C1.8425 21.2983 1.86481 21.648 1.98674 21.9682C2.10774 22.2862 2.32074 22.5512 2.59374 22.7232C2.86674 22.8952 3.18274 22.9652 3.49474 22.9202C3.80874 22.8762 4.09475 22.7222 4.32074 22.4802C4.42874 22.3652 4.51675 22.2382 4.59874 22.1022C4.68875 21.9522 4.76974 21.7962 4.85174 21.6402L6.00074 19.4642C5.91074 19.3142 5.05374 17.9942 3.11374 18.5422ZM23.6997 15.5362C23.5068 15.2751 23.2329 15.0853 22.9207 14.9962C22.7746 14.9556 22.6243 14.9318 22.4727 14.9252C22.3047 14.9152 22.1377 14.9152 21.9697 14.9152H18.6487L14.2587 7.1002C13.6825 7.70476 13.3068 8.4723 13.1827 9.2982C13.0216 10.3312 13.214 11.3883 13.7287 12.2982L19.0027 21.6912C19.0867 21.8412 19.1697 21.9912 19.2617 22.1352C19.3457 22.2652 19.4357 22.3882 19.5447 22.4992C19.7757 22.7312 20.0687 22.8792 20.3897 22.9222C20.7107 22.9652 21.0327 22.8982 21.3117 22.7322C21.5923 22.5644 21.8104 22.3094 21.9327 22.0062C22.0577 21.6992 22.0787 21.3642 21.9987 21.0422C21.9592 20.8921 21.9039 20.7466 21.8337 20.6082C21.7587 20.4532 21.6737 20.3052 21.5897 20.1552L20.3737 17.9892H21.9697C22.1377 17.9892 22.3047 17.9892 22.4727 17.9802C22.6247 17.9712 22.7727 17.9522 22.9207 17.9102C23.2334 17.8211 23.5077 17.6308 23.7007 17.3692C23.8962 17.1038 24.0013 16.7828 24.0007 16.4532C24.0013 16.1236 23.8962 15.8026 23.7007 15.5372" fill="white" fill-opacity="0.5"/>
</g>
<defs>
<clipPath id="clip0_29_1158">
<rect width="24" height="24" fill="white"/>
</clipPath>
</defs>
</svg>
