<svg width="36" height="36" viewBox="0 0 36 36" fill="none" xmlns="http://www.w3.org/2000/svg">
<path fill-rule="evenodd" clip-rule="evenodd" d="M9.44025 13.9393C8.89105 14.4885 8.85595 15.3576 9.33654 15.9467L9.44025 16.061L16.9391 23.5598C16.3898 23.0105 16.3557 22.1416 16.8365 21.5524L16.9402 21.4399L18.0004 20.3795L19.0608 21.4399L19.1645 21.5524C19.645 22.1415 19.6097 23.0106 19.0608 23.5598L18.9637 23.6488C18.4369 24.0914 17.6771 24.1147 17.1258 23.7185C17.6714 24.1108 18.4216 24.0929 18.9477 23.6635L18.9637 23.6488C18.997 23.6208 19.0294 23.5912 19.0608 23.5598L26.5607 16.061L26.6645 15.9467C27.1448 15.3576 27.1099 14.4884 26.5608 13.9393C26.0116 13.3902 25.1425 13.3553 24.5533 13.8356L24.4391 13.9393L18.0004 20.3795L11.5602 13.9393C10.9745 13.3539 10.026 13.3539 9.44025 13.9393Z" fill="#44474E"/>
<path d="M19.1645 21.5524L19.0608 21.4399L18.0004 20.3795L16.9402 21.4399L16.8365 21.5524C16.3557 22.1416 16.3898 23.0105 16.9391 23.5598C16.9876 23.6084 17.0387 23.6529 17.0918 23.6934C17.103 23.702 17.1144 23.7103 17.1258 23.7185C17.6771 24.1147 18.4369 24.0914 18.9637 23.6488L19.0608 23.5598C19.6097 23.0106 19.645 22.1415 19.1645 21.5524Z" fill="#44474E"/>
</svg>
