<svg width="22" height="24" viewBox="0 0 22 24" fill="none" xmlns="http://www.w3.org/2000/svg">
<path d="M21.0196 13.2978L17.1006 15.5158L13.5856 12.0228L17.1286 8.50178L21.0196 10.7038C21.2492 10.8336 21.4403 11.0221 21.5732 11.25C21.7061 11.4779 21.7762 11.737 21.7762 12.0008C21.7762 12.2646 21.7061 12.5237 21.5732 12.7515C21.4403 12.9794 21.2492 13.1679 21.0196 13.2978ZM0.338562 0.923776C0.264699 1.10404 0.226658 1.29697 0.226562 1.49178V22.5088C0.226562 22.7258 0.271562 22.9278 0.350562 23.1088L11.5056 12.0218L0.338562 0.923776ZM12.5456 10.9888L15.8036 7.75078L2.45156 0.194776C2.16526 0.0306085 1.83205 -0.0324416 1.50556 0.0157761L12.5456 10.9888ZM12.5456 13.0558L1.54556 23.9888C1.84356 24.0248 2.15756 23.9728 2.45156 23.8058L15.7756 16.2658L12.5456 13.0558Z" fill="#A1A2A4"/>
</svg>
