<svg width="24" height="24" viewBox="0 0 24 24" fill="none" xmlns="http://www.w3.org/2000/svg">
<path d="M22.0196 13.2978L18.1006 15.5158L14.5856 12.0228L18.1286 8.50178L22.0196 10.7038C22.2492 10.8336 22.4403 11.0221 22.5732 11.25C22.7061 11.4779 22.7762 11.737 22.7762 12.0008C22.7762 12.2646 22.7061 12.5237 22.5732 12.7515C22.4403 12.9794 22.2492 13.1679 22.0196 13.2978ZM1.33856 0.923776C1.2647 1.10404 1.22666 1.29697 1.22656 1.49178V22.5088C1.22656 22.7258 1.27156 22.9278 1.35056 23.1088L12.5056 12.0218L1.33856 0.923776ZM13.5456 10.9888L16.8036 7.75078L3.45156 0.194776C3.16526 0.0306085 2.83205 -0.0324416 2.50556 0.0157761L13.5456 10.9888ZM13.5456 13.0558L2.54556 23.9888C2.84356 24.0248 3.15756 23.9728 3.45156 23.8058L16.7756 16.2658L13.5456 13.0558Z" fill="#434449" fill-opacity="0.5"/>
</svg>
