<svg width="328" height="202" viewBox="0 0 328 202" fill="none" xmlns="http://www.w3.org/2000/svg">
<g opacity="0.4" filter="url(#filter0_d_165_1603)">
<g clip-path="url(#clip0_165_1603)">
<rect x="28.8894" y="106.436" width="272" height="60.1538" rx="20.8767" transform="rotate(1.8 28.8894 106.436)" fill="white" fill-opacity="0.04" shape-rendering="crispEdges"/>
<g filter="url(#filter1_dii_165_1603)">
<rect x="42.0811" y="121.77" width="29.8238" height="29.8238" rx="14.9119" transform="rotate(1.8 42.0811 121.77)" fill="url(#paint0_linear_165_1603)"/>
<rect x="42.0811" y="121.77" width="29.8238" height="29.8238" rx="14.9119" transform="rotate(1.8 42.0811 121.77)" fill="black" fill-opacity="0.03"/>
<rect x="43.1638" y="122.923" width="27.587" height="27.587" rx="13.7935" transform="rotate(1.8 43.1638 122.923)" stroke="white" stroke-opacity="0.65" stroke-width="2.23679"/>
<path d="M53.0159 143.746C52.5816 143.733 52.2407 143.37 52.2543 142.935C52.2658 142.571 52.5259 142.263 52.8829 142.189L55.2594 141.703L55.3059 140.225C54.7049 140.077 54.1724 139.817 53.7085 139.445C53.2446 139.072 52.9098 138.612 52.704 138.065C51.7813 137.931 51.3519 137.532 50.7494 136.85C50.1469 136.168 49.8594 135.381 49.887 134.489L49.9377 132.874C49.9464 132.6 50.1759 132.384 50.4503 132.393L52.5835 132.461L52.6121 131.55C52.6208 131.275 52.8502 131.06 53.1246 131.068L59.5395 131.27C59.8139 131.279 60.0293 131.508 60.0207 131.783L59.9921 132.693L62.1254 132.76C62.3998 132.769 62.6152 132.998 62.6066 133.273L62.5558 134.887C62.5278 135.779 62.1915 136.546 61.5469 137.19C60.9022 137.833 60.4488 138.203 59.5199 138.279C59.2807 138.812 58.9179 139.25 58.4315 139.593C57.9451 139.936 57.3971 140.162 56.7876 140.272L56.7411 141.75L59.0824 142.384C59.4341 142.48 59.6743 142.804 59.6629 143.168C59.6492 143.603 59.2862 143.944 58.8519 143.93L53.0159 143.746ZM52.4552 136.543L52.5393 133.868L51.3908 133.831L51.3687 134.535C51.3547 134.981 51.4779 135.387 51.7383 135.754C51.9987 136.12 52.2767 136.326 52.4552 136.543ZM59.8638 136.776C60.3131 136.637 60.3459 136.383 60.6288 136.033C60.9117 135.684 61.0601 135.286 61.0741 134.841L61.0962 134.137L59.9478 134.101L59.8638 136.776Z" fill="white" fill-opacity="0.92"/>
</g>
<path d="M93.975 144.884L93.0032 141.593L88.3659 141.447L87.1894 144.671L84.8664 144.598L89.7338 132.137L92.2751 132.216L96.3504 144.959L93.975 144.884ZM90.8777 134.402L88.9445 139.726L92.5251 139.838L90.9388 134.404L90.8777 134.402ZM97.5469 144.996L97.9429 132.394L100.117 132.463L99.7214 145.065L97.5469 144.996ZM101.625 145.125L101.916 135.867L104.091 135.936L103.8 145.193L101.625 145.125ZM103.037 134.688C102.365 134.666 101.849 134.126 101.869 133.471C101.89 132.807 102.439 132.3 103.112 132.321C103.793 132.342 104.309 132.883 104.288 133.547C104.268 134.202 103.718 134.709 103.037 134.688Z" fill="white"/>
<path d="M235.393 149.046C233.067 148.973 231.425 147.522 231.402 145.522L233.291 145.581C233.383 146.631 234.274 147.378 235.46 147.415C236.802 147.457 237.753 146.549 237.795 145.222C237.837 143.872 236.938 142.891 235.619 142.849C234.698 142.82 233.889 143.217 233.453 143.906L231.626 143.849L232.413 137.451L239.313 137.668L239.262 139.315L233.954 139.148L233.562 142.433L233.609 142.434C234.1 141.723 235.035 141.299 236.151 141.335C238.305 141.402 239.809 143.036 239.74 145.229C239.666 147.57 237.891 149.124 235.393 149.046ZM245.228 149.355C242.465 149.268 240.889 146.96 241.002 143.346C241.115 139.748 242.849 137.553 245.596 137.639C248.336 137.725 249.92 140.009 249.807 143.615C249.694 147.221 247.983 149.441 245.228 149.355ZM245.28 147.708C246.77 147.755 247.686 146.213 247.77 143.559C247.852 140.929 247.02 139.332 245.544 139.286C244.061 139.239 243.114 140.795 243.032 143.402C242.949 146.056 243.781 147.661 245.28 147.708ZM255.375 149.674C252.612 149.587 251.036 147.279 251.149 143.665C251.262 140.067 252.996 137.871 255.743 137.958C258.483 138.044 260.067 140.328 259.954 143.934C259.841 147.54 258.13 149.76 255.375 149.674ZM255.427 148.027C256.917 148.074 257.833 146.532 257.917 143.878C257.999 141.248 257.167 139.651 255.691 139.605C254.208 139.558 253.261 141.114 253.179 143.721C253.096 146.375 253.928 147.98 255.427 148.027Z" fill="white" fill-opacity="0.8"/>
<g clip-path="url(#clip1_165_1603)">
<path d="M281.005 143.83L279.29 143.268C277.787 142.775 276.665 141.642 276.312 140.261C276.324 142.08 275.632 145.237 270.81 146.374C271.521 146.945 272.03 147.702 272.247 148.553L273.131 152.015C273.345 152.855 274.683 152.897 274.949 152.072L276.048 148.672C276.487 147.316 277.678 146.255 279.209 145.858L280.956 145.405C281.821 145.18 281.854 144.108 281.005 143.83Z" fill="#FFEC40"/>
<path d="M276.312 140.261L275.429 136.799C275.215 135.958 273.877 135.916 273.611 136.741L272.512 140.141C272.073 141.498 270.882 142.558 269.351 142.956L267.604 143.409C266.739 143.633 266.705 144.705 267.555 144.984L269.27 145.546C269.847 145.735 270.368 146.018 270.81 146.374C275.632 145.237 276.324 142.08 276.312 140.261Z" fill="#FFF6A7"/>
<path d="M276.312 140.261L275.429 136.799C275.215 135.958 273.877 135.916 273.611 136.741L272.512 140.141C272.073 141.498 270.882 142.558 269.351 142.956L267.604 143.409C266.739 143.633 266.705 144.705 267.555 144.984L269.27 145.546C269.847 145.735 270.368 146.018 270.81 146.374C275.632 145.237 276.324 142.08 276.312 140.261Z" fill="white" fill-opacity="0.2"/>
</g>
</g>
<rect x="29.2503" y="106.821" width="271.254" height="59.4083" rx="20.5039" transform="rotate(1.8 29.2503 106.821)" stroke="white" stroke-opacity="0.08" stroke-width="0.745595" shape-rendering="crispEdges"/>
</g>
<g opacity="0.8" filter="url(#filter2_d_165_1603)">
<rect x="27" y="58.3345" width="272" height="57.5385" rx="20.8767" transform="rotate(-1.6 27 58.3345)" fill="white" fill-opacity="0.04" shape-rendering="crispEdges"/>
<rect x="27.3831" y="58.6967" width="271.254" height="56.7929" rx="20.5039" transform="rotate(-1.6 27.3831 58.6967)" stroke="white" stroke-opacity="0.08" stroke-width="0.745595" shape-rendering="crispEdges"/>
<path d="M224.043 88.7204L223.782 79.3764L223.735 79.3777L220.88 81.5042L220.827 79.6073L223.712 77.4565L225.703 77.4009L226.018 88.6652L224.043 88.7204ZM229.823 90.9416L228.332 90.9833L228.862 86.7264L230.759 86.6735L229.823 90.9416ZM232.377 80.5581C232.319 78.4817 233.94 76.9442 236.274 76.8791C238.522 76.8163 240.169 78.1452 240.22 79.9719C240.257 81.3145 239.489 82.3516 238.056 83.8838L235.346 86.7172L235.347 86.7562L240.577 86.6101L240.623 88.2572L232.708 88.4783L232.67 87.1201L236.7 82.8826C237.943 81.5432 238.279 80.9558 238.255 80.1127C238.229 79.1838 237.373 78.4655 236.257 78.4967C235.086 78.5294 234.235 79.3813 234.266 80.4975L234.267 80.5288L232.378 80.5815L232.377 80.5581ZM244.581 83.1234L244.539 81.609L245.897 81.5711C247.052 81.5388 247.821 80.8064 247.793 79.7994C247.765 78.8158 247.06 78.1793 245.795 78.2146C244.632 78.2471 243.871 78.948 243.822 80.0041L241.949 80.0564C242.001 78.0315 243.518 76.6767 245.844 76.6117C248.061 76.5498 249.672 77.7157 249.721 79.4721C249.76 80.8694 248.852 81.9026 247.469 82.1834L247.47 82.2302C249.16 82.308 250.281 83.3079 250.325 84.877C250.381 86.8675 248.607 88.2608 246.148 88.3295C243.674 88.3986 242.028 87.0852 241.87 85.0819L243.791 85.0282C243.913 86.056 244.775 86.7194 246.118 86.6819C247.414 86.6457 248.307 85.8942 248.278 84.856C248.246 83.7163 247.368 83.0456 245.971 83.0846L244.581 83.1234ZM254.432 82.8482L254.39 81.3338L255.748 81.2959C256.904 81.2636 257.672 80.5312 257.644 79.5242C257.617 78.5406 256.911 77.9041 255.647 77.9394C254.484 77.9719 253.722 78.6729 253.674 79.7289L251.8 79.7812C251.853 77.7564 253.37 76.4015 255.696 76.3366C257.913 76.2746 259.523 77.4405 259.573 79.1969C259.612 80.5942 258.703 81.6274 257.32 81.9082L257.322 81.955C259.011 82.0328 260.133 83.0327 260.177 84.6018C260.232 86.5924 258.459 87.9856 256 88.0543C253.525 88.1234 251.879 86.8101 251.722 84.8067L253.642 84.7531C253.764 85.7809 254.627 86.4443 255.969 86.4067C257.265 86.3706 258.158 85.6191 258.129 84.5808C258.097 83.4411 257.219 82.7704 255.822 82.8094L254.432 82.8482Z" fill="white" fill-opacity="0.8"/>
<g clip-path="url(#clip2_165_1603)">
<path d="M280.888 80.7107L279.143 80.2514C277.613 79.8488 276.426 78.784 275.992 77.4259C276.112 79.241 275.608 82.4344 270.862 83.8548C271.606 84.3826 272.159 85.108 272.426 85.9448L273.513 89.3484C273.777 90.1743 275.115 90.1369 275.332 89.2976L276.227 85.8386C276.584 84.4584 277.71 83.329 279.215 82.8416L280.932 82.2857C281.783 82.0103 281.753 80.9382 280.888 80.7107Z" fill="#FFEC40"/>
<path d="M275.992 77.4259L274.905 74.0223C274.641 73.1964 273.304 73.2338 273.086 74.0731L272.191 77.5321C271.834 78.9123 270.708 80.0417 269.203 80.5291L267.486 81.085C266.636 81.3604 266.666 82.4325 267.53 82.66L269.275 83.1193C269.862 83.2738 270.399 83.5259 270.862 83.8548C275.608 82.4344 276.112 79.241 275.992 77.4259Z" fill="#FFF6A7"/>
<path d="M275.992 77.4259L274.905 74.0223C274.641 73.1964 273.304 73.2338 273.086 74.0731L272.191 77.5321C271.834 78.9123 270.708 80.0417 269.203 80.5291L267.486 81.085C266.636 81.3604 266.666 82.4325 267.53 82.66L269.275 83.1193C269.862 83.2738 270.399 83.5259 270.862 83.8548C275.608 82.4344 276.112 79.241 275.992 77.4259Z" fill="white" fill-opacity="0.2"/>
</g>
<g filter="url(#filter3_dii_165_1603)">
<rect x="41.0781" y="72.8582" width="29.8238" height="29.8238" rx="14.9119" transform="rotate(-1.6 41.0781 72.8582)" fill="url(#paint1_linear_165_1603)"/>
<rect x="41.0781" y="72.8582" width="29.8238" height="29.8238" rx="14.9119" transform="rotate(-1.6 41.0781 72.8582)" fill="black" fill-opacity="0.03"/>
<rect x="42.2273" y="73.9449" width="27.587" height="27.587" rx="13.7935" transform="rotate(-1.6 42.2273 73.9449)" stroke="white" stroke-opacity="0.65" stroke-width="2.23679"/>
<path d="M53.2971 94.1475C52.8628 94.1596 52.5009 93.8174 52.4888 93.3831C52.4786 93.0188 52.72 92.6952 53.0721 92.6012L55.4155 91.975L55.3742 90.4968C54.7655 90.3846 54.2186 90.1564 53.7334 89.8121C53.2482 89.4678 52.8867 89.0287 52.6488 88.4948C51.7197 88.4151 51.2675 88.0426 50.6256 87.3974C49.9837 86.7522 49.6501 85.9836 49.6247 85.0915L49.5796 83.4768C49.5719 83.2024 49.7882 82.9737 50.0627 82.9661L52.1962 82.9071L52.1707 81.9961C52.1631 81.7217 52.3793 81.4931 52.6537 81.4854L59.0693 81.3062C59.3437 81.2985 59.5724 81.5148 59.58 81.7892L59.6055 82.7001L61.739 82.6405C62.0134 82.6329 62.2421 82.8491 62.2497 83.1235L62.2949 84.7383C62.3198 85.6299 62.0295 86.416 61.4242 87.0965C60.8189 87.777 60.3882 88.1734 59.4654 88.3044C59.2582 88.8503 58.922 89.3088 58.4568 89.6802C57.9917 90.0515 57.4581 90.3099 56.8561 90.4554L56.8974 91.9336L59.2721 92.428C59.6289 92.5023 59.8879 92.8119 59.8981 93.1762C59.9102 93.6104 59.568 93.9723 59.1337 93.9845L53.2971 94.1475ZM52.3102 86.9897L52.2355 84.3149L51.0869 84.3463L51.1065 85.0502C51.119 85.496 51.266 85.8941 51.5477 86.2445C51.8294 86.595 52.1191 86.7837 52.3102 86.9897ZM59.7195 86.7827C60.1598 86.6178 60.1775 86.3618 60.4391 85.9962C60.7008 85.6305 60.8254 85.2251 60.813 84.7797L60.7933 84.0758L59.6448 84.1079L59.7195 86.7827Z" fill="white" fill-opacity="0.92"/>
</g>
<path d="M94.1194 90.9533L94.1726 92.8573L86.015 93.0852L85.663 80.482L93.8206 80.2541L93.8738 82.1581L87.9696 82.3231L88.0647 85.7293L93.6458 85.5734L93.6958 87.3639L88.1147 87.5198L88.2152 91.1182L94.1194 90.9533ZM95.9107 92.8088L95.6521 83.5507L97.7395 83.4924L97.7844 85.0995L97.8281 85.0982C98.1999 84.0127 99.1583 83.2779 100.416 83.2428C101.726 83.2062 102.679 83.8526 103.053 85.031L103.106 85.0295C103.519 83.8729 104.6 83.126 105.936 83.0886C107.761 83.0376 108.992 84.2357 109.044 86.0873L109.221 92.437L107.047 92.4977L106.884 86.6809C106.852 85.5454 106.24 84.9157 105.175 84.9455C104.127 84.9747 103.432 85.7633 103.463 86.8726L103.623 92.5934L101.509 92.6524L101.344 86.722C101.315 85.6914 100.668 85.0714 99.655 85.0997C98.6069 85.1289 97.8959 85.9617 97.9271 87.0796L98.0855 92.748L95.9107 92.8088ZM111.021 92.3867L110.762 83.1286L112.937 83.0679L113.195 92.326L111.021 92.3867ZM111.811 81.8844C111.139 81.9031 110.591 81.394 110.573 80.7389C110.554 80.0751 111.072 79.5362 111.745 79.5174C112.426 79.4984 112.974 80.0076 112.992 80.6714C113.01 81.3264 112.492 81.8653 111.811 81.8844ZM115.021 92.275L114.762 83.0169L116.85 82.9586L116.895 84.5744L116.938 84.5732C117.221 83.4377 118.016 82.7687 119.107 82.7382C119.387 82.7304 119.633 82.776 119.791 82.8065L119.846 84.7717C119.661 84.7069 119.327 84.6638 118.96 84.674C117.729 84.7084 117.009 85.524 117.045 86.8253L117.196 92.2142L115.021 92.275Z" fill="white"/>
</g>
<g filter="url(#filter4_i_165_1603)">
<g clip-path="url(#clip3_165_1603)">
<rect x="27" width="272" height="60.1538" rx="20.8767" fill="url(#paint2_linear_165_1603)"/>
<g filter="url(#filter5_f_165_1603)">
<ellipse cx="162.775" cy="86.8618" rx="109.23" ry="52.5645" fill="#FFC619"/>
</g>
<g filter="url(#filter6_dii_165_1603)">
<rect x="40.4202" y="14.9121" width="29.8238" height="29.8238" rx="14.9119" fill="url(#paint3_linear_165_1603)"/>
<rect x="40.4202" y="14.9121" width="29.8238" height="29.8238" rx="14.9119" fill="black" fill-opacity="0.03"/>
<rect x="41.5386" y="16.0305" width="27.587" height="27.587" rx="13.7935" stroke="white" stroke-opacity="0.9" stroke-width="2.23679"/>
<path d="M52.0402 36.5343C51.6058 36.5343 51.2536 36.1821 51.2536 35.7476C51.2536 35.3832 51.5039 35.0665 51.8584 34.9822L54.2185 34.4217V32.943C53.6131 32.8139 53.0728 32.5705 52.5974 32.2127C52.122 31.855 51.7729 31.406 51.5501 30.8657C50.6235 30.76 50.1818 30.3751 49.5582 29.7122C48.9346 29.0494 48.6226 28.2717 48.6221 27.3793V25.764C48.6221 25.4894 48.8447 25.2668 49.1193 25.2669L51.2536 25.2675V24.3562C51.2536 24.0817 51.4761 23.8591 51.7506 23.8591H58.1687C58.4432 23.8591 58.6658 24.0817 58.6658 24.3562V25.2675H60.8001C61.0746 25.2675 61.2972 25.49 61.2972 25.7645V27.38C61.2972 28.272 60.9851 29.0496 60.361 29.7129C59.7369 30.3763 59.2953 30.7605 58.3693 30.8657C58.1469 31.4055 57.7981 31.8546 57.3227 32.2127C56.8473 32.5709 56.3067 32.8143 55.7009 32.943V34.4217L58.0609 34.9822C58.4155 35.0665 58.6658 35.3832 58.6658 35.7476C58.6658 36.1821 58.3136 36.5343 57.8791 36.5343H52.0402ZM51.2536 29.3517V26.6758L50.1045 26.6751V27.3793C50.1045 27.8253 50.2404 28.2274 50.5122 28.5855C50.784 28.9437 51.0683 29.1404 51.2536 29.3517ZM58.6658 29.3517C59.1105 29.1991 59.1353 28.9437 59.4071 28.5855C59.6789 28.2274 59.8147 27.8255 59.8147 27.38V26.6758H58.6658V29.3517Z" fill="white"/>
</g>
<path d="M87.0292 36.385H84.7749V23.7769H92.8134V25.6816H87.0292V29.4038H92.3154V31.2387H87.0292V36.385ZM97.1472 34.8909C98.3791 34.8909 99.3665 34.0696 99.3665 32.9512V32.2435L97.2258 32.3745C96.1773 32.4444 95.5744 32.9162 95.5744 33.6502C95.5744 34.4103 96.2035 34.8909 97.1472 34.8909ZM96.4918 36.5335C94.7007 36.5335 93.3988 35.4064 93.3988 33.7376C93.3988 32.0949 94.6657 31.1076 96.92 30.9678L99.3665 30.828V30.164C99.3665 29.1941 98.7112 28.6349 97.6365 28.6349C96.6054 28.6349 95.9501 29.1329 95.8103 29.9018H93.792C93.8881 28.1718 95.3647 26.9311 97.7238 26.9311C100.022 26.9311 101.516 28.1456 101.516 30.0067V36.385H99.4189V34.9084H99.3752C98.8422 35.9132 97.6801 36.5335 96.4918 36.5335ZM103.875 24.9564H106.051V27.1233H107.798V28.8009H106.051V33.6152C106.051 34.3754 106.4 34.7249 107.169 34.7249C107.37 34.7249 107.65 34.7074 107.789 34.6812V36.3413C107.553 36.3937 107.125 36.4287 106.662 36.4287C104.661 36.4287 103.875 35.721 103.875 33.9211V28.8009H102.547V27.1233H103.875V24.9564ZM109.336 36.385V27.1233H111.512V36.385H109.336ZM110.419 25.9088C109.747 25.9088 109.214 25.3846 109.214 24.7293C109.214 24.0652 109.747 23.541 110.419 23.541C111.101 23.541 111.634 24.0652 111.634 24.7293C111.634 25.3846 111.101 25.9088 110.419 25.9088ZM113.338 36.385V27.1233H115.426V28.731H115.47C115.871 27.6563 116.85 26.9486 118.108 26.9486C119.419 26.9486 120.354 27.6214 120.695 28.8096H120.747C121.193 27.665 122.294 26.9486 123.63 26.9486C125.456 26.9486 126.653 28.1806 126.653 30.0329V36.385H124.478V30.5659C124.478 29.43 123.884 28.7834 122.818 28.7834C121.769 28.7834 121.053 29.5523 121.053 30.662V36.385H118.938V30.4523C118.938 29.4213 118.309 28.7834 117.296 28.7834C116.247 28.7834 115.513 29.596 115.513 30.7144V36.385H113.338ZM131.782 34.8909C133.014 34.8909 134.002 34.0696 134.002 32.9512V32.2435L131.861 32.3745C130.813 32.4444 130.21 32.9162 130.21 33.6502C130.21 34.4103 130.839 34.8909 131.782 34.8909ZM131.127 36.5335C129.336 36.5335 128.034 35.4064 128.034 33.7376C128.034 32.0949 129.301 31.1076 131.555 30.9678L134.002 30.828V30.164C134.002 29.1941 133.346 28.6349 132.272 28.6349C131.241 28.6349 130.585 29.1329 130.446 29.9018H128.427C128.523 28.1718 130 26.9311 132.359 26.9311C134.657 26.9311 136.151 28.1456 136.151 30.0067V36.385H134.054V34.9084H134.01C133.477 35.9132 132.315 36.5335 131.127 36.5335Z" fill="#AC730A"/>
<path d="M220.096 30.1562V28.6412H221.455C222.611 28.6412 223.399 27.9305 223.399 26.9231C223.399 25.9392 222.712 25.2832 221.447 25.2832C220.283 25.2832 219.503 25.9626 219.424 27.0168H217.55C217.66 24.9943 219.214 23.6823 221.541 23.6823C223.759 23.6823 225.336 24.8927 225.336 26.6498C225.336 28.0477 224.399 29.0551 223.009 29.2971V29.344C224.696 29.4689 225.789 30.4998 225.789 32.0694C225.789 34.0608 223.977 35.404 221.517 35.404C219.042 35.404 217.433 34.0452 217.332 32.0382H219.253C219.346 33.069 220.19 33.7562 221.533 33.7562C222.829 33.7562 223.743 33.03 223.743 31.9913C223.743 30.8512 222.884 30.1562 221.486 30.1562H220.096ZM228.569 37.5593H227.077L227.726 33.3189H229.623L228.569 37.5593ZM231.412 27.2511C231.412 25.1739 233.075 23.6823 235.41 23.6823C237.659 23.6823 239.268 25.0567 239.268 26.8841C239.268 28.2273 238.471 29.2425 236.995 30.734L234.207 33.4907V33.5297H239.439V35.1775H231.521V33.8187L235.668 29.6954C236.948 28.3913 237.3 27.8134 237.3 26.97C237.3 26.0407 236.464 25.2988 235.347 25.2988C234.176 25.2988 233.301 26.1266 233.301 27.2433V27.2746H231.412V27.2511ZM244.89 35.404C242.821 35.404 241.204 34.1701 240.884 32.3584H242.883C243.133 33.2096 243.938 33.7718 244.922 33.7718C246.585 33.7718 247.585 32.21 247.553 29.4846C247.553 29.4846 247.545 29.4846 247.538 29.4846H247.53H247.522C247.085 30.5857 245.929 31.3275 244.469 31.3275C242.329 31.3275 240.728 29.7423 240.728 27.6025C240.728 25.3222 242.501 23.6745 244.937 23.6745C246.593 23.6745 247.936 24.471 248.686 25.9079C249.217 26.8294 249.49 28.0086 249.49 29.4143C249.49 33.1705 247.78 35.404 244.89 35.404ZM244.945 29.7501C246.234 29.7501 247.21 28.813 247.21 27.5713C247.21 26.314 246.226 25.3301 244.961 25.3301C243.703 25.3301 242.712 26.3062 242.712 27.5401C242.712 28.813 243.664 29.7501 244.945 29.7501ZM255.12 35.404C252.793 35.404 251.106 34.0061 251.021 32.0069H252.91C253.035 33.0534 253.949 33.7718 255.136 33.7718C256.479 33.7718 257.401 32.8347 257.401 31.5072C257.401 30.1562 256.471 29.2034 255.152 29.2034C254.23 29.2034 253.434 29.6251 253.02 30.328H251.192L251.778 23.9088H258.681V25.5565H253.371L253.082 28.852H253.129C253.598 28.1258 254.519 27.6728 255.636 27.6728C257.791 27.6728 259.345 29.2581 259.345 31.4525C259.345 33.7953 257.619 35.404 255.12 35.404Z" fill="white"/>
<g clip-path="url(#clip4_165_1603)">
<path d="M279.916 28.2316L278.184 27.7238C276.666 27.2787 275.509 26.1812 275.113 24.8114C275.182 26.6291 274.589 29.8073 269.806 31.0946C270.534 31.6429 271.067 32.3835 271.311 33.2274L272.302 36.66C272.543 37.493 273.881 37.493 274.122 36.66L275.113 33.2274C275.509 31.8577 276.666 30.7602 278.184 30.3151L279.916 29.8073C280.773 29.5557 280.773 28.4832 279.916 28.2316Z" fill="#FFEC40"/>
<path d="M275.113 24.8114L274.122 21.3789C273.881 20.5459 272.543 20.5459 272.302 21.3789L271.311 24.8114C270.915 26.1812 269.758 27.2787 268.24 27.7238L266.508 28.2316C265.651 28.4832 265.651 29.5557 266.508 29.8073L268.24 30.3151C268.823 30.4859 269.352 30.7529 269.806 31.0946C274.589 29.8073 275.182 26.6291 275.113 24.8114Z" fill="#FFF6A7"/>
<path d="M275.113 24.8114L274.122 21.3789C273.881 20.5459 272.543 20.5459 272.302 21.3789L271.311 24.8114C270.915 26.1812 269.758 27.2787 268.24 27.7238L266.508 28.2316C265.651 28.4832 265.651 29.5557 266.508 29.8073L268.24 30.3151C268.823 30.4859 269.352 30.7529 269.806 31.0946C274.589 29.8073 275.182 26.6291 275.113 24.8114Z" fill="white" fill-opacity="0.2"/>
</g>
</g>
<rect x="27.7456" y="0.745595" width="270.509" height="58.6627" rx="20.1311" stroke="#FFE9CB" stroke-opacity="0.6" stroke-width="1.49119"/>
</g>
<defs>
<filter id="filter0_d_165_1603" x="-0.139662" y="79.2966" width="328.034" height="122.947" filterUnits="userSpaceOnUse" color-interpolation-filters="sRGB">
<feFlood flood-opacity="0" result="BackgroundImageFix"/>
<feColorMatrix in="SourceAlpha" type="matrix" values="0 0 0 0 0 0 0 0 0 0 0 0 0 0 0 0 0 0 127 0" result="hardAlpha"/>
<feOffset/>
<feGaussianBlur stdDeviation="13.5698"/>
<feComposite in2="hardAlpha" operator="out"/>
<feColorMatrix type="matrix" values="0 0 0 0 0 0 0 0 0 0 0 0 0 0 0 0 0 0 0.25 0"/>
<feBlend mode="normal" in2="BackgroundImageFix" result="effect1_dropShadow_165_1603"/>
<feBlend mode="normal" in="SourceGraphic" in2="effect1_dropShadow_165_1603" result="shape"/>
</filter>
<filter id="filter1_dii_165_1603" x="29.6621" y="111.779" width="53.7102" height="53.7102" filterUnits="userSpaceOnUse" color-interpolation-filters="sRGB">
<feFlood flood-opacity="0" result="BackgroundImageFix"/>
<feColorMatrix in="SourceAlpha" type="matrix" values="0 0 0 0 0 0 0 0 0 0 0 0 0 0 0 0 0 0 127 0" result="hardAlpha"/>
<feOffset dy="1.49119"/>
<feGaussianBlur stdDeviation="5.74108"/>
<feComposite in2="hardAlpha" operator="out"/>
<feColorMatrix type="matrix" values="0 0 0 0 0 0 0 0 0 0 0 0 0 0 0 0 0 0 0.25 0"/>
<feBlend mode="normal" in2="BackgroundImageFix" result="effect1_dropShadow_165_1603"/>
<feBlend mode="normal" in="SourceGraphic" in2="effect1_dropShadow_165_1603" result="shape"/>
<feColorMatrix in="SourceAlpha" type="matrix" values="0 0 0 0 0 0 0 0 0 0 0 0 0 0 0 0 0 0 127 0" result="hardAlpha"/>
<feOffset dy="2.98238"/>
<feGaussianBlur stdDeviation="2.16223"/>
<feComposite in2="hardAlpha" operator="arithmetic" k2="-1" k3="1"/>
<feColorMatrix type="matrix" values="0 0 0 0 1 0 0 0 0 1 0 0 0 0 1 0 0 0 0.66 0"/>
<feBlend mode="normal" in2="shape" result="effect2_innerShadow_165_1603"/>
<feColorMatrix in="SourceAlpha" type="matrix" values="0 0 0 0 0 0 0 0 0 0 0 0 0 0 0 0 0 0 127 0" result="hardAlpha"/>
<feOffset dy="-4.47357"/>
<feGaussianBlur stdDeviation="4.47357"/>
<feComposite in2="hardAlpha" operator="arithmetic" k2="-1" k3="1"/>
<feColorMatrix type="matrix" values="0 0 0 0 1 0 0 0 0 1 0 0 0 0 1 0 0 0 0.37 0"/>
<feBlend mode="normal" in2="effect2_innerShadow_165_1603" result="effect3_innerShadow_165_1603"/>
</filter>
<filter id="filter2_d_165_1603" x="-0.139662" y="23.6001" width="327.78" height="119.39" filterUnits="userSpaceOnUse" color-interpolation-filters="sRGB">
<feFlood flood-opacity="0" result="BackgroundImageFix"/>
<feColorMatrix in="SourceAlpha" type="matrix" values="0 0 0 0 0 0 0 0 0 0 0 0 0 0 0 0 0 0 127 0" result="hardAlpha"/>
<feOffset/>
<feGaussianBlur stdDeviation="13.5698"/>
<feComposite in2="hardAlpha" operator="out"/>
<feColorMatrix type="matrix" values="0 0 0 0 0 0 0 0 0 0 0 0 0 0 0 0 0 0 0.25 0"/>
<feBlend mode="normal" in2="BackgroundImageFix" result="effect1_dropShadow_165_1603"/>
<feBlend mode="normal" in="SourceGraphic" in2="effect1_dropShadow_165_1603" result="shape"/>
</filter>
<filter id="filter3_dii_165_1603" x="29.596" y="62.0344" width="53.6094" height="53.6094" filterUnits="userSpaceOnUse" color-interpolation-filters="sRGB">
<feFlood flood-opacity="0" result="BackgroundImageFix"/>
<feColorMatrix in="SourceAlpha" type="matrix" values="0 0 0 0 0 0 0 0 0 0 0 0 0 0 0 0 0 0 127 0" result="hardAlpha"/>
<feOffset dy="1.49119"/>
<feGaussianBlur stdDeviation="5.74108"/>
<feComposite in2="hardAlpha" operator="out"/>
<feColorMatrix type="matrix" values="0 0 0 0 0 0 0 0 0 0 0 0 0 0 0 0 0 0 0.25 0"/>
<feBlend mode="normal" in2="BackgroundImageFix" result="effect1_dropShadow_165_1603"/>
<feBlend mode="normal" in="SourceGraphic" in2="effect1_dropShadow_165_1603" result="shape"/>
<feColorMatrix in="SourceAlpha" type="matrix" values="0 0 0 0 0 0 0 0 0 0 0 0 0 0 0 0 0 0 127 0" result="hardAlpha"/>
<feOffset dy="2.98238"/>
<feGaussianBlur stdDeviation="2.16223"/>
<feComposite in2="hardAlpha" operator="arithmetic" k2="-1" k3="1"/>
<feColorMatrix type="matrix" values="0 0 0 0 1 0 0 0 0 1 0 0 0 0 1 0 0 0 0.66 0"/>
<feBlend mode="normal" in2="shape" result="effect2_innerShadow_165_1603"/>
<feColorMatrix in="SourceAlpha" type="matrix" values="0 0 0 0 0 0 0 0 0 0 0 0 0 0 0 0 0 0 127 0" result="hardAlpha"/>
<feOffset dy="-4.47357"/>
<feGaussianBlur stdDeviation="4.47357"/>
<feComposite in2="hardAlpha" operator="arithmetic" k2="-1" k3="1"/>
<feColorMatrix type="matrix" values="0 0 0 0 1 0 0 0 0 1 0 0 0 0 1 0 0 0 0.37 0"/>
<feBlend mode="normal" in2="effect2_innerShadow_165_1603" result="effect3_innerShadow_165_1603"/>
</filter>
<filter id="filter4_i_165_1603" x="27" y="0" width="272" height="60.1538" filterUnits="userSpaceOnUse" color-interpolation-filters="sRGB">
<feFlood flood-opacity="0" result="BackgroundImageFix"/>
<feBlend mode="normal" in="SourceGraphic" in2="BackgroundImageFix" result="shape"/>
<feColorMatrix in="SourceAlpha" type="matrix" values="0 0 0 0 0 0 0 0 0 0 0 0 0 0 0 0 0 0 127 0" result="hardAlpha"/>
<feMorphology radius="8.94714" operator="erode" in="SourceAlpha" result="effect1_innerShadow_165_1603"/>
<feOffset/>
<feGaussianBlur stdDeviation="12.6378"/>
<feComposite in2="hardAlpha" operator="arithmetic" k2="-1" k3="1"/>
<feColorMatrix type="matrix" values="0 0 0 0 1 0 0 0 0 0.913725 0 0 0 0 0.796078 0 0 0 0.38 0"/>
<feBlend mode="normal" in2="shape" result="effect1_innerShadow_165_1603"/>
</filter>
<filter id="filter5_f_165_1603" x="8.73539" y="-10.5129" width="308.08" height="194.749" filterUnits="userSpaceOnUse" color-interpolation-filters="sRGB">
<feFlood flood-opacity="0" result="BackgroundImageFix"/>
<feBlend mode="normal" in="SourceGraphic" in2="BackgroundImageFix" result="shape"/>
<feGaussianBlur stdDeviation="22.4051" result="effect1_foregroundBlur_165_1603"/>
</filter>
<filter id="filter6_dii_165_1603" x="28.938" y="4.92113" width="52.7881" height="52.7881" filterUnits="userSpaceOnUse" color-interpolation-filters="sRGB">
<feFlood flood-opacity="0" result="BackgroundImageFix"/>
<feColorMatrix in="SourceAlpha" type="matrix" values="0 0 0 0 0 0 0 0 0 0 0 0 0 0 0 0 0 0 127 0" result="hardAlpha"/>
<feOffset dy="1.49119"/>
<feGaussianBlur stdDeviation="5.74108"/>
<feComposite in2="hardAlpha" operator="out"/>
<feColorMatrix type="matrix" values="0 0 0 0 0 0 0 0 0 0 0 0 0 0 0 0 0 0 0.25 0"/>
<feBlend mode="normal" in2="BackgroundImageFix" result="effect1_dropShadow_165_1603"/>
<feBlend mode="normal" in="SourceGraphic" in2="effect1_dropShadow_165_1603" result="shape"/>
<feColorMatrix in="SourceAlpha" type="matrix" values="0 0 0 0 0 0 0 0 0 0 0 0 0 0 0 0 0 0 127 0" result="hardAlpha"/>
<feOffset dy="2.98238"/>
<feGaussianBlur stdDeviation="2.16223"/>
<feComposite in2="hardAlpha" operator="arithmetic" k2="-1" k3="1"/>
<feColorMatrix type="matrix" values="0 0 0 0 1 0 0 0 0 1 0 0 0 0 1 0 0 0 0.66 0"/>
<feBlend mode="normal" in2="shape" result="effect2_innerShadow_165_1603"/>
<feColorMatrix in="SourceAlpha" type="matrix" values="0 0 0 0 0 0 0 0 0 0 0 0 0 0 0 0 0 0 127 0" result="hardAlpha"/>
<feOffset dy="-4.47357"/>
<feGaussianBlur stdDeviation="4.47357"/>
<feComposite in2="hardAlpha" operator="arithmetic" k2="-1" k3="1"/>
<feColorMatrix type="matrix" values="0 0 0 0 1 0 0 0 0 1 0 0 0 0 1 0 0 0 0.37 0"/>
<feBlend mode="normal" in2="effect2_innerShadow_165_1603" result="effect3_innerShadow_165_1603"/>
</filter>
<linearGradient id="paint0_linear_165_1603" x1="56.993" y1="121.77" x2="25.5714" y2="164.375" gradientUnits="userSpaceOnUse">
<stop stop-color="#D6C973"/>
<stop offset="1" stop-color="#9A5D0E"/>
</linearGradient>
<linearGradient id="paint1_linear_165_1603" x1="55.99" y1="72.8582" x2="24.5685" y2="115.464" gradientUnits="userSpaceOnUse">
<stop stop-color="#747BB6"/>
<stop offset="1" stop-color="#626392"/>
</linearGradient>
<linearGradient id="paint2_linear_165_1603" x1="27" y1="30.0769" x2="299" y2="30.0769" gradientUnits="userSpaceOnUse">
<stop stop-color="#FEE549"/>
<stop offset="0.524038" stop-color="#FFBC3A"/>
<stop offset="1" stop-color="#FE9C2E"/>
</linearGradient>
<linearGradient id="paint3_linear_165_1603" x1="55.3321" y1="14.9121" x2="23.9106" y2="57.5176" gradientUnits="userSpaceOnUse">
<stop stop-color="#FEB632"/>
<stop offset="1" stop-color="#FEA633"/>
</linearGradient>
<clipPath id="clip0_165_1603">
<rect x="28.8894" y="106.436" width="272" height="60.1538" rx="20.8767" transform="rotate(1.8 28.8894 106.436)" fill="white"/>
</clipPath>
<clipPath id="clip1_165_1603">
<rect width="16.793" height="16.793" fill="white" transform="translate(266.147 135.882) rotate(1.8)"/>
</clipPath>
<clipPath id="clip2_165_1603">
<rect width="16.793" height="16.793" fill="white" transform="translate(265.586 73.658) rotate(-1.6)"/>
</clipPath>
<clipPath id="clip3_165_1603">
<rect x="27" width="272" height="60.1538" rx="20.8767" fill="white"/>
</clipPath>
<clipPath id="clip4_165_1603">
<rect width="16.793" height="16.793" fill="white" transform="translate(264.816 20.7542)"/>
</clipPath>
</defs>
</svg>
